<svg width="298" height="298" viewBox="0 0 298 298" fill="none" xmlns="http://www.w3.org/2000/svg">
<g clip-path="url(#clip0_121_2027)">
<path d="M85.5321 88.8911L93.8879 95.934L92.2798 97.8372L86.6312 93.0843L91.6386 98.6006L90.4987 99.944L84.3107 96.0969L89.827 100.748L88.2088 102.641L79.8428 95.5982L82.2142 92.7891C82.7943 93.125 83.4558 93.5423 84.2497 94.0206L86.6414 95.5066L83.12 91.7205L85.5321 88.8911Z" fill="white"/>
<path d="M90.5505 84.0771L99.2829 90.8554L97.1761 92.891L95.7106 91.578L94.9778 92.2803L96.2093 93.8171L94.0923 95.8526L87.5889 86.9472L90.5505 84.0771ZM94.3162 90.1837C93.3595 89.3899 92.1993 88.3721 90.8355 87.1304C92.0772 88.8403 93.0033 90.0718 93.614 90.8249L94.3162 90.1837Z" fill="white"/>
<path d="M92.6973 82.0926L94.3664 80.7796C95.0759 80.1719 95.8467 79.6398 96.6665 79.192C97.0556 79.0055 97.4912 78.9382 97.9184 78.9986C98.2757 79.0623 98.6096 79.2204 98.8852 79.4566C99.3818 79.9475 99.8411 80.4748 100.259 81.0341L102.631 84.0873C103.058 84.5907 103.433 85.1363 103.75 85.7158C103.877 85.9998 103.913 86.3164 103.852 86.6216C103.774 86.9283 103.628 87.2136 103.424 87.4561C103.085 87.8347 102.707 88.1759 102.295 88.4739L99.4857 90.7028L92.6973 82.0926ZM96.0966 81.7974L100.554 87.4358C100.88 87.1813 101.023 86.9574 100.992 86.7742C100.825 86.3521 100.58 85.9654 100.269 85.6343L97.6334 82.3063C97.4456 82.0496 97.238 81.808 97.0126 81.5837C96.9614 81.5431 96.9026 81.5132 96.8397 81.4957C96.7767 81.4782 96.7109 81.4735 96.6462 81.4819C96.4409 81.5428 96.2527 81.6508 96.0966 81.7974Z" fill="white"/>
<path d="M99.3438 76.9526L103.293 74.3369L104.504 76.1689L102.916 77.1866L104.066 78.9168L105.542 77.8991L106.692 79.6394L105.206 80.6572L106.539 82.6927L108.28 81.5427L109.481 83.3644L105.41 86.0819L99.3438 76.9526Z" fill="white"/>
<path d="M116.401 67.7217L122.233 77.1054L119.567 78.2657L118.651 76.5151L117.714 76.9222L118.345 78.7949L115.689 80.006L112.636 69.3908L116.401 67.7217ZM117.816 74.7748C117.185 73.6959 116.452 72.3423 115.587 70.7037C116.157 72.7392 116.605 74.2252 116.91 75.1412L117.816 74.7748Z" fill="white"/>
<path d="M123.668 65.106L124.381 67.1415L122.793 67.6911L125.643 75.9655L122.956 76.8916L120.096 68.6172L118.508 69.1668L117.796 67.1313L123.668 65.106Z" fill="white"/>
<path d="M141.021 61.5845L141.469 72.5763L137.957 73.1259C137.381 71.5178 136.801 69.6757 136.217 67.5994C136.217 68.5256 136.288 70.4492 136.329 73.3803L132.838 73.9299L129.938 63.335L132.665 62.9076L133.551 66.6224L134.416 70.2253C134.226 68.3254 134.097 65.815 134.029 62.6938L136.94 62.2358C137.031 62.5412 137.316 63.7116 137.805 65.7471L138.761 69.8182C138.507 67.172 138.375 64.5767 138.344 62.0221L141.021 61.5845Z" fill="white"/>
<path d="M149.346 67.793C149.346 68.882 149.346 69.6657 149.346 70.1237C149.309 70.5777 149.159 71.0152 148.909 71.3959C148.638 71.7904 148.265 72.1036 147.83 72.3017C147.324 72.5322 146.777 72.6569 146.222 72.6681C145.682 72.6927 145.143 72.6133 144.634 72.434C144.197 72.2742 143.809 72.0019 143.511 71.6445C143.212 71.2871 143.013 70.8573 142.934 70.3985C142.835 69.615 142.777 68.8268 142.761 68.0373L142.7 66.1646C142.7 65.0654 142.7 64.2919 142.7 63.8339C142.736 63.3781 142.891 62.9396 143.148 62.5617C143.412 62.1654 143.782 61.8515 144.217 61.6559C144.72 61.4205 145.269 61.2956 145.825 61.2895C146.364 61.2649 146.903 61.3444 147.412 61.5236C147.852 61.6797 148.242 61.9509 148.541 62.309C148.84 62.667 149.037 63.0988 149.112 63.5591C149.212 64.3426 149.269 65.1308 149.285 65.9203L149.346 67.793ZM146.374 64.3021C146.391 63.9591 146.353 63.6156 146.262 63.2844C146.232 63.2177 146.181 63.1628 146.117 63.1279C146.052 63.093 145.978 63.08 145.906 63.091C145.839 63.0864 145.771 63.1012 145.712 63.1337C145.652 63.1661 145.603 63.2149 145.57 63.2742C145.473 63.6041 145.445 63.9507 145.489 64.2919L145.672 69.3807C145.662 69.7745 145.703 70.168 145.794 70.5511C145.82 70.6247 145.871 70.6866 145.938 70.7258C146.005 70.765 146.084 70.7789 146.161 70.7649C146.242 70.7681 146.323 70.7438 146.389 70.6958C146.456 70.6478 146.504 70.579 146.527 70.5003C146.566 70.0907 146.566 69.6783 146.527 69.2688L146.374 64.3021Z" fill="white"/>
<path d="M150.964 61.3711L152.999 61.483C153.909 61.5081 154.815 61.6137 155.707 61.7986C156.175 61.9299 156.576 62.2358 156.826 62.6535C157.132 63.2852 157.246 63.9932 157.152 64.689C157.176 65.2803 157.031 65.8662 156.735 66.3785C156.567 66.5399 156.366 66.664 156.147 66.743C155.928 66.8219 155.695 66.8537 155.462 66.8365C155.884 66.9262 156.267 67.1429 156.562 67.4573C156.713 67.6542 156.823 67.879 156.887 68.1188C156.925 68.6576 156.925 69.1983 156.887 69.7371L156.724 72.6173L154.088 72.4647L154.302 68.8415C154.359 68.4736 154.331 68.0977 154.221 67.7423C154.139 67.5998 153.905 67.5184 153.508 67.498L153.223 72.4138L150.384 72.251L150.964 61.3711ZM153.692 63.4066L153.549 65.8391C153.78 65.8734 154.017 65.8416 154.231 65.7475C154.363 65.666 154.445 65.3811 154.465 64.9027V64.3022C154.489 64.1826 154.487 64.0594 154.461 63.9403C154.435 63.8212 154.384 63.7088 154.312 63.6102C154.135 63.4723 153.916 63.3971 153.692 63.3964V63.4066Z" fill="white"/>
<path d="M161.885 62.3482L160.674 71.0093L162.384 71.2536L162.078 73.4214L157.56 72.7802L159.066 61.9614L161.885 62.3482Z" fill="white"/>
<path d="M164.999 62.8159L167.035 63.2841C167.951 63.4584 168.848 63.7243 169.711 64.0779C170.103 64.2622 170.429 64.5601 170.648 64.9329C170.82 65.2441 170.908 65.595 170.902 65.9506C170.824 66.6364 170.702 67.3163 170.536 67.9861L169.691 71.7213C169.575 72.3689 169.383 73.0007 169.121 73.6042C168.982 73.8841 168.758 74.1123 168.48 74.2555C168.195 74.3938 167.881 74.4635 167.564 74.4591C167.052 74.4283 166.545 74.3499 166.048 74.225L162.557 73.4413L164.999 62.8159ZM167.36 65.2687L165.783 72.2811C166.18 72.3727 166.444 72.3421 166.567 72.2098C166.792 71.8138 166.941 71.3787 167.004 70.9275L167.941 66.7852C168.023 66.4786 168.077 66.1652 168.103 65.8488C168.105 65.7845 168.093 65.7205 168.068 65.661C168.044 65.6014 168.007 65.5476 167.961 65.5028C167.784 65.3741 167.578 65.2935 167.36 65.2687Z" fill="white"/>
<path d="M178.342 66.4395L180.998 67.4572C181.563 67.6609 182.098 67.9417 182.586 68.2918C182.887 68.5006 183.123 68.7897 183.268 69.1263C183.382 69.4247 183.41 69.7491 183.349 70.0627C183.245 70.5573 183.095 71.0411 182.901 71.5079L182.545 72.3934C182.384 72.8849 182.124 73.3385 181.782 73.7266C181.504 73.9816 181.141 74.1233 180.764 74.1235C180.248 74.1189 179.739 74.008 179.268 73.7979L178.555 73.5231L176.927 77.5941L174.291 76.5763L178.342 66.4395ZM180.286 69.2281L179.268 71.8132C179.33 71.8454 179.395 71.8726 179.461 71.8946C179.551 71.9395 179.651 71.9628 179.751 71.9628C179.852 71.9628 179.951 71.9395 180.041 71.8946C180.251 71.711 180.403 71.4706 180.479 71.2026L180.805 70.368C180.931 70.1421 180.971 69.8781 180.917 69.625C180.754 69.4286 180.533 69.2895 180.286 69.2281Z" fill="white"/>
<path d="M185.497 69.3706L187.288 70.2866C188.114 70.6747 188.904 71.1344 189.649 71.6606C190.026 71.9717 190.267 72.4169 190.321 72.9022C190.35 73.6168 190.169 74.3242 189.802 74.9377C189.596 75.4839 189.244 75.9628 188.784 76.3219C188.566 76.4011 188.333 76.433 188.102 76.4155C187.87 76.3979 187.645 76.3313 187.441 76.2201C187.786 76.4786 188.048 76.8324 188.194 77.2379C188.243 77.4796 188.243 77.7289 188.194 77.9707C188.008 78.479 187.783 78.9723 187.522 79.4464L186.189 82.0417L183.879 80.8L185.527 77.5636C185.72 77.253 185.848 76.9069 185.904 76.5458C185.904 76.3728 185.7 76.1998 185.344 76.0267L183.105 80.4133L180.581 79.1207L185.497 69.3706ZM187.186 72.3323L186.077 74.5001C186.277 74.6206 186.505 74.684 186.738 74.6833C186.891 74.6833 187.074 74.439 187.298 74.0116L187.573 73.4823C187.709 73.2791 187.76 73.0307 187.716 72.7903C187.593 72.5845 187.408 72.4238 187.186 72.3323Z" fill="white"/>
<path d="M194.87 82.1029C194.464 82.7673 194.022 83.4094 193.547 84.0265C193.268 84.3861 192.895 84.6609 192.468 84.8204C192.022 84.9962 191.536 85.0455 191.064 84.9628C190.517 84.8726 189.996 84.6642 189.537 84.3522C189.081 84.068 188.683 83.6982 188.367 83.2632C188.081 82.8741 187.911 82.4117 187.878 81.9299C187.845 81.4752 187.929 81.0196 188.123 80.6068C188.488 79.9084 188.889 79.229 189.323 78.5713L190.341 76.9938C190.932 76.071 191.369 75.4298 191.654 75.0702C191.943 74.7164 192.318 74.443 192.743 74.2764C193.186 74.1003 193.668 74.051 194.137 74.1339C195.221 74.3416 196.187 74.9481 196.845 75.8335C197.119 76.2141 197.286 76.6612 197.329 77.1284C197.372 77.5955 197.289 78.0657 197.089 78.4899C196.885 78.897 196.489 79.5789 195.888 80.5254L194.87 82.1029ZM194.402 77.5535C194.594 77.2843 194.749 76.9898 194.86 76.6783C194.873 76.6056 194.861 76.531 194.829 76.4651C194.796 76.3992 194.742 76.3455 194.677 76.3119C194.619 76.2798 194.555 76.263 194.489 76.263C194.423 76.263 194.358 76.2798 194.3 76.3119C194.032 76.5303 193.811 76.8002 193.649 77.1057L190.911 81.4109C190.684 81.7277 190.493 82.0691 190.341 82.4286C190.326 82.5028 190.336 82.5798 190.369 82.6478C190.402 82.7158 190.457 82.7711 190.524 82.8052C190.589 82.859 190.67 82.8886 190.753 82.8886C190.837 82.8886 190.918 82.859 190.982 82.8052C191.257 82.491 191.499 82.1501 191.705 81.7874L194.402 77.5535Z" fill="white"/>
<path d="M199.837 77.7871L201.506 79.1C202.247 79.6492 202.929 80.2734 203.541 80.9625C203.819 81.2942 203.989 81.7024 204.03 82.1329C204.051 82.4864 203.973 82.8387 203.806 83.1507C203.447 83.7455 203.046 84.3135 202.605 84.8504L200.244 87.9036C199.857 88.4381 199.413 88.9294 198.921 89.3692C198.672 89.5609 198.37 89.6711 198.056 89.6847C197.741 89.6844 197.431 89.6112 197.15 89.471C196.7 89.2271 196.274 88.9408 195.878 88.6161L193.059 86.4075L199.837 77.7871ZM200.916 81.0134L196.488 86.6722C196.814 86.9266 197.058 87.0182 197.231 86.947C197.603 86.6877 197.92 86.3594 198.168 85.9801L200.794 82.6316C200.999 82.3905 201.183 82.1317 201.343 81.8582C201.37 81.7991 201.385 81.7349 201.385 81.6699C201.385 81.6048 201.37 81.5406 201.343 81.4816C201.239 81.2969 201.093 81.1398 200.916 81.0236V81.0134Z" fill="white"/>
<path d="M211.114 87.5376L206.076 92.8198C205.685 93.2539 205.264 93.6587 204.814 94.031C204.513 94.2493 204.164 94.3923 203.796 94.4482C203.354 94.5222 202.899 94.4729 202.483 94.3058C201.996 94.1116 201.552 93.8208 201.18 93.4508C200.751 93.0471 200.405 92.563 200.163 92.026C199.963 91.5898 199.883 91.1089 199.929 90.6316C199.982 90.2362 200.136 89.8611 200.376 89.5426C200.885 88.9118 201.425 88.3071 201.995 87.731L206.452 83.0493L208.488 85.0136L202.829 90.9471C202.606 91.1559 202.414 91.3959 202.259 91.6596C202.239 91.7259 202.237 91.7967 202.255 91.8638C202.274 91.9308 202.31 91.9914 202.362 92.0383C202.413 92.0853 202.476 92.1167 202.545 92.1289C202.613 92.1411 202.683 92.1337 202.748 92.1074C203.035 91.9075 203.295 91.6715 203.521 91.4051L209.078 85.5734L211.114 87.5376Z" fill="white"/>
<path d="M213.19 97.0741L211.358 94.9164L212.793 93.6748C213.071 93.4665 213.315 93.2158 213.516 92.9318C213.545 92.8563 213.55 92.7735 213.53 92.6949C213.51 92.6164 213.466 92.5462 213.404 92.4942C213.354 92.4166 213.281 92.3576 213.194 92.3263C213.108 92.2951 213.013 92.2932 212.925 92.3212C212.607 92.491 212.312 92.7033 212.05 92.9522L208.193 96.2904C207.913 96.5004 207.666 96.7508 207.46 97.0334C207.42 97.1145 207.409 97.2066 207.427 97.2951C207.446 97.3835 207.493 97.4633 207.562 97.5219C207.609 97.5933 207.679 97.647 207.76 97.6747C207.841 97.7023 207.929 97.7023 208.01 97.6746C208.351 97.495 208.666 97.269 208.946 97.0028L209.964 96.097L211.816 98.2547L211.501 98.5295C210.912 99.0854 210.247 99.5549 209.526 99.9238C208.996 100.108 208.418 100.108 207.888 99.9238C207.207 99.7086 206.606 99.298 206.157 98.7432C205.664 98.2236 205.314 97.5856 205.14 96.8909C205.07 96.6168 205.056 96.3317 205.098 96.0521C205.14 95.7725 205.237 95.504 205.384 95.2625C205.839 94.5876 206.395 93.9868 207.033 93.4814L209.445 91.395C209.888 91.0022 210.354 90.6352 210.839 90.2958C211.193 90.0773 211.595 89.948 212.009 89.9193C212.486 89.8847 212.963 89.9759 213.394 90.1839C213.96 90.4824 214.458 90.8967 214.854 91.3999C215.25 91.9031 215.536 92.4839 215.694 93.1048C215.816 93.6492 215.741 94.2195 215.48 94.7129C215.055 95.3437 214.537 95.9064 213.943 96.382L213.19 97.0741Z" fill="white"/>
<path d="M217.842 95.3438L220.62 99.1807L218.849 100.463L217.74 98.9263L216.06 100.148L217.078 101.583L215.429 102.804L214.412 101.379L212.468 102.794L213.689 104.483L211.918 105.766L209.018 101.776L217.842 95.3438Z" fill="white"/>
<path d="M61.6861 165.416H55.3964V135.514L45.9414 165.416H42.7151L33.2499 135.514V165.416H28.1611V131.26H37.7891L44.9134 153.254L51.9462 131.26H61.6352L61.6861 165.416Z" fill="white"/>
<path d="M104.585 153.549L110.285 154.18C110.02 157.382 108.611 160.381 106.315 162.628C105.117 163.749 103.706 164.619 102.166 165.187C100.626 165.755 98.9884 166.009 97.3489 165.936C94.6215 166.06 91.9363 165.228 89.7564 163.584C87.7226 161.891 86.1739 159.69 85.2681 157.203C84.1861 154.371 83.6509 151.36 83.6905 148.328C83.6905 143.117 84.9254 138.883 87.3952 135.627C88.4847 134.261 89.8382 133.129 91.3748 132.298C92.9114 131.467 94.5997 130.954 96.3389 130.79C98.0781 130.625 99.8326 130.813 101.498 131.342C103.163 131.87 104.704 132.729 106.03 133.866C108.44 136.27 109.944 139.435 110.285 142.822L104.585 143.423C103.527 138.266 101.206 135.688 97.6237 135.688C96.5191 135.672 95.4321 135.965 94.4847 136.533C93.5373 137.101 92.7669 137.922 92.2601 138.904C90.9777 141.072 90.3467 144.125 90.3467 148.196C90.3467 152.267 91.0286 155.453 92.3822 157.559C92.925 158.522 93.7147 159.323 94.67 159.88C95.6252 160.436 96.7116 160.728 97.817 160.725C98.6924 160.732 99.5587 160.546 100.354 160.181C101.149 159.815 101.854 159.278 102.417 158.608C103.679 157.207 104.441 155.429 104.585 153.549Z" fill="white"/>
<path d="M148.328 165.416H142.221V150.577H129.133V165.416H122.976V131.26H129.133V145.295H142.15V131.26H148.257L148.328 165.416Z" fill="white"/>
<path d="M183.4 165.416H161.203V131.26H183.177V136.349H167.361V145.611H180.072V150.557H167.361V160.124H183.4V165.416Z" fill="white"/>
<path d="M215.907 165.416H194.891V131.26H201.374V159.839H215.907V165.416Z" fill="white"/>
<path d="M269.829 165.416H263.855L250.888 143.595C250.695 143.26 250.369 142.72 249.871 141.967C249.677 141.631 249.362 141.112 248.944 140.39V165.416H243.998V131.26H250.797L262.766 151.381C262.857 151.544 263.59 152.766 264.933 155.055V131.26H269.788L269.829 165.416Z" fill="white"/>
<path d="M149.01 298L0 149L149.01 0L298.01 149L149.01 298ZM2.88026 149L149.01 295.13L295.13 149L149.01 2.87008L2.88026 149Z" fill="white"/>
<path d="M130.752 263.986L130.386 265.472L128.452 264.984L128.818 263.508L124.503 262.429L124.89 260.882L129.978 254.409L132.014 254.908L127.027 261.249L129.215 261.798L129.958 258.836L131.892 259.325L131.149 262.276L131.994 262.49L131.566 264.2L130.752 263.986Z" fill="white"/>
<path d="M140.115 264.221C140.066 264.657 139.901 265.071 139.637 265.422C139.392 265.737 139.084 265.998 138.731 266.185C138.376 266.372 137.99 266.492 137.591 266.541C137.197 266.602 136.795 266.602 136.4 266.541C136.006 266.488 135.621 266.374 135.261 266.205C134.883 266.05 134.538 265.825 134.243 265.544C133.953 265.257 133.73 264.91 133.591 264.526C133.437 264.117 133.391 263.675 133.459 263.244L134.192 258.155C134.247 257.716 134.415 257.298 134.68 256.944C134.919 256.62 135.229 256.355 135.586 256.17C135.945 255.978 136.334 255.851 136.736 255.794C137.124 255.733 137.519 255.733 137.907 255.794C138.301 255.849 138.685 255.963 139.047 256.13C139.422 256.298 139.766 256.528 140.064 256.812C140.351 257.101 140.573 257.448 140.716 257.829C140.87 258.245 140.915 258.694 140.848 259.132L140.115 264.221ZM138.843 259.264C138.895 259.05 138.895 258.827 138.843 258.613C138.79 258.44 138.7 258.28 138.578 258.145C138.463 258.021 138.325 257.921 138.171 257.85C138.024 257.776 137.866 257.728 137.703 257.707C137.541 257.682 137.376 257.682 137.215 257.707C137.046 257.737 136.885 257.796 136.736 257.88C136.581 257.976 136.449 258.104 136.35 258.257C136.239 258.444 136.166 258.652 136.136 258.867L135.525 263.152C135.473 263.363 135.473 263.583 135.525 263.793C135.576 263.961 135.662 264.117 135.778 264.248C135.894 264.38 136.037 264.485 136.197 264.557C136.346 264.623 136.504 264.667 136.665 264.689C136.83 264.714 136.999 264.714 137.164 264.689C137.33 264.662 137.488 264.603 137.632 264.516C137.789 264.424 137.922 264.294 138.019 264.139C138.131 263.956 138.204 263.752 138.232 263.539L138.843 259.264Z" fill="white"/>
<path d="M154.363 261.564L153.427 263.549L152.328 265.869H150.801L149.549 263.671L148.46 261.686H148.399L148.562 267.406L146.445 267.467L146.14 256.821H148.084L150.119 260.516L151.483 263.111H151.575L152.796 260.394L154.516 256.648L156.46 256.587L156.765 267.233L154.648 267.294L154.485 261.574L154.363 261.564Z" fill="white"/>
<path d="M164.612 258.989L163.839 260.76C163.757 260.974 163.645 261.239 163.513 261.544C163.381 261.849 163.238 262.195 163.075 262.562C162.913 262.928 162.76 263.294 162.587 263.681L162.109 264.791L161.681 265.808C161.539 266.114 161.427 266.378 161.335 266.592L159.452 266.907L157.691 256.404L159.727 256.058L160.877 262.959H160.938L162.607 259.132L164.256 255.285L166.159 254.969L167.92 265.472L165.884 265.818L164.734 258.979L164.612 258.989Z" fill="white"/>
<path d="M176.307 263.111L175.024 258.847L171.259 259.977L172.541 264.241L170.505 264.852L167.452 254.674L169.488 254.064L170.719 258.135L174.485 257.005L173.243 252.934L175.279 252.313L178.332 262.491L176.307 263.111Z" fill="white"/>
<path d="M120.269 38.1253C120.672 38.0244 121.085 37.9731 121.5 37.9727C121.896 37.9788 122.286 38.0618 122.65 38.2169C123.018 38.3756 123.345 38.6157 123.607 38.9192C123.904 39.2687 124.113 39.6839 124.218 40.1303C124.35 40.5995 124.35 41.0962 124.218 41.5653C124.082 42.0048 123.825 42.3966 123.475 42.6951C123.953 42.7674 124.396 42.9923 124.737 43.3363C125.082 43.6809 125.325 44.1141 125.439 44.5881C125.588 45.0869 125.612 45.6145 125.51 46.1249C125.421 46.5581 125.24 46.9674 124.981 47.3259C124.726 47.6639 124.412 47.9535 124.055 48.1808C123.698 48.4 123.31 48.5647 122.905 48.6693C122.315 48.8269 121.702 48.8854 121.093 48.8423C120.54 48.8131 119.999 48.6675 119.505 48.4149C119.505 48.4149 119.505 48.2724 119.607 48.0994L119.811 47.5294L120.004 46.9595L120.116 46.644C120.468 46.8142 120.847 46.921 121.236 46.9595C121.604 46.9937 121.974 46.9697 122.335 46.8882C122.741 46.7996 123.102 46.5686 123.353 46.2369C123.459 46.0789 123.528 45.8987 123.555 45.71C123.581 45.5213 123.564 45.329 123.505 45.1479C123.42 44.7785 123.193 44.4572 122.874 44.2522C122.712 44.1504 122.53 44.0849 122.34 44.0603C122.151 44.0357 121.958 44.0526 121.775 44.1097L120.544 44.4252L120.126 42.807L121.327 42.5017C121.664 42.4109 121.957 42.2013 122.152 41.9114C122.254 41.7514 122.32 41.5714 122.346 41.3835C122.373 41.1956 122.358 41.0042 122.304 40.8224C122.255 40.6278 122.157 40.4491 122.019 40.3033C121.898 40.182 121.752 40.0883 121.592 40.0285C121.43 39.9655 121.256 39.9377 121.083 39.9471C120.918 39.9448 120.754 39.9653 120.594 40.0082C120.229 40.0954 119.884 40.2508 119.577 40.4662C119.256 40.6835 118.98 40.9598 118.763 41.2804L117.368 40.0082C117.684 39.5488 118.089 39.1577 118.559 38.8581C119.085 38.5215 119.662 38.274 120.269 38.1253Z" fill="white"/>
<path d="M131.545 46.6338L130.161 36.0797L132.258 35.8049L132.817 40.0489L133.835 39.9064C134.029 39.8803 134.22 39.836 134.405 39.7741C134.577 39.7164 134.736 39.6266 134.873 39.5095C135.017 39.3766 135.135 39.2178 135.219 39.0413C135.322 38.8101 135.397 38.5676 135.443 38.3187L135.983 35.2654L138.12 34.9805L137.581 38.1864C137.499 38.6684 137.345 39.1352 137.123 39.5706C136.953 39.9148 136.679 40.1963 136.339 40.3746C136.776 40.4513 137.174 40.6737 137.469 41.0056C137.786 41.3772 138.044 41.7961 138.232 42.2473L139.698 45.5143L137.408 45.8196L136.135 42.8681C136.033 42.63 135.903 42.4046 135.749 42.1964C135.619 42.0455 135.464 41.9181 135.291 41.8198C135.125 41.7391 134.945 41.6941 134.761 41.6875C134.562 41.6626 134.36 41.6626 134.161 41.6875L133.011 41.8402L133.591 46.298L131.545 46.6338Z" fill="white"/>
<path d="M145.397 42.7359C145.181 43.5299 144.776 44.2598 144.216 44.863C143.731 45.3034 143.101 45.5498 142.445 45.555H141.316L141.244 43.8859H142.201C142.423 43.8867 142.641 43.8269 142.832 43.7129C142.997 43.5911 143.124 43.4253 143.198 43.2345C143.209 43.1851 143.226 43.1372 143.249 43.0921L143.31 42.9699L139.575 34.8889L141.784 34.7872L143.198 38.1966C143.402 38.6546 143.575 39.0923 143.728 39.4994L144.125 40.5171H144.186L144.918 38.0134C144.918 37.9524 144.979 37.8303 145.03 37.6471C145.081 37.4639 145.163 37.2501 145.234 37.0059L145.458 36.2527C145.539 35.9983 145.621 35.754 145.692 35.5199L145.875 34.9296C145.912 34.8306 145.939 34.7284 145.957 34.6243L148.063 34.5327L145.397 42.7359Z" fill="white"/>
<path d="M153.254 41.6467L150.995 45.2394L148.593 45.1478L152.196 39.8249L149.214 34.5122L151.616 34.614L153.386 38.0947L155.422 34.7565L157.793 34.8481L154.445 39.9369L157.6 45.5142L155.208 45.4226L153.254 41.6467Z" fill="white"/>
<path d="M164.358 46.3486L164.928 41.9418L161.03 41.4329L160.46 45.85L158.363 45.5752L159.727 35.021L161.824 35.2856L161.274 39.55L165.172 40.0487L165.722 35.7945L167.849 36.0693L166.485 46.6234L164.358 46.3486Z" fill="white"/>
<path d="M175.788 41.5448L174.404 42.8984L173.803 43.4989L173.009 44.2622C172.724 44.5268 172.439 44.8118 172.134 45.1069L171.269 45.9516L170.485 46.715L169.875 47.3155L168.002 46.888L170.373 36.5068L172.409 36.975L170.852 43.8042H170.913L173.854 40.9137L176.846 37.9826L178.719 38.4101L176.348 48.7912L174.312 48.323L175.849 41.5549L175.788 41.5448Z" fill="white"/>
<path d="M125.46 101.257L123.17 102.397L123.404 103.964L122.009 104.636L121.124 96.9414L122.457 96.29L127.943 101.755L126.518 102.447L125.46 101.257ZM122.987 101.094L124.574 100.331L123.913 99.6181L122.549 98.1322L122.875 100.086L122.987 101.094Z" fill="white"/>
<path d="M129.49 94.8448L131.464 100.504L130.1 100.982L128.116 95.3232L126.284 95.9644L125.856 94.7329L130.874 92.9722L131.312 94.2036L129.49 94.8448Z" fill="white"/>
<path d="M142.058 95.7C142.142 96.0513 142.142 96.4172 142.058 96.7686C141.962 97.0786 141.799 97.3635 141.58 97.6032C141.355 97.8576 141.082 98.0651 140.776 98.2138C140.454 98.3695 140.111 98.4791 139.758 98.5395C139.397 98.5901 139.031 98.5901 138.669 98.5395C138.335 98.4952 138.011 98.3918 137.713 98.2342C137.426 98.0735 137.18 97.851 136.99 97.5828C136.78 97.2802 136.647 96.9308 136.603 96.5651L136.155 93.9189C136.097 93.5794 136.118 93.2311 136.217 92.9011C136.315 92.5878 136.486 92.302 136.715 92.0665C136.945 91.8176 137.221 91.6169 137.529 91.4762C137.852 91.3198 138.194 91.2102 138.547 91.1505C138.885 91.1035 139.227 91.1035 139.565 91.1505C139.92 91.1908 140.264 91.2942 140.583 91.4559C140.872 91.6121 141.122 91.8313 141.316 92.0971C141.53 92.3993 141.669 92.7481 141.723 93.1148L142.058 95.7ZM140.237 93.5932C140.208 93.3834 140.135 93.1822 140.023 93.0029C139.926 92.8595 139.797 92.741 139.646 92.6568C139.506 92.5727 139.35 92.5173 139.188 92.494C139.023 92.4686 138.855 92.4686 138.69 92.494C138.524 92.5232 138.363 92.5745 138.211 92.6467C138.06 92.7216 137.926 92.8253 137.814 92.952C137.707 93.0838 137.627 93.2362 137.58 93.3998C137.534 93.6042 137.534 93.8163 137.58 94.0206L137.926 96.1274C137.957 96.3382 138.033 96.5397 138.15 96.7177C138.243 96.8633 138.368 96.9853 138.517 97.0739C138.661 97.1564 138.82 97.2083 138.985 97.2266C139.15 97.252 139.318 97.252 139.484 97.2266C139.65 97.2057 139.811 97.1575 139.962 97.0841C140.115 97.013 140.25 96.9084 140.358 96.778C140.465 96.6477 140.542 96.4949 140.583 96.331C140.629 96.1232 140.629 95.9077 140.583 95.7L140.237 93.5932Z" fill="white"/>
<path d="M149.041 95.2723C149.058 95.6202 148.999 95.9676 148.868 96.2901C148.742 96.5813 148.551 96.8392 148.308 97.0433C148.071 97.2546 147.794 97.4171 147.494 97.5216C147.184 97.6365 146.857 97.7017 146.527 97.715L143.779 97.8269L143.474 90.5296L146.242 90.4075C146.585 90.39 146.929 90.4278 147.26 90.5194C147.565 90.595 147.852 90.7298 148.104 90.9163C148.373 91.1181 148.59 91.3793 148.741 91.6796C148.891 91.9798 148.969 92.3108 148.969 92.6465L149.041 95.2723ZM147.473 92.9926C147.47 92.7832 147.418 92.5776 147.321 92.3921C147.244 92.2367 147.132 92.101 146.995 91.9952C146.866 91.894 146.717 91.8212 146.557 91.7814C146.401 91.7444 146.24 91.7273 146.079 91.7305L144.98 91.7814L145.173 96.4937H146.272C146.432 96.4816 146.589 96.4508 146.741 96.4021C146.895 96.3508 147.037 96.2676 147.158 96.1578C147.287 96.0413 147.391 95.8992 147.463 95.7405C147.538 95.5391 147.57 95.324 147.555 95.1095L147.473 92.9926Z" fill="white"/>
<path d="M150.964 90.4077L155.982 90.7945L155.89 92.087L152.318 91.8224L152.186 93.4915L155.239 93.7256L155.147 95.0284L152.094 94.7943L151.972 96.5041L155.544 96.7789L155.442 98.0816L150.425 97.6949L150.964 90.4077Z" fill="white"/>
<path d="M162.272 97.1962C162.221 97.5166 162.088 97.8184 161.885 98.0715C161.699 98.312 161.458 98.504 161.183 98.6312C160.883 98.7603 160.562 98.8361 160.236 98.8551C159.865 98.8812 159.492 98.8572 159.127 98.7839C158.629 98.6885 158.148 98.5168 157.702 98.275C157.239 98.0171 156.831 97.6714 156.501 97.2572L157.519 96.3718C157.769 96.6604 158.061 96.9107 158.384 97.1148C158.679 97.303 159.007 97.4342 159.351 97.5015C159.55 97.5294 159.752 97.5294 159.951 97.5015C160.097 97.4945 160.239 97.4563 160.368 97.3896C160.474 97.3339 160.565 97.2536 160.633 97.1555C160.699 97.0725 160.745 96.9747 160.765 96.8705C160.808 96.7312 160.808 96.5824 160.765 96.443C160.69 96.3155 160.59 96.2047 160.47 96.1174C160.316 96.002 160.153 95.8998 159.982 95.812L159.33 95.4864C159.073 95.369 158.825 95.2329 158.587 95.0792C158.363 94.9364 158.161 94.7616 157.987 94.5602C157.826 94.3664 157.708 94.141 157.641 93.8986C157.569 93.6182 157.569 93.3242 157.641 93.0437C157.697 92.7495 157.811 92.4693 157.977 92.2193C158.142 91.9797 158.358 91.7784 158.608 91.629C158.872 91.4779 159.162 91.3777 159.463 91.3339C159.799 91.2748 160.144 91.2748 160.48 91.3339C160.923 91.419 161.356 91.5486 161.773 91.7206C162.206 91.906 162.6 92.1719 162.933 92.5043L162.088 93.5221C161.829 93.2828 161.538 93.0807 161.223 92.9216C160.949 92.7888 160.658 92.693 160.358 92.6366C160.22 92.6167 160.079 92.6167 159.941 92.6366C159.805 92.642 159.671 92.6695 159.544 92.7181C159.424 92.7601 159.316 92.8298 159.229 92.9216C159.141 93.0272 159.081 93.1532 159.056 93.288C159.014 93.4135 159.014 93.5492 159.056 93.6747C159.119 93.8015 159.209 93.9128 159.32 94.0004C159.467 94.1102 159.623 94.2057 159.788 94.2854L160.43 94.5907C161.034 94.8138 161.57 95.1889 161.987 95.6797C162.145 95.8949 162.253 96.143 162.302 96.4055C162.351 96.668 162.341 96.9382 162.272 97.1962Z" fill="white"/>
<path d="M168.684 99.1911C168.59 99.5045 168.423 99.7907 168.195 100.026C167.978 100.239 167.713 100.396 167.422 100.484C167.095 100.596 166.748 100.637 166.404 100.606C166.033 100.581 165.667 100.509 165.315 100.392C164.831 100.241 164.374 100.014 163.961 99.7203C163.551 99.402 163.206 99.0082 162.943 98.56L164.043 97.7967C164.254 98.1173 164.515 98.4024 164.816 98.6415C165.084 98.8635 165.391 99.0328 165.722 99.1402C165.911 99.21 166.11 99.2511 166.312 99.2623C166.461 99.2742 166.61 99.2534 166.75 99.2012C166.857 99.1573 166.954 99.0914 167.035 99.0079C167.111 98.9315 167.167 98.8369 167.198 98.7331C167.243 98.5943 167.243 98.4444 167.198 98.3056C167.138 98.1679 167.051 98.0434 166.943 97.9392C166.801 97.8113 166.652 97.6923 166.495 97.583L165.895 97.1861C165.653 97.0364 165.421 96.8698 165.203 96.6874C164.995 96.5249 164.816 96.3288 164.674 96.1073C164.532 95.8959 164.438 95.6563 164.399 95.405C164.361 95.1202 164.393 94.8304 164.49 94.5603C164.58 94.2715 164.729 94.0046 164.928 93.7766C165.12 93.5597 165.356 93.3862 165.62 93.2677C165.899 93.1441 166.2 93.0784 166.506 93.0744C166.851 93.0673 167.195 93.1189 167.523 93.227C167.952 93.3623 168.365 93.5431 168.755 93.7664C169.165 94.0019 169.528 94.3126 169.823 94.6824L168.806 95.5984C168.388 95.0854 167.829 94.7067 167.198 94.5094C167.063 94.4652 166.922 94.4411 166.78 94.4382C166.649 94.4172 166.515 94.4172 166.383 94.4382C166.257 94.462 166.14 94.5221 166.048 94.6112C165.942 94.6976 165.868 94.8152 165.834 94.947C165.788 95.0718 165.788 95.209 165.834 95.3338C165.879 95.4684 165.956 95.5905 166.058 95.69C166.19 95.8171 166.333 95.9328 166.485 96.036L167.086 96.4024C167.659 96.6976 168.146 97.1358 168.5 97.6746C168.641 97.8982 168.73 98.1502 168.762 98.4123C168.793 98.6745 168.767 98.9404 168.684 99.1911Z" fill="white"/>
<path d="M173.334 101.939L171.024 100.86L169.955 102.03L168.551 101.369L173.965 95.832L175.309 96.463L174.535 104.157L173.1 103.496L173.334 101.939ZM171.899 99.9031L173.487 100.646L173.629 99.6283L173.925 97.5928L172.612 99.0685L171.899 99.9031Z" fill="white"/>
<path d="M81.7058 186.973L86.0516 193.822L84.2807 194.952L81.2274 190.077L78.9477 191.522L81.5938 195.695L79.8229 196.814L77.1768 192.652L74.8359 194.128L77.8892 199.003L76.1183 200.102L71.7725 193.252L81.7058 186.973Z" fill="white"/>
<path d="M88.9424 201.964C88.9571 201.51 88.8738 201.059 88.6982 200.641C88.5294 200.275 88.3139 199.933 88.057 199.623C87.8888 199.418 87.6937 199.237 87.4769 199.084C87.2563 198.932 87.0068 198.828 86.7441 198.778C86.4726 198.718 86.1911 198.718 85.9197 198.778C85.5894 198.864 85.283 199.024 85.0241 199.247L82.3575 201.425C82.0904 201.63 81.8744 201.895 81.7265 202.198C81.6069 202.453 81.5444 202.731 81.5433 203.012C81.5444 203.276 81.5926 203.538 81.6858 203.786C81.7831 204.034 81.9206 204.264 82.0929 204.468C82.3502 204.78 82.648 205.058 82.9784 205.292C83.3678 205.551 83.803 205.734 84.2607 205.831L83.5585 207.867C82.9637 207.743 82.3975 207.508 81.8893 207.175C81.3264 206.808 80.8249 206.355 80.4034 205.831C80.0496 205.401 79.7615 204.921 79.5485 204.407C79.3388 203.913 79.2183 203.385 79.1923 202.849C79.1682 202.324 79.2585 201.8 79.4569 201.313C79.6766 200.78 80.0265 200.311 80.4747 199.949L83.8943 197.17C84.3289 196.796 84.8503 196.538 85.4108 196.417C85.9243 196.31 86.4544 196.31 86.968 196.417C87.4933 196.54 87.9906 196.761 88.4336 197.069C88.8945 197.378 89.3062 197.756 89.6549 198.188C90.0735 198.703 90.4163 199.275 90.6726 199.888C90.9285 200.456 91.0504 201.076 91.0288 201.699L88.9424 201.964Z" fill="white"/>
<path d="M93.6237 205.72L91.4762 207.979C90.864 208.628 90.2077 209.233 89.512 209.791C88.9524 210.25 88.3193 210.611 87.6393 210.859C87.0443 211.08 86.401 211.136 85.7768 211.022C85.0618 210.879 84.3895 210.573 83.8125 210.127L84.7692 208.386C85.1646 208.592 85.5971 208.717 86.0414 208.753C86.4394 208.771 86.8363 208.698 87.2016 208.539C87.6355 208.339 88.0369 208.075 88.3924 207.755C88.7995 207.409 89.2473 206.961 89.7562 206.442L93.41 202.605L99.0178 207.949L90.8758 216.478L89.227 214.839L95.8933 207.837L93.6237 205.72Z" fill="white"/>
<path d="M103.526 216.386L101.491 217.17L100.626 217.516L99.496 217.964L98.2442 218.452L96.9923 218.941L95.8626 219.378L94.9873 219.724L93.2979 218.493L100.168 208.936L102.061 210.3L97.5521 216.59L101.786 214.9L106.101 213.2L107.831 214.442L100.962 224.009L99.0584 222.635L103.537 216.406L103.526 216.386Z" fill="white"/>
<path d="M112.768 217.251L120.116 220.691L119.22 222.594L113.989 220.152L112.849 222.594L117.317 224.691L116.421 226.584L111.954 224.548L110.783 227.052L116.004 229.505L115.119 231.398L107.771 227.958L112.768 217.251Z" fill="white"/>
<path d="M126.884 225.994C126.66 225.589 126.347 225.241 125.968 224.976C125.625 224.743 125.252 224.558 124.859 224.426C124.607 224.338 124.342 224.29 124.075 224.284C123.801 224.265 123.526 224.309 123.272 224.413C123.018 224.517 122.791 224.679 122.609 224.884C122.378 225.138 122.207 225.44 122.111 225.77L121.093 229.027C120.973 229.352 120.932 229.7 120.971 230.044C121.008 230.322 121.101 230.588 121.246 230.828C121.394 231.049 121.58 231.242 121.795 231.398C122.009 231.552 122.246 231.673 122.498 231.754C122.884 231.889 123.289 231.961 123.698 231.968C124.164 231.983 124.628 231.903 125.062 231.734L125.541 233.769C124.976 233.986 124.374 234.09 123.77 234.075C123.098 234.077 122.431 233.967 121.795 233.749C121.267 233.577 120.767 233.331 120.309 233.016C119.869 232.706 119.483 232.324 119.169 231.887C118.864 231.458 118.655 230.969 118.559 230.451C118.461 229.878 118.513 229.289 118.711 228.742L120.085 224.559C120.255 224.011 120.56 223.514 120.971 223.113C121.35 222.752 121.801 222.475 122.294 222.299C122.805 222.128 123.343 222.048 123.882 222.065C124.435 222.084 124.983 222.18 125.51 222.35C126.144 222.559 126.747 222.853 127.301 223.225C127.818 223.576 128.252 224.034 128.574 224.569L126.884 225.994Z" fill="white"/>
<path d="M134.008 226.859L132.064 236.334L129.764 235.856L131.718 226.391L128.665 225.76L129.092 223.724L137.489 225.454L137.072 227.49L134.008 226.859Z" fill="white"/>
<path d="M137.234 237.25L138.252 225.525L140.583 225.719L140.196 230.187L142.903 230.411C143.433 230.451 143.95 230.589 144.43 230.818C144.848 231.025 145.219 231.316 145.519 231.673C145.814 232.023 146.029 232.432 146.15 232.874C146.287 233.353 146.332 233.853 146.282 234.349C146.246 234.791 146.14 235.224 145.967 235.632C145.786 236.047 145.527 236.424 145.203 236.741C144.863 237.073 144.458 237.329 144.013 237.494C143.476 237.689 142.901 237.755 142.333 237.688L137.234 237.25ZM139.738 235.357L142.16 235.56C142.387 235.594 142.619 235.581 142.841 235.523C143.063 235.465 143.271 235.364 143.453 235.225C143.611 235.102 143.742 234.949 143.838 234.774C143.934 234.599 143.994 234.406 144.013 234.207C144.037 233.999 144.016 233.789 143.951 233.591C143.886 233.392 143.778 233.21 143.636 233.057C143.309 232.729 142.868 232.539 142.405 232.528L140.003 232.314L139.738 235.357Z" fill="white"/>
<path d="M156.827 227.887L157.62 237.525L155.29 237.718L154.486 228.08L151.371 228.345L151.198 226.248L159.748 225.536L159.921 227.632L156.827 227.887Z" fill="white"/>
<path d="M170.82 231.479C170.948 232.042 170.948 232.626 170.82 233.189C170.685 233.696 170.442 234.168 170.108 234.573C169.758 234.991 169.329 235.337 168.846 235.591C168.327 235.874 167.767 236.076 167.187 236.191C166.609 236.314 166.016 236.351 165.426 236.303C164.883 236.263 164.354 236.114 163.869 235.866C163.399 235.619 162.989 235.271 162.668 234.848C162.32 234.386 162.083 233.849 161.976 233.281L161.101 229.047C160.957 228.493 160.957 227.911 161.101 227.357C161.247 226.848 161.501 226.376 161.844 225.973C162.204 225.561 162.635 225.216 163.116 224.955C163.621 224.687 164.163 224.495 164.724 224.385C165.282 224.263 165.856 224.233 166.424 224.294C166.968 224.338 167.5 224.483 167.991 224.721C168.475 224.961 168.896 225.309 169.223 225.739C169.584 226.192 169.828 226.727 169.935 227.296L170.82 231.479ZM167.767 228.192C167.704 227.859 167.573 227.544 167.38 227.266C167.217 227.041 167.005 226.857 166.76 226.726C166.527 226.598 166.271 226.519 166.006 226.492C165.737 226.469 165.466 226.486 165.202 226.543C164.938 226.593 164.684 226.686 164.449 226.818C164.214 226.946 164.007 227.119 163.839 227.327C163.666 227.545 163.544 227.799 163.482 228.07C163.405 228.404 163.405 228.753 163.482 229.087L164.174 232.446C164.239 232.781 164.371 233.099 164.561 233.382C164.73 233.605 164.941 233.792 165.182 233.932C165.419 234.055 165.679 234.128 165.945 234.146C166.214 234.164 166.485 234.147 166.749 234.095C167.012 234.04 167.266 233.948 167.503 233.82C167.74 233.701 167.949 233.53 168.113 233.321C168.282 233.099 168.401 232.842 168.459 232.568C168.537 232.233 168.537 231.885 168.459 231.55L167.767 228.192Z" fill="white"/>
<path d="M181.924 222.014C181.495 221.874 181.041 221.822 180.591 221.862C180.18 221.908 179.776 222.007 179.39 222.157C179.141 222.259 178.908 222.396 178.698 222.564C178.486 222.724 178.312 222.929 178.189 223.164C178.057 223.412 177.984 223.688 177.975 223.968C177.956 224.317 178.019 224.666 178.158 224.986L179.451 228.172C179.566 228.489 179.754 228.775 180.001 229.006C180.204 229.202 180.452 229.345 180.723 229.424C180.979 229.506 181.249 229.537 181.517 229.515C181.78 229.495 182.037 229.433 182.28 229.332C182.645 229.174 182.987 228.968 183.298 228.721C183.658 228.444 183.959 228.098 184.184 227.703L185.893 228.965C185.604 229.497 185.213 229.967 184.743 230.35C184.23 230.781 183.649 231.125 183.023 231.367C182.511 231.581 181.968 231.714 181.415 231.764C180.88 231.817 180.339 231.776 179.817 231.642C179.309 231.508 178.834 231.269 178.423 230.94C177.972 230.568 177.623 230.088 177.405 229.546L175.757 225.475C175.524 224.951 175.433 224.375 175.492 223.805C175.548 223.284 175.714 222.781 175.98 222.33C176.241 221.869 176.586 221.461 176.998 221.129C177.433 220.781 177.916 220.5 178.433 220.294C179.046 220.034 179.694 219.869 180.357 219.806C180.978 219.728 181.608 219.794 182.199 219.999L181.924 222.014Z" fill="white"/>
<path d="M182.861 218.472L189.986 214.554L191.003 216.386L185.915 219.185L187.217 221.546L191.533 219.154L192.55 220.996L188.235 223.388L189.568 225.81L194.657 223.011L195.675 224.853L188.551 228.772L182.861 218.472Z" fill="white"/>
<path d="M199.063 213.058L199.195 215.185C199.195 215.439 199.195 215.755 199.257 216.121C199.318 216.488 199.257 216.895 199.338 217.332C199.419 217.77 199.389 218.218 199.409 218.676L199.501 220.019C199.501 220.447 199.552 220.854 199.572 221.22C199.592 221.587 199.572 221.912 199.633 222.167L197.933 223.429L190.941 213.953L192.824 212.569L197.414 218.788H197.475L197.16 214.238L196.865 209.618L198.585 208.356L205.567 217.821L203.684 219.215L199.145 213.007L199.063 213.058ZM194.646 210.686C194.318 210.947 193.929 211.122 193.516 211.195C193.19 211.244 192.857 211.227 192.537 211.145C192.217 211.062 191.917 210.917 191.654 210.717C191.426 210.551 191.215 210.364 191.023 210.157L192.285 209.221C192.361 209.321 192.454 209.407 192.56 209.475C192.674 209.556 192.802 209.618 192.936 209.658C193.078 209.684 193.222 209.684 193.364 209.658C193.516 209.638 193.659 209.579 193.781 209.485C193.919 209.391 194.028 209.261 194.096 209.109C194.156 208.978 194.187 208.836 194.188 208.692C194.188 208.554 194.168 208.416 194.127 208.285C194.094 208.163 194.039 208.05 193.964 207.949L195.216 207.022C195.349 207.271 195.462 207.529 195.552 207.796C195.663 208.095 195.715 208.413 195.705 208.732C195.694 209.085 195.611 209.431 195.46 209.75C195.274 210.127 194.994 210.45 194.646 210.686Z" fill="white"/>
<path d="M200.967 206.097L203.389 208.59C203.567 208.813 203.791 208.995 204.045 209.123C204.3 209.252 204.58 209.323 204.865 209.333C205.459 209.266 206.007 208.979 206.402 208.529C206.681 208.251 206.921 207.936 207.114 207.593C207.299 207.269 207.452 206.928 207.572 206.575L204.142 203.023L205.821 201.395L213.963 209.842L212.264 211.48L208.885 208.01C208.742 208.449 208.548 208.869 208.305 209.262C208.042 209.668 207.735 210.044 207.389 210.381C206.998 210.765 206.552 211.087 206.066 211.338C205.633 211.564 205.158 211.7 204.671 211.735C204.185 211.761 203.7 211.67 203.257 211.47C202.728 211.233 202.256 210.886 201.872 210.453L199.257 207.755L200.967 206.097Z" fill="white"/>
<path d="M218.066 201.12L215.511 204.336L216.936 206.443L215.43 208.417L208.773 197.863L210.259 195.99L222.035 200.061L220.447 202.097L218.066 201.12ZM214.412 202.636L216.173 200.417L214.707 199.848L211.654 198.636V198.687L213.486 201.293L214.412 202.636Z" fill="white"/>
<path d="M219.083 187.777C218.654 187.918 218.259 188.147 217.923 188.449C217.618 188.732 217.352 189.054 217.129 189.405C216.995 189.636 216.889 189.882 216.813 190.138C216.757 190.4 216.757 190.67 216.813 190.932C216.861 191.208 216.965 191.471 217.119 191.705C217.313 191.985 217.567 192.217 217.861 192.387L220.793 194.168C221.079 194.352 221.402 194.47 221.739 194.514C222.018 194.537 222.299 194.503 222.564 194.413C222.819 194.324 223.054 194.186 223.256 194.005C223.451 193.832 223.62 193.629 223.754 193.405C223.969 193.058 224.13 192.681 224.233 192.285C224.349 191.837 224.377 191.37 224.314 190.911H226.441C226.522 191.513 226.488 192.124 226.339 192.713C226.191 193.369 225.933 193.995 225.576 194.565C225.302 195.037 224.959 195.466 224.558 195.837C224.16 196.201 223.702 196.494 223.205 196.703C222.717 196.898 222.193 196.988 221.668 196.967C221.089 196.932 220.528 196.75 220.039 196.438L216.274 194.148C215.776 193.863 215.36 193.457 215.063 192.967C214.795 192.516 214.625 192.013 214.564 191.492C214.512 190.955 214.557 190.414 214.696 189.894C214.837 189.357 215.053 188.843 215.337 188.367C215.681 187.796 216.107 187.279 216.599 186.83C217.054 186.403 217.595 186.08 218.187 185.884L219.083 187.777Z" fill="white"/>
<path d="M149.01 53.1779C170.403 53.2068 191.174 60.382 208.024 73.5642C224.874 86.7463 236.836 105.18 242.013 125.938H244.109C238.941 104.61 226.754 85.6392 209.506 72.0718C192.257 58.5045 170.95 51.1284 149.005 51.1284C127.06 51.1284 105.752 58.5045 88.5044 72.0718C71.2563 85.6392 59.069 104.61 53.9004 125.938H55.997C61.1755 105.179 73.1404 86.7452 89.9918 73.5632C106.843 60.3811 127.615 53.2063 149.01 53.1779Z" fill="white"/>
<path d="M149.01 244.822C127.613 244.795 106.839 237.619 89.9875 224.435C73.1355 211.251 61.172 192.814 55.997 172.052H53.9004C59.069 193.38 71.2563 212.351 88.5044 225.918C105.752 239.485 127.06 246.861 149.005 246.861C170.95 246.861 192.257 239.485 209.506 225.918C226.754 212.351 238.941 193.38 244.109 172.052H242.013C236.838 192.812 224.876 211.248 208.026 224.432C191.177 237.616 170.405 244.793 149.01 244.822Z" fill="white"/>
<path d="M149.01 214.849C135.598 214.833 122.509 210.729 111.489 203.082C100.469 195.436 92.0432 184.611 87.3343 172.052H85.1562C89.8928 185.185 98.5644 196.537 109.989 204.562C121.413 212.586 135.034 216.892 148.995 216.892C162.956 216.892 176.577 212.586 188.002 204.562C199.426 196.537 208.098 185.185 212.834 172.052H210.666C205.96 184.609 197.537 195.432 186.521 203.078C175.505 210.725 162.42 214.831 149.01 214.849Z" fill="white"/>
<path d="M149.01 83.1509C162.415 83.1647 175.498 87.263 186.514 94.8997C197.531 102.536 205.96 113.349 210.676 125.897H212.844C208.103 112.769 199.43 101.421 188.006 93.4009C176.582 85.3805 162.963 81.0771 149.005 81.0771C135.047 81.0771 121.428 85.3805 110.004 93.4009C98.5805 101.421 89.9071 112.769 85.166 125.897H87.3338C92.051 113.347 100.481 102.534 111.5 94.8968C122.519 87.2599 135.603 83.1626 149.01 83.1509Z" fill="white"/>
<path d="M125.867 101.063L123.567 102.152L123.78 103.72L122.386 104.392L121.562 96.6871L122.905 96.0459L128.34 101.552L126.915 102.234L125.867 101.063ZM123.393 100.89L124.981 100.127L124.33 99.4147L122.976 97.9084L123.292 99.8625L123.393 100.89Z" fill="white"/>
<path d="M129.937 94.6823L131.871 100.361L130.497 100.83L128.563 95.1505L126.721 95.7713L126.304 94.5398L131.342 92.8198L131.759 94.0615L129.937 94.6823Z" fill="white"/>
<path d="M142.527 95.6492C142.584 95.9887 142.563 96.3367 142.466 96.6669C142.372 96.9809 142.209 97.2697 141.988 97.5117C141.762 97.7606 141.489 97.9614 141.184 98.102C140.862 98.2607 140.519 98.3705 140.166 98.4277C139.801 98.4784 139.431 98.4784 139.067 98.4277C138.731 98.3845 138.406 98.2774 138.11 98.1122C137.814 97.9411 137.561 97.7045 137.37 97.4205C137.18 97.1364 137.057 96.8125 137.011 96.4736L136.593 93.8172C136.533 93.4807 136.553 93.1347 136.653 92.8074C136.752 92.4802 136.927 92.181 137.163 91.9344C137.4 91.6915 137.679 91.4947 137.988 91.3542C138.31 91.2011 138.653 91.0949 139.006 91.0387C139.343 90.9916 139.686 90.9916 140.023 91.0387C140.38 91.077 140.725 91.1842 141.041 91.3542C141.33 91.5105 141.581 91.7296 141.774 91.9954C141.982 92.299 142.115 92.648 142.161 93.0132L142.527 95.6492ZM140.715 93.5221C140.692 93.3143 140.618 93.1154 140.502 92.942C140.409 92.7963 140.283 92.6743 140.135 92.5857C139.997 92.4973 139.84 92.4416 139.677 92.4229C139.512 92.3922 139.343 92.3922 139.179 92.4229C139.013 92.4538 138.853 92.5051 138.7 92.5756C138.55 92.6468 138.415 92.7471 138.303 92.8707C138.19 93.0025 138.11 93.1595 138.069 93.3287C138.022 93.5329 138.022 93.7453 138.069 93.9495L138.395 96.0461C138.423 96.2559 138.496 96.4571 138.609 96.6364C138.701 96.7851 138.826 96.9104 138.975 97.0028C139.12 97.0837 139.279 97.1356 139.443 97.1555C139.612 97.1809 139.783 97.1809 139.952 97.1555C140.115 97.1344 140.273 97.0862 140.42 97.013C140.571 96.9418 140.706 96.8414 140.817 96.7178C140.927 96.5835 141.007 96.4274 141.051 96.2598C141.098 96.0556 141.098 95.8433 141.051 95.639L140.715 93.5221Z" fill="white"/>
<path d="M149.499 95.3236C149.52 95.6561 149.464 95.989 149.335 96.2962C149.206 96.6035 149.008 96.8767 148.756 97.0945C148.51 97.3002 148.232 97.4621 147.931 97.5728C147.603 97.6812 147.26 97.7395 146.914 97.7458L144.155 97.8375L143.911 90.5401L146.679 90.4485C147.023 90.4298 147.366 90.4676 147.697 90.5605C148.003 90.6396 148.29 90.7779 148.542 90.9676C148.792 91.1624 148.997 91.4088 149.142 91.6902C149.307 92.0043 149.394 92.3533 149.397 92.7079L149.499 95.3236ZM147.941 93.0234C147.941 92.8149 147.892 92.6093 147.799 92.423C147.722 92.2676 147.611 92.1319 147.473 92.026C147.346 91.9271 147.201 91.8545 147.046 91.8123C146.884 91.7873 146.719 91.7873 146.557 91.8123H145.458L145.621 96.5347H146.72C146.876 96.5325 147.031 96.505 147.178 96.4533C147.337 96.4046 147.483 96.3212 147.606 96.209C147.738 96.0952 147.842 95.9524 147.911 95.7917C147.991 95.5915 148.026 95.376 148.013 95.1607L147.941 93.0234Z" fill="white"/>
<path d="M151.452 90.4277L156.47 90.845L156.358 92.1477L152.786 91.8526L152.653 93.5217L155.707 93.7762L155.595 95.0789L152.541 94.8245L152.399 96.5343L155.971 96.8294L155.859 98.1322L150.842 97.7149L151.452 90.4277Z" fill="white"/>
<path d="M162.719 97.3078C162.669 97.6182 162.543 97.9112 162.351 98.1601C162.159 98.409 161.907 98.6058 161.62 98.7327C161.316 98.863 160.993 98.9388 160.663 98.9566C160.291 98.9752 159.918 98.9444 159.554 98.865C159.059 98.7696 158.581 98.5979 158.139 98.3561C157.682 98.0945 157.278 97.7493 156.948 97.3384L157.966 96.4631C158.213 96.7545 158.501 97.0082 158.821 97.2163C159.129 97.4182 159.475 97.5534 159.839 97.6132C160.034 97.641 160.233 97.641 160.429 97.6132C160.577 97.6058 160.721 97.5713 160.856 97.5114C160.962 97.4558 161.053 97.3755 161.121 97.2773C161.189 97.1916 161.235 97.0901 161.253 96.9822C161.3 96.847 161.3 96.7001 161.253 96.5649C161.184 96.4335 161.087 96.3188 160.968 96.229C160.814 96.1136 160.651 96.0115 160.48 95.9237L159.839 95.598C159.58 95.4795 159.332 95.3399 159.096 95.1807C158.871 95.0379 158.669 94.863 158.495 94.6617C158.333 94.4654 158.215 94.2363 158.149 93.9899C158.083 93.7123 158.083 93.4228 158.149 93.1452C158.205 92.8492 158.323 92.5683 158.495 92.3208C158.664 92.0839 158.879 91.8832 159.126 91.7305C159.389 91.5783 159.68 91.4813 159.981 91.4455C160.318 91.3886 160.662 91.3886 160.999 91.4455C161.439 91.5293 161.869 91.6589 162.281 91.8323C162.715 92.0252 163.109 92.2979 163.442 92.6363L162.587 93.6541C162.332 93.4065 162.04 93.2004 161.722 93.0434C161.446 92.9119 161.155 92.8128 160.856 92.7483C160.718 92.7276 160.577 92.7276 160.439 92.7483C160.303 92.7537 160.169 92.7812 160.042 92.8297C159.92 92.8737 159.811 92.9482 159.725 93.0461C159.64 93.1441 159.581 93.2623 159.554 93.3895C159.512 93.5185 159.512 93.6573 159.554 93.7864C159.615 93.9118 159.705 94.0202 159.818 94.1019C159.961 94.2197 160.119 94.3189 160.287 94.397C160.47 94.4988 160.683 94.6006 160.918 94.7024C161.519 94.9356 162.051 95.3172 162.465 95.8117C162.616 96.026 162.718 96.2718 162.762 96.5308C162.806 96.7898 162.792 97.0554 162.719 97.3078Z" fill="white"/>
<path d="M169.111 99.3437C169.015 99.6554 168.844 99.9387 168.612 100.168C168.394 100.379 168.129 100.536 167.839 100.626C167.509 100.728 167.164 100.766 166.821 100.738C166.45 100.714 166.084 100.642 165.732 100.524C165.249 100.366 164.793 100.136 164.378 99.8424C163.966 99.5181 163.62 99.1172 163.36 98.6618L164.47 97.9188C164.681 98.2369 164.938 98.5216 165.233 98.7635C165.5 98.9884 165.808 99.161 166.139 99.2724C166.33 99.3373 166.528 99.3784 166.729 99.3946C166.874 99.4082 167.021 99.3872 167.157 99.3335C167.272 99.3 167.375 99.2327 167.452 99.1401C167.528 99.0637 167.584 98.9692 167.615 98.8653C167.665 98.7309 167.665 98.5825 167.615 98.448C167.563 98.3086 167.479 98.1831 167.37 98.0816C167.229 97.9502 167.079 97.8278 166.923 97.7152L166.322 97.3183C166.081 97.1628 165.85 96.9928 165.63 96.8094C165.428 96.6439 165.253 96.4483 165.111 96.2293C164.971 96.0145 164.88 95.7711 164.846 95.5169C164.809 95.232 164.841 94.9425 164.938 94.6721C165.034 94.3868 165.186 94.1237 165.386 93.8986C165.579 93.6854 165.814 93.5154 166.078 93.3999C166.357 93.2763 166.658 93.2105 166.963 93.2065C167.31 93.2079 167.654 93.2664 167.981 93.3796C168.407 93.5129 168.817 93.6939 169.202 93.919C169.597 94.1602 169.943 94.4746 170.22 94.8451L169.253 95.751C169.023 95.484 168.76 95.2479 168.47 95.0487C168.214 94.8799 167.937 94.7464 167.645 94.6518C167.513 94.61 167.376 94.5827 167.238 94.5703C167.103 94.5493 166.966 94.5493 166.831 94.5703C166.708 94.5992 166.594 94.6548 166.495 94.7332C166.397 94.826 166.324 94.9413 166.281 95.0691C166.236 95.1974 166.236 95.3376 166.281 95.466C166.323 95.6025 166.4 95.7254 166.505 95.8222C166.635 95.9522 166.778 96.0682 166.933 96.1682C167.106 96.2904 167.299 96.4125 167.523 96.5448C168.092 96.8462 168.576 97.2875 168.928 97.8272C169.071 98.0497 169.162 98.3017 169.193 98.5644C169.225 98.827 169.197 99.0935 169.111 99.3437Z" fill="white"/>
<path d="M173.701 102.142L171.401 101.043L170.322 102.193L168.928 101.532L174.383 96.0356L175.726 96.6768L174.882 104.371L173.457 103.689L173.701 102.142ZM172.276 100.107L173.874 100.87L174.016 99.9031L174.322 97.8676L172.989 99.3434L172.276 100.107Z" fill="white"/>
<path d="M229.383 142.995L230.706 105.827C230.706 105.827 230.095 103.791 227.408 105.745C220.752 110.661 220.437 124.065 223.877 145.438C223.877 145.438 223.378 175.401 222.228 182.342C222.228 182.342 226.238 184.917 229.78 182.342C229.78 182.342 227.205 151.891 228.813 145.703C228.955 145.143 229.383 142.995 229.383 142.995Z" fill="white"/>
<path d="M66.9789 122.345L68.6277 105.043C68.6277 105.043 69.1162 104.514 69.3402 105.043L69.5335 120.482C69.5335 120.482 69.5335 121.307 70.2765 121.307C71.0195 121.307 70.765 120.737 70.7345 120.513C70.704 120.289 71.223 105.002 71.223 105.002C71.223 105.002 71.7115 104.361 71.9354 105.002L72.424 120.269C72.424 120.269 72.3527 121.205 73.1771 121.205C73.1771 121.205 73.6656 121.052 73.5435 120.075C73.4214 119.098 73.5435 105.002 73.5435 105.002C73.5435 105.002 73.9099 104.463 74.2457 104.88L75.2635 120.289C75.2635 120.289 75.2635 121.144 75.9352 121.144C76.607 121.144 76.4645 120.411 76.495 120.045C76.5255 119.678 76.2406 104.992 76.2406 104.992C76.2406 104.992 76.607 104.524 76.9225 104.911L78.6221 118.579C78.6221 118.579 79.3244 125.439 77.9402 128.563C77.4847 129.388 76.9531 130.168 76.3525 130.894C75.6702 131.555 75.1269 132.346 74.7546 133.219C74.3823 134.093 74.1885 135.033 74.1847 135.983C74.1847 137.489 77.238 182.718 77.238 182.718C76.1737 183.427 74.9238 183.805 73.6453 183.805C72.3668 183.805 71.1168 183.427 70.0526 182.718C70.0526 182.718 73.3196 142.11 71.7319 136.136C71.3818 133.918 70.3083 131.878 68.6786 130.334C67.1701 127.962 66.5668 125.126 66.9789 122.345Z" fill="white"/>
<path d="M140.827 118.589C128.614 118.65 118.05 119.729 118.05 119.729C118.05 119.729 128.594 120.808 140.827 120.869C141.13 120.869 141.42 120.749 141.633 120.535C141.847 120.321 141.967 120.032 141.967 119.729C141.967 119.427 141.847 119.137 141.633 118.923C141.42 118.709 141.13 118.589 140.827 118.589Z" fill="white"/>
<path d="M157.224 118.589C156.922 118.589 156.632 118.709 156.418 118.923C156.204 119.137 156.084 119.427 156.084 119.729C156.084 120.032 156.204 120.321 156.418 120.535C156.632 120.749 156.922 120.869 157.224 120.869C169.437 120.808 179.991 119.729 179.991 119.729C179.991 119.729 169.457 118.681 157.224 118.589Z" fill="white"/>
<path d="M149.021 121.541C149.903 121.541 150.619 120.826 150.619 119.943C150.619 119.061 149.903 118.345 149.021 118.345C148.138 118.345 147.423 119.061 147.423 119.943C147.423 120.826 148.138 121.541 149.021 121.541Z" fill="white"/>
</g>
<defs>
<clipPath id="clip0_121_2027">
<rect width="298" height="298" fill="white"/>
</clipPath>
</defs>
</svg>
