<svg width="203" height="60" viewBox="0 0 203 60" fill="none" xmlns="http://www.w3.org/2000/svg">
<g clip-path="url(#clip0_9_111)">
<path d="M195.5 0H8C3.85786 0 0.5 3.35786 0.5 7.5V52.5C0.5 56.6421 3.85786 60 8 60H195.5C199.642 60 203 56.6421 203 52.5V7.5C203 3.35786 199.642 0 195.5 0Z" fill="black"/>
<path d="M48.9035 30.4518C48.9365 27.9078 50.27 25.5573 52.439 24.2238C51.065 22.2618 48.8465 21.0618 46.4525 20.9868C43.934 20.7228 41.492 22.4943 40.208 22.4943C38.9 22.4943 36.923 21.0138 34.7945 21.0573C31.994 21.1473 29.447 22.7013 28.085 25.1493C25.184 30.1713 27.3485 37.5528 30.1265 41.6133C31.517 43.6008 33.1415 45.8223 35.2685 45.7428C37.349 45.6558 38.126 44.4168 40.637 44.4168C43.1255 44.4168 43.8545 45.7428 46.0235 45.6933C48.2555 45.6573 49.6625 43.6968 51.005 41.6898C52.004 40.2738 52.772 38.7078 53.282 37.0503C50.63 35.9283 48.9065 33.3303 48.9035 30.4518Z" fill="white"/>
<path d="M44.8055 18.3166C46.0235 16.8556 46.622 14.9776 46.478 13.0801C44.618 13.2751 42.9005 14.1646 41.666 15.5701C40.448 16.9561 39.83 18.7711 39.95 20.6116C41.834 20.6311 43.6235 19.7851 44.8055 18.3166Z" fill="white"/>
<path d="M75.203 40.7102H68.1035L66.398 45.7442H63.3905L70.115 27.1172H73.2395L79.964 45.7442H76.9055L75.2015 40.7102H75.203ZM68.8385 38.3867H74.4665L71.6915 30.2162H71.6135L68.837 38.3867H68.8385ZM94.49 38.9552C94.49 43.1747 92.231 45.8867 88.823 45.8867C87.0605 45.9782 85.4015 45.0557 84.5495 43.5107H84.485V50.2367H81.698V32.1632H84.3965V34.4222H84.4475C85.337 32.8862 86.9975 31.9637 88.772 32.0207C92.219 32.0207 94.4915 34.7447 94.4915 38.9537L94.49 38.9552ZM91.625 38.9552C91.625 36.2057 90.2045 34.3982 88.0355 34.3982C85.9055 34.3982 84.473 36.2432 84.473 38.9552C84.473 41.6912 85.9055 43.5242 88.0355 43.5242C90.203 43.5242 91.625 41.7302 91.625 38.9552ZM109.438 38.9552C109.438 43.1747 107.178 45.8867 103.771 45.8867C102.008 45.9782 100.349 45.0557 99.497 43.5107H99.4325V50.2367H96.6455V32.1632H99.344V34.4222H99.395C100.285 32.8862 101.945 31.9637 103.72 32.0207C107.167 32.0207 109.439 34.7447 109.439 38.9537L109.438 38.9552ZM106.572 38.9552C106.572 36.2057 105.152 34.3982 102.983 34.3982C100.853 34.3982 99.4205 36.2432 99.4205 38.9552C99.4205 41.6912 100.853 43.5242 102.983 43.5242C105.15 43.5242 106.572 41.7302 106.572 38.9552Z" fill="white"/>
<path d="M119.315 40.5542C119.522 42.4007 121.316 43.6142 123.769 43.6142C126.118 43.6142 127.808 42.4007 127.808 40.7357C127.808 39.2897 126.788 38.4242 124.375 37.8302L121.961 37.2482C118.541 36.4217 116.953 34.8227 116.953 32.2262C116.953 29.0117 119.753 26.8052 123.731 26.8052C127.667 26.8052 130.366 29.0132 130.456 32.2262H127.642C127.474 30.3677 125.936 29.2457 123.691 29.2457C121.445 29.2457 119.909 30.3812 119.909 32.0327C119.909 33.3497 120.89 34.1252 123.292 34.7177L125.344 35.2217C129.166 36.1262 130.753 37.6607 130.753 40.3847C130.753 43.8692 127.976 46.0517 123.562 46.0517C119.431 46.0517 116.642 43.9202 116.462 40.5512H119.315V40.5542ZM136.769 28.9502V32.1647H139.352V34.3727H136.769V41.8592C136.769 43.0217 137.287 43.5647 138.422 43.5647C138.728 43.5587 139.034 43.5377 139.339 43.5002V45.6947C138.829 45.7907 138.31 45.8327 137.791 45.8237C135.041 45.8237 133.969 44.7917 133.969 42.1577V34.3742H131.995V32.1662H133.969V28.9517H136.769V28.9502Z" fill="white"/>
<path d="M140.848 38.9551C140.848 34.6816 143.365 31.9966 147.289 31.9966C151.226 31.9966 153.731 34.6816 153.731 38.9551C153.731 43.2391 151.24 45.9136 147.289 45.9136C143.339 45.9136 140.848 43.2406 140.848 38.9551ZM150.89 38.9551C150.89 36.0241 149.546 34.2946 147.289 34.2946C145.03 34.2946 143.689 36.0376 143.689 38.9551C143.689 41.8981 145.031 43.6141 147.289 43.6141C149.548 43.6141 150.89 41.8966 150.89 38.9551Z" fill="white"/>
<path d="M156.029 32.1629H158.687V34.4744H158.752C159.122 32.9864 160.486 31.9619 162.019 32.0204C162.34 32.0189 162.661 32.0549 162.974 32.1239V34.7309C162.569 34.6064 162.146 34.5494 161.722 34.5629C160.903 34.5299 160.109 34.8569 159.551 35.4569C158.993 36.0569 158.725 36.8729 158.818 37.6874V45.7425H156.031V32.1614L156.029 32.1629Z" fill="white"/>
<path d="M175.826 41.7556C175.451 44.2216 173.05 45.9121 169.979 45.9121C166.028 45.9121 163.576 43.2646 163.576 39.0181C163.576 34.7581 166.042 31.9951 169.861 31.9951C173.618 31.9951 175.981 34.5766 175.981 38.6941V39.6496H166.388V39.8176C166.298 40.8286 166.648 41.8291 167.347 42.5656C168.046 43.3021 169.027 43.7011 170.042 43.6651C171.395 43.7911 172.67 43.0156 173.179 41.7556H175.826ZM166.403 37.7026H173.192C173.243 36.7936 172.912 35.9056 172.28 35.2516C171.647 34.5976 170.771 34.2361 169.862 34.2556C168.946 34.2496 168.064 34.6111 167.414 35.2591C166.765 35.9056 166.4 36.7861 166.403 37.7026Z" fill="white"/>
<path d="M68.489 13.0962C69.6725 13.0107 70.832 13.4622 71.648 14.3232C72.464 15.1842 72.851 16.3662 72.701 17.5437C72.701 20.4027 71.156 22.0467 68.489 22.0467H65.2565V13.0962H68.489ZM66.6455 20.7807H68.333C69.179 20.8317 70.0025 20.4987 70.5755 19.8732C71.1485 19.2492 71.4095 18.4002 71.285 17.5617C71.399 16.7277 71.135 15.8847 70.5635 15.2652C69.992 14.6457 69.1745 14.3142 68.333 14.3607H66.6455V20.7807ZM74.2715 18.6657C74.156 17.4552 74.7365 16.2837 75.77 15.6417C76.8035 14.9997 78.1115 14.9997 79.145 15.6417C80.1785 16.2837 80.759 17.4552 80.6435 18.6657C80.762 19.8777 80.1815 21.0522 79.1465 21.6942C78.1115 22.3362 76.8035 22.3362 75.7685 21.6942C74.7335 21.0522 74.1545 19.8777 74.2715 18.6657ZM79.271 18.6657C79.271 17.2017 78.614 16.3452 77.459 16.3452C76.301 16.3452 75.6485 17.2017 75.6485 18.6657C75.6485 20.1417 76.301 20.9907 77.459 20.9907C78.614 20.9907 79.271 20.1357 79.271 18.6657Z" fill="white"/>
<path d="M89.1095 22.0468H87.7265L86.33 17.0728H86.225L84.8345 22.0468H83.465L81.6035 15.2923H82.955L84.1655 20.4463H84.2645L85.6535 15.2923H86.933L88.322 20.4463H88.427L89.6315 15.2923H90.965L89.1095 22.0468ZM92.531 15.2923H93.8135V16.3648H93.9125C94.259 15.5743 95.069 15.0913 95.9285 15.1618C96.5945 15.1123 97.247 15.3673 97.7015 15.8563C98.156 16.3453 98.3645 17.0143 98.267 17.6743V22.0468H96.9335V18.0088C96.9335 16.9228 96.4625 16.3828 95.4755 16.3828C95.024 16.3618 94.586 16.5388 94.2755 16.8673C93.965 17.1958 93.815 17.6443 93.863 18.0943V22.0453H92.5295V15.2908L92.531 15.2923ZM100.391 12.6553H101.725V22.0468H100.391V12.6553Z" fill="white"/>
<path d="M103.577 18.6658C103.461 17.4553 104.042 16.2838 105.075 15.6418C106.109 14.9998 107.417 14.9998 108.45 15.6418C109.484 16.2838 110.064 17.4553 109.949 18.6658C110.067 19.8778 109.487 21.0523 108.452 21.6943C107.417 22.3363 106.107 22.3363 105.074 21.6943C104.039 21.0523 103.46 19.8778 103.577 18.6658ZM108.576 18.6658C108.576 17.2018 107.919 16.3453 106.764 16.3453C105.606 16.3453 104.954 17.2018 104.954 18.6658C104.954 20.1418 105.606 20.9908 106.764 20.9908C107.919 20.9908 108.576 20.1358 108.576 18.6658ZM111.351 20.1358C111.351 18.9193 112.257 18.2188 113.864 18.1198L115.694 18.0148V17.4313C115.694 16.7173 115.223 16.3153 114.311 16.3153C113.567 16.3153 113.051 16.5883 112.904 17.0653H111.614C111.75 15.9058 112.841 15.1603 114.374 15.1603C116.067 15.1603 117.023 16.0033 117.023 17.4298V22.0453H115.74V21.0958H115.635C115.199 21.7888 114.425 22.1938 113.606 22.1563C113.033 22.2163 112.46 22.0303 112.032 21.6448C111.603 21.2593 111.357 20.7103 111.356 20.1343L111.351 20.1358ZM115.694 19.5583V18.9943L114.044 19.0993C113.114 19.1623 112.692 19.4773 112.692 20.0728C112.692 20.6803 113.22 21.0343 113.945 21.0343C114.374 21.0778 114.803 20.9458 115.133 20.6668C115.463 20.3878 115.665 19.9888 115.694 19.5583ZM118.772 18.6658C118.772 16.5313 119.868 15.1798 121.575 15.1798C122.436 15.1408 123.245 15.6013 123.647 16.3648H123.746V12.6553H125.079V22.0468H123.801V20.9803H123.696C123.263 21.7363 122.447 22.1908 121.575 22.1593C119.856 22.1593 118.772 20.8078 118.772 18.6673V18.6658ZM120.149 18.6658C120.149 20.0983 120.824 20.9608 121.953 20.9608C123.077 20.9608 123.771 20.0863 123.771 18.6718C123.771 17.2648 123.069 16.3768 121.953 16.3768C120.831 16.3768 120.149 17.2453 120.149 18.6658ZM130.595 18.6658C130.479 17.4553 131.06 16.2838 132.093 15.6418C133.127 14.9998 134.435 14.9998 135.468 15.6418C136.502 16.2838 137.082 17.4553 136.967 18.6658C137.085 19.8778 136.505 21.0523 135.47 21.6943C134.435 22.3363 133.127 22.3363 132.092 21.6943C131.057 21.0523 130.478 19.8778 130.595 18.6658ZM135.594 18.6658C135.594 17.2018 134.937 16.3453 133.782 16.3453C132.624 16.3453 131.972 17.2018 131.972 18.6658C131.972 20.1418 132.624 20.9908 133.782 20.9908C134.937 20.9908 135.594 20.1358 135.594 18.6658Z" fill="white"/>
<path d="M138.753 15.2923H140.036V16.3648H140.135C140.481 15.5743 141.291 15.0913 142.151 15.1618C142.817 15.1123 143.469 15.3673 143.924 15.8563C144.378 16.3453 144.587 17.0143 144.489 17.6743V22.0468H143.156V18.0088C143.156 16.9228 142.685 16.3828 141.698 16.3828C141.246 16.3618 140.808 16.5388 140.498 16.8673C140.187 17.1958 140.037 17.6443 140.085 18.0943V22.0453H138.752V15.2908L138.753 15.2923ZM152.022 13.6108V15.3238H153.486V16.4473H152.022V19.9198C152.022 20.6278 152.313 20.9368 152.978 20.9368L153.486 20.9053V22.0153C153.246 22.0588 153.005 22.0813 152.762 22.0828C151.28 22.0828 150.689 21.5608 150.689 20.2588V16.4443H149.616V15.3208H150.689V13.6078H152.024L152.022 13.6108ZM155.307 12.6553H156.629V16.3768H156.734C157.097 15.5803 157.92 15.0958 158.793 15.1663C159.455 15.1303 160.098 15.3913 160.548 15.8788C160.998 16.3663 161.207 17.0278 161.12 17.6848V22.0453H159.785V18.0133C159.785 16.9348 159.282 16.3873 158.34 16.3873C157.877 16.3498 157.419 16.5178 157.092 16.8478C156.764 17.1778 156.599 17.6353 156.641 18.0988V22.0438H155.307V12.6523V12.6553Z" fill="white"/>
<path d="M168.891 20.2228C168.518 21.4963 167.285 22.3198 165.965 22.1773C165.065 22.2013 164.199 21.8278 163.598 21.1558C162.996 20.4838 162.722 19.5823 162.845 18.6898C162.725 17.7943 162.999 16.8913 163.596 16.2148C164.193 15.5383 165.056 15.1528 165.959 15.1603C167.838 15.1603 168.972 16.4443 168.972 18.5653V19.0303H164.202V19.1053C164.16 19.6063 164.331 20.1028 164.673 20.4703C165.015 20.8393 165.498 21.0448 166.001 21.0403C166.653 21.1183 167.288 20.7958 167.607 20.2213H168.89L168.891 20.2228ZM164.202 18.0463H167.613C167.648 17.5873 167.486 17.1358 167.169 16.8028C166.853 16.4698 166.41 16.2853 165.95 16.2958C165.483 16.2898 165.036 16.4728 164.706 16.8013C164.376 17.1313 164.195 17.5798 164.201 18.0448L164.202 18.0463Z" fill="white"/>
</g>
<defs>
<clipPath id="clip0_9_111">
<rect width="202.5" height="60" fill="white" transform="translate(0.5)"/>
</clipPath>
</defs>
</svg>
