<svg width="25" height="25" viewBox="0 0 25 25" fill="none" xmlns="http://www.w3.org/2000/svg">
<path d="M20.3128 10.417H4.68784C2.67744 10.417 1.04199 12.0524 1.04199 14.0628V15.4191C1.04199 17.7129 2.81074 19.6722 4.98574 19.7858C6.13574 19.8504 7.23989 19.442 8.07636 18.6472C8.39096 18.3493 8.65239 18.0118 8.85659 17.6441C9.56909 18.9243 10.9347 19.792 12.5003 19.792C14.066 19.792 15.4316 18.9243 16.1451 17.6441C16.3493 18.0118 16.6107 18.3493 16.9253 18.6472C17.7066 19.39 18.717 19.792 19.7899 19.792C19.8639 19.792 19.9399 19.7899 20.0149 19.7858C22.1899 19.6722 23.9587 17.7129 23.9587 15.4191V14.0628C23.9587 12.0524 22.3232 10.417 20.3128 10.417ZM22.917 15.4191C22.917 17.167 21.591 18.6597 19.9607 18.7462C19.093 18.7941 18.2691 18.4879 17.641 17.8931C17.0128 17.2962 16.667 16.491 16.667 15.6254C16.667 15.3378 16.4336 15.1045 16.1461 15.1045C15.8586 15.1045 15.6253 15.3378 15.6253 15.6254C15.6253 17.3483 14.2232 18.7504 12.5003 18.7504C10.7774 18.7504 9.37534 17.3483 9.37534 15.6254C9.37534 15.3378 9.14199 15.1045 8.85449 15.1045C8.56699 15.1045 8.33364 15.3378 8.33364 15.6254C8.33364 16.491 7.98779 17.2962 7.35967 17.8931C6.73154 18.4879 5.90444 18.7889 5.03989 18.7462C3.40967 18.6597 2.08364 17.1681 2.08364 15.4191V14.0628C2.08364 12.6264 3.25239 11.4587 4.68779 11.4587H20.3128C21.7482 11.4587 22.9169 12.6264 22.9169 14.0628V15.4191H22.917Z" fill="#CD2C31"/>
<path d="M21.3542 18.3789C21.0667 18.3789 20.8333 18.6123 20.8333 18.8998V22.3956C20.8333 23.2571 20.1323 23.9581 19.2708 23.9581H5.72915C4.86768 23.9581 4.16665 23.2571 4.16665 22.3956V18.9008C4.16665 18.6133 3.9333 18.38 3.6458 18.38C3.3583 18.38 3.125 18.6133 3.125 18.9008V22.3956C3.125 23.832 4.29375 24.9998 5.72915 24.9998H19.2708C20.7062 24.9998 21.875 23.832 21.875 22.3956V18.8998C21.875 18.6123 21.6417 18.3789 21.3542 18.3789Z" fill="#CD2C31"/>
<path d="M13.0211 5.20801H11.9795C11.118 5.20801 10.417 5.90903 10.417 6.77051V10.9372C10.417 11.2247 10.6503 11.458 10.9378 11.458H14.0628C14.3503 11.458 14.5837 11.2247 14.5837 10.9372V6.77051C14.5836 5.90903 13.8826 5.20801 13.0211 5.20801ZM13.5419 10.4163H11.4586V6.77046C11.4586 6.48399 11.6919 6.24961 11.9794 6.24961H13.0211C13.3086 6.24961 13.5419 6.48399 13.5419 6.77046V10.4163Z" fill="#CD2C31"/>
<path d="M12.9618 0.280225C12.8722 0.10835 12.6951 0.00107422 12.5014 0C12.3347 0.0229004 12.1316 0.107275 12.0399 0.2771C11.6597 0.994824 10.417 3.39687 10.417 4.1667C10.4169 5.31563 11.3513 6.25 12.5003 6.25C13.6493 6.25 14.5836 5.31563 14.5836 4.16665C14.5836 3.46353 13.4493 1.2146 12.9618 0.280225ZM12.5003 5.20835C11.9263 5.20835 11.4586 4.7417 11.4586 4.16772C11.4649 3.8875 11.944 2.78647 12.4972 1.66875C13.0461 2.78647 13.5274 3.88647 13.5419 4.16875C13.5409 4.74272 13.0743 5.20835 12.5003 5.20835Z" fill="#CD2C31"/>
</svg>
