<svg width="25" height="25" viewBox="0 0 25 25" fill="none" xmlns="http://www.w3.org/2000/svg">
<g clip-path="url(#clip0_178_646)">
<path d="M24.5675 3.89571C24.2109 3.46324 23.6824 3.21539 23.1175 3.21539H8.61185C8.31473 3.21539 8.07362 3.45651 8.07362 3.75362C8.07362 4.05074 8.31473 4.29186 8.61185 4.29186H23.1172C23.3629 4.29186 23.5831 4.39439 23.7368 4.58062C23.8929 4.77008 23.9553 5.01983 23.9082 5.26285L21.7571 16.0188C21.6737 16.4031 21.3478 16.6714 20.9645 16.6714H9.00018L4.06048 1.79953C3.79349 1.03683 3.07064 0.524433 2.24281 0.524433C2.24257 0.524433 2.24227 0.524433 2.24198 0.524433C1.53983 0.548652 0.827771 0.548408 0.653357 0.536543C0.479773 0.498847 0.292175 0.547285 0.157654 0.681855C-0.0525513 0.892059 -0.0525513 1.23273 0.157654 1.44294C0.324255 1.60954 0.380505 1.66579 2.26058 1.60065C2.61312 1.60065 2.92826 1.8235 3.04159 2.14694L8.10106 17.3794C8.17425 17.5993 8.37987 17.7478 8.61185 17.7478H20.9645C21.8585 17.7478 22.6169 17.1307 22.8109 16.2386L24.9647 5.47081C25.0734 4.90787 24.9289 4.33385 24.5675 3.89571Z" fill="#CD2C31"/>
<path d="M20.7221 20.7084H10.9262C10.5949 20.7084 10.2835 20.4802 10.1713 20.16L9.12172 17.0381C9.027 16.7564 8.72099 16.6043 8.44003 16.6996C8.15825 16.794 8.00673 17.0995 8.10146 17.3813L9.15317 20.5092C9.4204 21.2722 10.1328 21.7846 10.9261 21.7846H20.7221C21.0192 21.7846 21.2603 21.5437 21.2603 21.2466C21.2603 20.9494 21.0193 20.7084 20.7221 20.7084Z" fill="#CD2C31"/>
<path d="M11.3028 20.7082C10.264 20.7082 9.41895 21.5535 9.41895 22.592C9.41895 23.6305 10.264 24.4758 11.3028 24.4758C12.3416 24.4758 13.1866 23.6305 13.1866 22.592C13.1866 21.5535 12.3416 20.7082 11.3028 20.7082ZM11.3028 23.3994C10.8577 23.3994 10.4954 23.0371 10.4954 22.592C10.4954 22.1469 10.8577 21.7846 11.3028 21.7846C11.7479 21.7846 12.1102 22.1469 12.1102 22.592C12.1102 23.0372 11.7479 23.3994 11.3028 23.3994Z" fill="#CD2C31"/>
<path d="M20.7222 20.7082C19.6837 20.7082 18.8384 21.5535 18.8384 22.592C18.8384 23.6305 19.6837 24.4758 20.7222 24.4758C21.7607 24.4758 22.606 23.6305 22.606 22.592C22.606 21.5535 21.7607 20.7082 20.7222 20.7082ZM20.7222 23.3994C20.2771 23.3994 19.9148 23.0371 19.9148 22.592C19.9148 22.1469 20.2771 21.7846 20.7222 21.7846C21.1673 21.7846 21.5296 22.1469 21.5296 22.592C21.5296 23.0372 21.1673 23.3994 20.7222 23.3994Z" fill="#CD2C31"/>
</g>
<defs>
<clipPath id="clip0_178_646">
<rect width="25" height="25" fill="white"/>
</clipPath>
</defs>
</svg>
