<svg width="45" height="45" viewBox="0 0 45 45" fill="none" xmlns="http://www.w3.org/2000/svg">
<path d="M7.03125 14.7656H5.625C4.07171 14.7656 2.8125 16.0248 2.8125 17.5781V21.7969H9.84375V17.5781C9.84375 16.0248 8.58454 14.7656 7.03125 14.7656Z" fill="#BE5000"/>
<path d="M7.03125 16.1719H5.625C4.84831 16.1719 4.21875 16.8014 4.21875 17.5781V21.7969H8.4375V17.5781C8.4375 16.8014 7.80794 16.1719 7.03125 16.1719Z" fill="#DC6E1E"/>
<path d="M11.9531 17.5781H14.7656C15.1539 17.5781 15.4688 17.8929 15.4688 18.2812V21.7969H11.25V18.2812C11.25 17.8929 11.5648 17.5781 11.9531 17.5781Z" fill="#4B8C41"/>
<path d="M14.7656 16.1719H17.5781C17.9664 16.1719 18.2812 16.4867 18.2812 16.875V21.7969H14.0625V16.875C14.0625 16.4867 14.3773 16.1719 14.7656 16.1719Z" fill="#91B945"/>
<path d="M37.9688 26.0156C40.2987 26.0156 42.1875 24.1268 42.1875 21.7969C42.1875 19.4669 40.2987 17.5781 37.9688 17.5781C35.6388 17.5781 33.75 19.4669 33.75 21.7969C33.75 24.1268 35.6388 26.0156 37.9688 26.0156Z" fill="#D7E6E6"/>
<path d="M12.3047 21.7969C12.3047 21.3418 12.9186 20.7949 12.7852 20.3842C12.647 19.9586 11.8244 19.8781 11.5665 19.5238C11.3061 19.166 11.482 18.3596 11.1242 18.0992C10.7699 17.8414 10.0585 18.256 9.63292 18.1179C9.22229 17.9845 8.89262 17.2266 8.43752 17.2266C7.98242 17.2266 7.65274 17.9845 7.24203 18.1179C6.81647 18.2561 6.10508 17.8415 5.75079 18.0993C5.39299 18.3597 5.56886 19.1661 5.30844 19.5239C5.05066 19.8782 4.228 19.9586 4.08984 20.3843C3.95642 20.7949 4.57033 21.3418 4.57033 21.7969C4.57033 22.252 3.95642 22.7988 4.08984 23.2095C4.228 23.6351 5.05066 23.7156 5.30853 24.0699C5.56895 24.4277 5.39308 25.2341 5.75088 25.4945C6.10517 25.7523 6.81655 25.3377 7.24212 25.4759C7.65274 25.6092 7.98242 26.3672 8.43752 26.3672C8.89262 26.3672 9.22229 25.6092 9.63301 25.4758C10.0586 25.3376 10.77 25.7522 11.1242 25.4944C11.482 25.234 11.3062 24.4276 11.5666 24.0698C11.8244 23.7155 12.647 23.6351 12.7852 23.2095C12.9186 22.7988 12.3047 22.252 12.3047 21.7969V21.7969Z" fill="#D7E6E6"/>
<path d="M8.4375 24.9609C6.69278 24.9609 5.27344 23.5416 5.27344 21.7969C5.27344 20.0522 6.69278 18.6328 8.4375 18.6328C10.1822 18.6328 11.6016 20.0522 11.6016 21.7969C11.6016 23.5416 10.1822 24.9609 8.4375 24.9609ZM8.4375 19.3359C7.08056 19.3359 5.97656 20.4399 5.97656 21.7969C5.97656 23.1538 7.08056 24.2578 8.4375 24.2578C9.79444 24.2578 10.8984 23.1538 10.8984 21.7969C10.8984 20.4399 9.79444 19.3359 8.4375 19.3359Z" fill="#FF8773"/>
<path d="M8.43747 23.3203C7.59741 23.3203 6.91406 22.6369 6.91406 21.7968C6.91406 20.9568 7.59741 20.2734 8.43747 20.2734C9.27753 20.2734 9.96088 20.9568 9.96088 21.7968C9.96088 22.6369 9.27753 23.3203 8.43747 23.3203ZM8.43747 20.9766C7.98519 20.9766 7.61719 21.3446 7.61719 21.7968C7.61719 22.2491 7.98519 22.6171 8.43747 22.6171C8.88976 22.6171 9.25775 22.2491 9.25775 21.7968C9.25775 21.3446 8.88976 20.9766 8.43747 20.9766Z" fill="#FF8773"/>
<path d="M37.9688 23.9062C39.1337 23.9062 40.0781 22.9619 40.0781 21.7969C40.0781 20.6319 39.1337 19.6875 37.9688 19.6875C36.8038 19.6875 35.8594 20.6319 35.8594 21.7969C35.8594 22.9619 36.8038 23.9062 37.9688 23.9062Z" fill="#FABE19"/>
<path d="M31.6406 26.0156C33.9706 26.0156 35.8594 24.1268 35.8594 21.7969C35.8594 19.4669 33.9706 17.5781 31.6406 17.5781C29.3107 17.5781 27.4219 19.4669 27.4219 21.7969C27.4219 24.1268 29.3107 26.0156 31.6406 26.0156Z" fill="#D7E6E6"/>
<path d="M31.6406 23.9062C32.8056 23.9062 33.75 22.9619 33.75 21.7969C33.75 20.6319 32.8056 19.6875 31.6406 19.6875C30.4756 19.6875 29.5312 20.6319 29.5312 21.7969C29.5312 22.9619 30.4756 23.9062 31.6406 23.9062Z" fill="#FABE19"/>
<path d="M14.7656 4.92188H43.5938V3.51562H14.7656C14.3773 3.51562 14.0625 3.83045 14.0625 4.21875C14.0625 4.60705 14.3773 4.92188 14.7656 4.92188Z" fill="#D7322D"/>
<path d="M14.7656 7.73438H43.5938V6.32812H14.7656C14.3773 6.32812 14.0625 6.64295 14.0625 7.03125C14.0625 7.41955 14.3773 7.73438 14.7656 7.73438Z" fill="#D7322D"/>
<path d="M14.0625 4.21875H43.5938V3.51562H14.7656C14.3773 3.51562 14.0625 3.83045 14.0625 4.21875Z" fill="#F04B37"/>
<path d="M14.0625 7.03125H43.5938V6.32812H14.7656C14.3773 6.32812 14.0625 6.64295 14.0625 7.03125Z" fill="#F04B37"/>
<path d="M18.2812 22.8516C17.6988 22.8516 17.2266 22.3793 17.2266 21.7969C17.2266 20.5938 17.7826 19.9544 18.1884 19.4875C18.4935 19.1367 18.6328 18.9766 18.6328 18.5623C18.6328 18.1481 18.4936 17.988 18.1884 17.6371C17.7826 17.17 17.2266 16.5307 17.2266 15.3277C17.2266 14.1246 17.7826 13.4853 18.1885 13.0185C18.4936 12.6678 18.6328 12.5076 18.6328 12.0936C18.6328 11.6794 18.4936 11.5194 18.1885 11.1685C17.7826 10.7016 17.2266 10.0622 17.2266 8.85911C17.2266 7.65606 17.7826 7.01675 18.1885 6.54996C18.4936 6.19919 18.6328 6.03905 18.6328 5.625C18.6328 5.04255 19.105 4.57031 19.6875 4.57031C20.27 4.57031 20.7422 5.04255 20.7422 5.625C20.7422 6.82805 20.1862 7.46736 19.7802 7.93406C19.4752 8.28483 19.3359 8.44497 19.3359 8.85902C19.3359 9.27325 19.4752 9.4333 19.7803 9.78416C20.1863 10.251 20.7422 10.8904 20.7422 12.0933C20.7422 13.2963 20.1862 13.9356 19.7802 14.4024C19.4752 14.7532 19.3359 14.9133 19.3359 15.3274C19.3359 15.7417 19.4752 15.9018 19.7803 16.2526C20.1863 16.7196 20.7422 17.3589 20.7422 18.562C20.7422 19.765 20.1862 20.4044 19.7803 20.8713C19.4752 21.2225 19.3359 21.3826 19.3359 21.7969C19.3359 22.3793 18.8637 22.8516 18.2812 22.8516Z" fill="#F5871E"/>
<path d="M16.1719 22.8516C15.5894 22.8516 15.1172 22.3793 15.1172 21.7969C15.1172 20.5938 15.6732 19.9544 16.0791 19.4875C16.3841 19.1367 16.5234 18.9766 16.5234 18.5623C16.5234 18.1481 16.3842 17.988 16.0791 17.6371C15.6732 17.17 15.1172 16.5307 15.1172 15.3277C15.1172 14.1246 15.6732 13.4853 16.0792 13.0185C16.3842 12.6678 16.5234 12.5076 16.5234 12.0936C16.5234 11.6794 16.3842 11.5194 16.0792 11.1685C15.6732 10.7016 15.1172 10.0622 15.1172 8.85911C15.1172 7.65606 15.6732 7.01675 16.0792 6.54996C16.3842 6.19919 16.5234 6.03905 16.5234 5.625C16.5234 5.04255 16.9957 4.57031 17.5781 4.57031C18.1606 4.57031 18.6328 5.04255 18.6328 5.625C18.6328 6.82805 18.0768 7.46736 17.6708 7.93406C17.3658 8.28483 17.2266 8.44497 17.2266 8.85902C17.2266 9.27325 17.3658 9.4333 17.6709 9.78416C18.0769 10.251 18.6328 10.8904 18.6328 12.0933C18.6328 13.2963 18.0768 13.9356 17.6708 14.4024C17.3658 14.7532 17.2266 14.9133 17.2266 15.3274C17.2266 15.7417 17.3658 15.9018 17.6709 16.2526C18.0769 16.7196 18.6328 17.3589 18.6328 18.562C18.6328 19.765 18.0768 20.4044 17.6709 20.8713C17.3658 21.2225 17.2266 21.3826 17.2266 21.7969C17.2266 22.3793 16.7543 22.8516 16.1719 22.8516Z" fill="#FABE19"/>
<path d="M22.5 22.8516C21.9175 22.8516 21.4453 22.3793 21.4453 21.7969C21.4453 20.5938 22.0013 19.9544 22.4072 19.4875C22.7123 19.1367 22.8516 18.9766 22.8516 18.5623C22.8516 18.1481 22.7123 17.988 22.4072 17.6371C22.0013 17.17 21.4453 16.5307 21.4453 15.3277C21.4453 14.1246 22.0013 13.4853 22.4073 13.0185C22.7123 12.6678 22.8516 12.5076 22.8516 12.0936C22.8516 11.6794 22.7123 11.5194 22.4073 11.1685C22.0013 10.7016 21.4453 10.0622 21.4453 8.85911C21.4453 7.65606 22.0013 7.01675 22.4073 6.54996C22.7123 6.19919 22.8516 6.03905 22.8516 5.625C22.8516 5.04255 23.3238 4.57031 23.9062 4.57031C24.4887 4.57031 24.9609 5.04255 24.9609 5.625C24.9609 6.82805 24.4049 7.46736 23.999 7.93406C23.6939 8.28483 23.5547 8.44497 23.5547 8.85902C23.5547 9.27325 23.6939 9.4333 23.9991 9.78416C24.4049 10.251 24.9609 10.8904 24.9609 12.0933C24.9609 13.2963 24.4049 13.9356 23.9991 14.4024C23.6939 14.7532 23.5547 14.9133 23.5547 15.3274C23.5547 15.7417 23.6939 15.9018 23.9991 16.2526C24.405 16.7196 24.9609 17.3589 24.9609 18.562C24.9609 19.765 24.405 20.4044 23.9991 20.8713C23.6939 21.2225 23.5547 21.3826 23.5547 21.7969C23.5547 22.3793 23.0825 22.8516 22.5 22.8516Z" fill="#F5871E"/>
<path d="M20.3906 22.8516C19.8082 22.8516 19.3359 22.3793 19.3359 21.7969C19.3359 20.5938 19.8919 19.9544 20.2978 19.4875C20.6029 19.1367 20.7422 18.9766 20.7422 18.5623C20.7422 18.1481 20.603 17.988 20.2978 17.6371C19.8919 17.17 19.3359 16.5307 19.3359 15.3277C19.3359 14.1246 19.8919 13.4853 20.2979 13.0185C20.603 12.6678 20.7422 12.5076 20.7422 12.0936C20.7422 11.6794 20.603 11.5194 20.2979 11.1685C19.8919 10.7016 19.3359 10.0622 19.3359 8.85911C19.3359 7.65606 19.8919 7.01675 20.2979 6.54996C20.603 6.19919 20.7422 6.03905 20.7422 5.625C20.7422 5.04255 21.2144 4.57031 21.7969 4.57031C22.3793 4.57031 22.8516 5.04255 22.8516 5.625C22.8516 6.82805 22.2956 7.46736 21.8896 7.93406C21.5845 8.28483 21.4453 8.44497 21.4453 8.85902C21.4453 9.27325 21.5845 9.4333 21.8897 9.78416C22.2957 10.251 22.8516 10.8904 22.8516 12.0933C22.8516 13.2963 22.2956 13.9356 21.8896 14.4024C21.5845 14.7532 21.4453 14.9133 21.4453 15.3274C21.4453 15.7417 21.5845 15.9018 21.8897 16.2526C22.2957 16.7196 22.8516 17.3589 22.8516 18.562C22.8516 19.765 22.2956 20.4044 21.8897 20.8713C21.5845 21.2225 21.4453 21.3826 21.4453 21.7969C21.4453 22.3793 20.9731 22.8516 20.3906 22.8516Z" fill="#FABE19"/>
<path d="M26.7188 22.8516C26.1363 22.8516 25.6641 22.3793 25.6641 21.7969C25.6641 20.5938 26.22 19.9544 26.6259 19.4875C26.9311 19.1367 27.0703 18.9766 27.0703 18.5623C27.0703 18.1481 26.9311 17.988 26.6259 17.6371C26.22 17.17 25.6641 16.5307 25.6641 15.3277C25.6641 14.1246 26.2201 13.4853 26.626 13.0185C26.9311 12.6678 27.0703 12.5076 27.0703 12.0936C27.0703 11.6794 26.9311 11.5194 26.626 11.1685C26.2201 10.7016 25.6641 10.0622 25.6641 8.85911C25.6641 7.65606 26.2201 7.01675 26.626 6.54996C26.9311 6.19919 27.0703 6.03905 27.0703 5.625C27.0703 5.04255 27.5425 4.57031 28.125 4.57031C28.7075 4.57031 29.1797 5.04255 29.1797 5.625C29.1797 6.82805 28.6237 7.46736 28.2177 7.93406C27.9127 8.28483 27.7734 8.44497 27.7734 8.85902C27.7734 9.27325 27.9127 9.4333 28.2178 9.78416C28.6237 10.251 29.1797 10.8904 29.1797 12.0933C29.1797 13.2963 28.6237 13.9356 28.2178 14.4024C27.9127 14.7532 27.7734 14.9133 27.7734 15.3274C27.7734 15.7417 27.9127 15.9018 28.2178 16.2526C28.6238 16.7196 29.1797 17.3589 29.1797 18.562C29.1797 19.765 28.6238 20.4044 28.2178 20.8713C27.9127 21.2225 27.7734 21.3826 27.7734 21.7969C27.7734 22.3793 27.3012 22.8516 26.7188 22.8516Z" fill="#F5871E"/>
<path d="M24.6094 22.8516C24.0269 22.8516 23.5547 22.3793 23.5547 21.7969C23.5547 20.5938 24.1106 19.9544 24.5166 19.4875C24.8217 19.1367 24.9609 18.9766 24.9609 18.5623C24.9609 18.1481 24.8217 17.988 24.5166 17.6371C24.1106 17.17 23.5547 16.5307 23.5547 15.3277C23.5547 14.1246 24.1107 13.4853 24.5167 13.0185C24.8217 12.6678 24.9609 12.5076 24.9609 12.0936C24.9609 11.6794 24.8217 11.5194 24.5167 11.1685C24.1107 10.7016 23.5547 10.0622 23.5547 8.85911C23.5547 7.65606 24.1107 7.01675 24.5167 6.54996C24.8217 6.19919 24.9609 6.03905 24.9609 5.625C24.9609 5.04255 25.4332 4.57031 26.0156 4.57031C26.5981 4.57031 27.0703 5.04255 27.0703 5.625C27.0703 6.82805 26.5143 7.46736 26.1083 7.93406C25.8033 8.28483 25.6641 8.44497 25.6641 8.85902C25.6641 9.27325 25.8033 9.4333 26.1084 9.78416C26.5143 10.251 27.0703 10.8904 27.0703 12.0933C27.0703 13.2963 26.5143 13.9356 26.1084 14.4024C25.8033 14.7532 25.6641 14.9133 25.6641 15.3274C25.6641 15.7417 25.8033 15.9018 26.1084 16.2526C26.5144 16.7196 27.0703 17.3589 27.0703 18.562C27.0703 19.765 26.5144 20.4044 26.1084 20.8713C25.8033 21.2225 25.6641 21.3826 25.6641 21.7969C25.6641 22.3793 25.1918 22.8516 24.6094 22.8516Z" fill="#FABE19"/>
<path d="M29.5312 38.6719H15.4688C7.70221 38.6719 1.40625 32.3759 1.40625 24.6094V23.2031C1.40625 22.4264 2.03581 21.7969 2.8125 21.7969H42.1875C42.9642 21.7969 43.5938 22.4264 43.5938 23.2031V24.6094C43.5938 32.3759 37.2978 38.6719 29.5312 38.6719Z" fill="#F04B37"/>
<path d="M15.4688 37.2656C8.49006 37.2656 2.8125 31.5881 2.8125 24.6094V23.9062C2.8125 23.5179 3.12732 23.2031 3.51562 23.2031C3.90393 23.2031 4.21875 23.5179 4.21875 23.9062V24.6094C4.21875 30.8126 9.26543 35.8594 15.4688 35.8594C15.8571 35.8594 16.1719 36.1742 16.1719 36.5625C16.1719 36.9508 15.8571 37.2656 15.4688 37.2656Z" fill="#FF6955"/>
<path d="M42.1875 21.7969H28.125C28.9017 21.7969 29.5312 22.4264 29.5312 23.2031V24.6094C29.5312 32.3758 23.2352 38.6719 15.4688 38.6719H29.5312C37.2977 38.6719 43.5938 32.3758 43.5938 24.6094V23.2031C43.5938 22.4264 42.9642 21.7969 42.1875 21.7969Z" fill="#D7322D"/>
<path d="M28.125 41.4844H16.875C16.0983 41.4844 15.4688 40.8548 15.4688 40.0781V38.6719H29.5312V40.0781C29.5312 40.8548 28.9017 41.4844 28.125 41.4844Z" fill="#D7322D"/>
</svg>
