<svg width="45" height="45" viewBox="0 0 45 45" fill="none" xmlns="http://www.w3.org/2000/svg">
<path d="M45 2.63672C45 4.08691 43.8135 5.27344 42.3633 5.27344H0V1.31836C0 0.590273 0.590273 0 1.31836 0H42.3633C43.8135 0 45 1.18652 45 2.63672Z" fill="#FEDBAB"/>
<path d="M45 2.63672C45 4.08691 43.8135 5.27344 42.3633 5.27344H0V2.63672H45Z" fill="#FEC478"/>
<path d="M23.7305 22.5C23.7305 24.4512 22.3329 26.0595 20.4874 26.3759L17.1387 23.8184L17.4551 26.4551H12.6036L11.8652 25.8223L9.51855 23.8184L9.54492 26.4551H3.95508C1.76651 26.4551 0 24.6884 0 22.5C0 19.9423 1.50293 17.7275 3.63867 16.6464L6.64453 18.8085L6.30176 15.9346C6.40714 15.9346 6.48633 15.9082 6.5918 15.9082H11.1269L11.8652 16.5674L14.0538 18.5449L14.1856 15.9082H17.1387C20.7773 15.9082 23.7305 18.8613 23.7305 22.5Z" fill="#FD4E26"/>
<path d="M23.7305 22.5C23.7305 24.4512 22.3329 26.0595 20.4874 26.3759L17.1387 23.8184L17.4551 26.4551H12.6036L11.8652 25.8223V16.5674L14.0538 18.5449L14.1856 15.9082H17.1387C20.7773 15.9082 23.7305 18.8613 23.7305 22.5Z" fill="#FD3018"/>
<path d="M23.7305 29.0918V31.7285C23.7305 33.1787 22.5439 34.3652 21.0938 34.3652H2.63672C1.18652 34.3652 0 33.1787 0 31.7285V29.0918C0 27.6416 1.18652 26.4551 2.63672 26.4551H21.0938C22.5439 26.4551 23.7305 27.6416 23.7305 29.0918Z" fill="#E5E5E5"/>
<path d="M15.8203 26.4551H7.91016V34.3652H15.8203V26.4551Z" fill="#57555C"/>
<path d="M38.4082 15.9082H33.1348C29.4961 15.9082 26.543 18.8613 26.543 22.5V27.7734C26.543 31.4121 29.4961 34.3652 33.1348 34.3652H38.4082C42.0469 34.3652 45 31.4121 45 27.7734V22.5C45 18.8613 42.0469 15.9082 38.4082 15.9082Z" fill="#57555C"/>
<path d="M45 22.5V27.7734C45 31.4121 42.0469 34.3652 38.4082 34.3652H35.7715V15.9082H38.4082C42.0469 15.9082 45 18.8613 45 22.5Z" fill="#3C3A41"/>
<path d="M38.4082 18.5449H33.1348C30.9462 18.5449 29.1797 20.3114 29.1797 22.5V27.7734C29.1797 29.9618 30.9462 31.7285 33.1348 31.7285H38.4082C40.5968 31.7285 42.3633 29.9618 42.3633 27.7734V22.5C42.3633 20.3114 40.5968 18.5449 38.4082 18.5449Z" fill="#E5E5E5"/>
<path d="M9.22852 45H6.5918C4.41088 45 2.63672 43.2258 2.63672 41.0449V38.3203C2.63672 37.5916 3.22638 37.002 3.95508 37.002H11.8652C12.5939 37.002 13.1836 37.5916 13.1836 38.3203V41.0449C13.1836 43.2258 11.4094 45 9.22852 45Z" fill="#994C10"/>
<path d="M38.4082 45H35.7715C33.5906 45 31.8164 43.2258 31.8164 41.0449V38.3203C31.8164 37.5916 32.4061 37.002 33.1348 37.002H41.0449C41.7736 37.002 42.3633 37.5916 42.3633 38.3203V41.0449C42.3633 43.2258 40.5891 45 38.4082 45Z" fill="#713708"/>
<path d="M43.6816 34.3652H1.31836C0.57999 34.3652 0 34.9452 0 35.6836V38.3203C0 39.0585 0.57999 39.6387 1.31836 39.6387H43.6816C44.42 39.6387 45 39.0585 45 38.3203V35.6836C45 34.9452 44.42 34.3652 43.6816 34.3652Z" fill="#FD8822"/>
<path d="M20.4874 26.3759C20.25 26.4287 20.0128 26.4551 19.7754 26.4551H17.4551L11.8652 17.1474L11.1269 15.9082H14.1855L20.4874 26.3759Z" fill="#FD3018"/>
<path d="M12.6036 26.4551H9.54492L3.63867 16.6464C4.45605 16.2246 5.35263 15.9872 6.30176 15.9346L11.8652 25.2157L12.6036 26.4551Z" fill="#FD3018"/>
<path d="M12.6036 26.4551H11.8652V25.2158L12.6036 26.4551Z" fill="#E61E14"/>
<path d="M20.4874 26.3759C20.25 26.4287 20.0128 26.4551 19.7754 26.4551H17.4551L11.8652 17.1474V15.9082H14.1855L20.4874 26.3759Z" fill="#B80000"/>
<path d="M45 35.6836V38.3203C45 39.0585 44.42 39.6387 43.6816 39.6387H22.4121V34.3652H43.6816C44.42 34.3652 45 34.9452 45 35.6836Z" fill="#E5741A"/>
<path d="M42.3633 22.5V27.7734C42.3633 29.9618 40.5968 31.7285 38.4082 31.7285H35.7715V18.5449H38.4082C40.5968 18.5449 42.3633 20.3114 42.3633 22.5Z" fill="#D9D9D9"/>
<path d="M35.7715 21.1816C33.5829 21.1816 31.8164 22.9482 31.8164 25.1367C31.8164 27.3251 33.5829 29.0918 35.7715 29.0918C37.96 29.0918 39.7266 27.3251 39.7266 25.1367C39.7266 22.9482 37.96 21.1816 35.7715 21.1816Z" fill="#FD4E26"/>
<path d="M39.7266 25.1367C39.7266 27.3251 37.96 29.0918 35.7715 29.0918V21.1816C37.96 21.1816 39.7266 22.9482 39.7266 25.1367Z" fill="#FD3018"/>
<path d="M23.7305 29.0918V31.7285C23.7305 33.1787 22.5439 34.3652 21.0938 34.3652H11.8652V26.4551H21.0938C22.5439 26.4551 23.7305 27.6416 23.7305 29.0918Z" fill="#D9D9D9"/>
<path d="M15.8203 26.4551H11.8652V34.3652H15.8203V26.4551Z" fill="#3C3A41"/>
<path d="M37.0898 0H26.543V5.27344H37.0898V0Z" fill="#FD4E26"/>
<path d="M37.0898 2.63672H26.543V5.27344H37.0898V2.63672Z" fill="#FD3018"/>
<path d="M45 7.91016C45 9.36035 43.8135 10.5469 42.3633 10.5469H1.31836C0.57999 10.5469 0 9.96671 0 9.22852V5.27344H42.3633C43.8135 5.27344 45 6.45996 45 7.91016Z" fill="#FEDBAB"/>
<path d="M45 7.91016C45 9.36035 43.8135 10.5469 42.3633 10.5469H1.31836C0.57999 10.5469 0 9.96671 0 9.22852V7.91016H45Z" fill="#FEC478"/>
<path d="M37.0898 5.27344H26.543V10.5469H37.0898V5.27344Z" fill="#FD4E26"/>
<path d="M37.0898 7.91016H26.543V10.5469H37.0898V7.91016Z" fill="#FD3018"/>
</svg>
