<svg width="45" height="45" viewBox="0 0 45 45" fill="none" xmlns="http://www.w3.org/2000/svg">
<g clip-path="url(#clip0_3_1505)">
<path d="M8.73039 18.4098C8.89325 18.4782 9.05761 18.5378 9.22284 18.589C9.59603 18.0439 10.2227 17.6854 10.9318 17.6854C11.1411 17.6854 11.3478 17.7166 11.5461 17.7781L11.724 17.8333L11.6535 17.6609C11.5746 17.4682 11.5264 17.2676 11.5081 17.0626C10.6665 16.4305 10.0243 15.5504 9.67899 14.5101C9.55226 14.1284 9.47298 13.7375 9.43606 13.3451C8.14021 13.1475 6.83494 13.4386 5.75881 14.1206C5.60359 14.2189 5.52528 14.4053 5.56378 14.5851C5.91833 16.2417 7.04992 17.7041 8.73039 18.4098V18.4098Z" fill="#80D261"/>
<path d="M8.73042 18.4098C8.86446 18.4661 8.99946 18.5158 9.13516 18.5605C9.44946 18.0889 9.94446 17.7482 10.5213 17.6371C10.4019 17.5966 10.2829 17.553 10.1649 17.5034C8.48442 16.7977 7.35283 15.3353 6.99836 13.6787C6.9887 13.6337 6.98641 13.5882 6.99081 13.5439C6.55821 13.6834 6.1438 13.8768 5.75893 14.1207C5.60372 14.219 5.52541 14.4054 5.5639 14.5852C5.91836 16.2417 7.04996 17.7042 8.73042 18.4098V18.4098Z" fill="#68CA44"/>
<path d="M11.5235 17.1787C11.509 17.0795 11.4992 16.9796 11.4992 16.8785C11.4992 15.7372 12.4277 14.8086 13.5691 14.8086C13.9705 14.8086 14.3539 14.9227 14.6885 15.1397C14.7598 14.4156 14.6843 13.6651 14.4402 12.9299C13.866 11.2001 12.4951 9.95916 10.8706 9.47823C10.6944 9.42602 10.5025 9.48974 10.3925 9.63696C9.37813 10.9939 9.02147 12.8083 9.59566 14.5381C9.96155 15.6402 10.6512 16.5436 11.5235 17.1787V17.1787Z" fill="#017B4E"/>
<path d="M11.5236 17.1785C11.509 17.0793 11.4992 16.9794 11.4992 16.8783C11.4992 16.3707 11.6833 15.9054 11.9877 15.5448C11.8056 15.2314 11.6517 14.8955 11.533 14.5378C11.0092 12.96 11.2603 11.3119 12.0782 10.0047C11.6991 9.78115 11.2938 9.60325 10.8707 9.47792C10.6945 9.42572 10.5026 9.48944 10.3926 9.63665C9.37826 10.9936 9.0216 12.8079 9.59579 14.5378C9.96159 15.6401 10.6513 16.5434 11.5236 17.1785V17.1785Z" fill="#026841"/>
<path d="M11.9094 15.4995C12.2012 15.1486 12.6023 14.8922 13.0602 14.7814L12.658 13.5699C12.5432 13.2244 12.1703 13.0374 11.8247 13.152C11.4792 13.2667 11.2921 13.6398 11.4068 13.9853L11.9094 15.4995Z" fill="#68CA44"/>
<path d="M38.0024 23.5226C38.0153 23.4273 38.0241 23.3306 38.0241 23.2318C38.0241 22.0401 37.058 21.074 35.8663 21.074C35.8338 21.074 35.8021 21.0774 35.7699 21.0788C36.0546 20.7132 36.2259 20.2546 36.2259 19.7552C36.2259 18.5635 35.2599 17.5974 34.0681 17.5974C33.8452 17.5974 33.6302 17.6313 33.4279 17.6941C33.5309 17.4423 33.5887 17.1671 33.5887 16.8782C33.5887 15.6865 32.6226 14.7204 31.4309 14.7204C30.9331 14.7204 30.4761 14.8907 30.111 15.1739C30.0968 13.9943 29.1374 13.0422 27.9545 13.0422C27.3152 13.0422 26.7425 13.3218 26.3474 13.7636C26.0205 12.9876 25.253 12.4427 24.3582 12.4427C23.5659 12.4427 22.8754 12.871 22.5001 13.5074C22.1248 12.871 21.4342 12.4427 20.642 12.4427C19.7471 12.4427 18.9796 12.9876 18.6527 13.7636C18.2576 13.3218 17.685 13.0422 17.0457 13.0422C15.8627 13.0422 14.9033 13.9943 14.8892 15.1739C14.5241 14.8907 14.0671 14.7204 13.5692 14.7204C12.3775 14.7204 11.4114 15.6865 11.4114 16.8782C11.4114 17.1671 11.4692 17.4423 11.5722 17.6941C11.3699 17.6314 11.1548 17.5974 10.9319 17.5974C9.7402 17.5974 8.77411 18.5635 8.77411 19.7552C8.77411 20.2546 8.9454 20.7131 9.23017 21.0788C9.198 21.0774 9.16627 21.074 9.13375 21.074C7.94205 21.074 6.97595 22.0401 6.97595 23.2318C6.97595 23.3306 6.98474 23.4272 6.99766 23.5226H38.0024Z" fill="#FFF3DE"/>
<path d="M11.7584 23.5226C11.5578 23.1748 11.4491 22.7675 11.4728 22.3319C11.5301 21.2746 12.3687 20.3997 13.423 20.3025C13.571 20.2888 13.7163 20.2902 13.8575 20.3052C14.0381 20.3243 14.1796 20.1573 14.1454 19.979C14.1004 19.7447 14.0933 19.4969 14.1322 19.2416C14.279 18.2772 15.0767 17.5225 16.0476 17.4267C16.481 17.384 16.8901 17.4709 17.2433 17.652C17.4024 17.7336 17.5921 17.6395 17.6277 17.4642C17.8274 16.4792 18.6972 15.7377 19.7412 15.7377C20.2606 15.7377 20.736 15.9223 21.108 16.2285C21.2312 16.3299 21.4183 16.2963 21.5024 16.1607C21.8828 15.547 22.5624 15.1383 23.3375 15.1383C24.0035 15.1383 24.5977 15.4409 24.993 15.9154C25.0979 16.0412 25.2933 16.0412 25.3982 15.9154C25.7936 15.4409 26.3877 15.1383 27.0537 15.1383C27.8288 15.1383 28.5084 15.547 28.8888 16.1607C28.9729 16.2963 29.16 16.3299 29.2832 16.2285C29.6552 15.9223 30.1306 15.7377 30.65 15.7377C31.8329 15.7377 32.7923 16.6898 32.8065 17.8694C33.0094 17.712 33.2415 17.5911 33.4926 17.5133C33.5851 17.2142 33.6154 16.888 33.5636 16.5479C33.4156 15.579 32.6109 14.8204 31.6348 14.7299C31.0583 14.6766 30.5255 14.8524 30.111 15.1739C30.0969 13.9943 29.1375 13.0422 27.9546 13.0422C27.3152 13.0422 26.7426 13.3218 26.3475 13.7636C26.0206 12.9876 25.2531 12.4427 24.3582 12.4427C23.5659 12.4427 22.8754 12.871 22.5001 13.5074C22.1248 12.871 21.4342 12.4427 20.642 12.4427C19.7471 12.4427 18.9796 12.9876 18.6527 13.7636C18.2575 13.3218 17.6849 13.0422 17.0456 13.0422C15.8627 13.0422 14.9032 13.9943 14.8891 15.1739C14.4714 14.8499 13.9332 14.6737 13.3515 14.7312C12.3807 14.8272 11.5833 15.582 11.4367 16.5465C11.3743 16.9565 11.4303 17.3475 11.5722 17.6942C11.3087 17.6125 11.0237 17.5797 10.7277 17.607C9.67332 17.7041 8.83466 18.5791 8.77736 19.6363C8.74774 20.1818 8.9229 20.6844 9.23017 21.079C9.198 21.0776 9.16627 21.0741 9.13375 21.0741C7.94205 21.0741 6.97595 22.0402 6.97595 23.2319C6.97595 23.3308 6.98474 23.4274 6.99766 23.5228H11.7584V23.5226Z" fill="#FEF0AE"/>
<path d="M14.0237 19.9567C13.6596 19.9567 13.3645 19.6616 13.3645 19.2975C13.3645 18.1392 14.3069 17.1968 15.4652 17.1968C16.1161 17.1968 16.7195 17.4912 17.1208 18.0045C17.3451 18.2913 17.2944 18.7056 17.0075 18.9298C16.7208 19.1542 16.3064 19.1033 16.0823 18.8164C15.9326 18.625 15.7077 18.5152 15.4652 18.5152C15.0338 18.5152 14.6829 18.8661 14.6829 19.2975C14.6829 19.6616 14.3877 19.9567 14.0237 19.9567V19.9567Z" fill="#FEDF74"/>
<path d="M27.7474 20.0457C27.6797 20.0457 27.6112 20.0352 27.5434 20.0132C27.1973 19.9007 27.0078 19.5287 27.1204 19.1825C27.3218 18.563 27.7882 18.0799 28.3998 17.8572C28.9272 17.6653 29.4976 17.6901 30.0061 17.9272C30.5146 18.1642 30.9005 18.5852 31.0924 19.1125C31.217 19.4545 31.0406 19.8328 30.6985 19.9574C30.3562 20.0821 29.9782 19.9055 29.8536 19.5634C29.7821 19.3671 29.6385 19.2103 29.449 19.1221C29.2595 19.0337 29.047 19.0246 28.8509 19.096C28.623 19.179 28.4493 19.3591 28.3741 19.5902C28.2836 19.8687 28.0251 20.0457 27.7474 20.0457V20.0457Z" fill="#FEDF74"/>
<path d="M20.0783 20.7641C20.0107 20.7641 19.9421 20.7537 19.8744 20.7317C19.5282 20.6191 19.3387 20.2472 19.4513 19.9009C19.6528 19.2814 20.1191 18.7984 20.7307 18.5756C21.8194 18.1794 23.0271 18.7424 23.4234 19.8307C23.5481 20.1728 23.3717 20.5511 23.0297 20.6757C22.6874 20.8001 22.3092 20.6238 22.1848 20.2819C22.0371 19.8764 21.5867 19.6666 21.182 19.8144C20.9541 19.8973 20.7804 20.0774 20.7052 20.3086C20.6145 20.587 20.3561 20.7641 20.0783 20.7641V20.7641Z" fill="#FEDF74"/>
<path d="M30.0885 42.0259V38.4752C30.0815 38.4787 30.0747 38.4826 30.0677 38.4862H14.9322C14.9252 38.4827 14.9184 38.4788 14.9114 38.4752V42.0259H30.0885Z" fill="#FB2B3A"/>
<path d="M18.8318 42.0259V38.4861H14.9322C14.9252 38.4826 14.9184 38.4788 14.9114 38.4752V42.0259H18.8318V42.0259Z" fill="#E41F2D"/>
<path d="M14.9114 38.574H30.0884C35.3629 35.925 39.0626 30.6016 39.4059 24.3829C39.4343 23.8689 39.0301 23.4347 38.5153 23.4347H6.48453C5.96976 23.4347 5.56555 23.8689 5.59394 24.3829C5.93724 30.6016 9.63691 35.925 14.9114 38.574V38.574Z" fill="#FD4755"/>
<path d="M9.47572 24.3829C9.44733 23.8689 9.85154 23.4347 10.3663 23.4347H6.48453C5.96976 23.4347 5.56555 23.8689 5.59394 24.3829C5.93724 30.6016 9.63691 35.925 14.9114 38.574H18.7932C13.5187 35.925 9.81902 30.6016 9.47572 24.3829V24.3829Z" fill="#FB2B3A"/>
<path d="M40.7037 45H4.29626C4.04991 45 3.85022 44.8003 3.85022 44.554V42.3842C3.85022 42.1379 4.04991 41.9382 4.29626 41.9382H40.7037C40.9501 41.9382 41.1498 42.1379 41.1498 42.3842V44.554C41.1498 44.8003 40.9501 45 40.7037 45Z" fill="#F6A96C"/>
<path d="M7.77225 44.554V42.3842C7.77225 42.1379 7.97194 41.9382 8.2183 41.9382H4.29626C4.04991 41.9382 3.85022 42.1379 3.85022 42.3842V44.554C3.85022 44.8003 4.04991 45 4.29626 45H8.21838C7.97203 45 7.77225 44.8003 7.77225 44.554V44.554Z" fill="#EA9B58"/>
<path d="M26.3509 10.4631C25.9868 10.4631 25.6918 10.168 25.6918 9.80394V8.86236C25.6918 7.65387 26.675 6.67072 27.8834 6.67072H32.7513C33.2329 6.67072 33.6246 6.27891 33.6246 5.79744C33.6246 5.31589 33.2329 4.92416 32.7513 4.92416H24.0973C22.7398 4.92416 21.6353 3.81973 21.6353 2.46208C21.6353 1.10443 22.7398 0 24.0973 0H28.0637C28.4279 0 28.7229 0.295137 28.7229 0.65918C28.7229 1.02322 28.4279 1.31836 28.0637 1.31836H24.0973C23.4667 1.31836 22.9536 1.83138 22.9536 2.46208C22.9536 3.09278 23.4667 3.6058 24.0973 3.6058H32.7513C33.9597 3.6058 34.9429 4.58895 34.9429 5.79744C34.9429 7.00594 33.9597 7.98908 32.7513 7.98908H27.8834C27.4018 7.98908 27.0101 8.38081 27.0101 8.86236V9.80394C27.0101 10.168 26.7151 10.4631 26.3509 10.4631V10.4631Z" fill="#FDB441"/>
<path d="M21.3028 10.4631C20.9387 10.4631 20.6436 10.168 20.6436 9.80391V8.86234C20.6436 8.38078 20.2519 7.98905 19.7704 7.98905H15.8039C14.5954 7.98905 13.6123 7.00591 13.6123 5.79741C13.6123 4.58892 14.5954 3.60577 15.8039 3.60577H19.0492C19.4133 3.60577 19.7084 3.90091 19.7084 4.26495C19.7084 4.629 19.4133 4.92413 19.0492 4.92413H15.8039C15.3224 4.92413 14.9307 5.31595 14.9307 5.79741C14.9307 6.27888 15.3224 6.6707 15.8039 6.6707H19.7704C20.9789 6.6707 21.962 7.65384 21.962 8.86234V9.80391C21.962 10.168 21.6669 10.4631 21.3028 10.4631Z" fill="#FDB441"/>
</g>
<defs>
<clipPath id="clip0_3_1505">
<rect width="45" height="45" fill="white"/>
</clipPath>
</defs>
</svg>
