<svg width="45" height="45" viewBox="0 0 45 45" fill="none" xmlns="http://www.w3.org/2000/svg">
<path d="M43.5938 35.1562L37.5188 43.2563L37.2656 43.5938H33.0469L32.7937 43.2563L26.7188 35.1562C26.7188 32.9185 27.6077 30.7724 29.19 29.19C30.7724 27.6077 32.9185 26.7188 35.1562 26.7188C37.394 26.7188 39.5401 27.6077 41.1225 29.19C42.7048 30.7724 43.5938 32.9185 43.5938 35.1562Z" fill="#476D93"/>
<path d="M40.0781 35.1562L34.0031 43.2563L33.75 43.5938H29.5312L29.2781 43.2563L23.2031 35.1562C23.2031 32.9185 24.0921 30.7724 25.6744 29.19C27.2567 27.6077 29.4029 26.7188 31.6406 26.7188C33.8784 26.7188 36.0245 27.6077 37.6068 29.19C39.1892 30.7724 40.0781 32.9185 40.0781 35.1562Z" fill="#5685BB"/>
<path d="M35.4628 41.31L40.0781 35.1563C40.0789 33.6152 39.6574 32.1034 38.8594 30.785C38.0614 29.4666 36.9174 28.3921 35.5517 27.6782C34.1859 26.9642 32.6507 26.6382 31.1127 26.7354C29.5746 26.8327 28.0927 27.3495 26.8277 28.2298C25.946 29.4943 25.4278 30.9764 25.3295 32.5149C25.2312 34.0534 25.5566 35.5894 26.2702 36.9559C26.9839 38.3223 28.0585 39.467 29.3772 40.2654C30.696 41.0639 32.2084 41.4855 33.75 41.4844C34.3254 41.4845 34.8993 41.4261 35.4628 41.31Z" fill="#89B2E6"/>
<path d="M3.51562 43.5938L8.4375 37.2656L5.92102 30.1289C4.45937 25.9914 3.92962 21.5821 4.36962 17.2162C4.80962 12.8502 6.20851 8.63531 8.46633 4.87266L10.5469 1.40625L13.5703 7.46016C14.6514 9.62424 15.4795 11.9057 16.0383 14.2594C16.1086 14.5617 16.1789 14.8641 16.2422 15.1734C16.3617 15.7781 16.4672 16.3828 16.5516 16.9945C16.7687 18.4682 16.8768 19.9558 16.875 21.4453C16.875 22.2328 16.8469 23.0203 16.7836 23.8008C16.4806 27.8497 15.389 31.8003 13.5703 35.4305L12.6562 37.2656L17.5781 43.5938L14.6848 42.7669C13.3391 42.3824 11.9464 42.1874 10.5469 42.1875C9.14758 42.1874 7.75511 42.3824 6.40969 42.7669L3.51562 43.5938Z" fill="#ED6D20"/>
<path d="M11.25 38.6719L12.1641 36.8367C13.9828 33.2066 15.0743 29.256 15.3773 25.2071C15.4406 24.4266 15.4688 23.6391 15.4688 22.8516C15.4705 21.3621 15.3624 19.8744 15.1453 18.4008C15.0609 17.7891 14.9555 17.1844 14.8359 16.5797C14.7727 16.2703 14.7023 15.968 14.632 15.6657C14.0733 13.312 13.2452 11.0305 12.1641 8.86643L9.39586 3.3244L8.46633 4.87128C6.20851 8.63393 4.80962 12.8488 4.36962 17.2148C3.92962 21.5808 4.45937 25.99 5.92102 30.1275L8.4375 37.2656L3.51562 43.5938L6.40969 42.7669C7.75511 42.3824 9.14758 42.1874 10.5469 42.1875C11.8391 42.1898 13.1257 42.3588 14.3747 42.6903L11.25 38.6719Z" fill="#F98C26"/>
<path d="M11.9531 14.0625C11.675 14.0625 11.4031 13.98 11.1719 13.8255C10.9406 13.671 10.7604 13.4514 10.6539 13.1944C10.5475 12.9374 10.5196 12.6547 10.5739 12.3819C10.6282 12.1091 10.7621 11.8585 10.9588 11.6619C11.1554 11.4652 11.406 11.3313 11.6788 11.277C11.9516 11.2228 12.2343 11.2506 12.4913 11.357C12.7482 11.4635 12.9679 11.6437 13.1224 11.875C13.2769 12.1062 13.3594 12.3781 13.3594 12.6563C13.3594 13.0292 13.2112 13.3869 12.9475 13.6506C12.6838 13.9143 12.3261 14.0625 11.9531 14.0625Z" fill="#C6561E"/>
<path d="M38.6719 1.40625L29.5312 3.51562L31.6406 9.84375H37.9688L38.9531 8.4375L42.8906 2.8125L38.6719 1.40625Z" fill="#ED6D20"/>
<path d="M37.9687 16.875V19.6875L32.8078 21.2133C31.1439 21.9114 29.2841 21.9863 27.5695 21.4242C26.4596 21.0752 25.4495 20.4654 24.6238 19.6457C23.798 18.8261 23.1807 17.8205 22.8234 16.7133C22.6568 16.1838 22.5553 15.636 22.5211 15.082C22.5141 15.0188 22.507 14.5406 22.507 13.9711C22.5015 12.7003 22.7303 11.4394 23.182 10.2516C23.2523 10.0758 23.3227 9.9 23.4 9.72422C23.9743 8.42864 24.7742 7.2454 25.7625 6.22969L25.9031 6.08906C26.9677 5.04345 28.1925 4.17469 29.5312 3.51562L31.6406 9.84375L30.2344 14.7656L37.9687 16.875Z" fill="#F98C26"/>
<path d="M43.5938 16.0313V16.3617C43.5942 16.6547 43.5191 16.9429 43.3758 17.1984C43.1753 17.5694 42.8485 17.8563 42.4547 18.007L37.9688 19.6875V16.875L40.7391 14.6602C40.9975 14.4538 41.309 14.3245 41.6377 14.2872C41.9663 14.2498 42.2988 14.306 42.597 14.4492C42.8952 14.5924 43.1469 14.8169 43.3232 15.0967C43.4995 15.3766 43.5933 15.7005 43.5938 16.0313Z" fill="#C6561E"/>
<path d="M37.9688 16.875L41.2987 16.2098C41.4224 16.1849 41.5481 16.1722 41.6742 16.1719C42.1833 16.1719 42.6716 16.3741 43.0315 16.7341C43.3915 17.0941 43.5938 17.5823 43.5938 18.0914V18.4711C43.5938 18.9802 43.3915 19.4684 43.0315 19.8284C42.6716 20.1884 42.1833 20.3906 41.6742 20.3906C41.5479 20.3905 41.4219 20.378 41.298 20.3534L37.9688 19.6875" fill="#ED6D20"/>
<path d="M12.4516 18.2812C11.9402 18.2827 11.4336 18.1827 10.9611 17.9871C10.4886 17.7914 10.0596 17.504 9.69891 17.1415L8.2322 15.6747L7.23798 16.669L8.7047 18.1357C9.1956 18.6293 9.77955 19.0206 10.4227 19.2869C11.0659 19.5533 11.7555 19.6894 12.4516 19.6875C13.6546 19.6858 14.8215 19.2766 15.762 18.5266L16.6577 17.8094C16.6247 17.5373 16.5924 17.2652 16.5523 16.9945C16.5122 16.7238 16.4616 16.4651 16.4173 16.2007L14.8831 17.4283C14.1923 17.9793 13.3352 18.28 12.4516 18.2812Z" fill="#C6561E"/>
<path d="M37.2656 6.32812C38.0423 6.32812 38.6719 5.69853 38.6719 4.92188C38.6719 4.14522 38.0423 3.51562 37.2656 3.51562C36.489 3.51562 35.8594 4.14522 35.8594 4.92188C35.8594 5.69853 36.489 6.32812 37.2656 6.32812Z" fill="#C6561E"/>
<path d="M43.0966 9.34666L42.5524 9.89088C42.1827 10.2503 41.7021 10.4738 41.189 10.5248C40.6759 10.5759 40.1606 10.4516 39.7273 10.1721L38.3723 9.26721L37.9687 9.84377H36.7031L38.9489 11.34C39.6499 11.808 40.4915 12.0185 41.3302 11.9355C42.169 11.8526 42.953 11.4814 43.5488 10.8851L44.093 10.3409L43.0966 9.34666Z" fill="#C6561E"/>
<path d="M42.9645 5.31073C42.6339 5.97507 42.1388 6.5438 41.5265 6.96285C40.9141 7.3819 40.2047 7.63734 39.4657 7.70487L38.9531 8.43753L38.4609 9.14066H39.0431C40.12 9.14502 41.1766 8.84737 42.0928 8.28149C43.009 7.71561 43.7483 6.90418 44.2266 5.93932L42.9645 5.31073Z" fill="#C6561E"/>
<path d="M27.9844 8.0156L26.2807 5.74451C26.1556 5.85982 26.0241 5.96951 25.9031 6.08904L25.7625 6.22966C25.5966 6.40052 25.4433 6.58123 25.2872 6.76263L26.8594 8.85935L27.9844 8.0156Z" fill="#ED6D20"/>
<path d="M26.3777 11.3505L23.4619 9.60046C23.4422 9.64265 23.419 9.68132 23.4 9.72421C23.3227 9.89999 23.2523 10.0758 23.182 10.2516C23.097 10.4773 23.0266 10.7072 22.957 10.9371L25.6535 12.5543L26.3777 11.3505Z" fill="#ED6D20"/>
<path d="M24.9982 14.8395L22.6483 16.0137C22.736 16.4821 22.8792 16.9384 23.0751 17.3728L25.6268 16.1016L24.9982 14.8395Z" fill="#ED6D20"/>
<path d="M28.1749 18.0204L26.9156 21.1697C27.1266 21.2618 27.3466 21.3518 27.5695 21.4242C27.7924 21.4966 28.023 21.5578 28.2544 21.6098L29.4813 18.5421L28.1749 18.0204Z" fill="#ED6D20"/>
<path d="M16.2422 15.1735C16.3617 15.7781 16.4672 16.3828 16.5516 16.9945C16.7687 18.4682 16.8768 19.9558 16.875 21.4453C16.875 22.2328 16.8469 23.0203 16.7836 23.8008C16.6371 25.7477 16.3075 27.6764 15.7992 29.5615V29.5784L19.6875 23.9063L18.9844 16.1719L15.8646 13.5605V13.6083C15.9216 13.8256 15.9877 14.0407 16.039 14.2594C16.1093 14.5617 16.1796 14.8641 16.2422 15.1735Z" fill="#C6561E"/>
<path d="M4.24617 19.4315L4.23352 19.312L1.40625 23.2031L5.09695 27.3867L5.09203 27.3361C4.51455 25.0039 4.22132 22.6104 4.21875 20.2078C4.21875 19.9483 4.23914 19.691 4.24617 19.4315Z" fill="#ED6D20"/>
<path d="M27.8726 32.5062L24.93 30.0544C24.6425 30.4309 24.3868 30.8307 24.1657 31.2497L26.9712 33.5883L27.8726 32.5062Z" fill="#5685BB"/>
<path d="M30.8805 30.6604L29.3337 27.0464C28.882 27.1754 28.4419 27.3421 28.0181 27.5449L29.5903 31.2145L30.8805 30.6604Z" fill="#5685BB"/>
<path d="M34.3603 31.9922L36.4922 28.2586C36.1076 27.9892 35.7012 27.7524 35.2772 27.5505L33.1397 31.2891L34.3603 31.9922Z" fill="#5685BB"/>
<path d="M36.2109 35.0634L39.7969 33.0145C39.6772 32.5526 39.5179 32.1019 39.3209 31.6673L35.5078 33.8428L36.2109 35.0634Z" fill="#5685BB"/>
</svg>
