<svg width="45" height="45" viewBox="0 0 45 45" fill="none" xmlns="http://www.w3.org/2000/svg">
<g clip-path="url(#clip0_3_1986)">
<path d="M38.6594 27.0849C28.3947 31.7646 16.6054 31.7646 6.34062 27.0849L4.6039 30.093C5.02753 30.2799 5.4095 30.5599 5.718 30.9205C9.92295 35.8364 16.0398 38.6558 22.5001 38.6558C28.9604 38.6558 35.0773 35.8364 39.2822 30.9205C39.5907 30.5599 39.9727 30.2799 40.3963 30.093L38.6594 27.0849Z" fill="#FEF0AE"/>
<path d="M23.2829 0.452004C22.935 -0.15075 22.065 -0.15075 21.7171 0.452004L6.34061 27.0849C10.1878 32.1593 15.9983 35.392 22.5 35.392C29.0017 35.392 34.8122 32.1593 38.6594 27.0849L23.2829 0.452004Z" fill="#FEDF74"/>
<path d="M15.3078 15.4803C16.2295 15.4803 17.0838 15.1933 17.7877 14.7048L19.6478 11.4831C19.6574 11.3647 19.6637 11.2454 19.6637 11.1245C19.6637 9.58918 18.8685 8.24032 17.6684 7.4646L13.3184 14.999C13.9149 15.3059 14.5908 15.4803 15.3078 15.4803Z" fill="#FED402"/>
<path d="M15.3078 18.4181C14.0556 18.4181 12.8773 18.1021 11.8477 17.5462L6.34061 27.0849C7.13575 28.1337 8.01607 29.1024 8.96775 29.9816L15.6488 18.4096C15.5357 18.4147 15.4222 18.4181 15.3078 18.4181Z" fill="#FED402"/>
<path d="M23.2829 0.452004C22.935 -0.15075 22.065 -0.15075 21.717 0.452004L19.1385 4.91799C20.2599 5.61163 21.1788 6.60066 21.7878 7.7762L24.1903 3.61493C24.3413 3.35345 24.5906 3.20579 24.8527 3.17117L23.2829 0.452004Z" fill="#FED402"/>
<path d="M34.6826 20.1969C33.9094 20.3601 33.1732 20.7414 32.5728 21.3418C31.0735 22.8411 30.9372 25.1874 32.1642 26.8406C32.3622 27.1076 32.7531 27.1336 32.9881 26.8987L34.0742 25.8124C34.2875 25.5991 34.6335 25.5991 34.8468 25.8124L35.5502 26.5157C35.7635 26.729 36.1093 26.729 36.3227 26.5157L37.5958 25.2426L34.6826 20.1969Z" fill="#D88A55"/>
<path d="M34.2404 21.7422C34.5234 21.4593 34.8371 21.2269 35.1701 21.0412L34.6826 20.1969C33.9095 20.3601 33.1732 20.7413 32.5727 21.3418C31.0734 22.8411 30.9372 25.1874 32.1641 26.8406C32.3621 27.1076 32.753 27.1336 32.988 26.8987L33.391 26.4956C32.6725 24.9355 32.9549 23.0277 34.2404 21.7422Z" fill="#C57A44"/>
<path d="M19.1386 4.91797L17.6683 7.46451C18.8686 8.24023 19.6636 9.58909 19.6636 11.1245C19.6636 13.5301 17.7135 15.4802 15.3078 15.4802C14.5908 15.4802 13.9149 15.3059 13.3183 14.9989L11.8477 17.5462C12.8773 18.1022 14.0556 18.4181 15.3078 18.4181C19.336 18.4181 22.6014 15.1526 22.6014 11.1245C22.6015 8.50171 21.2165 6.20328 19.1386 4.91797Z" fill="#017B4E"/>
<path d="M10.8165 25.3004C10.8165 24.0593 10.0328 23.0014 8.93338 22.594L6.34061 27.0848C6.59725 27.4232 6.8632 27.7528 7.1369 28.0745C7.38923 28.1467 7.65554 28.1859 7.93108 28.1859C9.52462 28.1859 10.8165 26.894 10.8165 25.3004Z" fill="#FB2B3A"/>
<path d="M27.2628 7.34528C26.1434 7.7421 25.3414 8.80971 25.3414 10.0651C25.3414 11.6588 26.6333 12.9506 28.2269 12.9506C28.9419 12.9506 29.5958 12.6899 30.0998 12.2592L27.2628 7.34528Z" fill="#FB2B3A"/>
<path d="M26.7964 10.0651C26.7964 9.26402 27.1238 8.54041 27.651 8.01773L27.2628 7.34528C26.1434 7.7421 25.3414 8.80971 25.3414 10.0651C25.3414 11.6588 26.6332 12.9506 28.2269 12.9506C28.4778 12.9506 28.721 12.9178 28.953 12.8575C27.7124 12.5347 26.7964 11.407 26.7964 10.0651Z" fill="#E41F2D"/>
<path d="M22.5 45C14.1829 45 6.30879 41.3713 0.896749 35.0445C-0.258221 33.6942 -0.100018 31.6632 1.25025 30.5081C2.60069 29.3532 4.63157 29.5114 5.78663 30.8616C9.97445 35.7574 16.0661 38.5651 22.4999 38.5651C28.9337 38.5651 35.0255 35.7573 39.2132 30.8616C40.3683 29.5114 42.3994 29.3532 43.7496 30.5081C45.0999 31.6633 45.2581 33.6942 44.1031 35.0445C38.6912 41.3713 30.8171 45 22.5 45Z" fill="#EA9B58"/>
<path d="M4.68932 36.2287C3.53435 34.8784 3.69255 32.8473 5.04282 31.6923C5.33927 31.4387 5.66851 31.2486 6.0141 31.1204C5.93816 31.0343 5.86143 30.9491 5.78664 30.8617C4.63149 29.5115 2.60069 29.3533 1.25025 30.5082C-0.100013 31.6634 -0.258304 33.6943 0.896755 35.0446C4.85798 39.6754 10.1384 42.8604 15.946 44.2353C11.6448 42.5539 7.76848 39.8282 4.68932 36.2287Z" fill="#D88A55"/>
<path d="M20.2407 26.4467C20.4427 26.6488 20.7788 26.6264 20.9491 26.3969C22.004 24.9754 21.8869 22.9581 20.5978 21.669C19.3087 20.3799 17.2913 20.2627 15.8699 21.3177C15.6404 21.488 15.618 21.824 15.8201 22.0261L16.754 22.96C16.9374 23.1434 16.9374 23.4408 16.754 23.6242L16.1493 24.2289C15.9659 24.4123 15.9659 24.7096 16.1493 24.8931L17.3738 26.1175C17.5572 26.3009 17.8545 26.3009 18.038 26.1175L18.6427 25.5128C18.8261 25.3294 19.1235 25.3294 19.3069 25.5128L20.2407 26.4467Z" fill="#D88A55"/>
<path d="M18.0776 24.8931C17.8942 24.7096 17.8942 24.4123 18.0776 24.2289L18.6823 23.6242C18.8657 23.4408 18.8657 23.1434 18.6823 22.96L17.7484 22.0261C17.5463 21.824 17.5687 21.488 17.7982 21.3177C18.1647 21.0456 18.571 20.8522 18.994 20.736C17.9405 20.4469 16.7824 20.6403 15.8696 21.3177C15.6401 21.488 15.6177 21.824 15.8198 22.0261L16.7537 22.96C16.9371 23.1434 16.9371 23.4408 16.7537 23.6242L16.1489 24.2289C15.9655 24.4123 15.9655 24.7096 16.1489 24.8931L17.3734 26.1175C17.5569 26.3009 17.8543 26.3009 18.0376 26.1175L18.6423 25.5128C18.6517 25.5034 18.6625 25.4965 18.6725 25.4882L18.0776 24.8931Z" fill="#C57A44"/>
<path d="M25.9856 28.7342C27.0824 29.8309 28.5015 30.4077 29.9381 30.4667C30.1798 30.4766 30.3884 30.2988 30.4118 30.058L30.5565 28.5763C30.5819 28.3164 30.3828 28.0846 30.1218 28.0802C29.2352 28.065 28.3532 27.7197 27.6766 27.0431C26.9655 26.332 26.6202 25.3941 26.6397 24.4622C26.6455 24.1892 26.4154 23.971 26.1437 23.9976L24.6568 24.1427C24.4262 24.1652 24.246 24.3581 24.248 24.5897C24.2614 26.0912 24.84 27.5885 25.9856 28.7342Z" fill="#017B4E"/>
<path d="M27.1936 21.3789C28.7872 21.3789 30.0791 20.087 30.0791 18.4934C30.0791 16.8998 28.7872 15.608 27.1936 15.608C25.6 15.608 24.3082 16.8998 24.3082 18.4934C24.3082 20.087 25.6 21.3789 27.1936 21.3789Z" fill="#FB2B3A"/>
<path d="M26.2366 18.4934C26.2366 17.238 27.0385 16.1704 28.1579 15.7735C27.8563 15.6666 27.5319 15.6078 27.1937 15.6078C25.6001 15.6078 24.3082 16.8998 24.3082 18.4933C24.3082 20.0869 25.6001 21.3787 27.1937 21.3787C27.5319 21.3787 27.8563 21.32 28.1579 21.2131C27.0385 20.8164 26.2366 19.7488 26.2366 18.4934Z" fill="#E41F2D"/>
<path d="M22.2983 29.2391C22.2365 29.0085 22.0065 28.8666 21.772 28.9117C21.238 29.0144 20.7281 29.2722 20.3145 29.6857C19.9011 30.0991 19.6432 30.6092 19.5406 31.1432C19.4955 31.3777 19.6373 31.6076 19.868 31.6695L22.4303 32.3561C22.7669 32.4462 23.075 32.1382 22.9848 31.8016L22.2983 29.2391Z" fill="#FE9901"/>
<path d="M13.4195 30.7772C13.4793 31.0001 13.6979 31.1473 13.9254 31.1076C14.5207 31.0041 15.091 30.7227 15.5507 30.263C16.0103 29.8033 16.2918 29.233 16.3953 28.6377C16.4348 28.4103 16.2878 28.1916 16.0648 28.1318L13.2087 27.3665C12.8721 27.2764 12.5641 27.5844 12.6542 27.921L13.4195 30.7772Z" fill="#FE9901"/>
<path d="M23.0886 5.54639C23.4527 5.54639 23.7478 5.25126 23.7478 4.88721C23.7478 4.52315 23.4527 4.22803 23.0886 4.22803C22.7246 4.22803 22.4294 4.52315 22.4294 4.88721C22.4294 5.25126 22.7246 5.54639 23.0886 5.54639Z" fill="#FB8801"/>
<path d="M26.0766 32.6202C26.4407 32.6202 26.7358 32.3251 26.7358 31.9611C26.7358 31.597 26.4407 31.3019 26.0766 31.3019C25.7126 31.3019 25.4174 31.597 25.4174 31.9611C25.4174 32.3251 25.7126 32.6202 26.0766 32.6202Z" fill="#017B4E"/>
<path d="M21.8209 18.8569C22.1849 18.8569 22.4801 18.5618 22.4801 18.1978C22.4801 17.8337 22.1849 17.5386 21.8209 17.5386C21.4568 17.5386 21.1617 17.8337 21.1617 18.1978C21.1617 18.5618 21.4568 18.8569 21.8209 18.8569Z" fill="#FB8801"/>
<path d="M12.4944 22.3884C12.8585 22.3884 13.1536 22.0932 13.1536 21.7292C13.1536 21.3651 12.8585 21.07 12.4944 21.07C12.1304 21.07 11.8353 21.3651 11.8353 21.7292C11.8353 22.0932 12.1304 22.3884 12.4944 22.3884Z" fill="#FB8801"/>
</g>
<defs>
<clipPath id="clip0_3_1986">
<rect width="45" height="45" fill="white"/>
</clipPath>
</defs>
</svg>
