<svg width="39" height="45" viewBox="0 0 39 45" fill="none" xmlns="http://www.w3.org/2000/svg">
<path d="M26.8703 11.4264C27.4726 10.4167 28.5751 9.74002 29.8362 9.74002C31.7424 9.74002 33.2876 11.2853 33.2876 13.1914C33.2876 13.3288 33.2786 13.464 33.2631 13.5973C33.6787 13.4806 34.0999 13.4199 34.5158 13.4199C34.9011 13.4199 35.2646 13.473 35.6013 13.5751C35.6096 13.4482 35.6154 13.3205 35.6154 13.1915C35.6154 9.99964 33.0279 7.41223 29.8361 7.41223C27.9339 7.41223 26.2467 8.33148 25.1936 9.74977L26.8703 11.4264Z" fill="#FED2A4"/>
<path d="M6.53007 22.8988L6.64951 22.8773L6.59177 22.7705C6.49289 22.5877 6.40808 22.4027 6.33557 22.217C4.66134 21.9792 3.37365 20.5406 3.37365 18.8008C3.37365 16.8946 4.91894 15.3494 6.82503 15.3494C7.8225 15.3494 8.72065 15.773 9.35074 16.4496C9.4853 15.8578 9.76488 15.3353 10.1803 14.9199C10.3371 14.7631 10.5091 14.626 10.694 14.5082C9.66961 13.5844 8.31319 13.0216 6.82512 13.0216C3.63337 13.0216 1.04587 15.6091 1.04587 18.8009C1.04587 21.1111 2.40184 23.1039 4.36101 24.0289C4.86129 23.47 5.61891 23.0629 6.53007 22.8988Z" fill="#FED2A4"/>
<path d="M22.1738 17.0154C22.424 16.8962 22.7024 16.8354 23.0038 16.8354C23.5042 16.8354 24.0638 17.0049 24.622 17.3256L24.7369 17.3915L24.753 17.26C25.0353 14.9665 26.2486 13.3018 27.638 13.3018C28.6448 13.3018 29.5725 14.1606 30.1196 15.5992L30.174 15.7421L30.2701 15.6232C30.4098 15.4506 30.5563 15.2873 30.7055 15.1371L21.6023 6.03401C21.4165 5.84812 21.1132 5.86043 20.9395 6.05774C19.0054 8.2536 18.5641 11.3028 19.6121 13.8899C20.7561 14.0066 21.7557 15.2475 22.1738 17.0154Z" fill="#FB2B3A"/>
<path d="M22.1738 17.0154C22.424 16.8962 22.7024 16.8354 23.0038 16.8354C23.0939 16.8354 23.1867 16.8428 23.2803 16.8538C21.0499 14.1564 20.9808 10.2745 23.0702 7.50187L21.6023 6.03401C21.4165 5.84812 21.1132 5.86043 20.9395 6.05774C19.0054 8.2536 18.5641 11.3028 19.6121 13.8899C20.7561 14.0066 21.7557 15.2475 22.1738 17.0154Z" fill="#E41F2D"/>
<path d="M23.2607 14.9184C23.092 14.9184 22.9232 14.8541 22.7946 14.7253C22.5371 14.4679 22.5371 14.0505 22.7946 13.7932L23.5242 13.0635C23.7817 12.8061 24.1991 12.8061 24.4564 13.0635C24.7138 13.3209 24.7138 13.7383 24.4564 13.9957L23.7267 14.7253C23.598 14.8541 23.4293 14.9184 23.2607 14.9184Z" fill="#FE646F"/>
<path d="M23.0357 11.6777H22.0037C21.6397 11.6777 21.3446 11.3826 21.3446 11.0186C21.3446 10.6545 21.6397 10.3594 22.0037 10.3594H23.0357C23.3997 10.3594 23.6948 10.6545 23.6948 11.0186C23.6948 11.3826 23.3997 11.6777 23.0357 11.6777Z" fill="#FE646F"/>
<path d="M16.0705 9.4091C18.5881 6.89147 18.6985 2.87821 16.4017 0.229367C16.2294 0.0307339 15.9244 0.0198355 15.7385 0.205724L6.86711 9.07722C6.68123 9.26311 6.69212 9.56809 6.89076 9.74036C9.53952 12.0371 13.5529 11.9267 16.0705 9.4091Z" fill="#FD4755"/>
<path d="M8.56825 7.67879C8.51024 7.62852 8.47025 7.56638 8.4445 7.49976L6.86695 9.0773C6.68106 9.26319 6.69196 9.56817 6.89059 9.74044C9.53944 12.0373 13.5527 11.9269 16.0703 9.40927C16.5623 8.91734 16.961 8.36776 17.2692 7.78285C14.7438 9.86946 11.0549 9.83492 8.56825 7.67879Z" fill="#FB2B3A"/>
<path d="M14.1664 8.29448C13.9977 8.29448 13.8289 8.23015 13.7003 8.10139L13.0494 7.45056C12.792 7.19313 12.792 6.77573 13.0494 6.51839C13.3069 6.26096 13.7243 6.26096 13.9816 6.51839L14.6324 7.16922C14.8899 7.42665 14.8899 7.84404 14.6324 8.10139C14.5038 8.23006 14.335 8.29448 14.1664 8.29448Z" fill="#E41F2D"/>
<path d="M11.2758 9.41557C10.9118 9.41557 10.6166 9.12043 10.6166 8.75639V7.836C10.6166 7.47196 10.9118 7.17682 11.2758 7.17682C11.6399 7.17682 11.935 7.47196 11.935 7.836V8.75639C11.935 9.12043 11.6399 9.41557 11.2758 9.41557Z" fill="#E41F2D"/>
<path d="M15.4176 5.45783H14.4972C14.1331 5.45783 13.838 5.16269 13.838 4.79865C13.838 4.4346 14.1331 4.13947 14.4972 4.13947H15.4176C15.7816 4.13947 16.0767 4.4346 16.0767 4.79865C16.0767 5.16269 15.7816 5.45783 15.4176 5.45783Z" fill="#E41F2D"/>
<path d="M11.6329 28.0093C11.6329 27.583 11.6815 27.1679 11.7709 26.7681C10.1866 26.2658 9.13383 25.2737 9.13383 24.1684C9.13383 23.1619 9.99234 22.2343 11.4302 21.6871L11.5728 21.6329L11.4544 21.5367C11.2796 21.3949 11.1144 21.2464 10.9636 21.0956C10.0477 20.1797 9.45982 19.0458 9.30144 17.8962C8.46164 17.7136 7.63274 17.8435 6.98763 18.3339C5.77386 19.2565 5.61398 21.1472 6.5146 22.8124C4.99216 23.0867 3.8175 24.0568 3.64119 25.3505C3.49617 26.4142 4.06069 27.4474 5.04041 28.1547H11.6366C11.6354 28.1062 11.6329 28.058 11.6329 28.0093Z" fill="#80D261"/>
<path d="M20.837 28.1546C20.8446 28.1453 20.8531 28.1362 20.8605 28.1269C20.8619 28.0878 20.8635 28.0487 20.8635 28.0092C20.8635 26.0576 19.2759 24.47 17.3243 24.47C15.3727 24.47 13.7849 26.0576 13.7849 28.0092C13.7849 28.058 13.7875 28.1063 13.7895 28.1546H20.837Z" fill="#017B4E"/>
<path d="M17.3243 22.318C19.3073 22.318 21.0557 23.338 22.0749 24.8802C22.0442 24.3108 22.0781 23.7385 22.1771 23.1748C22.1108 23.0706 22.0457 22.9648 21.983 22.8563C21.3155 21.7001 20.958 20.4587 20.9765 19.3607C20.9947 18.2791 21.3759 17.4691 22.05 17.08C22.1161 17.0417 22.1848 17.0083 22.2553 16.9791C21.8091 15.1119 20.7149 13.7921 19.4356 13.7921C18.3565 13.7921 17.4096 14.7318 16.8717 16.1461C16.7314 15.9727 16.5809 15.8036 16.4182 15.6409C14.4622 13.6849 11.6415 13.3342 10.1181 14.8576C8.5947 16.381 8.94539 19.2017 10.9014 21.1577C11.0617 21.318 11.2283 21.4664 11.3989 21.6049C9.98513 22.1429 9.04585 23.0896 9.04585 24.1683C9.04585 25.3345 10.1428 26.3463 11.7509 26.8542C12.2862 24.2679 14.5817 22.318 17.3243 22.318Z" fill="#017B4E"/>
<path d="M15.4543 27.0497C14.9848 26.9565 14.5459 26.8229 14.1484 26.6561C13.9642 27.0879 13.8652 27.5647 13.8732 28.0657C13.8736 28.0661 13.8739 28.0663 13.8742 28.0667H15.6335C15.6716 27.9303 15.7193 27.7926 15.7765 27.6543C15.8838 27.3946 15.7299 27.1045 15.4543 27.0497Z" fill="#026841"/>
<path d="M9.04594 24.1684C9.04594 25.3141 10.1043 26.3114 11.6664 26.8276C11.7875 26.2446 11.9973 25.6944 12.2796 25.1902C12.0892 24.8709 11.9849 24.5271 11.9849 24.1685C11.9849 23.249 12.6671 22.4255 13.744 21.8693C14.0102 21.7317 14.0574 21.3743 13.8452 21.1626C13.8436 21.161 13.842 21.1595 13.8404 21.1578C11.8844 19.2018 11.5337 16.3811 13.0571 14.8577C13.3575 14.5573 13.7089 14.3309 14.0936 14.1742C12.6153 13.6743 11.0982 13.8776 10.118 14.8577C8.59462 16.3811 8.9453 19.2018 10.9013 21.1578C11.0616 21.318 11.2282 21.4665 11.3989 21.605C9.98514 22.1429 9.04594 23.0895 9.04594 24.1684Z" fill="#026841"/>
<path d="M16.6834 22.355C16.8939 22.3313 17.1075 22.3179 17.3243 22.3179C17.7892 22.3179 18.2409 22.3752 18.6737 22.4809L15.0795 18.8867C14.8221 18.6293 14.4047 18.6293 14.1474 18.8867C13.8899 19.1442 13.8899 19.5616 14.1474 19.8189L16.6834 22.355Z" fill="#026841"/>
<path d="M35.6746 21.027C35.8453 20.8884 36.0118 20.7401 36.1722 20.5798C38.1282 18.6238 38.4788 15.8032 36.9554 14.2798C35.432 12.7563 32.6114 13.107 30.6553 15.063C30.4927 15.2257 30.3422 15.3948 30.2018 15.5682C29.6639 14.1539 28.7171 13.2142 27.638 13.2142C26.1722 13.2142 24.9493 14.9464 24.6659 17.2495C23.7128 16.7021 22.7476 16.5758 22.0062 17.0039C20.555 17.8418 20.5106 20.4817 21.907 22.9003C21.9866 23.0382 22.0702 23.171 22.1554 23.3014C22.3666 21.9657 22.9407 20.6752 23.8857 19.5925C23.9613 19.5058 24.0707 19.4561 24.1856 19.4561C24.291 19.4561 24.3901 19.4971 24.4646 19.5716L33.0477 28.1547H34.4859C34.4696 27.649 34.2939 27.1044 33.9824 26.5638C36.2905 26.2826 38.0277 25.0583 38.0277 23.5905C38.0276 22.5116 37.0884 21.565 35.6746 21.027Z" fill="#68CA44"/>
<path d="M32.9263 18.3087C32.6688 18.0513 32.2514 18.0513 31.9941 18.3087L27.6601 22.6427L28.5923 23.5749L32.9263 19.2409C33.1837 18.9836 33.1837 18.5662 32.9263 18.3087Z" fill="#80D261"/>
<path d="M23.0156 28.0093C23.0156 28.0222 23.0152 28.0351 23.0147 28.048L23.0116 28.1547H33.172L24.5267 19.5094C24.3284 19.3111 24.0039 19.3233 23.8195 19.5346C22.5266 21.016 21.9111 22.8829 21.9726 24.7314C22.6286 25.6588 23.0156 26.7894 23.0156 28.0093Z" fill="white"/>
<path d="M27.9698 28.1546H31.0236C31.4915 27.9604 31.9301 27.6737 32.3106 27.2933L26.6829 21.6655C25.1288 23.2196 25.1288 25.7392 26.6829 27.2933C27.0633 27.6737 27.5019 27.9604 27.9698 28.1546Z" fill="#FEDF74"/>
<path d="M27.9724 28.1546H29.4656C28.9975 27.9605 28.5588 27.6738 28.1782 27.2933C26.8832 25.9982 26.6684 24.033 27.5318 22.5144L26.6829 21.6655C25.1289 23.2196 25.1289 25.7392 26.6829 27.2933C27.064 27.6743 27.5036 27.9605 27.9724 28.1546Z" fill="#FED402"/>
<path d="M13.8765 28.1546C13.8745 28.1063 13.8728 28.058 13.8728 28.0092C13.8728 26.1031 15.4181 24.5579 17.3242 24.5579C19.2303 24.5579 20.7756 26.1031 20.7756 28.0092C20.7756 28.058 20.7739 28.1063 20.7719 28.1546H23.0997C23.101 28.1062 23.1034 28.058 23.1034 28.0092C23.1034 24.8174 20.5159 22.23 17.3242 22.23C14.1324 22.23 11.5449 24.8175 11.5449 28.0092C11.5449 28.058 11.5474 28.1061 11.5486 28.1546H13.8765Z" fill="#FED2A4"/>
<path d="M12.7233 45H25.585C25.7604 45 25.9347 44.9674 26.0969 44.9004C32.4313 42.285 36.9675 36.1986 37.3348 29.0111C37.361 28.4965 36.9455 28.0667 36.4301 28.0667H1.87819C1.36289 28.0667 0.947256 28.4964 0.973535 29.0111C1.34083 36.1986 5.87695 42.285 12.2114 44.9004C12.3736 44.9674 12.5478 45 12.7233 45Z" fill="#D8ECFE"/>
<path d="M4.89223 32.3248H1.45052C2.81889 38.0345 6.8775 42.698 12.2114 44.9004C12.3736 44.9674 12.5479 45 12.7233 45H16.165C15.9896 45 15.8153 44.9674 15.6531 44.9004C10.3192 42.6981 6.2606 38.0345 4.89223 32.3248Z" fill="#C4E2FF"/>
<path d="M36.4301 28.0667H1.87819C1.36289 28.0667 0.947256 28.4964 0.973535 29.0111C1.03154 30.1463 1.19379 31.2539 1.45052 32.3248H36.8578C37.1144 31.2539 37.2768 30.1463 37.3348 29.0111C37.361 28.4965 36.9454 28.0667 36.4301 28.0667Z" fill="#EAF6FF"/>
<path d="M0.973535 29.0111C1.03154 30.1463 1.19379 31.2539 1.45052 32.3248H4.89223C4.63559 31.2539 4.47325 30.1463 4.41524 29.0111C4.38896 28.4965 4.8046 28.0667 5.3199 28.0667H1.87819C1.36289 28.0667 0.947256 28.4965 0.973535 29.0111Z" fill="#D8ECFE"/>
</svg>
