<svg width="33" height="45" viewBox="0 0 33 45" fill="none" xmlns="http://www.w3.org/2000/svg">
<path d="M16.5493 0.663513C6.23945 0.663513 0.838226 9.02121 0.838226 19.331C0.838226 27.5458 4.26745 39.605 10.8766 44.1669C12.1221 45.0266 13.6829 43.6338 12.97 42.2989L11.2159 39.0142C9.86793 36.4901 9.86793 33.4599 11.2159 30.9358L15.0378 23.7791C15.6385 22.6544 17.2479 22.6462 17.86 23.7648L21.7417 30.8593C23.1448 33.4238 23.1448 36.5263 21.7417 39.0908L19.9156 42.4283C19.1984 43.739 20.7103 45.1558 21.9597 44.3366C28.7094 39.9112 32.1619 27.65 32.1619 19.3311C32.1618 9.02121 26.859 0.663513 16.5493 0.663513Z" fill="#FD7E42"/>
<path d="M20.5171 1.12183C23.6442 4.54481 25.232 9.60169 25.232 15.2431C25.232 19.989 24.1077 26.0175 21.8892 31.1425C23.1422 33.6498 23.0934 36.6199 21.7415 39.0906L19.9154 42.4281C19.1982 43.7388 20.71 45.1556 21.9596 44.3364C28.7092 39.911 32.1618 27.6498 32.1618 19.3309C32.1618 10.4389 28.2166 2.99987 20.5171 1.12183Z" fill="#FA6931"/>
<path d="M15.2692 19.9438L13.9222 18.5968C13.2424 17.917 13.2424 16.8149 13.9222 16.1351L15.2692 14.7881C15.9489 14.1084 17.0511 14.1084 17.7308 14.7881L19.0778 16.1351C19.7576 16.8149 19.7576 17.917 19.0778 18.5968L17.7308 19.9438C17.0511 20.6235 15.9489 20.6235 15.2692 19.9438Z" fill="#FFDACE"/>
<path d="M18.994 16.0513L18.4975 15.5548C18.4488 15.9523 18.2736 16.3371 17.9685 16.6422L16.7892 17.8215C16.0632 18.5476 14.886 18.5476 14.1599 17.8215L13.4771 17.1387C13.4098 17.6871 13.5851 18.2596 14.006 18.6806L15.1853 19.86C15.9114 20.586 17.0886 20.586 17.8147 19.86L18.994 18.6806C19.72 17.9546 19.72 16.7774 18.994 16.0513Z" fill="#FFC3AB"/>
<path d="M29.3332 16.6452C28.9862 13.3415 27.5014 10.2286 25.1525 7.87975L24.3462 7.07327C20.0196 2.74685 12.9802 2.74694 8.6538 7.07327L7.84741 7.87975C5.49862 10.2286 4.01388 13.3415 3.66671 16.6452C3.31972 19.9488 4.12498 23.3024 5.93438 26.088L10.433 33.0138C10.5609 32.4692 10.7419 31.934 10.9779 31.4168L7.04725 25.3652C3.66838 20.1633 4.39955 13.2043 8.78573 8.81807L9.59213 8.01159C13.401 4.20259 19.5989 4.20259 23.4078 8.01159L24.2142 8.81807C28.6004 13.2043 29.3316 20.1633 25.9527 25.3652L22.0207 31.4187C22.2566 31.9359 22.4382 32.4707 22.566 33.0153L27.0655 26.0881C28.875 23.3024 29.6803 19.9488 29.3332 16.6452Z" fill="#FC5327"/>
<path d="M23.3434 12.4054C21.5155 10.5774 19.0851 9.57074 16.5 9.57074C13.9149 9.57074 11.4846 10.5774 9.65657 12.4054C6.83441 15.2276 6.83441 19.8198 9.65657 22.6422L11.3816 24.3672C12.0875 25.0731 12.9347 25.6261 13.8578 25.9885L14.4879 24.8086C13.6779 24.5153 12.9338 24.0428 12.32 23.429L10.595 21.704C8.29005 19.399 8.29005 15.6486 10.595 13.3437C12.1723 11.7664 14.2694 10.8978 16.5 10.8978C18.7306 10.8978 20.8278 11.7665 22.405 13.3438C24.71 15.6487 24.71 19.3991 22.405 21.704L20.68 23.4291C20.0407 24.0685 19.2879 24.5382 18.4433 24.831L19.0883 26.0099C20.0315 25.6483 20.8999 25.0857 21.6184 24.3673L23.3434 22.6423C26.1656 19.8199 26.1656 15.2277 23.3434 12.4054Z" fill="#FC5327"/>
<path d="M16.5493 0.663513C16.3087 0.663513 16.0718 0.669578 15.8366 0.678542V16.8058C15.8366 17.1722 16.1336 17.4693 16.5001 17.4693C16.8665 17.4693 17.1635 17.1722 17.1635 16.8058V0.674763C16.9605 0.668084 16.7563 0.663513 16.5493 0.663513Z" fill="#FFDACE"/>
<path d="M21.9602 45C21.7441 45 21.5322 44.8945 21.4047 44.7002C21.2039 44.3938 21.2894 43.9825 21.5958 43.7816C27.7943 39.7175 31.4983 28.1583 31.4983 19.3309C31.4983 8.39391 25.6303 1.32688 16.5491 1.32688C7.40805 1.32688 1.50154 8.39391 1.50154 19.3309C1.50154 27.9621 5.14918 39.4074 11.2533 43.6208C11.5547 43.8289 11.6305 44.2422 11.4225 44.5438C11.2142 44.8452 10.8012 44.9212 10.4995 44.7129C6.52765 41.9713 4.09607 37.0184 2.75574 33.3462C1.11553 28.8527 0.174744 23.7444 0.174744 19.3309C0.174744 13.9646 1.64146 9.13166 4.30481 5.72256C7.22946 1.97886 11.4635 0 16.5492 0C21.6302 0 25.8478 1.97965 28.7463 5.72502C31.4148 9.17297 32.8252 13.8778 32.8252 19.331C32.8252 23.8219 31.8737 28.9943 30.2148 33.5221C28.8518 37.242 26.3763 42.2341 22.3234 44.8914C22.2113 44.9648 22.0851 45 21.9602 45Z" fill="#557981"/>
</svg>
