<svg width="45" height="45" viewBox="0 0 45 45" fill="none" xmlns="http://www.w3.org/2000/svg">
<g clip-path="url(#clip0_11_285)">
<path d="M28.8737 31.9218C31.1906 31.9218 33.0689 30.0436 33.0689 27.7267C33.0689 25.4098 31.1906 23.5316 28.8737 23.5316C26.5568 23.5316 24.6786 25.4098 24.6786 27.7267C24.6786 30.0436 26.5568 31.9218 28.8737 31.9218Z" fill="#F2F2F2"/>
<path d="M28.8737 23.5315C28.2252 23.5315 27.6111 23.6788 27.0629 23.9416C28.4732 24.6175 29.4471 26.0583 29.4471 27.7266C29.4471 29.395 28.4732 30.8357 27.0629 31.5117C27.6111 31.7745 28.2252 31.9218 28.8737 31.9218C31.1906 31.9218 33.0689 30.0436 33.0689 27.7266C33.0689 25.4097 31.1906 23.5315 28.8737 23.5315Z" fill="#E6E6E6"/>
<path d="M8.60778 31.8548C7.34596 29.9901 6.41763 28.0952 5.74036 26.3911C3.15698 19.8909 3.02841 13.449 3.76951 9.58779C4.06323 8.05734 4.70065 6.60539 5.56444 5.4994C6.5471 4.24112 7.72335 3.5357 9.06049 3.40278C9.21885 3.38703 9.37902 3.37897 9.53657 3.37897C11.9639 3.37897 14.0381 5.28191 16.0441 7.12212C17.1164 8.10587 18.1292 9.03502 19.2185 9.72252C21.2078 10.9781 25.0861 12.0469 26.6618 12.4483C27.066 12.5513 27.3464 12.9173 27.3429 13.3344C27.2975 18.6122 27.7772 22.5486 27.7772 22.5486C26.8353 22.7476 25.9361 23.2043 25.1934 23.923C23.734 25.3353 23.2631 27.3827 23.7923 29.2058L23.7912 29.2046C23.7912 29.2046 17.5342 34.8778 9.60158 32.5756C9.19685 32.4581 8.84382 32.2038 8.60778 31.8548Z" fill="#D82E3D"/>
<path d="M33.6118 39.8154C31.5155 41.2211 28.3687 41.6207 25.967 41.6207C23.7329 41.6207 21.4928 41.2056 19.3972 40.4358C17.1612 39.6145 15.2439 38.5082 13.6008 37.2342C12.9262 36.7111 13.2847 35.6343 14.138 35.6134C20.7483 35.4512 25.0343 31.3694 25.073 31.4093C26.7034 33.0922 29.1796 33.4603 31.1807 32.4949C31.1807 32.4949 32.9763 35.9608 33.9683 38.7595C34.1071 39.1511 33.9569 39.584 33.6118 39.8154Z" fill="#D82E3D"/>
<path d="M33.9683 38.7595C32.9762 35.9608 31.1808 32.4949 31.1808 32.4949C30.111 33.011 28.9056 33.1456 27.7661 32.9024C28.2661 33.8974 29.5591 36.5378 30.3467 38.7595C30.4855 39.1511 30.3353 39.5839 29.9902 39.8154C28.4123 40.8735 26.2395 41.3613 24.237 41.538C24.8124 41.5923 25.39 41.6205 25.9671 41.6205C28.3689 41.6205 31.5156 41.221 33.6119 39.8153C33.9569 39.5839 34.1071 39.1511 33.9683 38.7595Z" fill="#C10A54"/>
<path d="M40.5948 32.432C39.7888 34.3099 38.6342 35.9519 37.211 37.3083C36.7577 37.7404 36.0144 37.5989 35.7569 37.028C34.4417 34.1107 33.068 30.9662 33.068 30.9662C34.6574 28.9178 34.5405 25.9606 32.6837 24.0442C32.0211 23.3602 31.1663 22.8721 30.2606 22.5906C29.9863 19.7026 29.9538 16.2585 29.959 14.4572C29.9608 13.8282 30.5885 13.3932 31.1783 13.6119C35.051 15.0473 38.5322 18.0591 40.2805 21.7117C41.9518 25.2033 42.0634 29.0105 40.5948 32.432Z" fill="#D82E3D"/>
<path d="M40.2804 21.7117C38.532 18.0591 35.051 15.0473 31.1783 13.6119C30.5885 13.3932 29.9607 13.8282 29.9589 14.4572C29.9587 14.5445 29.9586 14.6369 29.9585 14.7318C32.8298 16.3565 35.2818 18.835 36.6587 21.7117C38.33 25.2033 38.4417 29.0105 36.973 32.432C36.4794 33.5818 35.8547 34.6427 35.1181 35.6043C35.3285 36.0753 35.5434 36.5545 35.7569 37.0279C36.0143 37.5988 36.7576 37.7404 37.211 37.3082C38.6342 35.9518 39.7888 34.3098 40.5948 32.4319C42.0634 29.0105 41.9518 25.2033 40.2804 21.7117Z" fill="#C10A54"/>
<path d="M43.3188 20.2445C40.9747 15.3581 36.4333 11.563 31.1702 10.0924C30.1304 9.80186 29.0894 9.56066 28.0827 9.32751C25.5046 8.73028 23.0694 8.16611 21.0213 6.87342C20.1886 6.34791 19.2845 5.51835 18.3271 4.64017C16.0543 2.55514 13.4783 0.191964 9.93414 0.0183024C9.53367 -0.0013455 9.12704 0.00888588 8.72575 0.0488155C6.46661 0.273363 4.4531 1.44128 2.90291 3.42626C1.71662 4.9453 0.847219 6.90792 0.454714 8.95284C-0.605004 14.4745 0.218306 21.6328 2.6034 27.6342C4.77399 33.0957 9.24746 40.2989 18.2326 43.5991C20.3987 44.3948 22.6427 44.8543 24.9024 44.9651C28.8825 45.1601 32.7237 44.2681 36.0095 42.3859C39.4665 40.4056 42.1247 37.423 43.6969 33.7604C45.5562 29.4287 45.4219 24.6286 43.3188 20.2445ZM29.0133 24.9914C29.7086 25.0254 30.3586 25.32 30.8436 25.8206C31.8951 26.906 31.8672 28.6442 30.7811 29.6952C30.2315 30.2272 29.5078 30.4994 28.7433 30.462C27.881 30.4197 27.0882 29.9769 26.5936 29.237C25.8553 28.1325 26.0208 26.682 26.9756 25.7582C27.5252 25.2263 28.2489 24.9539 29.0133 24.9914ZM8.60777 31.8549C7.34596 29.9901 6.41762 28.0952 5.74036 26.3911C3.15698 19.8909 3.02841 13.449 3.7695 9.58782C4.06323 8.05737 4.70065 6.60541 5.56443 5.49943C6.5471 4.24115 7.72335 3.53573 9.06049 3.40281C9.21885 3.38705 9.37902 3.379 9.53657 3.379C11.9638 3.379 14.0381 5.28194 16.0441 7.12215C17.1164 8.1059 18.1292 9.03505 19.2185 9.72255C21.2078 10.9781 25.0861 12.0469 26.6618 12.4484C27.066 12.5513 27.3464 12.9174 27.3429 13.3344C27.2975 18.6123 27.7772 22.5486 27.7772 22.5486C26.8353 22.7477 25.9361 23.2043 25.1934 23.9231C23.734 25.3354 23.2631 27.3827 23.7923 29.2058L23.7912 29.2047C23.7912 29.2047 17.5342 34.8778 9.60158 32.5757C9.19685 32.4581 8.84382 32.2038 8.60777 31.8549ZM33.6118 39.8154C31.5155 41.2211 28.3687 41.6207 25.967 41.6207C23.7329 41.6207 21.4928 41.2056 19.3972 40.4358C17.1612 39.6145 15.2439 38.5082 13.6008 37.2342C12.9262 36.7111 13.2847 35.6343 14.138 35.6134C20.7484 35.4512 25.0343 31.3695 25.073 31.4093C26.7034 33.0922 29.1796 33.4603 31.1807 32.4949C31.1807 32.4949 32.9763 35.9608 33.9683 38.7595C34.1071 39.1511 33.9569 39.584 33.6118 39.8154ZM40.5948 32.432C39.7888 34.3098 38.6342 35.9518 37.211 37.3083C36.7577 37.7404 36.0144 37.5989 35.7569 37.028C34.4417 34.1106 33.0679 30.9662 33.0679 30.9662C34.6574 28.9178 34.5404 25.9606 32.6837 24.0441C32.0211 23.3602 31.1663 22.8721 30.2606 22.5906C29.9863 19.7026 29.9538 16.2585 29.959 14.4571C29.9608 13.8281 30.5885 13.3932 31.1783 13.6118C35.051 15.0473 38.5321 18.059 40.2804 21.7117C41.9518 25.2033 42.0634 29.0105 40.5948 32.432Z" fill="#FFD8D5"/>
</g>
<defs>
<clipPath id="clip0_11_285">
<rect width="45" height="45" fill="white"/>
</clipPath>
</defs>
</svg>
