<svg width="45" height="45" viewBox="0 0 45 45" fill="none" xmlns="http://www.w3.org/2000/svg">
<path d="M42.1875 5.625H2.8125C2.03585 5.625 1.40625 6.2546 1.40625 7.03125V37.9688C1.40625 38.7454 2.03585 39.375 2.8125 39.375H42.1875C42.9641 39.375 43.5938 38.7454 43.5938 37.9688V7.03125C43.5938 6.2546 42.9641 5.625 42.1875 5.625Z" fill="#373737"/>
<path d="M10.5469 11.9531C9.42799 11.9531 8.35494 12.3976 7.56377 13.1888C6.7726 13.9799 6.32812 15.053 6.32812 16.1719H14.7656C14.7656 15.053 14.3212 13.9799 13.53 13.1888C12.7388 12.3976 11.6658 11.9531 10.5469 11.9531Z" fill="#F9CCEB"/>
<path d="M10.5469 8.4375C9.42799 8.4375 8.35494 8.88197 7.56377 9.67314C6.7726 10.4643 6.32812 11.5374 6.32812 12.6562H14.7656C14.7656 11.5374 14.3212 10.4643 13.53 9.67314C12.7388 8.88197 11.6658 8.4375 10.5469 8.4375Z" fill="#F5AADE"/>
<path d="M16.1719 35.1562V19.6875C16.1719 19.2992 15.8571 18.9844 15.4688 18.9844H4.92188C4.53355 18.9844 4.21875 19.2992 4.21875 19.6875V35.1562C4.21875 35.5446 4.53355 35.8594 4.92188 35.8594H15.4688C15.8571 35.8594 16.1719 35.5446 16.1719 35.1562Z" fill="#4D4D4D"/>
<path d="M14.7656 20.3906V26.7188H5.625V20.3906H14.7656Z" fill="#764C2C"/>
<path d="M14.7656 28.125V34.4531H5.625V28.125H14.7656Z" fill="#8CD25F"/>
<path d="M19.6875 19.6875H35.8594C36.636 19.6875 37.2656 19.0579 37.2656 18.2812V10.5469C37.2656 9.77022 36.636 9.14062 35.8594 9.14062H19.6875C18.9108 9.14062 18.2812 9.77022 18.2812 10.5469V18.2812C18.2812 19.0579 18.9108 19.6875 19.6875 19.6875Z" fill="#FA5046"/>
<path d="M18.2812 17.4023V18.2812C18.2818 18.4602 18.3166 18.6373 18.3838 18.8031C20.9285 18.7741 23.3593 17.7437 25.1497 15.9351C26.9401 14.1266 27.9459 11.6855 27.9492 9.14062H26.543C26.5404 11.331 25.6691 13.4309 24.1203 14.9797C22.5715 16.5285 20.4716 17.3998 18.2812 17.4023Z" fill="#FF695F"/>
<path d="M23.7305 9.14062H22.3242C22.3231 10.2125 21.8968 11.2402 21.1388 11.9982C20.3809 12.7562 19.3532 13.1825 18.2812 13.1836V14.5898C19.726 14.5882 21.1111 14.0136 22.1327 12.992C23.1542 11.9705 23.7289 10.5854 23.7305 9.14062Z" fill="#FF695F"/>
<path d="M24.9235 19.6875H27.2905C28.8188 18.3876 30.0465 16.7713 30.8887 14.9502C31.7308 13.1292 32.1673 11.147 32.168 9.14062H30.7617C30.7593 11.2488 30.2225 13.3219 29.2015 15.1663C28.1806 17.0107 26.7087 18.5662 24.9235 19.6875Z" fill="#FF695F"/>
<path d="M32.9836 19.6875C35.1774 16.6456 36.3664 12.9945 36.3843 9.24406C36.2176 9.17612 36.0394 9.141 35.8594 9.14062H34.9804C34.9837 12.9858 33.6535 16.7131 31.2166 19.6875H32.9836Z" fill="#FF695F"/>
<path d="M21.4453 27.7734H37.6172C38.3938 27.7734 39.0234 27.1438 39.0234 26.3672V18.6328C39.0234 17.8562 38.3938 17.2266 37.6172 17.2266H21.4453C20.6687 17.2266 20.0391 17.8562 20.0391 18.6328V26.3672C20.0391 27.1438 20.6687 27.7734 21.4453 27.7734Z" fill="#FF695F"/>
<path d="M20.0391 25.4883V26.3672C20.0396 26.5461 20.0744 26.7233 20.1416 26.889C22.6863 26.86 25.1172 25.8296 26.9075 24.0211C28.6979 22.2125 29.7037 19.7714 29.707 17.2266H28.3008C28.2982 19.4169 27.4269 21.5168 25.8781 23.0656C24.3293 24.6144 22.2294 25.4857 20.0391 25.4883Z" fill="#FF8F82"/>
<path d="M25.4883 17.2266H24.082C24.0809 18.2985 23.6546 19.3262 22.8966 20.0841C22.1387 20.8421 21.111 21.2684 20.0391 21.2695V22.6758C21.4838 22.6742 22.8689 22.0996 23.8905 21.078C24.9121 20.0564 25.4867 18.6713 25.4883 17.2266Z" fill="#FF8F82"/>
<path d="M26.6813 27.7734H29.0483C30.5766 26.4736 31.8043 24.8572 32.6464 23.0362C33.4885 21.2151 33.925 19.2329 33.9256 17.2266H32.5194C32.517 19.3347 31.9803 21.4078 30.9593 23.2522C29.9383 25.0967 28.4665 26.6522 26.6813 27.7734Z" fill="#FF8F82"/>
<path d="M34.7414 27.7734C36.9352 24.7316 38.1242 21.0804 38.1421 17.33C37.9754 17.2621 37.7972 17.2269 37.6172 17.2266H36.7383C36.7415 21.0717 35.4113 24.7991 32.9744 27.7734H34.7414Z" fill="#FF8F82"/>
<path d="M23.2031 35.8594H39.375C40.1517 35.8594 40.7812 35.2298 40.7812 34.4531V26.7188C40.7812 25.9421 40.1517 25.3125 39.375 25.3125H23.2031C22.4265 25.3125 21.7969 25.9421 21.7969 26.7188V34.4531C21.7969 35.2298 22.4265 35.8594 23.2031 35.8594Z" fill="#FA5046"/>
<path d="M21.7969 33.5742V34.4531C21.7974 34.632 21.8322 34.8092 21.8995 34.975C24.4442 34.946 26.875 33.9156 28.6653 32.107C30.4557 30.2985 31.4615 27.8574 31.4648 25.3125H30.0586C30.056 27.5028 29.1847 29.6027 27.6359 31.1516C26.0871 32.7004 23.9872 33.5716 21.7969 33.5742Z" fill="#FF695F"/>
<path d="M27.2461 25.3125H25.8398C25.8387 26.3844 25.4124 27.4121 24.6545 28.1701C23.8965 28.928 22.8688 29.3544 21.7969 29.3555V30.7617C23.2416 30.7601 24.6267 30.1855 25.6483 29.1639C26.6699 28.1423 27.2445 26.7572 27.2461 25.3125Z" fill="#FF695F"/>
<path d="M28.4391 35.8594H30.8062C32.3345 34.5595 33.5622 32.9432 34.4043 31.1221C35.2465 29.3011 35.6829 27.3188 35.6836 25.3125H34.2773C34.2749 27.4206 33.7382 29.4938 32.7172 31.3382C31.6962 33.1826 30.2243 34.7381 28.4391 35.8594Z" fill="#FF695F"/>
<path d="M36.4992 35.8594C38.693 32.8175 39.882 29.1663 39.8999 25.4159C39.7332 25.348 39.555 25.3129 39.375 25.3125H38.4961C38.4993 29.1577 37.1691 32.885 34.7322 35.8594H36.4992Z" fill="#FF695F"/>
</svg>
