<svg width="45" height="45" viewBox="0 0 45 45" fill="none" xmlns="http://www.w3.org/2000/svg">
<g clip-path="url(#clip0_11_220)">
<path d="M43.5334 17.4181L45 14.8096L43.3393 11.856V7.14746H36.9729L7.14746 36.973V43.3393H11.5859L14.5395 45L17.148 43.5334L19.7564 45L22.3648 43.5334L24.9732 45L27.5816 43.5334L30.19 45L32.7985 43.5334L35.4069 45L38.3606 43.3393H43.3393V38.6307L45 35.6772L43.5334 33.0687L45 30.4602L43.5334 27.8518L45 25.2434L43.5334 22.6349L45 20.0265L43.5334 17.4181Z" fill="#FFD321"/>
<path d="M43.5334 17.4181L45 14.8096L43.3394 11.856V7.14746H36.973L19.7567 24.3637V44.9998L22.3648 43.5334L24.9733 45L27.5817 43.5334L30.1901 45L32.7986 43.5334L35.407 45L38.3607 43.3393H43.3394V38.6307L45 35.6772L43.5334 33.0687L45 30.4602L43.5334 27.8518L45 25.2434L43.5334 22.6349L45 20.0265L43.5334 17.4181Z" fill="#FFB454"/>
<path d="M38.0467 11.9313L39.5133 9.32292L37.8526 6.36931V1.66066H33.144L30.1904 0L27.582 1.46661L24.9735 0L22.3651 1.46661L19.7567 0L17.1482 1.46661L14.5398 0L11.9313 1.46661L9.32292 0L6.36931 1.66066H1.66066V6.36931L0 9.32292L1.46661 11.9313L0 14.5398L1.46661 17.1483L0 19.7566L1.46661 22.3651L0 24.9736L1.46661 27.5819L0 30.1904L1.66066 33.144V37.8526H6.36931L9.32292 39.5134L11.9313 38.0467L14.5398 39.5134L17.1482 38.0467L19.7567 39.5134L22.3651 38.0467L24.9735 39.5134L27.582 38.0467L30.1904 39.5134L33.144 37.8526H37.8526V33.144L39.5133 30.1904L38.0467 27.5819L39.5133 24.9736L38.0467 22.3651L39.5133 19.7566L38.0467 17.1483L39.5133 14.5398L38.0467 11.9313Z" fill="#FFEC29"/>
<path d="M38.0467 11.9313L39.5133 9.32292L37.8526 6.36931V1.66066H33.144L30.1904 0L27.582 1.46661L24.9735 0L22.3651 1.46661L19.7567 0V39.5134L22.3651 38.0467L24.9735 39.5134L27.582 38.0467L30.1904 39.5134L33.144 37.8526H37.8526V33.144L39.5133 30.1904L38.0467 27.5819L39.5133 24.9736L38.0467 22.3651L39.5133 19.7566L38.0467 17.1483L39.5133 14.5398L38.0467 11.9313Z" fill="#FFD321"/>
<path d="M31.0822 9.17943L30.9222 8.26947L30.0121 8.10944C26.6102 7.5113 23.1598 7.20801 19.7567 7.20801C16.3536 7.20801 12.9032 7.5113 9.5013 8.10944L8.59126 8.26947L8.43122 9.17943C7.23468 15.9845 7.23468 22.8853 8.43122 29.6904L8.59126 30.6004L9.5013 30.7603C12.9032 31.3585 16.3536 31.6618 19.7567 31.6618C23.1597 31.6618 26.6101 31.3585 30.012 30.7603L30.9221 30.6004L31.0821 29.6904C32.2787 22.8853 32.2787 15.9844 31.0822 9.17943V9.17943Z" fill="#FFD321"/>
<path d="M31.0822 9.17942L30.9221 8.26947L30.0121 8.10943C26.6102 7.5113 23.1598 7.20801 19.7567 7.20801V31.6618C23.1598 31.6618 26.6102 31.3585 30.0121 30.7604L30.9221 30.6005L31.0822 29.6904C32.2786 22.8853 32.2786 15.9844 31.0822 9.17942V9.17942Z" fill="#FFB454"/>
</g>
<defs>
<clipPath id="clip0_11_220">
<rect width="45" height="45" fill="white"/>
</clipPath>
</defs>
</svg>
