<svg width="45" height="45" viewBox="0 0 45 45" fill="none" xmlns="http://www.w3.org/2000/svg">
<path d="M35.5442 35.8449H9.4558C8.27121 35.8449 7.31091 34.8846 7.31091 33.7V31.1582H37.6891V33.7C37.6891 34.8846 36.7288 35.8449 35.5442 35.8449Z" fill="#C19476"/>
<path d="M45 30.5553C45 32.1827 34.9264 33.5014 22.5 33.5014C10.0736 33.5014 0 32.1827 0 30.5553C0 29.7612 2.39528 29.0408 6.29095 28.5121C10.3833 27.9552 16.1324 27.6091 22.5 27.6091C28.8666 27.6091 34.6157 27.9552 38.7081 28.5111C42.6047 29.0408 45 29.7612 45 30.5553Z" fill="#D8AD8F"/>
<path d="M38.708 28.5111C37.9402 30.4422 36.0524 31.8114 33.8509 31.8114H11.149C8.94748 31.8114 7.05967 30.4432 6.29089 28.5121C10.3833 27.9552 16.1324 27.6091 22.4999 27.6091C28.8666 27.6091 34.6157 27.9552 38.708 28.5111Z" fill="#C19476"/>
<path d="M37.5619 18.2469V26.5869C37.5619 28.6359 35.9004 30.2982 33.8514 30.2982H11.1495C9.09962 30.2982 7.43726 28.6359 7.43726 26.5869V18.2469H37.5619Z" fill="#F9E8D4"/>
<path d="M37.5622 18.2469V21.7449C37.204 21.7035 36.8277 21.649 36.4351 21.5805H36.4301L36.2939 21.5553C36.0487 21.5109 35.8187 21.4654 35.5887 21.416C34.3668 21.1588 33.0027 21.0286 31.5346 21.0286C31.349 21.0286 31.1633 21.0306 30.9767 21.0347C29.883 21.0559 28.7398 21.1437 27.4807 21.3021C25.7372 21.521 23.8302 21.8671 21.4783 22.3948C20.1303 22.6975 18.7994 23.0214 17.512 23.3342L17.1821 23.4149C14.5628 24.0495 12.4046 24.5581 10.4533 24.8304C9.47354 24.9687 8.62399 25.0363 7.85714 25.0363C7.71485 25.0363 7.57466 25.0342 7.43738 25.0292V18.247H37.5622V18.2469Z" fill="#EFCDB1"/>
<path d="M25.8003 16.9585H18.399V30.2985H25.8003V16.9585Z" fill="#EFCDB1"/>
<path d="M24.4415 18.3164H19.7578V30.2977H24.4415V18.3164Z" fill="#008753"/>
<path d="M36.5684 20.0671H36.5675C36.3536 20.0277 36.1316 19.9844 35.9026 19.9359C34.3185 19.6019 32.6517 19.4849 30.9445 19.5213C29.7429 19.5454 28.5199 19.6463 27.292 19.8008C25.2368 20.058 23.1654 20.4656 21.1474 20.9177C19.6693 21.2496 18.2194 21.6048 16.825 21.9438C14.4206 22.5269 12.1806 23.0607 10.2434 23.3321C6.05115 23.9224 3.27451 23.2898 3.30879 19.3064C3.34306 15.4551 5.97855 13.0639 9.298 11.5807C10.7529 10.9289 12.3401 10.4527 13.8959 10.1046C16.2781 9.56985 18.5876 9.33571 20.2434 9.23279C21.7407 9.14095 22.7042 9.15615 22.7042 9.15615C23.5376 9.15615 24.363 9.20159 25.1762 9.28632C27.7269 9.55069 30.1565 10.2025 32.3288 11.0631C33.3125 11.4536 34.2438 11.8874 35.1095 12.3475C42.1359 16.0796 44.8681 21.5704 36.5684 20.0671Z" fill="#FF6C56"/>
<path d="M16.8248 21.9437C14.4205 22.5269 12.1805 23.0606 10.2433 23.332C5.94106 18.4476 7.38994 14.2221 9.29787 11.5806C10.7528 10.9288 12.3399 10.4526 13.8958 10.1045C11.7316 15.343 14.4033 19.496 16.8248 21.9437Z" fill="#FB4239"/>
<path d="M27.292 19.8007C25.2367 20.058 23.1653 20.4656 21.1473 20.9176C17.3173 15.6851 18.3323 11.7915 20.2433 9.23273C21.7406 9.14089 22.7041 9.15609 22.7041 9.15609C23.5375 9.15609 24.3629 9.20153 25.1762 9.28626C23.6163 13.5199 25.5242 17.3892 27.292 19.8007Z" fill="#FB4239"/>
<path d="M36.5674 20.0671C36.3534 20.0278 36.1315 19.9844 35.9025 19.936C34.3184 19.602 32.6516 19.4849 30.9444 19.5213C28.8942 15.5288 30.5852 12.7098 32.3287 11.0632C33.3124 11.4537 34.2437 11.8875 35.1093 12.3476C34.043 15.4046 35.286 18.2075 36.5674 20.0671Z" fill="#FB4239"/>
<path d="M33.728 25.0347C33.3529 25.0347 33.049 24.7306 33.049 24.3556V24.1892C33.049 23.8141 33.353 23.5102 33.728 23.5102C34.1031 23.5102 34.407 23.8142 34.407 24.1892V24.3556C34.4071 24.7307 34.1031 25.0347 33.728 25.0347Z" fill="#EFCDB1"/>
<path d="M31.5084 26.358C31.1333 26.358 30.8293 26.054 30.8293 25.679V25.5126C30.8293 25.1375 31.1334 24.8336 31.5084 24.8336C31.8834 24.8336 32.1874 25.1376 32.1874 25.5126V25.679C32.1874 26.054 31.8835 26.358 31.5084 26.358Z" fill="#EFCDB1"/>
<path d="M28.2796 24.9515C27.9045 24.9515 27.6006 24.6475 27.6006 24.2725V24.1061C27.6006 23.731 27.9046 23.4271 28.2796 23.4271C28.6547 23.4271 28.9587 23.7311 28.9587 24.1061V24.2725C28.9587 24.6475 28.6547 24.9515 28.2796 24.9515Z" fill="#EFCDB1"/>
<path d="M12.1314 27.2266C11.7564 27.2266 11.4524 26.9225 11.4524 26.5475V26.3811C11.4524 26.006 11.7564 25.7021 12.1314 25.7021C12.5065 25.7021 12.8105 26.0061 12.8105 26.3811V26.5475C12.8105 26.9225 12.5065 27.2266 12.1314 27.2266Z" fill="#EFCDB1"/>
<path d="M14.8581 28.4547C14.4831 28.4547 14.1791 28.1507 14.1791 27.7757V27.6093C14.1791 27.2342 14.4831 26.9302 14.8581 26.9302C15.2331 26.9302 15.5372 27.2342 15.5372 27.6093V27.7757C15.5372 28.1507 15.2331 28.4547 14.8581 28.4547Z" fill="#EFCDB1"/>
</svg>
