<svg width="45" height="45" viewBox="0 0 45 45" fill="none" xmlns="http://www.w3.org/2000/svg">
<g clip-path="url(#clip0_11_228)">
<path d="M25.219 28.0971C25.4011 28.1618 25.5802 28.2328 25.7563 28.3097C26.5807 27.8467 27.4927 27.5221 28.4609 27.3676C28.5871 27.0727 28.657 26.7482 28.657 26.4071C28.657 25.057 27.5625 23.9625 26.2123 23.9625C25.8585 23.9625 25.5226 24.0382 25.219 24.1735V28.0971Z" fill="#FD4755"/>
<path d="M16.9549 29.7686C17.6781 29.1063 18.5105 28.5824 19.4141 28.2189C19.4184 28.1588 19.4215 28.0983 19.4215 28.0371C19.4215 26.6869 18.327 25.5924 16.9768 25.5924C15.6267 25.5924 14.5322 26.6869 14.5322 28.0371C14.5322 28.1048 14.5357 28.1718 14.541 28.2383C15.4356 28.6056 16.2511 29.1267 16.9549 29.7686V29.7686Z" fill="#FD4755"/>
<path d="M16.2879 29.221C16.093 28.8701 15.9809 28.4669 15.9809 28.037C15.9809 26.9391 16.7047 26.0103 17.7012 25.7015C17.4723 25.6306 17.229 25.5923 16.9768 25.5923C15.6267 25.5923 14.5322 26.6868 14.5322 28.037C14.5322 28.1048 14.5357 28.1718 14.541 28.2382C15.1655 28.4947 15.7516 28.8258 16.2879 29.221Z" fill="#FB2B3A"/>
<path d="M19.5724 12.1733C18.939 12.1733 18.4255 11.6599 18.4255 11.0264V20.8238C18.4255 21.4572 18.939 21.9707 19.5724 21.9707C20.2058 21.9707 20.7193 21.4572 20.7193 20.8238V11.0264C20.7193 11.6599 20.2058 12.1733 19.5724 12.1733Z" fill="#FEDF74"/>
<path d="M21.8662 13.0957C21.2328 13.0957 20.7194 12.5822 20.7194 11.9488V27.817C21.2913 27.6921 21.8816 27.6269 22.4826 27.6269C22.6609 27.6269 22.8377 27.6332 23.0131 27.6446V11.9488C23.0131 12.5822 22.4996 13.0957 21.8662 13.0957V13.0957Z" fill="#FAC600"/>
<path d="M24.16 12.1733C23.5266 12.1733 23.0131 11.6599 23.0131 11.0264V27.6446C23.8142 27.696 24.5843 27.8627 25.3069 28.1287V11.0264C25.3069 11.6599 24.7933 12.1733 24.16 12.1733V12.1733Z" fill="#FEDF74"/>
<path d="M43.6966 7.25737H30.7518C30.3098 7.25737 29.8971 7.04107 29.6417 6.68045C29.2293 6.09827 28.5506 5.71814 27.7828 5.71814H25.219V11.3318H27.7828C28.5506 11.3318 29.2293 10.9517 29.6417 10.3695C29.8972 10.0089 30.3099 9.79257 30.7518 9.79257H43.7323C44.4528 9.79257 45.0328 9.19166 44.9985 8.46367C44.9664 7.7819 44.3791 7.25737 43.6966 7.25737V7.25737Z" fill="#ACC7E4"/>
<path d="M19.5724 12.2825C18.939 12.2825 18.4255 11.7691 18.4255 11.1357V5.91434C18.4255 5.28091 18.939 4.76746 19.5724 4.76746C20.2058 4.76746 20.7193 5.28091 20.7193 5.91434V11.1357C20.7193 11.7691 20.2058 12.2825 19.5724 12.2825Z" fill="#FAC600"/>
<path d="M21.8662 13.188C21.2328 13.188 20.7194 12.6745 20.7194 12.0411V5.00888C20.7194 4.37546 21.2328 3.862 21.8662 3.862C22.4997 3.862 23.0131 4.37546 23.0131 5.00888V12.0411C23.0131 12.6744 22.4996 13.188 21.8662 13.188V13.188Z" fill="#FEDF74"/>
<path d="M24.16 12.2825C23.5266 12.2825 23.0131 11.7691 23.0131 11.1357V5.91434C23.0131 5.28091 23.5266 4.76746 24.16 4.76746C24.7934 4.76746 25.3069 5.28091 25.3069 5.91434V11.1357C25.3069 11.7691 24.7933 12.2825 24.16 12.2825Z" fill="#FAC600"/>
<path d="M4.91442 30.8537C5.49222 30.0974 6.20641 29.4357 7.03865 28.9056L7.12434 28.851L7.05799 28.7741C6.59902 28.2419 6.25414 27.6344 6.03301 26.9683C5.90433 26.5807 5.82383 26.1838 5.78638 25.7853C4.47172 25.5851 3.14747 25.8806 2.05578 26.5725C1.89828 26.6723 1.81883 26.8615 1.85785 27.0439C2.20634 28.6724 3.29653 30.1138 4.91442 30.8537V30.8537Z" fill="#017B4E"/>
<path d="M3.52546 26.5125C3.48644 26.3301 3.56589 26.141 3.72339 26.0411C3.87026 25.948 4.0216 25.8628 4.17638 25.7843C3.42201 25.8966 2.6985 26.1652 2.05584 26.5725C1.89834 26.6723 1.81889 26.8615 1.85791 27.0439C2.20631 28.6725 3.29651 30.1139 4.9144 30.8537C5.17921 30.5071 5.47399 30.1816 5.79427 29.8782C4.61126 29.0784 3.81374 27.8602 3.52546 26.5125V26.5125Z" fill="#026841"/>
<path d="M7.05074 28.9014C8.23516 28.1484 9.62506 27.6915 11.1157 27.6338C11.1927 26.8904 11.1168 26.1192 10.8661 25.3638C10.2834 23.6082 8.89205 22.3488 7.2434 21.8608C7.06454 21.8079 6.86986 21.8725 6.75815 22.0219C5.72869 23.399 5.36676 25.2404 5.94947 26.9959C6.19091 27.7227 6.5713 28.3642 7.05074 28.9014V28.9014Z" fill="#80D261"/>
<path d="M7.05071 28.9014C7.50133 28.6149 7.98174 28.3715 8.48597 28.1764C8.25859 27.8142 8.06989 27.4199 7.92918 26.9959C7.39841 25.3971 7.65153 23.7272 8.47858 22.4015C8.09099 22.1719 7.67649 21.9891 7.24346 21.8609C7.0646 21.808 6.86992 21.8726 6.75821 22.022C5.72875 23.3991 5.36682 25.2405 5.94953 26.996C6.19088 27.7228 6.57127 28.3642 7.05071 28.9014V28.9014Z" fill="#68CA44"/>
<path d="M8.38885 28.2148C8.79376 28.052 9.21449 27.9207 9.64814 27.8239L9.0482 26.0166C8.93342 25.6711 8.56059 25.4839 8.21491 25.5987C7.86941 25.7134 7.6823 26.0865 7.79699 26.432L8.38885 28.2148Z" fill="#017B4E"/>
<path d="M29.7574 27.1769C28.2844 27.1769 26.9018 27.5621 25.7034 28.236C28.3026 29.3787 30.2029 31.8177 30.586 34.7347H34.8532L34.8381 34.6338C34.8203 34.5156 34.8113 34.3982 34.8113 34.2847C34.8113 32.9851 35.8685 31.9279 37.1681 31.9279C37.1958 31.9279 37.2233 31.929 37.2507 31.93C35.9249 29.1213 33.0692 27.1769 29.7574 27.1769V27.1769Z" fill="#FAC600"/>
<path d="M34.8112 34.2846C34.8112 33.7897 34.9649 33.3301 35.2266 32.9505C34.2732 30.8811 32.1813 29.4405 29.7573 29.4405C29.1332 29.4405 28.5317 29.5374 27.9653 29.7145C29.3665 30.998 30.3261 32.7556 30.586 34.7347H34.8531L34.838 34.6338C34.8202 34.5156 34.8112 34.3981 34.8112 34.2846V34.2846Z" fill="#FEDF74"/>
<path d="M29.7574 31.7041C29.692 31.7041 29.6272 31.7062 29.5626 31.7096C30.0864 32.6232 30.443 33.645 30.586 34.7347H33.4438C33.1041 33.0095 31.5806 31.7041 29.7574 31.7041Z" fill="#FAC600"/>
<path d="M6.32372 32.8167C6.34016 32.7904 6.35589 32.765 6.37294 32.738C7.44784 30.9801 9.38214 29.8906 11.4362 29.8906C12.9168 29.8906 14.3359 30.4416 15.432 31.442L15.5092 31.5124L15.5653 31.4244C15.9772 30.7782 16.4687 30.2034 17.0218 29.7079C15.5487 28.3617 13.589 27.5391 11.4361 27.5391C8.25723 27.5391 5.49782 29.3302 4.1087 31.9576C4.23026 31.9382 4.3548 31.9278 4.4818 31.9278C5.22676 31.9278 5.89156 32.2755 6.32372 32.8167V32.8167Z" fill="#FAC600"/>
<path d="M6.83872 34.2846C6.83872 34.3981 6.82975 34.5156 6.81209 34.6337L6.79697 34.7346H30.696C30.1627 30.6739 26.6889 27.5391 22.4826 27.5391C19.5436 27.5391 16.9621 29.0697 15.4915 31.3771C14.4206 30.3997 12.9969 29.8027 11.4364 29.8027C9.24033 29.8027 7.31667 30.9853 6.26532 32.7464C6.62207 33.1595 6.83872 33.697 6.83872 34.2846V34.2846Z" fill="#FED402"/>
<path d="M6.88449 34.7347C6.91165 34.5887 6.92659 34.4384 6.92659 34.2846C6.92659 32.9344 5.83209 31.8399 4.48191 31.8399C3.13173 31.8399 2.03723 32.9344 2.03723 34.2846C2.03723 34.4384 2.05208 34.5887 2.07933 34.7347H6.88449Z" fill="#FD4755"/>
<path d="M3.52882 34.7347C3.50158 34.5886 3.48593 34.4386 3.48593 34.2846C3.48593 33.1867 4.2098 32.2578 5.20622 31.9491C4.97735 31.8781 4.73407 31.8399 4.48191 31.8399C3.13173 31.8399 2.03723 32.9344 2.03723 34.2846C2.03723 34.4384 2.05208 34.5887 2.07933 34.7347H3.52882Z" fill="#FB2B3A"/>
<path d="M39.5707 34.7347C39.5978 34.5887 39.6128 34.4384 39.6128 34.2846C39.6128 32.9344 38.5183 31.8399 37.1681 31.8399C35.8179 31.8399 34.7234 32.9344 34.7234 34.2846C34.7234 34.4384 34.7382 34.5887 34.7655 34.7347H39.5707Z" fill="#FD4755"/>
<path d="M36.5773 34.7347C36.55 34.5886 36.5342 34.4386 36.5342 34.2846C36.5342 33.2544 37.1717 32.3738 38.0735 32.0138C37.7933 31.902 37.488 31.8399 37.168 31.8399C35.8178 31.8399 34.7233 32.9344 34.7233 34.2846C34.7233 34.4384 34.7382 34.5887 34.7654 34.7347H36.5773Z" fill="#FB2B3A"/>
<path d="M15.0323 34.7346C14.5642 33.1923 13.1296 32.0663 11.4363 32.0663C9.74304 32.0663 8.30832 33.1923 7.84021 34.7346H15.0323Z" fill="#FAC600"/>
<path d="M28.4031 34.7347C27.8889 31.933 25.4306 29.8027 22.4825 29.8027C19.5345 29.8027 17.0762 31.933 16.562 34.7347H28.4031Z" fill="#FEDF74"/>
<path d="M26.0786 34.7346C25.6105 33.1923 24.1758 32.0663 22.4825 32.0663C20.7893 32.0663 19.3546 33.1923 18.8865 34.7346H26.0786Z" fill="#FAC600"/>
<path d="M3.90668 37.4952L5.91507 40.7121C6.08048 40.977 6.37078 41.138 6.68314 41.138H34.9318C35.2442 41.138 35.5345 40.977 35.6999 40.7121L37.7083 37.4952H3.90668Z" fill="#D8ECFE"/>
<path d="M10.0523 40.7121L8.04395 37.4952H3.90668L5.91507 40.7121C6.08048 40.977 6.37078 41.138 6.68314 41.138H10.8203C10.5081 41.138 10.2178 40.977 10.0523 40.7121V40.7121Z" fill="#C4E2FF"/>
<path d="M40.1468 37.5831H1.46821C0.657334 37.5831 0 36.9258 0 36.1149C0 35.304 0.657334 34.6467 1.46821 34.6467H40.1468C40.9576 34.6467 41.615 35.304 41.615 36.1149C41.6149 36.9258 40.9576 37.5831 40.1468 37.5831Z" fill="#EAF6FF"/>
<path d="M5.06013 36.1149C5.06013 35.304 5.71746 34.6467 6.52834 34.6467H1.46821C0.657334 34.6468 0 35.3041 0 36.1149C0 36.9258 0.657334 37.5831 1.46821 37.5831H6.52834C5.71746 37.5831 5.06013 36.9258 5.06013 36.1149V36.1149Z" fill="#D8ECFE"/>
</g>
<defs>
<clipPath id="clip0_11_228">
<rect width="45" height="45" fill="white"/>
</clipPath>
</defs>
</svg>
