<svg width="45" height="45" viewBox="0 0 45 45" fill="none" xmlns="http://www.w3.org/2000/svg">
<g clip-path="url(#clip0_3_2849)">
<path d="M20.7516 9.12388L8.44593 11.6297C7.4162 11.8394 7.0337 13.1107 7.77673 13.8538L17.5766 23.6537C18.3197 24.3968 19.591 24.0143 19.8007 22.9845L22.3065 10.6788C22.495 9.75309 21.6773 8.93544 20.7516 9.12388V9.12388Z" fill="#FE9901"/>
<path d="M11.1195 12.887C10.6009 12.3684 10.6311 11.5929 11.0463 11.1002L8.44593 11.6297C7.4162 11.8394 7.0337 13.1107 7.77673 13.8538L17.5766 23.6537C18.3197 24.3968 19.591 24.0143 19.8007 22.9845L20.0403 21.8078L11.1195 12.887Z" fill="#FB8801"/>
<path d="M17.7649 20.1982C18.1289 20.1982 18.4241 19.9031 18.4241 19.539C18.4241 19.1749 18.1289 18.8798 17.7649 18.8798C17.4008 18.8798 17.1057 19.1749 17.1057 19.539C17.1057 19.9031 17.4008 20.1982 17.7649 20.1982Z" fill="#FEF0AE"/>
<path d="M14.9683 13.7969C15.3323 13.7969 15.6274 13.5018 15.6274 13.1378C15.6274 12.7737 15.3323 12.4786 14.9683 12.4786C14.6042 12.4786 14.3091 12.7737 14.3091 13.1378C14.3091 13.5018 14.6042 13.7969 14.9683 13.7969Z" fill="#FEF0AE"/>
<path d="M11.4879 14.4184C11.852 14.4184 12.1471 14.1233 12.1471 13.7592C12.1471 13.3952 11.852 13.1 11.4879 13.1C11.1239 13.1 10.8287 13.3952 10.8287 13.7592C10.8287 14.1233 11.1239 14.4184 11.4879 14.4184Z" fill="#FEF0AE"/>
<path d="M17.8892 15.8478C18.2532 15.8478 18.5483 15.5527 18.5483 15.1887C18.5483 14.8246 18.2532 14.5295 17.8892 14.5295C17.5251 14.5295 17.23 14.8246 17.23 15.1887C17.23 15.5527 17.5251 15.8478 17.8892 15.8478Z" fill="#FEF0AE"/>
<path d="M18.8214 12.9269C19.1855 12.9269 19.4806 12.6318 19.4806 12.2677C19.4806 11.9036 19.1855 11.6085 18.8214 11.6085C18.4574 11.6085 18.1622 11.9036 18.1622 12.2677C18.1622 12.6318 18.4574 12.9269 18.8214 12.9269Z" fill="#FEF0AE"/>
<path d="M14.7817 18.0851C15.1458 18.0851 15.4409 17.79 15.4409 17.426C15.4409 17.0619 15.1458 16.7668 14.7817 16.7668C14.4177 16.7668 14.1226 17.0619 14.1226 17.426C14.1226 17.79 14.4177 18.0851 14.7817 18.0851Z" fill="#FEF0AE"/>
<path d="M13.9647 31.7994C13.6497 31.7994 13.3934 31.5431 13.3934 31.2281C13.3934 30.9131 13.6497 30.6568 13.9647 30.6568H16.4453C16.5447 30.3863 16.6803 30.1333 16.8449 29.9024L10.7214 23.3692C10.0754 22.68 8.93542 22.8739 8.55362 23.7381L3.55933 35.0432H15.8052L14.876 31.7994H13.9647Z" fill="#FED402"/>
<path d="M6.44504 35.0432L11.3202 24.008L10.7214 23.3692C10.0754 22.68 8.93542 22.8739 8.55362 23.7381L3.55933 35.0432H6.44504Z" fill="#FAC600"/>
<path d="M8.48206 31.4366C8.84611 31.4366 9.14124 31.1415 9.14124 30.7774C9.14124 30.4133 8.84611 30.1182 8.48206 30.1182C8.118 30.1182 7.82288 30.4133 7.82288 30.7774C7.82288 31.1415 8.118 31.4366 8.48206 31.4366Z" fill="#FEF0AE"/>
<path d="M6.97571 34.635C7.33976 34.635 7.63489 34.3399 7.63489 33.9758C7.63489 33.6118 7.33976 33.3167 6.97571 33.3167C6.61165 33.3167 6.31653 33.6118 6.31653 33.9758C6.31653 34.3399 6.61165 34.635 6.97571 34.635Z" fill="#FEF0AE"/>
<path d="M11.8447 30.2404C12.2088 30.2404 12.5039 29.9453 12.5039 29.5812C12.5039 29.2172 12.2088 28.9221 11.8447 28.9221C11.4807 28.9221 11.1855 29.2172 11.1855 29.5812C11.1855 29.9453 11.4807 30.2404 11.8447 30.2404Z" fill="#FEF0AE"/>
<path d="M10.0013 27.7903C10.3654 27.7903 10.6605 27.4952 10.6605 27.1311C10.6605 26.767 10.3654 26.4719 10.0013 26.4719C9.63729 26.4719 9.34216 26.767 9.34216 27.1311C9.34216 27.4952 9.63729 27.7903 10.0013 27.7903Z" fill="#FEF0AE"/>
<path d="M11.2305 33.298C11.5945 33.298 11.8896 33.0029 11.8896 32.6389C11.8896 32.2748 11.5945 31.9797 11.2305 31.9797C10.8664 31.9797 10.5713 32.2748 10.5713 32.6389C10.5713 33.0029 10.8664 33.298 11.2305 33.298Z" fill="#FEF0AE"/>
<path d="M25.2708 28.5241L25.2968 28.5518H25.9617C27.1251 28.5518 28.1455 29.1743 28.708 30.1036L37.3989 28.3339L32.2719 20.0926C31.7729 19.2904 30.6169 19.2581 30.0738 20.0311L24.5283 27.9232C24.7995 28.0879 25.0501 28.2889 25.2708 28.5241V28.5241Z" fill="#FE9901"/>
<path d="M25.3349 28.4639H25.9617C26.4379 28.4639 26.8908 28.5671 27.3006 28.7509L32.7944 20.9323L32.272 20.0926C31.7729 19.2904 30.617 19.2581 30.0738 20.0311L24.5797 27.8501C24.8581 28.0206 25.1125 28.227 25.3349 28.4639V28.4639Z" fill="#FB8801"/>
<path d="M28.6292 27.5802C28.9932 27.5802 29.2883 27.2851 29.2883 26.921C29.2883 26.557 28.9932 26.2618 28.6292 26.2618C28.2651 26.2618 27.97 26.557 27.97 26.921C27.97 27.2851 28.2651 27.5802 28.6292 27.5802Z" fill="#FEF0AE"/>
<path d="M32.1606 27.0636C32.5247 27.0636 32.8198 26.7685 32.8198 26.4044C32.8198 26.0404 32.5247 25.7452 32.1606 25.7452C31.7966 25.7452 31.5015 26.0404 31.5015 26.4044C31.5015 26.7685 31.7966 27.0636 32.1606 27.0636Z" fill="#FEF0AE"/>
<path d="M30.8312 24.3007C31.1952 24.3007 31.4904 24.0056 31.4904 23.6415C31.4904 23.2775 31.1952 22.9824 30.8312 22.9824C30.4671 22.9824 30.172 23.2775 30.172 23.6415C30.172 24.0056 30.4671 24.3007 30.8312 24.3007Z" fill="#FEF0AE"/>
<path d="M39.9503 27.7248L28.6576 30.0243C28.785 30.2215 28.8922 30.4331 28.9743 30.6568H31.455C31.77 30.6568 32.0263 30.9131 32.0263 31.2281C32.0263 31.5431 31.77 31.7994 31.455 31.7994H30.4976L29.5684 35.0432H40.3316L41.5052 29.2797C41.6937 28.3539 40.876 27.5363 39.9503 27.7248V27.7248Z" fill="#FED402"/>
<path d="M34.1669 32.3978C34.5309 32.3978 34.826 32.1026 34.826 31.7386C34.826 31.3745 34.5309 31.0794 34.1669 31.0794C33.8028 31.0794 33.5077 31.3745 33.5077 31.7386C33.5077 32.1026 33.8028 32.3978 34.1669 32.3978Z" fill="#FEF0AE"/>
<path d="M37.0879 34.4487C37.4519 34.4487 37.7471 34.1535 37.7471 33.7895C37.7471 33.4254 37.4519 33.1303 37.0879 33.1303C36.7238 33.1303 36.4287 33.4254 36.4287 33.7895C36.4287 34.1535 36.7238 34.4487 37.0879 34.4487Z" fill="#FEF0AE"/>
<path d="M38.02 31.5277C38.3841 31.5277 38.6792 31.2326 38.6792 30.8685C38.6792 30.5045 38.3841 30.2094 38.02 30.2094C37.656 30.2094 37.3608 30.5045 37.3608 30.8685C37.3608 31.2326 37.656 31.5277 38.02 31.5277Z" fill="#FEF0AE"/>
<path d="M29.066 30.6568C28.6097 29.3824 27.388 28.4641 25.9617 28.4641H25.3349C24.6763 27.7622 23.7422 27.3215 22.7098 27.3215C21.6772 27.3215 20.7432 27.7622 20.0846 28.4641H19.4578C18.0315 28.4641 16.8098 29.3824 16.3535 30.6568H29.066Z" fill="#FE646F"/>
<path d="M18.8802 30.5689C19.4838 29.7795 20.4342 29.2675 21.4988 29.2675H22.1257C22.7842 28.5656 23.7183 28.1249 24.7508 28.1249C24.8272 28.1249 24.9028 28.1281 24.9781 28.1328C24.3576 27.6269 23.5681 27.3214 22.7098 27.3214C21.6772 27.3214 20.7432 27.762 20.0847 28.4639H19.4578C18.0647 28.4639 16.867 29.3404 16.3868 30.5688H18.8802V30.5689Z" fill="#FD4755"/>
<path d="M14.7845 31.7994L15.7138 35.0432H29.6598L30.5889 31.7994H14.7845Z" fill="#017B4E"/>
<path d="M14.7845 31.7994L15.7138 35.0432H18.2532L17.3241 31.7994H14.7845Z" fill="#026841"/>
<path d="M39.6926 44.9999H5.32662C5.13476 44.9999 4.96513 44.8755 4.90747 44.6925L2.02062 35.5267C1.93141 35.2435 2.14287 34.9553 2.43977 34.9553H42.5794C42.8763 34.9553 43.0878 35.2435 42.9986 35.5267L40.1118 44.6925C40.0541 44.8755 39.8844 44.9999 39.6926 44.9999Z" fill="#FD4755"/>
<path d="M9.33303 44.6925L6.44617 35.5267C6.35696 35.2435 6.56843 34.9553 6.86532 34.9553H2.43977C2.14287 34.9553 1.93141 35.2435 2.02062 35.5267L4.90738 44.6925C4.96504 44.8755 5.13467 44.9999 5.32653 44.9999H9.75209C9.56031 44.9999 9.39069 44.8755 9.33303 44.6925V44.6925Z" fill="#FB2B3A"/>
<path d="M3.83374 41.2834L4.90741 44.6925C4.96507 44.8755 5.1347 44.9999 5.32656 44.9999H39.6926C39.8844 44.9999 40.0541 44.8755 40.1117 44.6925L41.1854 41.2834H3.83374Z" fill="#FB2B3A"/>
<path d="M9.33306 44.6925L8.25939 41.2834H3.83374L4.90741 44.6925C4.96507 44.8755 5.1347 44.9999 5.32656 44.9999H9.75212C9.56034 44.9999 9.39072 44.8755 9.33306 44.6925V44.6925Z" fill="#E41F2D"/>
<path d="M24.3065 1.58216L26.8123 13.8879C27.022 14.9176 28.2933 15.3001 29.0364 14.5571L38.8363 4.75712C39.5794 4.014 39.1969 2.74275 38.1671 2.53305L25.8613 0.0271975C24.9357 -0.16124 24.1179 0.656406 24.3065 1.58216V1.58216Z" fill="#FED402"/>
<path d="M29.7009 13.8878L27.1951 1.58218C27.0995 1.11276 27.2629 0.671457 27.5676 0.374738L25.8613 0.0272186C24.9357 -0.161307 24.1179 0.656428 24.3065 1.58209L26.8123 13.8878C27.022 14.9176 28.2933 15.3001 29.0364 14.557L29.7019 13.8915C29.7015 13.8903 29.7012 13.8892 29.7009 13.8878Z" fill="#FAC600"/>
<path d="M34.7216 5.22809C35.0856 5.22809 35.3807 4.93296 35.3807 4.56891C35.3807 4.20485 35.0856 3.90973 34.7216 3.90973C34.3575 3.90973 34.0624 4.20485 34.0624 4.56891C34.0624 4.93296 34.3575 5.22809 34.7216 5.22809Z" fill="#FEF0AE"/>
<path d="M28.3203 8.02472C28.6844 8.02472 28.9795 7.72959 28.9795 7.36554C28.9795 7.00148 28.6844 6.70636 28.3203 6.70636C27.9563 6.70636 27.6611 7.00148 27.6611 7.36554C27.6611 7.72959 27.9563 8.02472 28.3203 8.02472Z" fill="#FEF0AE"/>
<path d="M28.9418 11.505C29.3058 11.505 29.601 11.2099 29.601 10.8458C29.601 10.4818 29.3058 10.1866 28.9418 10.1866C28.5777 10.1866 28.2826 10.4818 28.2826 10.8458C28.2826 11.2099 28.5777 11.505 28.9418 11.505Z" fill="#FEF0AE"/>
<path d="M30.3712 5.10376C30.7353 5.10376 31.0304 4.80863 31.0304 4.44458C31.0304 4.08053 30.7353 3.7854 30.3712 3.7854C30.0072 3.7854 29.712 4.08053 29.712 4.44458C29.712 4.80863 30.0072 5.10376 30.3712 5.10376Z" fill="#FEF0AE"/>
<path d="M26.8273 3.54858C27.1913 3.54858 27.4865 3.25346 27.4865 2.8894C27.4865 2.52535 27.1913 2.23022 26.8273 2.23022C26.4632 2.23022 26.1681 2.52535 26.1681 2.8894C26.1681 3.25346 26.4632 3.54858 26.8273 3.54858Z" fill="#FEF0AE"/>
<path d="M32.6085 8.21118C32.9726 8.21118 33.2677 7.91606 33.2677 7.552C33.2677 7.18795 32.9726 6.89282 32.6085 6.89282C32.2445 6.89282 31.9493 7.18795 31.9493 7.552C31.9493 7.91606 32.2445 8.21118 32.6085 8.21118Z" fill="#FEF0AE"/>
<path d="M31.4549 31.8873H13.9647C13.6007 31.8873 13.3055 31.5922 13.3055 31.2281C13.3055 30.864 13.6007 30.5689 13.9647 30.5689H31.4549C31.819 30.5689 32.1141 30.864 32.1141 31.2281C32.1141 31.5922 31.819 31.8873 31.4549 31.8873Z" fill="#026841"/>
<path d="M22.5 -4C22.1249 -4 21.8209 -3.69605 21.8209 -3.32093V2.88129H23.1791V-3.32093C23.1791 -3.69605 22.8751 -4 22.5 -4Z" fill="#FFCFBF"/>
<path d="M31.4186 24.7022H28.7023V30.1348L34.1349 27.4185C34.1349 25.9183 32.9188 24.7022 31.4186 24.7022Z" fill="#FFD966"/>
<path d="M28.7023 24.7022H13.5815C12.0813 24.7022 10.8652 25.9183 10.8652 27.4185V30.1348H31.4186V27.4185C31.4186 25.9183 30.2025 24.7022 28.7023 24.7022Z" fill="#FFE8A3"/>
<path d="M34.1348 27.4185H31.4185V35.5674H39.5673V32.8511C39.5673 29.8505 37.1353 27.4185 34.1348 27.4185Z" fill="#FFE8A3"/>
<path d="M10.8652 27.4185C7.86488 27.4185 5.43262 29.8508 5.43262 32.8511V35.5674H36.8511V32.8511C36.8511 29.8508 34.4189 27.4185 31.4185 27.4185H10.8652Z" fill="#FFF6D9"/>
<path d="M39.5674 21.3068V24.0231C39.5674 24.3981 39.2633 24.7022 38.8883 24.7022H36.8511L34.1348 22.665L36.8511 20.6277H38.8883C39.2633 20.6277 39.5674 20.9318 39.5674 21.3068Z" fill="#F23D5F"/>
<path d="M45 33.5301V40.3209C45 40.6959 44.6959 41 44.3209 41H42.2837L39.5674 36.9255L42.2837 32.8511H44.3209C44.6959 32.8511 45 33.1551 45 33.5301Z" fill="#EB8C67"/>
<path d="M34.1348 32.8511L31.4185 36.9255L34.1348 41H42.2836V32.8511H34.1348Z" fill="#FCA660"/>
<path d="M9.50704 32.8511H0.679074C0.304044 32.8511 0 33.1551 0 33.5301V40.3209C0 40.6959 0.304044 41 0.679074 41H17.6559L9.50704 32.8511Z" fill="#FCA660"/>
<path d="M17.7465 32.8511H9.50708C9.50708 37.352 13.1551 41 17.656 41H25.8954L17.7465 32.8511Z" fill="#FFD966"/>
<path d="M34.1349 32.8511C34.1349 34.3206 34.6111 35.7503 35.493 36.9255C34.6111 38.1008 34.1349 39.5304 34.1349 41H31.4186L28.7023 36.9255L31.4186 32.8511H34.1349Z" fill="#FFD966"/>
<path d="M31.4185 32.8511V41H25.8954C21.3944 41 17.7465 37.352 17.7465 32.8511H31.4185Z" fill="#FFBF61"/>
<path d="M5.43262 21.3068V24.0231C5.43262 24.3981 5.73666 24.7022 6.11169 24.7022H36.8511V20.6277H6.11169C5.73666 20.6277 5.43262 20.9318 5.43262 21.3068Z" fill="#FF5474"/>
<path d="M22.5 20.5372C27.7506 20.5372 32.007 16.2808 32.007 11.0302C32.007 5.77958 27.7506 1.52313 22.5 1.52313C17.2494 1.52313 12.9929 5.77958 12.9929 11.0302C12.9929 16.2808 17.2494 20.5372 22.5 20.5372Z" fill="#A1BB4C"/>
<path d="M22.5 17.8209C26.2504 17.8209 29.2907 14.7806 29.2907 11.0302C29.2907 7.27976 26.2504 4.23944 22.5 4.23944C18.7495 4.23944 15.7092 7.27976 15.7092 11.0302C15.7092 14.7806 18.7495 17.8209 22.5 17.8209Z" fill="#FFF6D9"/>
<path d="M25.5558 9.26638C25.5549 8.56286 25.19 7.87835 24.5372 7.50169C23.8844 7.12412 23.1094 7.15038 22.5 7.50169V14.5586C23.1094 14.9099 23.8844 14.9362 24.5372 14.5586C25.19 14.182 25.5549 13.4975 25.5558 12.7939C26.1643 12.4417 26.5744 11.7844 26.5744 11.0302C26.5744 10.2759 26.1643 9.61859 25.5558 9.26638V9.26638Z" fill="#B8D065"/>
<path d="M22.5 14.5587V7.50171C23.2497 7.50171 23.8581 9.08169 23.8581 11.0302C23.8581 12.9787 23.2497 14.5587 22.5 14.5587Z" fill="#CEE57D"/>
<path d="M22.5 7.50169V14.5586C21.8906 14.9099 21.1156 14.9362 20.4628 14.5586C19.8099 14.182 19.4451 13.4975 19.4441 12.7939C18.8357 12.4417 18.4255 11.7844 18.4255 11.0302C18.4255 10.2759 18.8357 9.61859 19.4441 9.26638C19.4451 8.56286 19.8099 7.87835 20.4628 7.50169C21.1156 7.12412 21.8906 7.15038 22.5 7.50169V7.50169Z" fill="#CEE57D"/>
</g>
<defs>
<clipPath id="clip0_3_2849">
<rect width="45" height="45" fill="white"/>
</clipPath>
</defs>
</svg>
