<svg width="45" height="45" viewBox="0 0 45 45" fill="none" xmlns="http://www.w3.org/2000/svg">
<g clip-path="url(#clip0_11_388)">
<path d="M42.6482 7.46577H12.2358V5.17786H42.6482C42.9342 5.17786 43.1661 5.40968 43.1661 5.69572V6.9479C43.1661 7.23394 42.9342 7.46577 42.6482 7.46577Z" fill="#F9BB32"/>
<path d="M42.6256 6.21764H12.2358V7.46578H42.6256C42.9241 7.46578 43.1661 7.23314 43.1661 6.94589V5.69775C43.1661 5.98501 42.9241 6.21764 42.6256 6.21764Z" fill="#FFA730"/>
<path d="M18.6698 4.50381C18.6698 2.01644 16.3491 0 13.4859 0C10.6231 0 8.302 2.01644 8.302 4.50381C8.302 6.99077 10.6231 9.00721 13.4859 9.00721C16.3491 9.00721 18.6698 6.99077 18.6698 4.50381Z" fill="#BF6C0D"/>
<path d="M11.8785 4.50381C11.8785 2.56222 13.2925 0.907882 15.2742 0.275116C14.7167 0.0970997 14.1146 0 13.4859 0C10.6231 0 8.302 2.01644 8.302 4.50381C8.302 6.99118 10.6231 9.00721 13.4859 9.00721C14.1142 9.00721 14.7167 8.91011 15.2742 8.73209C13.2925 8.09933 11.8785 6.44499 11.8785 4.50381Z" fill="#A56021"/>
<path d="M42.6482 3.61817H6.90782C6.62178 3.61817 6.38995 3.38635 6.38995 3.10031V1.84813C6.38995 1.56249 6.62178 1.33026 6.90782 1.33026H42.6482C42.9342 1.33026 43.1661 1.56249 43.1661 1.84813V3.10031C43.1661 3.38635 42.9342 3.61817 42.6482 3.61817Z" fill="#F9BB32"/>
<path d="M8.01111 2.37044C7.71253 2.37044 7.47059 2.1374 7.47059 1.85015V1.33026H6.93048C6.63189 1.33026 6.38995 1.5633 6.38995 1.85015V3.09829C6.38995 3.38554 6.63189 3.61817 6.93048 3.61817H42.6255C42.9237 3.61817 43.1657 3.38554 43.1657 3.09829V2.37044H8.01111Z" fill="#FFA730"/>
<path d="M23.9148 15.8738C23.7789 15.7641 23.7789 15.5861 23.9148 15.4769C24.3437 15.1313 24.6103 14.6495 24.6103 14.1158C24.6103 13.1428 23.7243 12.3409 22.5817 12.2285C22.4466 12.2151 22.3349 12.1374 22.2973 12.0298C22.0202 11.236 21.1341 10.6555 20.083 10.6555C19.0319 10.6555 18.1459 11.236 17.8687 12.0298C17.8311 12.1374 17.7199 12.2151 17.5843 12.2285C16.4422 12.3413 15.5562 13.1428 15.5562 14.1158C15.5562 14.6495 15.8228 15.1313 16.2516 15.4769C16.3876 15.5861 16.3876 15.7641 16.2516 15.8738C15.8228 16.2189 15.5562 16.7007 15.5562 17.2344C15.5562 18.2847 16.5882 19.1363 17.8611 19.1363V19.9681H22.305V19.1363C23.5782 19.1363 24.6099 18.2847 24.6099 17.2344C24.6103 16.7007 24.3437 16.2189 23.9148 15.8738Z" fill="#CCC033"/>
<path d="M20.3719 14.1701C20.3683 14.0819 20.2506 14.0119 20.1065 14.0119C19.9633 14.0119 19.846 14.0815 19.8415 14.1693L19.5636 19.5785C19.5628 19.5927 19.5652 19.6065 19.57 19.6198C19.5963 19.7881 19.8181 19.9196 20.0879 19.9196H20.0936H20.1C20.3667 19.9196 20.5851 19.7877 20.6086 19.6198C20.6131 19.6065 20.6159 19.5931 20.6151 19.5789L20.3719 14.1701Z" fill="#FCE575"/>
<path d="M17.2174 17.2344C17.2174 16.7007 17.484 16.2189 17.9129 15.8738C18.0488 15.7641 18.0488 15.5861 17.9129 15.4769C17.484 15.1313 17.2174 14.6495 17.2174 14.1158C17.2174 13.1428 18.1034 12.3409 19.246 12.2285C19.3811 12.2151 19.4924 12.1374 19.53 12.0298C19.7302 11.4569 20.2469 10.9953 20.9141 10.7825C20.6563 10.7004 20.3764 10.6555 20.0834 10.6555C19.0323 10.6555 18.1463 11.236 17.8692 12.0298C17.8315 12.1374 17.7199 12.2151 17.5847 12.2285C16.4422 12.3413 15.5566 13.1432 15.5566 14.1158C15.5566 14.6495 15.8228 15.1313 16.2517 15.4769C16.3876 15.5861 16.3876 15.7641 16.2517 15.8738C15.8228 16.2189 15.5566 16.7007 15.5566 17.2344C15.5566 18.2847 16.5883 19.1363 17.8611 19.1363V19.9681H19.5223V19.1363C18.2495 19.1363 17.2174 18.2847 17.2174 17.2344Z" fill="#99AF17"/>
<path d="M19.9435 19.6198C19.9386 19.6064 19.9366 19.5927 19.937 19.5785L20.2149 14.1693C20.2174 14.126 20.2469 14.0871 20.2934 14.0588C20.2453 14.0297 20.1793 14.0115 20.1065 14.0115C19.9633 14.0115 19.846 14.0815 19.8415 14.1693L19.5636 19.5785C19.5628 19.5927 19.5652 19.6064 19.57 19.6198C19.5963 19.7881 19.8181 19.9196 20.0879 19.9196C20.0899 19.9196 20.0915 19.9192 20.0936 19.9192C20.0956 19.9192 20.098 19.9196 20.1 19.9196C20.1632 19.9196 20.2238 19.9119 20.2797 19.8981C20.0976 19.8549 19.9637 19.748 19.9435 19.6198Z" fill="#FCDA4F"/>
<path d="M32.5154 15.7188C32.5154 18.2058 30.499 20.2222 28.0116 20.2222C25.5243 20.2222 23.5078 18.2058 23.5078 15.7188C23.5078 13.2315 25.5243 11.215 28.0116 11.215C30.499 11.215 32.5154 13.2315 32.5154 15.7188Z" fill="#DB9C2E"/>
<path d="M26.615 15.7188C26.615 13.7772 27.8433 12.1229 29.5652 11.4901C29.0809 11.3121 28.5578 11.215 28.0116 11.215C25.5242 11.215 23.5078 13.2315 23.5078 15.7188C23.5078 18.2062 25.5242 20.2222 28.0116 20.2222C28.5578 20.2222 29.0809 20.1251 29.5652 19.9471C27.8433 19.3144 26.615 17.66 26.615 15.7188V15.7188Z" fill="#BF6C0D"/>
<path d="M24.703 21.3955H18.3158C17.6321 21.3955 17.0729 20.8364 17.0729 20.1526V15.0755C17.0729 14.3922 17.6321 13.8326 18.3158 13.8326H24.703C25.3863 13.8326 25.9458 14.3922 25.9458 15.0755V20.1526C25.9458 20.8364 25.3863 21.3955 24.703 21.3955Z" fill="#FFD551"/>
<path d="M19.7982 20.1526V15.0755C19.7982 14.3918 20.289 13.8326 20.8885 13.8326H18.1629C17.5633 13.8326 17.0729 14.3918 17.0729 15.0755V20.1526C17.0729 20.8364 17.5633 21.3955 18.1629 21.3955H20.8885C20.289 21.3955 19.7982 20.8364 19.7982 20.1526Z" fill="#EACF32"/>
<path d="M29.5365 45.0001H11.4137C10.4499 45.0001 9.6513 44.2779 9.58778 43.349L7.7085 15.8896H33.2413L31.362 43.349C31.2985 44.2779 30.4998 45.0001 29.5365 45.0001V45.0001Z" fill="#FF624B"/>
<path d="M26.2804 24.1394H14.6697C14.0009 24.1394 13.373 23.8166 12.9842 23.2724L7.70886 15.8896H33.2412L27.9655 23.2724C27.5767 23.8166 26.9492 24.1394 26.2804 24.1394V24.1394Z" fill="#FFF4C1"/>
<path d="M7.70847 15.8896L2.16125 22.4341C1.59079 23.1069 2.069 24.1394 2.9514 24.1394H8.27327L7.70847 15.8896Z" fill="#FFD59A"/>
<path d="M33.2413 15.8896L38.7885 22.4341C39.359 23.1069 38.8807 24.1394 37.9988 24.1394H32.6769L33.2413 15.8896Z" fill="#FFD59A"/>
<path d="M27.1381 34.8155C27.1381 38.3617 24.2631 41.237 20.7166 41.237C17.17 41.237 14.295 38.3617 14.295 34.8155C14.295 31.2689 17.17 28.394 20.7166 28.394C24.2631 28.394 27.1381 31.2689 27.1381 34.8155Z" fill="#FFF4C1"/>
<path d="M13.7307 43.349L11.8514 15.8896H7.7085L9.58778 43.349C9.6513 44.2779 10.4499 45.0001 11.4137 45.0001H15.5566C14.5929 45.0001 13.7942 44.2779 13.7307 43.349V43.349Z" fill="#FF4B34"/>
<path d="M17.1271 23.2724L11.8518 15.8896H7.70886L12.9842 23.2724C13.3734 23.8166 14.0009 24.1394 14.6697 24.1394H18.8126C18.1438 24.1394 17.5159 23.8166 17.1271 23.2724Z" fill="#FFD59A"/>
<path d="M16.3443 26.6332C16.3443 27.3833 15.7358 27.9918 14.9853 27.9918C14.2352 27.9918 13.6267 27.3833 13.6267 26.6332C13.6267 25.8827 14.2352 25.2742 14.9853 25.2742C15.7358 25.2742 16.3443 25.8827 16.3443 26.6332Z" fill="#FF4B34"/>
<path d="M29.6935 41.8168C29.6805 41.8168 29.6676 41.8164 29.6546 41.8156C29.3119 41.7945 29.0514 41.4996 29.0728 41.1573L29.7631 29.9318C29.7841 29.5895 30.0807 29.3294 30.4213 29.3496C30.764 29.3711 31.0246 29.6656 31.0035 30.0083L30.3129 41.2334C30.2927 41.5631 30.0192 41.8168 29.6935 41.8168V41.8168Z" fill="#FF9079"/>
<path d="M30.4464 28.6125C30.4363 28.6125 30.4258 28.6125 30.4152 28.6116C30.0726 28.5951 29.8084 28.3034 29.8254 27.9607L29.9075 26.2926C29.9241 25.9499 30.2166 25.6869 30.5585 25.7027C30.9015 25.7193 31.1657 26.011 31.1487 26.3537L31.0666 28.0218C31.0504 28.3539 30.7757 28.6125 30.4464 28.6125V28.6125Z" fill="#FF9079"/>
</g>
<defs>
<clipPath id="clip0_11_388">
<rect width="45" height="45" fill="white"/>
</clipPath>
</defs>
</svg>
