<svg width="45" height="45" viewBox="0 0 45 45" fill="none" xmlns="http://www.w3.org/2000/svg">
<g clip-path="url(#clip0_3_2808)">
<path d="M30.5881 34.645C30.639 33.4038 29.8455 32.1519 28.2048 31.2046C25.0351 29.3745 19.9129 29.375 16.7639 31.2051C15.1948 32.117 14.412 33.3114 14.4137 34.5068C14.4137 34.503 14.4133 34.4992 14.4133 34.4954L14.4075 36.5244C14.404 37.7313 15.2005 38.9399 16.7955 39.8609C19.9652 41.6909 25.0873 41.6905 28.2356 39.8608C29.8002 38.9514 30.5836 37.7615 30.5869 36.57L30.5927 34.5409C30.5925 34.5755 30.5895 34.6102 30.5881 34.645Z" fill="#C6C5CB"/>
<path d="M30.5926 34.5408L30.5868 36.5698C30.5834 37.7615 29.8001 38.9515 28.2355 39.8606C25.0871 41.6902 19.9651 41.6907 16.7954 39.8607C15.2004 38.9399 14.404 37.7312 14.4074 36.5243L14.4132 34.4952C14.4098 35.7021 15.2062 36.9107 16.8012 37.8316C19.9709 39.6617 25.0929 39.6613 28.2413 37.8316C29.8059 36.9223 30.5892 35.7324 30.5926 34.5408Z" fill="#C6C5CB"/>
<path d="M28.2047 31.2046C31.3744 33.0346 31.3903 36.0016 28.2412 37.8316C25.0929 39.6612 19.9708 39.6617 16.8011 37.8317C13.6314 36.0017 13.6154 33.0347 16.7638 31.2051C19.9129 29.375 25.035 29.3745 28.2047 31.2046Z" fill="#E0E0E2"/>
<path d="M44.998 16.9432C45.0426 13.636 42.9284 10.3133 38.6341 7.74615C29.9728 2.56851 15.728 2.42463 6.8175 7.42465C2.2594 9.98235 -0.0187239 13.3907 0.00140311 16.803C0.000963654 16.7812 0.00043631 16.758 -3.14276e-06 16.7368C-9.10334e-05 16.762 0.00113944 16.7871 0.00131522 16.8122C0.00166678 16.8626 0.00263358 16.9128 0.00395194 16.9632C0.00509452 17.0046 0.00606131 17.046 0.00781913 17.0874C0.00729178 17.0657 0.00658866 17.0439 0.0061492 17.0225C0.00737967 17.0558 0.00825858 17.0892 0.00984061 17.1225C0.00931327 17.1108 0.00834647 17.0992 0.00781913 17.0874C0.0214422 17.6082 0.0461394 18.2066 0.0769012 18.6782C0.099577 19.0262 0.154596 19.4885 0.201882 19.8341C0.249343 20.1808 0.3157 20.6432 0.386716 20.9858C0.511257 21.5864 0.694597 22.3839 0.853591 22.9762C0.945612 23.3189 1.09098 23.7694 1.20568 24.1051C1.32187 24.4453 1.48175 24.8977 1.62272 25.2283C1.86442 25.7952 2.20465 26.5438 2.47614 27.097C2.64058 27.4322 2.88905 27.864 3.07529 28.1875C3.26742 28.5213 3.53698 28.9594 3.75636 29.2759C4.11372 29.7914 4.61136 30.4641 4.99623 30.9593C5.25164 31.2878 5.62377 31.7004 5.90326 32.0087C6.11613 32.2436 6.41153 32.5462 6.63671 32.7692C6.96182 33.0912 7.41357 33.502 7.75696 33.8045C7.99884 34.0176 8.33045 34.2918 8.587 34.4872C9.00967 34.8093 9.58254 35.2271 10.0229 35.5244C10.383 35.7675 10.8788 36.0681 11.2536 36.2878C11.7342 36.5694 12.3986 36.9031 12.8979 37.15C13.1883 37.2935 13.5863 37.4624 13.8847 37.5885C14.2862 37.7582 14.832 37.9594 15.2438 38.1026C15.5867 38.2218 16.0485 38.3687 16.3991 38.4628C17.0021 38.6248 17.8147 38.8074 18.4261 38.9342C18.7404 38.9994 19.1647 39.0587 19.4827 39.1026C19.7836 39.1442 20.1858 39.1951 20.4888 39.2156C21.0878 39.256 21.8877 39.3024 22.488 39.3055C22.7893 39.307 23.1913 39.297 23.4923 39.2837C23.7933 39.2704 24.1938 39.2375 24.4945 39.2173C24.812 39.1958 25.2324 39.1358 25.5484 39.0987C26.0982 39.0341 27.2493 38.8161 27.7284 38.6902C28.1418 38.5815 28.6965 38.4471 29.103 38.3145C29.7222 38.1125 30.5386 37.8142 31.1447 37.5757C31.5787 37.4049 32.1388 37.1322 32.5579 36.9273C32.8616 36.7788 33.2576 36.563 33.5528 36.3981C34.0274 36.1328 34.9854 35.5664 36.0686 34.7527C36.436 34.4766 36.9123 34.09 37.2606 33.7901C37.5832 33.5124 38.0056 33.1323 38.3036 32.8286C38.7505 32.3731 39.329 31.7486 39.7489 31.2679C40.0058 30.9737 40.3233 30.5603 40.5575 30.2478C40.7844 29.945 41.0799 29.5354 41.283 29.216C41.6167 28.6911 42.0466 27.9812 42.3455 27.4357C42.5193 27.1186 42.7323 26.6855 42.8855 26.358C43.0369 26.0349 43.233 25.6008 43.3606 25.2675C43.5805 24.6937 43.8517 23.92 44.0406 23.3352C44.1481 23.0025 44.2644 22.5504 44.3477 22.2109C44.6441 21.0033 44.7638 20.0766 44.7648 20.0678C44.8069 19.7227 44.8762 19.264 44.9017 18.9173C44.9242 18.61 44.9591 18.2005 44.9738 17.8928C44.9886 17.5838 44.9999 17.1714 44.9999 16.8621C44.9999 16.8893 44.9984 16.9162 44.998 16.9432Z" fill="#E0E0E2"/>
<path d="M12.337 33.7994C11.6685 33.3878 10.8085 32.7877 10.1834 32.3126C9.7476 31.9814 9.19046 31.5053 8.80603 31.1156C8.2111 30.5122 7.43001 29.6916 6.90636 29.0256C6.38297 28.3598 5.74163 27.4246 5.32468 26.6875C4.95422 26.0328 4.49271 25.1382 4.21242 24.4402C3.87035 23.5882 3.49066 22.4207 3.25512 21.5333C3.06782 20.828 2.90856 19.8645 2.82226 19.1399C2.73718 18.4251 2.69771 17.464 2.68506 16.7443C2.6935 13.7586 4.70083 10.7813 8.68896 8.54348C16.5363 4.14016 29.0811 4.26689 36.7087 8.82657C40.4598 11.069 42.3231 13.9658 42.315 16.8549C42.2947 17.3309 42.305 17.9686 42.2475 18.4415C42.1341 19.3727 41.9885 20.6219 41.7458 21.5281C41.561 22.2179 41.3066 23.1389 41.041 23.8016C40.8721 24.2231 40.6465 24.7854 40.4525 25.1959C40.2394 25.6468 39.9377 26.2407 39.6849 26.6707C39.2419 27.4239 38.5868 28.3918 38.0499 29.0813C37.5716 29.6954 36.863 30.4583 36.3092 31.0053C35.8535 31.4554 35.2121 32.024 34.6984 32.4066C34.3859 32.6394 33.9729 32.9555 33.6484 33.1712C33.2204 33.4557 32.6389 33.8198 32.1914 34.0727C31.576 34.4205 30.7256 34.833 30.0724 35.1028C29.7174 35.2494 29.2378 35.4295 28.8748 35.5547C28.5544 35.6653 28.1236 35.8043 27.7952 35.8884C27.5114 35.9611 27.1354 36.0686 26.8483 36.1262C26.5678 36.1824 26.1949 36.2638 25.9132 36.313C25.6323 36.3621 25.2559 36.4169 24.9731 36.4539C24.7017 36.4895 24.3387 36.531 24.0653 36.5467C23.8003 36.5619 23.4472 36.5875 23.1819 36.5966C22.9175 36.6056 22.5646 36.6109 22.3001 36.6072C21.7694 36.5999 21.0627 36.5518 20.5335 36.5107C20.2617 36.4896 19.901 36.4408 19.6314 36.4001C19.3541 36.3581 18.9852 36.2971 18.7099 36.2432C18.4266 36.1878 18.0521 36.0987 17.7704 36.0363C17.4817 35.9723 17.104 35.8572 16.8193 35.777C16.3183 35.6359 15.3363 35.2881 14.673 34.9954C14.3528 34.8542 13.9275 34.6617 13.6161 34.5022C13.2263 34.3026 12.7099 34.029 12.337 33.7994Z" fill="#C6C5CB"/>
<path d="M9.22395 12.4536C1.68065 16.6864 1.50943 23.6709 8.84162 28.0541C16.1738 32.4372 28.2327 32.5591 35.7761 28.3263C43.3193 24.0934 43.4906 17.1089 36.1584 12.7258C28.8262 8.34265 16.7672 8.22074 9.22395 12.4536Z" fill="#FFB657"/>
<path d="M27.097 18.201C26.7528 18.0023 23.1173 18.2913 21.4743 19.2461C19.8313 20.201 20.3625 21.1183 21.2226 21.6148C22.0829 22.1114 23.6682 22.4162 25.3112 21.4613C26.9543 20.5065 27.3915 18.371 27.097 18.201Z" fill="#8FCC05"/>
<path d="M24.9396 18.6987L24.7596 19.5519L24.977 19.4255L24.9396 18.6987Z" fill="#9CDD03"/>
<path d="M23.6045 19.1536L23.7017 20.1666L23.9191 20.0402L23.6045 19.1536Z" fill="#9CDD03"/>
<path d="M22.1778 19.5554L22.6438 20.7814L22.8611 20.6551L22.1778 19.5554Z" fill="#9CDD03"/>
<path d="M26.2317 19.4447L24.977 19.4255L24.7596 19.5519L26.2317 19.4447Z" fill="#9CDD03"/>
<path d="M25.4508 20.2195L23.9191 20.0402L23.7017 20.1666L25.4508 20.2195Z" fill="#9CDD03"/>
<path d="M24.7618 21.0473L22.8611 20.6551L22.6438 20.7814L24.7618 21.0473Z" fill="#9CDD03"/>
<path d="M19.4781 22.0971C19.4775 22.0975 19.4767 22.0977 19.476 22.0982C19.4759 22.0983 19.4756 22.0983 19.4756 22.0983C19.4757 22.0983 19.4759 22.0983 19.4759 22.0982C19.437 22.1206 19.4128 22.1684 19.4127 22.2367C19.4123 22.3735 19.5085 22.5401 19.6276 22.6088C19.6912 22.6456 19.7483 22.6465 19.788 22.6189C19.7857 22.6206 19.7834 22.6224 19.781 22.6238C19.781 22.6238 26.0787 18.9187 26.0411 18.8912C25.9819 18.8571 19.6149 22.029 19.4781 22.0971Z" fill="#9CDD03"/>
<path d="M10.5666 13.7963C18.1099 9.56348 30.1689 9.68538 37.5011 14.0685C38.292 14.5413 38.9952 15.0445 39.6116 15.5712C38.7492 14.5494 37.5994 13.5873 36.1584 12.7259C28.8262 8.34277 16.7672 8.22086 9.22394 12.4537C2.49433 16.2298 1.63274 22.1961 6.7311 26.5515C3.20555 22.3743 4.5058 17.1972 10.5666 13.7963Z" fill="#FFA834"/>
<path d="M8.95508 16.7865C7.66714 17.5092 7.63796 18.7017 8.88978 19.4501C10.1416 20.1985 12.2005 20.2193 13.4885 19.4966C14.7764 18.774 14.8056 17.5814 13.5538 16.833C12.3019 16.0847 10.2429 16.0639 8.95508 16.7865Z" fill="#FEC377"/>
<path d="M16.8187 17.1456C16.0501 17.5769 16.0327 18.2886 16.7797 18.7352C17.5268 19.1818 18.7555 19.1942 19.5242 18.763C20.2928 18.3317 20.3102 17.62 19.5631 17.1734C18.8161 16.7267 17.5873 16.7143 16.8187 17.1456Z" fill="#FEC377"/>
<path d="M19.4296 22.0979C19.4295 22.098 19.4292 22.0981 19.4292 22.0981C19.4293 22.0981 19.4294 22.098 19.4296 22.0979C19.3883 22.1217 19.3626 22.1726 19.3624 22.245C19.362 22.3902 19.4641 22.5671 19.5906 22.64C19.6581 22.6791 19.7188 22.6802 19.7608 22.6508C19.7583 22.6525 19.756 22.6544 19.7533 22.6559C19.7533 22.6559 20.3095 22.3287 21.0995 21.8627C21.0014 21.8218 20.9072 21.7763 20.8201 21.7242C20.7213 21.6651 20.6352 21.6017 20.5616 21.535C19.9128 21.8573 19.4679 22.0788 19.4318 22.0969C19.4311 22.0971 19.4302 22.0975 19.4296 22.0979Z" fill="#FFA834"/>
<path d="M13.4748 22.3724C12.907 22.691 12.8942 23.2167 13.446 23.5465C13.9979 23.8764 14.9055 23.8856 15.4731 23.567C16.0409 23.2484 16.0537 22.7227 15.5019 22.3929C14.95 22.063 14.0424 22.0538 13.4748 22.3724Z" fill="#FEC377"/>
<path d="M33.5527 36.3983C33.2575 36.5633 32.8615 36.7791 32.5578 36.9276C32.1387 37.1325 31.5787 37.4052 31.1446 37.576C30.5386 37.8145 29.7221 38.1129 29.103 38.3148C28.6965 38.4474 28.1418 38.5818 27.7283 38.6904C27.2493 38.8164 26.0982 39.0344 25.5484 39.099C25.2323 39.136 24.8119 39.1962 24.4945 39.2176C24.1938 39.2379 23.7933 39.2708 23.4923 39.284C23.1913 39.2971 22.7893 39.3072 22.488 39.3058C21.8877 39.3029 21.0878 39.2563 20.4888 39.2159C20.1857 39.1954 19.7836 39.1445 19.4827 39.1029C19.1648 39.0589 18.7404 38.9997 18.4261 38.9345C17.8148 38.8077 17.0021 38.6251 16.3991 38.4631C16.0485 38.3688 15.5867 38.2221 15.2437 38.1029C14.8321 37.9597 14.2863 37.7584 13.8847 37.5887C13.5863 37.4626 13.1882 37.2938 12.8979 37.1502C12.3986 36.9034 11.7342 36.5697 11.2536 36.288C10.8787 36.0684 10.3829 35.7679 10.0228 35.5247C9.58236 35.2274 9.00958 34.8095 8.58691 34.4875C8.33053 34.292 7.99884 34.0178 7.75687 33.8048C7.41348 33.5023 6.96182 33.0915 6.63662 32.7695C6.41144 32.5464 6.11604 32.2438 5.90317 32.009C5.62368 31.7007 5.25155 31.288 4.99614 30.9596C4.61127 30.4644 4.11346 29.7917 3.75627 29.2762C3.53689 28.9596 3.26733 28.5216 3.0752 28.1878C2.88896 27.8642 2.6405 27.4324 2.47605 27.0973C2.20447 26.544 1.86434 25.7955 1.62264 25.2286C1.48166 24.8979 1.32179 24.4456 1.2056 24.1054C1.09099 23.7697 0.945527 23.3191 0.853506 22.9765C0.694424 22.3841 0.51126 21.5866 0.386631 20.9861C0.315527 20.6434 0.249258 20.181 0.201797 19.8344C0.154512 19.4888 0.0994923 19.0265 0.0768165 18.6784C0.0391114 18.0969 0.0100196 17.3199 1.14353e-07 16.7371C-0.00931629 20.0176 2.10647 23.307 6.36583 25.8533C15.0271 31.031 29.2718 31.1748 38.1824 26.1748C42.7111 23.6336 44.9902 20.2529 44.9999 16.8626C44.9999 17.1719 44.9886 17.5844 44.9738 17.8933C44.9591 18.201 44.9242 18.6106 44.9016 18.9179C44.8762 19.2644 44.8069 19.7233 44.7648 20.0684C44.7636 20.0771 44.644 21.0039 44.3477 22.2115C44.2643 22.551 44.148 23.003 44.0406 23.3358C43.8518 23.9206 43.5805 24.6942 43.3606 25.268C43.2329 25.6012 43.0368 26.0354 42.8855 26.3586C42.7321 26.6861 42.5193 27.1191 42.3455 27.4362C42.0467 27.9817 41.6168 28.6917 41.283 29.2165C41.08 29.5358 40.7844 29.9455 40.5575 30.2484C40.3232 30.5609 40.0057 30.9743 39.7489 31.2684C39.3291 31.7491 38.7505 32.3737 38.3036 32.8292C38.0056 33.133 37.5832 33.513 37.2606 33.7906C36.9123 34.0905 36.436 34.4771 36.0685 34.7532C34.9854 35.5667 34.0273 36.1331 33.5527 36.3983Z" fill="#D8D8DA"/>
<path d="M6.8175 7.42465C15.728 2.42463 29.9728 2.56851 38.6341 7.74615C47.2953 12.9238 47.0931 21.1744 38.1825 26.1744C29.2719 31.1745 15.0272 31.0306 6.36592 25.8529C-2.29535 20.6753 -2.09302 12.4247 6.8175 7.42465ZM8.68896 8.54341C0.841732 12.9467 0.663577 20.2128 8.29116 24.7725C15.9187 29.3322 28.4636 29.459 36.3109 25.0556C44.1581 20.6522 44.3362 13.3862 36.7086 8.8265C29.0809 4.26682 16.5363 4.14 8.68896 8.54341Z" fill="#E0E0E2"/>
</g>
<defs>
<clipPath id="clip0_3_2808">
<rect width="45" height="45" fill="white"/>
</clipPath>
</defs>
</svg>
