<svg width="25" height="25" viewBox="0 0 25 25" fill="none" xmlns="http://www.w3.org/2000/svg">
<g clip-path="url(#clip0_178_620)">
<path d="M24.9981 23.2932L23.7481 9.96457C23.7349 9.824 23.6515 9.69949 23.5263 9.63415L18.7347 7.1301C18.7258 7.12546 18.7155 7.12644 18.7064 7.12248C18.6791 7.11067 18.6501 7.1051 18.62 7.09929C18.5911 7.09363 18.5638 7.08703 18.5345 7.08752C18.5279 7.08762 18.5222 7.08454 18.5155 7.08493C18.4919 7.0864 18.4721 7.09734 18.4498 7.10256C18.4271 7.10779 18.4035 7.10554 18.3817 7.11462L16.8984 7.73127C16.6858 7.81955 16.5853 8.0635 16.6736 8.2759C16.762 8.48869 17.0056 8.58923 17.2182 8.50071L18.1621 8.10832L18.94 20.543L12.9166 22.7368V14.0859C12.9166 13.8557 12.7301 13.6692 12.5 13.6692C12.2698 13.6692 12.0833 13.8558 12.0833 14.0859V22.7368L6.05999 20.543L6.83782 8.10832L7.78176 8.50071C7.99455 8.58918 8.2383 8.48869 8.32639 8.2759C8.41467 8.0635 8.31418 7.81955 8.10159 7.73127L6.61824 7.11462C6.59656 7.10564 6.57302 7.10783 6.55046 7.10266C6.52805 7.09743 6.50808 7.08645 6.48435 7.08493C6.47771 7.08459 6.47205 7.08767 6.46545 7.08762C6.43518 7.08708 6.40696 7.09407 6.37712 7.10012C6.34919 7.10583 6.32209 7.11081 6.29651 7.12175C6.2864 7.12605 6.27507 7.12502 6.26526 7.1301L1.47361 9.63415C1.34851 9.69949 1.26507 9.824 1.25183 9.96457L0.0018336 23.2932C-0.0122289 23.4428 0.0553492 23.5883 0.17864 23.6741C0.30154 23.7597 0.462234 23.7728 0.597146 23.7077L5.64739 21.2797L12.3574 23.7236C12.4493 23.7573 12.5507 23.7573 12.6426 23.7236L19.3527 21.2797L24.4029 23.7077C24.4601 23.7351 24.5219 23.7488 24.5834 23.7488C24.667 23.7488 24.7504 23.7236 24.8214 23.6741C24.9446 23.5882 25.0121 23.4427 24.9981 23.2932ZM5.224 20.5584L0.900173 22.6373L2.06023 10.2679L5.99631 8.21086L5.224 20.5584ZM19.7758 20.5584L19.0035 8.21086L22.9396 10.2679L24.0996 22.6373L19.7758 20.5584Z" fill="#CD2C31"/>
<path d="M8.82886 7.16023L12.1422 12.7132C12.2175 12.8393 12.3534 12.9164 12.5001 12.9164C12.6468 12.9164 12.7827 12.8393 12.858 12.7132L16.1803 7.14436C16.3402 6.84734 16.4473 6.59568 16.5168 6.35193C16.6163 6.00383 16.6668 5.64231 16.6668 5.27771C16.6668 4.73225 16.5559 4.2031 16.337 3.70442C16.1262 3.22449 15.8245 2.79358 15.4408 2.4241C15.0583 2.05564 14.6128 1.76633 14.1169 1.56433C13.0916 1.14685 11.9087 1.14685 10.8833 1.56433C10.3875 1.76633 9.94194 2.05569 9.55967 2.4241C9.17573 2.79358 8.87402 3.22449 8.66328 3.70461C8.44438 4.20305 8.3335 4.73225 8.3335 5.27771C8.3335 5.64231 8.38394 6.00383 8.48345 6.35213C8.55298 6.59563 8.66001 6.84729 8.82886 7.16023ZM9.42622 4.03967C9.59307 3.65964 9.83252 3.31804 10.1377 3.02424C10.4437 2.72947 10.8003 2.49793 11.1975 2.33616C11.6101 2.16809 12.0483 2.08308 12.5001 2.08308C12.952 2.08308 13.3902 2.16814 13.8028 2.33616C14.2 2.49788 14.5566 2.72942 14.8628 3.02424C15.1678 3.31804 15.4072 3.6596 15.5741 4.03948C15.7462 4.43171 15.8335 4.84822 15.8335 5.27766C15.8335 5.56492 15.7938 5.84934 15.7157 6.12302C15.663 6.30735 15.5776 6.50632 15.4557 6.73338L12.5001 11.6866L9.55356 6.74924C9.42275 6.50632 9.3373 6.30735 9.28462 6.12322C9.20649 5.84939 9.16685 5.56497 9.16685 5.27766C9.1668 4.84822 9.2541 4.43171 9.42622 4.03967Z" fill="#CD2C31"/>
<path d="M12.4999 7.50099C13.6485 7.50099 14.5832 6.56632 14.5832 5.41764C14.5832 4.26896 13.6485 3.33429 12.4999 3.33429C11.3512 3.33429 10.4165 4.26896 10.4165 5.41764C10.4165 6.56632 11.3512 7.50099 12.4999 7.50099ZM12.4999 4.16764C13.1892 4.16764 13.7499 4.72833 13.7499 5.41764C13.7499 6.10695 13.1892 6.66764 12.4999 6.66764C11.8105 6.66764 11.2499 6.10695 11.2499 5.41764C11.2499 4.72833 11.8105 4.16764 12.4999 4.16764Z" fill="#CD2C31"/>
</g>
<defs>
<clipPath id="clip0_178_620">
<rect width="25" height="25" fill="white"/>
</clipPath>
</defs>
</svg>
