<svg width="54" height="66" viewBox="0 0 54 66" fill="none" xmlns="http://www.w3.org/2000/svg">
<path d="M53.25 61.4375H44.5V0.1875H51.0625C52.2707 0.1875 53.25 1.16682 53.25 2.375V61.4375Z" fill="#64AFE1"/>
<path d="M46.6875 0.1875H16.0625C14.8543 0.1875 13.875 1.16695 13.875 2.375V61.4375H18.25V4.5625H44.5V61.4375H48.875V2.375C48.875 1.16695 47.8957 0.1875 46.6875 0.1875Z" fill="#78D2F0"/>
<path d="M20.4375 4.5625H44.5V61.4375H20.4375V4.5625Z" fill="#91C83C"/>
<path d="M18.25 4.5625H20.4375V61.4375H18.25V4.5625Z" fill="#5FAA46"/>
<path d="M39.0312 36.2812C40.8434 36.2812 42.3125 34.8122 42.3125 33C42.3125 31.1878 40.8434 29.7188 39.0312 29.7188C37.2191 29.7188 35.75 31.1878 35.75 33C35.75 34.8122 37.2191 36.2812 39.0312 36.2812Z" fill="#F06423"/>
<path d="M37.9375 35.1875C39.1456 35.1875 40.125 34.2081 40.125 33C40.125 31.7919 39.1456 30.8125 37.9375 30.8125C36.7294 30.8125 35.75 31.7919 35.75 33C35.75 34.2081 36.7294 35.1875 37.9375 35.1875Z" fill="#FAA019"/>
<path d="M42.3125 35.1875C43.5206 35.1875 44.5 34.2081 44.5 33C44.5 31.7919 43.5206 30.8125 42.3125 30.8125C41.1044 30.8125 40.125 31.7919 40.125 33C40.125 34.2081 41.1044 35.1875 42.3125 35.1875Z" fill="#F06423"/>
<path d="M1.84375 65.8125H53.25V61.4375H1.84375C1.23973 61.4375 0.75 61.9272 0.75 62.5312V64.7188C0.75 65.3228 1.23973 65.8125 1.84375 65.8125Z" fill="#D7E6F0"/>
<path d="M32.4688 65.8125H53.25V61.4375H32.4688C31.8647 61.4375 31.375 61.9272 31.375 62.5312V64.7188C31.375 65.3228 31.8647 65.8125 32.4688 65.8125Z" fill="#A5C3DC"/>
<path d="M34.6562 41.75H6.21875C5.61473 41.75 5.125 42.2397 5.125 42.8438V60.3438C5.125 60.9478 5.61473 61.4375 6.21875 61.4375H34.6562C35.2603 61.4375 35.75 60.9478 35.75 60.3438V42.8438C35.75 42.2397 35.2603 41.75 34.6562 41.75Z" fill="#F06423"/>
<path d="M25.9062 42.8438V45.0312C25.9062 45.6353 26.396 46.125 27 46.125H29.1875C29.7915 46.125 30.2812 45.6353 30.2812 45.0312V42.8438C30.2812 42.2397 29.7915 41.75 29.1875 41.75H24.8125C25.4165 41.75 25.9062 42.2397 25.9062 42.8438Z" fill="#A5C3DC"/>
<path d="M19.3438 41.75H6.21875C5.61473 41.75 5.125 42.2397 5.125 42.8438V60.3438C5.125 60.9478 5.61473 61.4375 6.21875 61.4375H19.3438C19.9478 61.4375 20.4375 60.9478 20.4375 60.3438V42.8438C20.4375 42.2397 19.9478 41.75 19.3438 41.75Z" fill="#FAA019"/>
<path d="M39.0312 24.25H25.9062C25.3022 24.25 24.8125 23.7603 24.8125 23.1562V10.0312C24.8125 9.42723 25.3022 8.9375 25.9062 8.9375H39.0312C39.6353 8.9375 40.125 9.42723 40.125 10.0312V23.1562C40.125 23.7603 39.6353 24.25 39.0312 24.25Z" fill="#78D2F0"/>
</svg>
