<svg width="16" height="30" viewBox="0 0 16 30" fill="none" xmlns="http://www.w3.org/2000/svg">
<path d="M9.93812 30H3.7521C3.35808 30 3.24151 29.6802 3.24151 29.2858V16.6667H0.897001C0.502982 16.6667 0.386414 16.3469 0.386414 15.9525V10.7143C0.386414 10.3198 0.502982 10 0.897001 10H3.72499C3.72215 5.82966 4.45925 3.04495 5.97102 1.50083C7.26195 0.181765 8.82513 0 10.3216 0H14.6966C15.0906 0 15.6136 0.319755 15.6136 0.714265V6.42877C15.6136 6.82324 15.0906 7.14299 14.6966 7.14299H10.8551V10H14.6966C15.0906 10 15.6136 10.3198 15.6136 10.7143V15.9525C15.6136 16.3469 15.0906 16.6667 14.6966 16.6667H10.8551V29.2858C10.8546 29.6802 10.3322 30 9.93812 30ZM4.66861 28.5715H9.42709V15.9525C9.42709 15.5579 9.54371 15.2382 9.93768 15.2382H14.1856V11.4285H9.93768C9.54371 11.4285 9.42709 11.1088 9.42709 10.7143V6.42877C9.42709 6.03431 9.54371 5.71451 9.93768 5.71451H14.1856V1.42853H10.3212C9.21724 1.42853 7.95861 1.51132 6.99028 2.50064C5.69219 3.82588 5.07592 6.58441 5.1592 10.7C5.16303 10.8918 5.08974 11.0774 4.95509 11.2144C4.82087 11.3514 4.63768 11.4285 4.44548 11.4285H1.81357V15.2382H3.7517C4.14572 15.2382 4.66866 15.5579 4.66866 15.9525V28.5715H4.66861Z" fill="#CD2C31"/>
</svg>
