<svg width="25" height="23" viewBox="0 0 25 23" fill="none" xmlns="http://www.w3.org/2000/svg">
<path d="M18.4896 0.041626C15.7166 0.041626 13.4262 2.61731 12.5 3.83293C11.5738 2.61731 9.28345 0.041626 6.5104 0.041626C2.92056 0.041626 0 3.34211 0 7.39841C0 9.61145 0.878418 11.6739 2.41597 13.0854C2.43833 13.124 2.46582 13.1596 2.49785 13.1917L12.1323 22.8062C12.234 22.9074 12.3667 22.9583 12.5 22.9583C12.6333 22.9583 12.7665 22.9074 12.8683 22.8057L22.8231 12.8545L22.9258 12.7548C23.0072 12.678 23.0876 12.6001 23.1776 12.5005C23.2152 12.4634 23.2462 12.4216 23.2702 12.3763C24.3866 11.0092 25 9.24573 25 7.39841C25 3.34211 22.0795 0.041626 18.4896 0.041626ZM22.4035 11.7904C22.3892 11.8072 22.376 11.825 22.3643 11.8433C22.3155 11.8992 22.2621 11.9486 22.2092 11.9989L12.4995 21.7015L3.35288 12.5732C3.32339 12.5152 3.28218 12.4623 3.23184 12.418C1.8397 11.2024 1.04165 9.37288 1.04165 7.39841C1.04165 3.91633 3.49478 1.08333 6.5104 1.08333C9.49199 1.08333 12.0366 4.97229 12.0621 5.01145C12.2543 5.30847 12.7457 5.30847 12.9379 5.01145C12.9634 4.97229 15.508 1.08333 18.4896 1.08333C21.5052 1.08333 23.9583 3.91638 23.9583 7.39841C23.9583 9.03923 23.406 10.5992 22.4035 11.7904Z" fill="#CD2C31"/>
</svg>
