<svg width="259" height="259" viewBox="0 0 259 259" fill="none" xmlns="http://www.w3.org/2000/svg">
<path d="M130.84 40.904C130.84 40.904 151.712 -2.33921 201.563 2.70178C203.787 2.94911 205.803 4.12494 207.112 5.93907C212.592 13.2402 215.405 22.1979 215.083 31.3213C214.141 47.9816 152.625 60.8149 152.625 60.8149L139.588 58.2252L130.84 40.904Z" fill="#F6C863"/>
<path d="M182.85 47.5441C170.125 52.3007 156.653 54.7486 143.068 54.7735C161.213 38.3715 184.319 28.5027 208.714 26.7337C211.589 26.4974 212.664 29.7868 210.686 31.8877C206.228 36.6078 194.897 42.9468 182.85 47.5441V47.5441Z" fill="#EAB54E"/>
<path d="M130.831 40.904C130.831 40.904 109.959 -2.33921 60.1076 2.70178C57.8839 2.94911 55.8682 4.12494 54.5586 5.93907C49.0785 13.2402 46.2658 22.1979 46.5879 31.3213C47.5303 47.9816 109.046 60.8149 109.046 60.8149L122.083 58.2252L130.831 40.904Z" fill="#F6C863"/>
<path d="M78.8196 47.5441C91.5452 52.3007 105.017 54.7486 118.602 54.7735C108.454 45.7457 96.7808 38.594 84.1294 33.652C74.1082 29.9143 63.6167 27.5864 52.9555 26.7337C50.0808 26.4974 49.0057 29.7868 50.9838 31.8877C55.4259 36.6078 66.7891 42.9468 78.8196 47.5441V47.5441Z" fill="#EAB54E"/>
<path d="M129.509 70.9808C138.149 70.9808 145.153 63.9769 145.153 55.3371C145.153 46.6973 138.149 39.6934 129.509 39.6934C120.87 39.6934 113.866 46.6973 113.866 55.3371C113.866 63.9769 120.87 70.9808 129.509 70.9808Z" fill="#EAB54E"/>
<path d="M3.20833 55.334H255.791C257.563 55.334 258.999 56.7705 258.999 58.5423V100.26C258.999 102.032 257.563 103.469 255.791 103.469H3.20833C1.43648 103.469 0 102.032 0 100.26V58.5423C0 56.7705 1.43648 55.334 3.20833 55.334V55.334Z" fill="#EB474C"/>
<path d="M246.237 94.6436V253.498C246.232 255.267 244.799 256.701 243.029 256.706H15.9866C14.2171 256.701 12.7835 255.267 12.7783 253.498V94.6436H246.237Z" fill="#EB474C"/>
<path d="M12.7783 103.469H246.241V114.699H12.7783V103.469Z" fill="#CD2D31"/>
<path d="M110.729 55.334H148.287V256.703H110.729V55.334Z" fill="#F6C863"/>
<path d="M110.719 103.469H148.297V114.699H110.719V103.469Z" fill="#EAB54E"/>
</svg>
