<svg width="163" height="60" viewBox="0 0 163 60" fill="none" xmlns="http://www.w3.org/2000/svg">
<g clip-path="url(#clip0_21_92)">
<path d="M17.2213 17.8975L18.9037 19.3156L18.5799 19.6988L17.4426 18.7418L18.4508 19.8524L18.2213 20.1229L16.9754 19.3483L18.0861 20.2848L17.7602 20.666L16.0758 19.2479L16.5533 18.6824C16.6701 18.75 16.8033 18.834 16.9631 18.9303L17.4447 19.2295L16.7357 18.4672L17.2213 17.8975Z" fill="#407A53"/>
<path d="M18.2316 16.9283L19.9898 18.293L19.5656 18.7029L19.2705 18.4385L19.123 18.5799L19.3709 18.8894L18.9447 19.2992L17.6353 17.5062L18.2316 16.9283ZM18.9898 18.1578C18.7971 17.998 18.5635 17.793 18.2889 17.543C18.5389 17.8873 18.7254 18.1353 18.8484 18.2869L18.9898 18.1578Z" fill="#407A53"/>
<path d="M18.6639 16.5287L19 16.2644C19.1429 16.142 19.2981 16.0349 19.4631 15.9447C19.5415 15.9072 19.6292 15.8936 19.7152 15.9058C19.7871 15.9186 19.8543 15.9504 19.9098 15.998C20.0098 16.0968 20.1023 16.203 20.1865 16.3156L20.6639 16.9303C20.75 17.0317 20.8255 17.1416 20.8894 17.2582C20.915 17.3154 20.9221 17.3791 20.9098 17.4406C20.8941 17.5024 20.8647 17.5598 20.8238 17.6086C20.7555 17.6849 20.6792 17.7535 20.5963 17.8135L20.0307 18.2623L18.6639 16.5287ZM19.3484 16.4693L20.2459 17.6045C20.3115 17.5533 20.3402 17.5082 20.334 17.4713C20.3004 17.3863 20.2511 17.3085 20.1885 17.2418L19.6578 16.5717C19.62 16.5201 19.5782 16.4714 19.5328 16.4263C19.5225 16.4181 19.5107 16.4121 19.498 16.4085C19.4853 16.405 19.4721 16.4041 19.459 16.4058C19.4177 16.418 19.3798 16.4398 19.3484 16.4693Z" fill="#407A53"/>
<path d="M20.002 15.4939L20.7971 14.9672L21.041 15.3361L20.7213 15.541L20.9529 15.8894L21.25 15.6844L21.4816 16.0348L21.1824 16.2398L21.4508 16.6496L21.8012 16.418L22.043 16.7848L21.2234 17.332L20.002 15.4939Z" fill="#407A53"/>
<path d="M23.4365 13.6353L24.6107 15.5246L24.0738 15.7582L23.8893 15.4057L23.7008 15.4877L23.8279 15.8648L23.293 16.1086L22.6783 13.9713L23.4365 13.6353ZM23.7213 15.0553C23.5943 14.8381 23.4467 14.5656 23.2725 14.2357C23.3873 14.6455 23.4775 14.9447 23.5389 15.1291L23.7213 15.0553Z" fill="#407A53"/>
<path d="M24.8996 13.1086L25.043 13.5184L24.7234 13.6291L25.2971 15.2951L24.7562 15.4815L24.1803 13.8155L23.8607 13.9262L23.7172 13.5164L24.8996 13.1086Z" fill="#407A53"/>
<path d="M28.3934 12.3996L28.4836 14.6127L27.7766 14.7234C27.6605 14.3996 27.5437 14.0287 27.4262 13.6107C27.4262 13.7971 27.4406 14.1844 27.4488 14.7746L26.7459 14.8853L26.1619 12.7521L26.7111 12.666L26.8893 13.4139L27.0635 14.1394C27.0253 13.7568 26.9993 13.2514 26.9857 12.623L27.5717 12.5307C27.5902 12.5922 27.6475 12.8279 27.7459 13.2377L27.9385 14.0574C27.8873 13.5246 27.8607 13.0021 27.8545 12.4877L28.3934 12.3996Z" fill="#407A53"/>
<path d="M30.0697 13.6496C30.0697 13.8689 30.0697 14.0266 30.0697 14.1189C30.0622 14.2103 30.0319 14.2984 29.9816 14.375C29.9271 14.4545 29.852 14.5175 29.7643 14.5574C29.6626 14.6038 29.5524 14.6289 29.4406 14.6312C29.332 14.6361 29.2234 14.6201 29.1209 14.584C29.0328 14.5519 28.9548 14.497 28.8947 14.4251C28.8347 14.3531 28.7946 14.2666 28.7787 14.1742C28.7587 14.0164 28.7471 13.8578 28.7438 13.6988L28.7316 13.3217C28.7316 13.1004 28.7316 12.9447 28.7316 12.8525C28.7388 12.7607 28.7699 12.6724 28.8217 12.5963C28.8749 12.5165 28.9494 12.4533 29.0369 12.4139C29.1383 12.3665 29.2487 12.3414 29.3607 12.3402C29.4692 12.3352 29.5778 12.3512 29.6803 12.3873C29.7688 12.4187 29.8473 12.4733 29.9075 12.5454C29.9677 12.6175 30.0074 12.7045 30.0225 12.7971C30.0426 12.9549 30.0542 13.1136 30.0574 13.2726L30.0697 13.6496ZM29.4713 12.9467C29.4746 12.8777 29.467 12.8085 29.4488 12.7418C29.4427 12.7284 29.4324 12.7173 29.4194 12.7103C29.4065 12.7033 29.3916 12.7007 29.377 12.7029C29.3634 12.702 29.3498 12.7049 29.3379 12.7115C29.3259 12.718 29.316 12.7278 29.3094 12.7398C29.2898 12.8062 29.2842 12.876 29.293 12.9447L29.3299 13.9693C29.3278 14.0486 29.3361 14.1278 29.3545 14.2049C29.3596 14.2197 29.3699 14.2322 29.3834 14.2401C29.397 14.248 29.4129 14.2508 29.4283 14.248C29.4448 14.2486 29.461 14.2437 29.4744 14.2341C29.4877 14.2244 29.4975 14.2105 29.502 14.1947C29.51 14.1122 29.51 14.0292 29.502 13.9467L29.4713 12.9467Z" fill="#407A53"/>
<path d="M30.3955 12.3566L30.8053 12.3791C30.9885 12.3842 31.1709 12.4054 31.3504 12.4426C31.4448 12.4691 31.5255 12.5307 31.5758 12.6148C31.6375 12.742 31.6603 12.8845 31.6414 13.0246C31.6462 13.1437 31.617 13.2616 31.5574 13.3648C31.5235 13.3973 31.4833 13.4223 31.4391 13.4381C31.395 13.454 31.348 13.4605 31.3012 13.457C31.386 13.475 31.4633 13.5187 31.5225 13.582C31.553 13.6216 31.5752 13.6669 31.5881 13.7152C31.5958 13.8236 31.5958 13.9325 31.5881 14.041L31.5553 14.6209L31.0246 14.5902L31.0676 13.8607C31.0791 13.7866 31.0735 13.7109 31.0512 13.6394C31.0348 13.6107 30.9877 13.5943 30.9078 13.5902L30.8504 14.5799L30.2787 14.5471L30.3955 12.3566ZM30.9447 12.7664L30.916 13.2562C30.9626 13.2631 31.0102 13.2567 31.0533 13.2377C31.0799 13.2213 31.0963 13.1639 31.1004 13.0676V12.9467C31.1052 12.9226 31.1049 12.8978 31.0996 12.8738C31.0943 12.8499 31.0841 12.8272 31.0697 12.8074C31.0339 12.7796 30.9899 12.7645 30.9447 12.7644V12.7664Z" fill="#407A53"/>
<path d="M32.5943 12.5533L32.3504 14.2971L32.6947 14.3463L32.6332 14.7828L31.7234 14.6537L32.0266 12.4754L32.5943 12.5533Z" fill="#407A53"/>
<path d="M33.2213 12.6475L33.6311 12.7418C33.8157 12.7769 33.9962 12.8304 34.1701 12.9016C34.2488 12.9387 34.3145 12.9987 34.3586 13.0738C34.3933 13.1364 34.411 13.2071 34.4098 13.2787C34.3942 13.4167 34.3695 13.5536 34.3361 13.6885L34.166 14.4406C34.1425 14.5709 34.104 14.6982 34.0512 14.8197C34.0233 14.876 33.978 14.922 33.9221 14.9508C33.8647 14.9786 33.8015 14.9927 33.7377 14.9918C33.6347 14.9856 33.5325 14.9698 33.4324 14.9447L32.7295 14.7869L33.2213 12.6475ZM33.6967 13.1414L33.3791 14.5533C33.459 14.5717 33.5123 14.5656 33.5369 14.5389C33.5823 14.4592 33.6122 14.3716 33.625 14.2807L33.8135 13.4467C33.8301 13.385 33.8411 13.3219 33.8463 13.2582C33.8466 13.2452 33.8442 13.2323 33.8392 13.2204C33.8343 13.2084 33.8269 13.1975 33.8176 13.1885C33.7821 13.1626 33.7404 13.1464 33.6967 13.1414Z" fill="#407A53"/>
<path d="M35.9078 13.3771L36.4426 13.582C36.5564 13.623 36.664 13.6795 36.7623 13.75C36.8229 13.7921 36.8705 13.8503 36.8996 13.9181C36.9226 13.9781 36.9282 14.0434 36.916 14.1066C36.895 14.2062 36.8648 14.3036 36.8258 14.3976L36.7541 14.5758C36.7216 14.6748 36.6693 14.7661 36.6004 14.8443C36.5445 14.8956 36.4714 14.9241 36.3955 14.9242C36.2916 14.9233 36.1891 14.9009 36.0943 14.8586L35.9508 14.8033L35.6229 15.623L35.0922 15.4181L35.9078 13.3771ZM36.2992 13.9386L36.0943 14.459C36.1068 14.4655 36.1198 14.471 36.1332 14.4754C36.1513 14.4845 36.1713 14.4892 36.1916 14.4892C36.2119 14.4892 36.2319 14.4845 36.25 14.4754C36.2922 14.4385 36.3228 14.3901 36.3381 14.3361L36.4037 14.1681C36.4291 14.1226 36.4371 14.0694 36.4262 14.0185C36.3935 13.9789 36.349 13.9509 36.2992 13.9386Z" fill="#407A53"/>
<path d="M37.3484 13.9672L37.709 14.1516C37.8753 14.2298 38.0344 14.3224 38.1844 14.4283C38.2602 14.4909 38.3087 14.5806 38.3197 14.6783C38.3255 14.8222 38.2892 14.9646 38.2152 15.0881C38.1738 15.1981 38.1029 15.2945 38.0103 15.3668C37.9663 15.3828 37.9194 15.3892 37.8728 15.3857C37.8262 15.3821 37.7808 15.3687 37.7398 15.3463C37.8092 15.3984 37.8619 15.4696 37.8914 15.5512C37.9013 15.5999 37.9013 15.6501 37.8914 15.6988C37.854 15.8011 37.8087 15.9005 37.7562 15.9959L37.4877 16.5185L37.0226 16.2685L37.3545 15.6168C37.3933 15.5543 37.419 15.4846 37.4303 15.4119C37.4303 15.3771 37.3894 15.3422 37.3176 15.3074L36.8668 16.1906L36.3586 15.9303L37.3484 13.9672ZM37.6885 14.5635L37.4652 15C37.5054 15.0243 37.5514 15.037 37.5984 15.0369C37.6291 15.0369 37.666 14.9877 37.7111 14.9017L37.7664 14.7951C37.7938 14.7542 37.8041 14.7042 37.7951 14.6557C37.7705 14.6143 37.7331 14.582 37.6885 14.5635Z" fill="#407A53"/>
<path d="M39.2356 16.5307C39.1538 16.6645 39.0649 16.7938 38.9693 16.918C38.9131 16.9904 38.8379 17.0458 38.752 17.0779C38.6622 17.1133 38.5644 17.1232 38.4693 17.1065C38.3591 17.0884 38.2542 17.0464 38.1619 16.9836C38.0699 16.9264 37.9899 16.8519 37.9262 16.7643C37.8686 16.686 37.8345 16.5929 37.8279 16.4959C37.8211 16.4043 37.8381 16.3126 37.877 16.2295C37.9506 16.0889 38.0313 15.9521 38.1188 15.8197L38.3238 15.502C38.4426 15.3162 38.5307 15.1871 38.5881 15.1147C38.6462 15.0435 38.7218 14.9884 38.8074 14.9549C38.8965 14.9195 38.9937 14.9095 39.0881 14.9262C39.3062 14.968 39.5007 15.0902 39.6332 15.2684C39.6884 15.3451 39.7221 15.4351 39.7307 15.5291C39.7394 15.6232 39.7227 15.7179 39.6824 15.8033C39.6414 15.8852 39.5615 16.0225 39.4406 16.2131L39.2356 16.5307ZM39.1414 15.6147C39.1801 15.5605 39.2111 15.5012 39.2336 15.4385C39.2361 15.4239 39.2339 15.4089 39.2272 15.3956C39.2206 15.3823 39.2099 15.3715 39.1967 15.3647C39.1851 15.3583 39.1721 15.3549 39.1588 15.3549C39.1455 15.3549 39.1325 15.3583 39.1209 15.3647C39.0669 15.4087 39.0223 15.4631 38.9897 15.5246L38.4385 16.3914C38.3927 16.4552 38.3542 16.5239 38.3238 16.5963C38.3208 16.6112 38.3228 16.6267 38.3294 16.6404C38.3361 16.6541 38.3471 16.6652 38.3606 16.6721C38.3736 16.683 38.3899 16.6889 38.4068 16.6889C38.4236 16.6889 38.4399 16.683 38.4529 16.6721C38.5081 16.6089 38.5569 16.5402 38.5984 16.4672L39.1414 15.6147Z" fill="#407A53"/>
<path d="M40.2357 15.6619L40.5717 15.9262C40.7209 16.0368 40.8582 16.1625 40.9816 16.3012C41.0374 16.368 41.0717 16.4502 41.0799 16.5369C41.0841 16.608 41.0685 16.679 41.0348 16.7418C40.9626 16.8615 40.8818 16.9759 40.793 17.084L40.3176 17.6987C40.2396 17.8063 40.1503 17.9053 40.0512 17.9938C40.0011 18.0324 39.9403 18.0546 39.8771 18.0574C39.8138 18.0573 39.7513 18.0426 39.6947 18.0143C39.604 17.9652 39.5182 17.9076 39.4385 17.8422L38.8709 17.3975L40.2357 15.6619ZM40.4529 16.3115L39.5615 17.4508C39.6271 17.502 39.6762 17.5205 39.7111 17.5061C39.7858 17.4539 39.8498 17.3878 39.8996 17.3115L40.4283 16.6373C40.4697 16.5887 40.5067 16.5366 40.5389 16.4815C40.5444 16.4697 40.5473 16.4567 40.5473 16.4436C40.5473 16.4305 40.5444 16.4176 40.5389 16.4057C40.518 16.3685 40.4885 16.3369 40.4529 16.3135V16.3115Z" fill="#407A53"/>
<path d="M42.5061 17.625L41.4918 18.6885C41.4132 18.7759 41.3283 18.8574 41.2377 18.9324C41.1771 18.9763 41.1068 19.0051 41.0328 19.0164C40.9437 19.0313 40.8523 19.0214 40.7684 18.9877C40.6703 18.9486 40.5811 18.8901 40.5062 18.8156C40.4197 18.7343 40.3501 18.6368 40.3012 18.5287C40.2611 18.4409 40.2449 18.344 40.2541 18.248C40.2648 18.1683 40.2959 18.0928 40.3443 18.0287C40.4466 17.9017 40.5554 17.7799 40.6701 17.6639L41.5676 16.7213L41.9775 17.1168L40.8381 18.3115C40.7932 18.3535 40.7545 18.4018 40.7234 18.4549C40.7192 18.4683 40.719 18.4825 40.7226 18.496C40.7263 18.5095 40.7337 18.5217 40.744 18.5312C40.7543 18.5406 40.7671 18.547 40.7808 18.5494C40.7946 18.5519 40.8088 18.5504 40.8217 18.5451C40.8795 18.5048 40.9318 18.4573 40.9775 18.4037L42.0963 17.2295L42.5061 17.625Z" fill="#407A53"/>
<path d="M42.9242 19.5451L42.5553 19.1107L42.8443 18.8607C42.9003 18.8187 42.9494 18.7683 42.9898 18.7111C42.9957 18.6959 42.9967 18.6792 42.9927 18.6634C42.9886 18.6476 42.9797 18.6334 42.9672 18.623C42.9572 18.6074 42.9424 18.5955 42.925 18.5892C42.9076 18.5829 42.8886 18.5825 42.8709 18.5881C42.8067 18.6223 42.7474 18.6651 42.6947 18.7152L41.918 19.3873C41.8617 19.4296 41.812 19.48 41.7705 19.5369C41.7625 19.5532 41.7602 19.5718 41.7639 19.5896C41.7676 19.6074 41.7771 19.6235 41.791 19.6353C41.8005 19.6496 41.8145 19.6605 41.8308 19.666C41.8471 19.6716 41.8648 19.6716 41.8812 19.666C41.95 19.6299 42.0134 19.5843 42.0697 19.5308L42.2746 19.3484L42.6475 19.7828L42.584 19.8381C42.4655 19.9501 42.3316 20.0446 42.1865 20.1189C42.0796 20.156 41.9634 20.156 41.8566 20.1189C41.7196 20.0755 41.5985 19.9929 41.5082 19.8812C41.409 19.7765 41.3384 19.6481 41.3033 19.5082C41.2893 19.453 41.2864 19.3956 41.2949 19.3393C41.3033 19.283 41.3229 19.229 41.3525 19.1803C41.444 19.0445 41.556 18.9235 41.6844 18.8217L42.1701 18.4017C42.2594 18.3226 42.3531 18.2487 42.4508 18.1803C42.5221 18.1363 42.6029 18.1103 42.6865 18.1045C42.7824 18.0976 42.8785 18.1159 42.9652 18.1578C43.0793 18.2179 43.1795 18.3013 43.2592 18.4026C43.339 18.504 43.3966 18.6209 43.4283 18.7459C43.453 18.8555 43.4377 18.9703 43.3852 19.0697C43.2997 19.1967 43.1953 19.31 43.0758 19.4058L42.9242 19.5451Z" fill="#407A53"/>
<path d="M43.8607 19.1967L44.4201 19.9693L44.0635 20.2275L43.8402 19.918L43.5021 20.1639L43.707 20.4529L43.375 20.6988L43.1701 20.4119L42.7787 20.6967L43.0246 21.0369L42.668 21.2951L42.084 20.4918L43.8607 19.1967Z" fill="#407A53"/>
<path d="M12.4201 33.3053H11.1537V27.2848L9.24999 33.3053H8.6004L6.69466 27.2848V33.3053H5.67007V26.4283H7.6086L9.04302 30.8566L10.459 26.4283H12.4098L12.4201 33.3053Z" fill="#407A53"/>
<path d="M21.0574 30.916L22.2049 31.043C22.1516 31.6876 21.8679 32.2914 21.4057 32.7439C21.1644 32.9696 20.8803 33.1448 20.5703 33.2591C20.2603 33.3735 19.9305 33.4247 19.6004 33.4098C19.0513 33.4349 18.5106 33.2674 18.0717 32.9365C17.6622 32.5956 17.3504 32.1523 17.168 31.6516C16.9502 31.0814 16.8424 30.4751 16.8504 29.8648C16.8504 28.8156 17.099 27.9631 17.5963 27.3074C17.8157 27.0324 18.0882 26.8045 18.3976 26.6372C18.707 26.4699 19.0469 26.3666 19.3971 26.3335C19.7472 26.3004 20.1005 26.3382 20.4357 26.4446C20.771 26.551 21.0814 26.7239 21.3484 26.9529C21.8336 27.437 22.1362 28.0742 22.2049 28.7562L21.0574 28.8771C20.8443 27.8388 20.377 27.3197 19.6557 27.3197C19.4333 27.3166 19.2145 27.3756 19.0237 27.4899C18.833 27.6043 18.6779 27.7696 18.5758 27.9672C18.3176 28.4037 18.1906 29.0185 18.1906 29.8381C18.1906 30.6578 18.3279 31.2992 18.6004 31.7234C18.7097 31.9173 18.8687 32.0785 19.061 32.1906C19.2534 32.3026 19.4721 32.3613 19.6947 32.3607C19.8709 32.3622 20.0453 32.3248 20.2054 32.2511C20.3656 32.1774 20.5074 32.0693 20.6209 31.9344C20.8749 31.6525 21.0284 31.2944 21.0574 30.916Z" fill="#407A53"/>
<path d="M29.8648 33.3053H28.6353V30.3176H26V33.3053H24.7603V26.4283H26V29.2541H28.6209V26.4283H29.8504L29.8648 33.3053Z" fill="#407A53"/>
<path d="M36.9262 33.3053H32.457V26.4283H36.8811V27.4529H33.6967V29.3176H36.2561V30.3135H33.6967V32.2398H36.9262V33.3053Z" fill="#407A53"/>
<path d="M43.4713 33.3053H39.2398V26.4283H40.5451V32.1824H43.4713V33.3053Z" fill="#407A53"/>
<path d="M54.3279 33.3053H53.125L50.5143 28.9119C50.4754 28.8443 50.4098 28.7357 50.3094 28.584C50.2705 28.5164 50.207 28.4119 50.1229 28.2664V33.3053H49.127V26.4283H50.4959L52.9057 30.4795C52.9242 30.5123 53.0717 30.7582 53.3422 31.2193V26.4283H54.3197L54.3279 33.3053Z" fill="#407A53"/>
<path d="M30.002 60L0 30L30.002 0L60.0021 30L30.002 60ZM0.579918 30L30.002 59.4221L59.4221 30L30.002 0.577869L0.579918 30Z" fill="#CD2D31"/>
<path d="M26.3258 53.1516L26.2521 53.4508L25.8627 53.3525L25.9365 53.0553L25.0676 52.8381L25.1455 52.5266L26.1701 51.2234L26.5799 51.3238L25.5758 52.6004L26.0164 52.7111L26.166 52.1148L26.5553 52.2131L26.4057 52.8074L26.5758 52.8504L26.4898 53.1947L26.3258 53.1516Z" fill="#CD2D31"/>
<path d="M28.2111 53.1988C28.2012 53.2865 28.1679 53.37 28.1148 53.4406C28.0655 53.5041 28.0034 53.5565 27.9324 53.5943C27.8608 53.6318 27.7831 53.6561 27.7029 53.666C27.6234 53.6783 27.5426 53.6783 27.4631 53.666C27.3836 53.6552 27.3062 53.6324 27.2336 53.5984C27.1576 53.567 27.0882 53.5219 27.0287 53.4652C26.9703 53.4075 26.9254 53.3375 26.8975 53.2602C26.8665 53.1779 26.8573 53.089 26.8709 53.002L27.0184 51.9775C27.0295 51.889 27.0634 51.8049 27.1168 51.7336C27.1649 51.6684 27.2273 51.6151 27.2992 51.5779C27.3713 51.5392 27.4497 51.5136 27.5307 51.502C27.6088 51.4898 27.6883 51.4898 27.7664 51.502C27.8458 51.5132 27.9231 51.536 27.9959 51.5697C28.0715 51.6035 28.1408 51.6499 28.2008 51.707C28.2586 51.7652 28.3033 51.835 28.332 51.9119C28.3629 51.9956 28.3721 52.0859 28.3586 52.1742L28.2111 53.1988ZM27.9549 52.2008C27.9654 52.1577 27.9654 52.1127 27.9549 52.0697C27.9442 52.0348 27.926 52.0026 27.9016 51.9754C27.8784 51.9505 27.8506 51.9303 27.8197 51.916C27.7901 51.9012 27.7582 51.8915 27.7254 51.8873C27.6928 51.8821 27.6596 51.8821 27.627 51.8873C27.5932 51.8933 27.5606 51.9051 27.5307 51.9221C27.4995 51.9413 27.4729 51.9672 27.4529 51.9979C27.4306 52.0357 27.416 52.0775 27.4098 52.1209L27.2869 52.9836C27.2763 53.026 27.2763 53.0703 27.2869 53.1127C27.2971 53.1465 27.3144 53.1778 27.3378 53.2043C27.3611 53.2308 27.3899 53.252 27.4221 53.2664C27.4521 53.2797 27.4839 53.2887 27.5164 53.293C27.5497 53.2981 27.5835 53.2981 27.6168 53.293C27.6502 53.2876 27.6822 53.2758 27.7111 53.2582C27.7428 53.2396 27.7695 53.2136 27.7889 53.1824C27.8115 53.1455 27.8262 53.1043 27.832 53.0615L27.9549 52.2008Z" fill="#CD2D31"/>
<path d="M31.0799 52.6639L30.8914 53.0635L30.6701 53.5307H30.3627L30.1107 53.0881L29.8914 52.6885H29.8791L29.9119 53.8402L29.4857 53.8525L29.4242 51.709H29.8156L30.2254 52.4529L30.5 52.9754H30.5184L30.7643 52.4283L31.1107 51.6742L31.502 51.6619L31.5635 53.8053L31.1373 53.8176L31.1045 52.666L31.0799 52.6639Z" fill="#CD2D31"/>
<path d="M33.1434 52.1455L32.9877 52.502C32.9713 52.5451 32.9488 52.5983 32.9221 52.6598C32.8955 52.7213 32.8668 52.791 32.834 52.8647C32.8012 52.9385 32.7705 53.0123 32.7357 53.0901L32.6393 53.3135L32.5533 53.5184C32.5246 53.5799 32.502 53.6332 32.4836 53.6762L32.1045 53.7397L31.75 51.625L32.1598 51.5553L32.3914 52.9447H32.4037L32.7398 52.1742L33.0717 51.3996L33.4549 51.3361L33.8094 53.4508L33.3996 53.5205L33.168 52.1434L33.1434 52.1455Z" fill="#CD2D31"/>
<path d="M35.498 52.9754L35.2398 52.1168L34.4816 52.3443L34.7398 53.2029L34.3299 53.3258L33.7152 51.2767L34.125 51.1537L34.373 51.9734L35.1311 51.7459L34.8811 50.9262L35.291 50.8012L35.9057 52.8504L35.498 52.9754Z" fill="#CD2D31"/>
<path d="M24.2152 7.67625C24.2962 7.65592 24.3795 7.6456 24.4631 7.64551C24.5428 7.64675 24.6214 7.66345 24.6947 7.69469C24.7687 7.72663 24.8346 7.77498 24.8873 7.83608C24.947 7.90646 24.9892 7.99005 25.0102 8.07994C25.037 8.17439 25.037 8.27441 25.0102 8.36887C24.983 8.45735 24.9311 8.53624 24.8606 8.59633C24.957 8.61089 25.0461 8.65617 25.1147 8.72543C25.1842 8.79481 25.2331 8.88204 25.2561 8.97747C25.286 9.07791 25.291 9.18413 25.2705 9.2869C25.2524 9.37412 25.2161 9.45653 25.1639 9.5287C25.1126 9.59677 25.0494 9.65507 24.9775 9.70084C24.9056 9.74498 24.8275 9.77813 24.7459 9.7992C24.6271 9.83092 24.5038 9.8427 24.3811 9.83403C24.2697 9.82815 24.1608 9.79883 24.0615 9.74797C24.0615 9.74797 24.0615 9.71928 24.082 9.68444L24.1229 9.56969L24.1619 9.45493L24.1844 9.39141C24.2552 9.42569 24.3315 9.4472 24.4098 9.45493C24.4839 9.46183 24.5586 9.45699 24.6311 9.44059C24.7129 9.42275 24.7856 9.37623 24.8361 9.30944C24.8575 9.27765 24.8715 9.24137 24.8768 9.20337C24.8821 9.16537 24.8787 9.12666 24.8668 9.09018C24.8495 9.01582 24.804 8.95112 24.7397 8.90985C24.7071 8.88935 24.6704 8.87617 24.6322 8.87122C24.594 8.86626 24.5552 8.86966 24.5184 8.88116L24.2705 8.94469L24.1865 8.61887L24.4283 8.55739C24.4961 8.53912 24.5551 8.49691 24.5943 8.43854C24.6148 8.40634 24.6282 8.37008 24.6335 8.33225C24.6388 8.29442 24.6359 8.25589 24.625 8.21928C24.6151 8.1801 24.5954 8.14411 24.5676 8.11477C24.5432 8.09035 24.5139 8.07148 24.4815 8.05944C24.449 8.04675 24.414 8.04116 24.3791 8.04305C24.3459 8.04257 24.3128 8.04671 24.2807 8.05534C24.2072 8.07291 24.1377 8.1042 24.0758 8.14756C24.0113 8.19131 23.9556 8.24694 23.9119 8.31149L23.6311 8.05534C23.6947 7.96285 23.7762 7.8841 23.8709 7.82379C23.9768 7.75602 24.0931 7.70617 24.2152 7.67625Z" fill="#CD2D31"/>
<path d="M26.4857 9.38934L26.207 7.26434L26.6291 7.20902L26.7418 8.06352L26.9467 8.03484C26.9857 8.02958 27.0241 8.02066 27.0615 8.0082C27.096 7.99658 27.128 7.9785 27.1557 7.95492C27.1847 7.92816 27.2083 7.89618 27.2254 7.86065C27.2461 7.81411 27.2613 7.76527 27.2705 7.71516L27.3791 7.10041L27.8094 7.04303L27.7008 7.68852C27.6844 7.78557 27.6533 7.87955 27.6086 7.96721C27.5745 8.03652 27.5192 8.09321 27.4508 8.1291C27.5388 8.14454 27.619 8.18932 27.6783 8.25614C27.7422 8.33096 27.7941 8.41531 27.832 8.50614L28.1271 9.16393L27.666 9.22541L27.4098 8.63114C27.3892 8.5832 27.3631 8.53782 27.332 8.4959C27.3058 8.46551 27.2746 8.43986 27.2398 8.42008C27.2065 8.40384 27.1702 8.39476 27.1332 8.39344C27.0931 8.38843 27.0524 8.38843 27.0123 8.39344L26.7807 8.42418L26.8975 9.32172L26.4857 9.38934Z" fill="#CD2D31"/>
<path d="M29.2746 8.60452C29.2312 8.7644 29.1496 8.91136 29.0369 9.0328C28.9392 9.12148 28.8123 9.17108 28.6803 9.17214H28.4529L28.4385 8.83608H28.6312C28.6759 8.83623 28.7198 8.82419 28.7582 8.80124C28.7914 8.77671 28.8169 8.74333 28.832 8.70493C28.8341 8.69497 28.8376 8.68532 28.8422 8.67624L28.8545 8.65165L28.1025 7.0246L28.5471 7.00411L28.832 7.69058C28.873 7.7828 28.9078 7.87091 28.9385 7.95288L29.0184 8.1578H29.0307L29.1783 7.6537C29.1783 7.64141 29.1906 7.61681 29.2008 7.57993C29.2111 7.54304 29.2275 7.50001 29.2418 7.45083L29.2869 7.29919C29.3033 7.24796 29.3197 7.19878 29.334 7.15165L29.3709 7.0328C29.3783 7.01286 29.3838 6.99228 29.3873 6.97132L29.8115 6.95288L29.2746 8.60452Z" fill="#CD2D31"/>
<path d="M30.8566 8.38527L30.4016 9.10863L29.918 9.09018L30.6434 8.01846L30.043 6.94879L30.5266 6.96928L30.8832 7.6701L31.293 6.99797L31.7705 7.01641L31.0963 8.041L31.7316 9.16395L31.25 9.14551L30.8566 8.38527Z" fill="#CD2D31"/>
<path d="M33.0922 9.33194L33.207 8.44465L32.4221 8.34219L32.3074 9.23154L31.8852 9.17621L32.1598 7.05121L32.582 7.10449L32.4713 7.96309L33.2561 8.0635L33.3668 7.20695L33.7951 7.26227L33.5205 9.38727L33.0922 9.33194Z" fill="#CD2D31"/>
<path d="M35.3934 8.36475L35.1148 8.63729L34.9939 8.75819L34.834 8.91188C34.7766 8.96516 34.7193 9.02254 34.6578 9.08196L34.4836 9.25204L34.3258 9.40573L34.2029 9.52663L33.8258 9.44057L34.3033 7.3504L34.7131 7.44467L34.3996 8.81966H34.4119L35.0041 8.2377L35.6066 7.64754L35.9836 7.7336L35.5062 9.82377L35.0963 9.7295L35.4057 8.3668L35.3934 8.36475Z" fill="#CD2D31"/>
<path d="M25.2602 20.3873L24.7992 20.6168L24.8463 20.9323L24.5656 21.0676L24.3873 19.5184L24.6557 19.3873L25.7602 20.4877L25.4734 20.627L25.2602 20.3873ZM24.7623 20.3545L25.082 20.2008L24.9488 20.0574L24.6742 19.7582L24.7398 20.1516L24.7623 20.3545Z" fill="#CD2D31"/>
<path d="M26.0717 19.0963L26.4693 20.2356L26.1947 20.3319L25.7951 19.1926L25.4262 19.3217L25.3402 19.0737L26.3504 18.7192L26.4385 18.9672L26.0717 19.0963Z" fill="#CD2D31"/>
<path d="M28.6025 19.2684C28.6192 19.3392 28.6192 19.4129 28.6025 19.4836C28.5831 19.546 28.5502 19.6034 28.5062 19.6516C28.4608 19.7029 28.4058 19.7446 28.3443 19.7746C28.2794 19.8059 28.2104 19.828 28.1394 19.8402C28.0666 19.8503 27.9928 19.8503 27.9201 19.8402C27.8528 19.8312 27.7875 19.8104 27.7275 19.7787C27.6698 19.7463 27.6201 19.7015 27.582 19.6475C27.5397 19.5866 27.513 19.5162 27.5041 19.4426L27.4139 18.9098C27.4022 18.8415 27.4064 18.7713 27.4262 18.7049C27.4461 18.6418 27.4805 18.5843 27.5266 18.5369C27.5728 18.4867 27.6286 18.4463 27.6906 18.418C27.7554 18.3865 27.8244 18.3645 27.8955 18.3524C27.9635 18.343 28.0324 18.343 28.1004 18.3524C28.1718 18.3605 28.2412 18.3814 28.3053 18.4139C28.3636 18.4454 28.414 18.4895 28.4529 18.543C28.496 18.6039 28.5241 18.6741 28.5348 18.7479L28.6025 19.2684ZM28.2357 18.8443C28.2299 18.802 28.2153 18.7615 28.1926 18.7254C28.1732 18.6965 28.1472 18.6727 28.1168 18.6557C28.0886 18.6388 28.0572 18.6276 28.0246 18.6229C27.9913 18.6178 27.9575 18.6178 27.9242 18.6229C27.8909 18.6288 27.8585 18.6392 27.8279 18.6537C27.7975 18.6688 27.7703 18.6896 27.748 18.7152C27.7263 18.7417 27.7102 18.7724 27.7008 18.8053C27.6915 18.8465 27.6915 18.8892 27.7008 18.9303L27.7705 19.3545C27.7767 19.3969 27.792 19.4375 27.8156 19.4734C27.8343 19.5027 27.8595 19.5272 27.8894 19.5451C27.9183 19.5617 27.9504 19.5721 27.9836 19.5758C28.0169 19.5809 28.0508 19.5809 28.084 19.5758C28.1175 19.5716 28.15 19.5619 28.1803 19.5471C28.2112 19.5328 28.2384 19.5117 28.2601 19.4855C28.2817 19.4593 28.2972 19.4285 28.3053 19.3955C28.3147 19.3536 28.3147 19.3103 28.3053 19.2684L28.2357 18.8443Z" fill="#CD2D31"/>
<path d="M30.0082 19.1824C30.0117 19.2524 29.9998 19.3223 29.9734 19.3873C29.9481 19.4459 29.9095 19.4978 29.8607 19.5389C29.8129 19.5815 29.7572 19.6142 29.6967 19.6352C29.6343 19.6584 29.5686 19.6715 29.5021 19.6742L28.9488 19.6967L28.8873 18.2274L29.4447 18.2029C29.5138 18.1993 29.5829 18.207 29.6496 18.2254C29.711 18.2406 29.7688 18.2678 29.8197 18.3053C29.8737 18.3459 29.9176 18.3985 29.9478 18.459C29.978 18.5194 29.9938 18.5861 29.9939 18.6537L30.0082 19.1824ZM29.6926 18.7233C29.6919 18.6812 29.6814 18.6398 29.6619 18.6024C29.6464 18.5712 29.624 18.5438 29.5963 18.5225C29.5703 18.5022 29.5403 18.4875 29.5082 18.4795C29.4767 18.472 29.4443 18.4686 29.4119 18.4693L29.1906 18.4795L29.2295 19.4283H29.4508C29.4829 19.4258 29.5145 19.4196 29.5451 19.4098C29.5762 19.3995 29.6049 19.3828 29.6291 19.3606C29.6552 19.3372 29.6761 19.3086 29.6906 19.2766C29.7057 19.2361 29.712 19.1928 29.709 19.1496L29.6926 18.7233Z" fill="#CD2D31"/>
<path d="M30.3955 18.2029L31.4057 18.2808L31.3873 18.541L30.668 18.4877L30.6414 18.8238L31.2561 18.8709L31.2377 19.1332L30.6229 19.0861L30.5984 19.4303L31.3176 19.4857L31.2971 19.748L30.2869 19.6701L30.3955 18.2029Z" fill="#CD2D31"/>
<path d="M32.6721 19.5697C32.662 19.6342 32.6351 19.695 32.5943 19.7459C32.5569 19.7943 32.5084 19.833 32.4529 19.8586C32.3925 19.8846 32.328 19.8999 32.2623 19.9037C32.1875 19.909 32.1124 19.9041 32.0389 19.8894C31.9386 19.8702 31.8419 19.8356 31.7521 19.7869C31.6589 19.735 31.5768 19.6654 31.5103 19.582L31.7152 19.4037C31.7656 19.4618 31.8243 19.5122 31.8894 19.5533C31.9488 19.5912 32.0148 19.6176 32.084 19.6312C32.1241 19.6368 32.1648 19.6368 32.2049 19.6312C32.2342 19.6297 32.2629 19.6221 32.2889 19.6086C32.3102 19.5974 32.3285 19.5813 32.3422 19.5615C32.3556 19.5448 32.3647 19.5251 32.3689 19.5041C32.3774 19.4761 32.3774 19.4461 32.3689 19.418C32.3537 19.3924 32.3335 19.3701 32.3094 19.3525C32.2784 19.3292 32.2455 19.3087 32.2111 19.291L32.0799 19.2254C32.0281 19.2018 31.9781 19.1744 31.9303 19.1435C31.8852 19.1147 31.8444 19.0795 31.8094 19.039C31.7771 18.9999 31.7534 18.9546 31.7398 18.9058C31.7253 18.8493 31.7253 18.7901 31.7398 18.7336C31.7511 18.6744 31.7741 18.618 31.8074 18.5676C31.8407 18.5194 31.8841 18.4789 31.9344 18.4488C31.9876 18.4183 32.046 18.3982 32.1066 18.3894C32.1744 18.3775 32.2437 18.3775 32.3115 18.3894C32.4006 18.4065 32.4878 18.4326 32.5717 18.4672C32.6589 18.5045 32.7382 18.5581 32.8053 18.625L32.6353 18.8299C32.5831 18.7818 32.5245 18.7411 32.4611 18.709C32.4058 18.6823 32.3472 18.663 32.2869 18.6517C32.259 18.6476 32.2307 18.6476 32.2029 18.6517C32.1755 18.6527 32.1485 18.6583 32.123 18.6681C32.0988 18.6765 32.0771 18.6906 32.0594 18.709C32.0418 18.7303 32.0298 18.7557 32.0246 18.7828C32.0162 18.8081 32.0162 18.8354 32.0246 18.8607C32.0373 18.8862 32.0555 18.9086 32.0779 18.9262C32.1074 18.9484 32.1389 18.9676 32.1721 18.9836L32.3012 19.0451C32.4229 19.09 32.5308 19.1655 32.6148 19.2644C32.6466 19.3077 32.6683 19.3576 32.6782 19.4105C32.6882 19.4633 32.6861 19.5177 32.6721 19.5697Z" fill="#CD2D31"/>
<path d="M33.9631 19.9713C33.9443 20.0344 33.9106 20.092 33.8648 20.1393C33.8211 20.1823 33.7677 20.214 33.709 20.2315C33.6432 20.2541 33.5734 20.2625 33.5041 20.2561C33.4295 20.2512 33.3558 20.2367 33.2848 20.2131C33.1874 20.1827 33.0955 20.137 33.0123 20.0779C32.9297 20.0138 32.8602 19.9345 32.8074 19.8443L33.0287 19.6906C33.0713 19.7551 33.1239 19.8125 33.1844 19.8606C33.2383 19.9054 33.3002 19.9394 33.3668 19.9611C33.405 19.9751 33.445 19.9834 33.4857 19.9856C33.5156 19.9881 33.5457 19.9839 33.5738 19.9734C33.5954 19.9645 33.6149 19.9512 33.6311 19.9344C33.6466 19.919 33.6578 19.9 33.6639 19.8791C33.6732 19.8511 33.6732 19.821 33.6639 19.793C33.6519 19.7653 33.6345 19.7402 33.6127 19.7193C33.5842 19.6935 33.5541 19.6695 33.5225 19.6475L33.4016 19.5676C33.3529 19.5375 33.3063 19.5039 33.2623 19.4672C33.2205 19.4345 33.1845 19.395 33.1557 19.3504C33.1272 19.3079 33.1084 19.2596 33.1004 19.209C33.0928 19.1517 33.0992 19.0933 33.1188 19.0389C33.1369 18.9808 33.167 18.9271 33.207 18.8811C33.2456 18.8375 33.2931 18.8025 33.3463 18.7787C33.4025 18.7538 33.4631 18.7406 33.5246 18.7398C33.5941 18.7383 33.6634 18.7487 33.7295 18.7705C33.8158 18.7977 33.8989 18.8341 33.9775 18.8791C34.0601 18.9265 34.1331 18.9891 34.1926 19.0635L33.9877 19.2479C33.9036 19.1447 33.791 19.0684 33.6639 19.0287C33.6368 19.0198 33.6085 19.0149 33.5799 19.0143C33.5534 19.0101 33.5265 19.0101 33.5 19.0143C33.4746 19.0191 33.4511 19.0312 33.4324 19.0492C33.4112 19.0666 33.3961 19.0903 33.3893 19.1168C33.3801 19.1419 33.3801 19.1695 33.3893 19.1947C33.3985 19.2218 33.414 19.2464 33.4344 19.2664C33.4611 19.292 33.4899 19.3153 33.5205 19.3361L33.6414 19.4098C33.7568 19.4693 33.8549 19.5575 33.9262 19.666C33.9545 19.711 33.9725 19.7617 33.9788 19.8145C33.9852 19.8673 33.9799 19.9208 33.9631 19.9713Z" fill="#CD2D31"/>
<path d="M34.8996 20.5246L34.4344 20.3074L34.2193 20.5431L33.9365 20.4099L35.0266 19.2951L35.2971 19.4222L35.1414 20.9713L34.8525 20.8381L34.8996 20.5246ZM34.6107 20.1148L34.9303 20.2644L34.959 20.0595L35.0184 19.6496L34.7541 19.9467L34.6107 20.1148Z" fill="#CD2D31"/>
<path d="M16.4508 37.6455L17.3258 39.0246L16.9693 39.2521L16.3545 38.2705L15.8955 38.5615L16.4283 39.4017L16.0717 39.6271L15.5389 38.7889L15.0676 39.0861L15.6824 40.0676L15.3258 40.289L14.4508 38.9098L16.4508 37.6455Z" fill="#407A53"/>
<path d="M17.9078 40.6639C17.9107 40.5726 17.894 40.4818 17.8586 40.3975C17.8246 40.3239 17.7812 40.2551 17.7295 40.1926C17.6956 40.1513 17.6564 40.1148 17.6127 40.084C17.5683 40.0535 17.5181 40.0326 17.4652 40.0225C17.4105 40.0103 17.3538 40.0103 17.2992 40.0225C17.2327 40.0398 17.171 40.0721 17.1189 40.1168L16.582 40.5553C16.5282 40.5968 16.4847 40.6501 16.4549 40.7111C16.4308 40.7624 16.4183 40.8183 16.418 40.875C16.4182 40.9282 16.428 40.9809 16.4467 41.0307C16.4663 41.0807 16.494 41.1271 16.5287 41.168C16.5805 41.231 16.6404 41.2868 16.707 41.334C16.7854 41.3862 16.873 41.4231 16.9652 41.4426L16.8238 41.8524C16.704 41.8274 16.59 41.7802 16.4877 41.7131C16.3744 41.6393 16.2734 41.548 16.1885 41.4426C16.1173 41.356 16.0593 41.2593 16.0164 41.1557C15.9742 41.0563 15.9499 40.9501 15.9447 40.8422C15.9398 40.7364 15.958 40.6309 15.998 40.5328C16.0422 40.4255 16.1126 40.3311 16.2029 40.2582L16.8914 39.6988C16.9789 39.6235 17.0839 39.5714 17.1967 39.5471C17.3001 39.5256 17.4068 39.5256 17.5102 39.5471C17.616 39.5718 17.7161 39.6163 17.8053 39.6783C17.8981 39.7407 17.981 39.8166 18.0512 39.9037C18.1355 40.0074 18.2045 40.1226 18.2561 40.2459C18.3077 40.3604 18.3322 40.4852 18.3279 40.6107L17.9078 40.6639Z" fill="#407A53"/>
<path d="M18.8504 41.4201L18.418 41.875C18.2948 42.0056 18.1626 42.1274 18.0225 42.2398C17.9099 42.3322 17.7824 42.405 17.6455 42.4549C17.5257 42.4993 17.3962 42.5107 17.2705 42.4877C17.1265 42.4589 16.9912 42.3972 16.875 42.3074L17.0676 41.957C17.1472 41.9984 17.2343 42.0235 17.3238 42.0307C17.4039 42.0344 17.4838 42.0197 17.5574 41.9877C17.6447 41.9474 17.7255 41.8942 17.7971 41.8299C17.8791 41.7602 17.9693 41.6701 18.0717 41.5656L18.8074 40.793L19.9365 41.8688L18.2971 43.5861L17.9652 43.2561L19.3074 41.8463L18.8504 41.4201Z" fill="#407A53"/>
<path d="M20.8443 43.5676L20.4344 43.7254L20.2602 43.7951L20.0328 43.8852L19.7807 43.9836L19.5287 44.082L19.3012 44.1701L19.125 44.2398L18.7848 43.9918L20.168 42.0676L20.5492 42.3422L19.6414 43.6086L20.4939 43.2685L21.3627 42.9262L21.7111 43.1762L20.3279 45.1025L19.9447 44.8258L20.8463 43.5717L20.8443 43.5676Z" fill="#407A53"/>
<path d="M22.7049 43.7418L24.1844 44.4344L24.0041 44.8176L22.9508 44.3258L22.7213 44.8176L23.6209 45.2398L23.4406 45.6209L22.541 45.2111L22.3053 45.7152L23.3566 46.209L23.1783 46.5902L21.6988 45.8976L22.7049 43.7418Z" fill="#407A53"/>
<path d="M25.5471 45.5021C25.502 45.4207 25.4389 45.3506 25.3627 45.2971C25.2937 45.2501 25.2185 45.2129 25.1393 45.1865C25.0886 45.1687 25.0353 45.159 24.9816 45.1578C24.9264 45.154 24.8711 45.1629 24.8199 45.1839C24.7688 45.2048 24.7231 45.2373 24.6865 45.2787C24.6398 45.3297 24.6055 45.3907 24.5861 45.457L24.3811 46.1127C24.3571 46.1782 24.3486 46.2483 24.3566 46.3176C24.364 46.3735 24.3828 46.4272 24.4119 46.4754C24.4417 46.5199 24.4792 46.5587 24.5225 46.5902C24.5657 46.6213 24.6134 46.6455 24.6639 46.6619C24.7417 46.6889 24.8234 46.7034 24.9057 46.7049C24.9995 46.708 25.0929 46.6919 25.1803 46.6578L25.2766 47.0676C25.163 47.1112 25.0418 47.1321 24.9201 47.1291C24.7848 47.1295 24.6505 47.1073 24.5225 47.0635C24.4162 47.029 24.3155 46.9793 24.2234 46.916C24.1346 46.8536 24.0571 46.7767 23.9938 46.6885C23.9323 46.6023 23.8904 46.5037 23.8709 46.3996C23.8511 46.2841 23.8617 46.1655 23.9016 46.0553L24.1783 45.2131C24.2125 45.1028 24.2738 45.0027 24.3566 44.9221C24.4329 44.8494 24.5236 44.7936 24.6229 44.7582C24.7259 44.7237 24.8341 44.7077 24.9426 44.7111C25.0541 44.7148 25.1644 44.7341 25.2705 44.7684C25.3982 44.8105 25.5195 44.8698 25.6311 44.9447C25.7351 45.0152 25.8225 45.1075 25.8873 45.2152L25.5471 45.5021Z" fill="#407A53"/>
<path d="M26.9816 45.6762L26.5902 47.584L26.127 47.4877L26.5205 45.582L25.9057 45.4549L25.9918 45.0451L27.6824 45.3934L27.5984 45.8033L26.9816 45.6762Z" fill="#407A53"/>
<path d="M27.6311 47.7684L27.8361 45.4078L28.3053 45.4467L28.2275 46.3463L28.7725 46.3914C28.8792 46.3996 28.9834 46.4273 29.0799 46.4733C29.1641 46.515 29.2387 46.5736 29.2992 46.6455C29.3585 46.7159 29.4019 46.7984 29.4262 46.8873C29.4539 46.9837 29.4629 47.0846 29.4529 47.1844C29.4456 47.2733 29.4242 47.3605 29.3894 47.4426C29.353 47.5263 29.3008 47.6021 29.2357 47.666C29.1672 47.7327 29.0855 47.7844 28.9959 47.8176C28.8878 47.8568 28.772 47.8701 28.6578 47.8565L27.6311 47.7684ZM28.1353 47.3873L28.623 47.4283C28.6687 47.4349 28.7152 47.4324 28.7599 47.4207C28.8046 47.4091 28.8465 47.3887 28.8832 47.3606C28.915 47.336 28.9413 47.3051 28.9607 47.2698C28.9801 47.2346 28.9921 47.1958 28.9959 47.1557C29.0008 47.1139 28.9965 47.0716 28.9834 47.0316C28.9703 46.9917 28.9487 46.955 28.9201 46.9242C28.8542 46.8581 28.7654 46.8199 28.6721 46.8176L28.1885 46.7746L28.1353 47.3873Z" fill="#407A53"/>
<path d="M31.5758 45.8832L31.7357 47.8238L31.2664 47.8627L31.1045 45.9221L30.4775 45.9754L30.4426 45.5533L32.1639 45.4099L32.1988 45.832L31.5758 45.8832Z" fill="#407A53"/>
<path d="M34.3934 46.6066C34.4192 46.7199 34.4192 46.8375 34.3934 46.9508C34.3661 47.0529 34.3172 47.148 34.25 47.2295C34.1795 47.3137 34.0931 47.3834 33.9959 47.4344C33.8913 47.4914 33.7787 47.5321 33.6619 47.5553C33.5454 47.58 33.426 47.5876 33.3074 47.5779C33.198 47.5698 33.0914 47.5398 32.9938 47.4898C32.8992 47.4401 32.8166 47.3701 32.752 47.2848C32.6819 47.1918 32.6342 47.0838 32.6127 46.9693L32.4365 46.1168C32.4076 46.0053 32.4076 45.8882 32.4365 45.7766C32.466 45.6742 32.517 45.5792 32.5861 45.498C32.6586 45.415 32.7453 45.3456 32.8422 45.293C32.9439 45.2391 33.053 45.2004 33.166 45.1783C33.2783 45.1537 33.3939 45.1475 33.5082 45.1598C33.6178 45.1688 33.7248 45.1979 33.8238 45.2459C33.9211 45.2942 34.006 45.3643 34.0717 45.4508C34.1444 45.5421 34.1936 45.6497 34.2152 45.7643L34.3934 46.6066ZM33.7787 45.9447C33.766 45.8778 33.7395 45.8142 33.7008 45.7582C33.6679 45.713 33.6252 45.6759 33.5758 45.6496C33.5289 45.6238 33.4774 45.6078 33.4242 45.6025C33.37 45.5978 33.3154 45.6012 33.2623 45.6127C33.2091 45.6228 33.1579 45.6415 33.1106 45.668C33.0633 45.6938 33.0215 45.7286 32.9877 45.7705C32.953 45.8144 32.9285 45.8655 32.916 45.9201C32.9004 45.9875 32.9004 46.0576 32.916 46.125L33.0553 46.8012C33.0684 46.8687 33.0949 46.9328 33.1332 46.9898C33.1671 47.0346 33.2096 47.0722 33.2582 47.1004C33.3059 47.1252 33.3582 47.1398 33.4119 47.1435C33.4661 47.1472 33.5205 47.1438 33.5738 47.1332C33.6267 47.1222 33.6778 47.1036 33.7254 47.0779C33.7733 47.0538 33.8152 47.0196 33.8484 46.9775C33.8824 46.9327 33.9062 46.8809 33.918 46.8258C33.9336 46.7584 33.9336 46.6883 33.918 46.6209L33.7787 45.9447Z" fill="#407A53"/>
<path d="M36.6291 44.7008C36.5426 44.6726 36.4513 44.6621 36.3607 44.6701C36.2778 44.6794 36.1966 44.6994 36.1188 44.7295C36.0687 44.75 36.0218 44.7776 35.9795 44.8115C35.9369 44.8437 35.9019 44.885 35.877 44.9324C35.8505 44.9824 35.8358 45.0377 35.834 45.0943C35.8302 45.1645 35.8429 45.2347 35.8709 45.2992L36.1311 45.9406C36.1542 46.0045 36.1922 46.0621 36.2418 46.1086C36.2828 46.148 36.3327 46.1768 36.3873 46.1926C36.4388 46.2093 36.4932 46.2155 36.5471 46.2111C36.6 46.2071 36.6519 46.1946 36.7008 46.1742C36.7742 46.1423 36.8431 46.101 36.9057 46.0512C36.9781 45.9954 37.0387 45.9257 37.084 45.8463L37.4283 46.1004C37.3699 46.2075 37.2913 46.3021 37.1967 46.3791C37.0933 46.466 36.9763 46.5352 36.8504 46.584C36.7472 46.6269 36.638 46.6539 36.5266 46.6639C36.4188 46.6745 36.3099 46.6662 36.2049 46.6393C36.1025 46.6124 36.0068 46.5642 35.9242 46.498C35.8334 46.423 35.763 46.3265 35.7193 46.2172L35.3873 45.3975C35.3405 45.2921 35.3222 45.1762 35.334 45.0615C35.3452 44.9566 35.3788 44.8552 35.4324 44.7643C35.4848 44.6715 35.5543 44.5895 35.6373 44.5225C35.7248 44.4526 35.8221 44.3959 35.9262 44.3545C36.0495 44.3022 36.1802 44.269 36.3135 44.2561C36.4385 44.2404 36.5654 44.2538 36.6844 44.2951L36.6291 44.7008Z" fill="#407A53"/>
<path d="M36.8176 43.9877L38.2521 43.1988L38.457 43.5676L37.4324 44.1312L37.6947 44.6066L38.5635 44.125L38.7684 44.4959L37.8996 44.9775L38.168 45.4652L39.1926 44.9017L39.3975 45.2726L37.9631 46.0615L36.8176 43.9877Z" fill="#407A53"/>
<path d="M40.0799 42.8975L40.1066 43.3258C40.1066 43.377 40.1066 43.4406 40.1189 43.5143C40.1311 43.5881 40.1189 43.6701 40.1352 43.7582C40.1516 43.8463 40.1455 43.9365 40.1496 44.0287L40.168 44.2992C40.168 44.3852 40.1783 44.4672 40.1824 44.541C40.1865 44.6148 40.1824 44.6803 40.1947 44.7316L39.8525 44.9857L38.4447 43.0779L38.8238 42.7992L39.748 44.0512H39.7602L39.6967 43.1352L39.6373 42.2049L39.9836 41.9508L41.3893 43.8566L41.0102 44.1373L40.0963 42.8873L40.0799 42.8975ZM39.1906 42.4201C39.1244 42.4726 39.0463 42.5078 38.9631 42.5225C38.8973 42.5323 38.8303 42.5289 38.7659 42.5123C38.7015 42.4958 38.641 42.4665 38.5881 42.4262C38.5422 42.3928 38.4997 42.3551 38.4611 42.3135L38.7152 42.125C38.7306 42.1451 38.7493 42.1624 38.7705 42.1762C38.7936 42.1926 38.8192 42.205 38.8463 42.2131C38.8748 42.2183 38.9039 42.2183 38.9324 42.2131C38.9629 42.2091 38.9919 42.197 39.0164 42.1783C39.0441 42.1593 39.0661 42.1331 39.0799 42.1025C39.0919 42.0761 39.0982 42.0474 39.0984 42.0184C39.0984 41.9907 39.0943 41.963 39.0861 41.9365C39.0794 41.9121 39.0683 41.8892 39.0533 41.8688L39.3053 41.6824C39.3321 41.7323 39.3548 41.7844 39.373 41.8381C39.3954 41.8983 39.4059 41.9624 39.4037 42.0266C39.4016 42.0976 39.3848 42.1674 39.3545 42.2316C39.3171 42.3075 39.2606 42.3725 39.1906 42.4201Z" fill="#407A53"/>
<path d="M40.4631 41.4959L40.9508 41.998C40.9866 42.0429 41.0317 42.0795 41.083 42.1053C41.1343 42.1311 41.1906 42.1456 41.2479 42.1476C41.3677 42.134 41.478 42.0763 41.5574 41.9857C41.6137 41.9297 41.6619 41.8663 41.7008 41.7971C41.738 41.7319 41.7689 41.6633 41.793 41.5922L41.1025 40.8771L41.4406 40.5492L43.0799 42.25L42.7377 42.5799L42.0574 41.8812C42.0287 41.9695 41.9895 42.0542 41.9406 42.1332C41.8877 42.215 41.8259 42.2906 41.7561 42.3586C41.6775 42.4358 41.5877 42.5008 41.4898 42.5512C41.4026 42.5968 41.3071 42.624 41.209 42.6312C41.1112 42.6363 41.0135 42.6181 40.9242 42.5779C40.8178 42.5302 40.7228 42.4603 40.6455 42.373L40.1189 41.8299L40.4631 41.4959Z" fill="#407A53"/>
<path d="M43.9057 40.4938L43.3914 41.1414L43.6783 41.5656L43.375 41.9631L42.0348 39.8381L42.334 39.4611L44.7049 40.2807L44.3852 40.6906L43.9057 40.4938ZM43.1701 40.7992L43.5246 40.3525L43.2295 40.2377L42.6147 39.9938V40.0041L42.9836 40.5287L43.1701 40.7992Z" fill="#407A53"/>
<path d="M44.1106 37.8074C44.0243 37.8359 43.9448 37.8819 43.877 37.9426C43.8158 37.9998 43.7621 38.0645 43.7172 38.1352C43.6903 38.1818 43.669 38.2313 43.6537 38.2828C43.6424 38.3355 43.6424 38.3899 43.6537 38.4426C43.6632 38.4982 43.6842 38.5512 43.7152 38.5984C43.7543 38.6546 43.8054 38.7015 43.8647 38.7357L44.4549 39.0943C44.5125 39.1313 44.5776 39.1551 44.6455 39.1639C44.7016 39.1686 44.7581 39.1616 44.8115 39.1434C44.8629 39.1256 44.9103 39.0978 44.9508 39.0615C44.9902 39.0265 45.0241 38.9857 45.0512 38.9406C45.0944 38.8707 45.1269 38.7947 45.1475 38.7152C45.171 38.6249 45.1766 38.5309 45.1639 38.4385H45.5922C45.6085 38.5596 45.6015 38.6827 45.5717 38.8012C45.5419 38.9333 45.49 39.0594 45.418 39.1742C45.3628 39.2693 45.2937 39.3556 45.2131 39.4303C45.1329 39.5036 45.0407 39.5625 44.9406 39.6045C44.8423 39.6438 44.7369 39.662 44.6311 39.6578C44.5146 39.6507 44.4017 39.6141 44.3033 39.5512L43.5451 39.0902C43.445 39.0329 43.361 38.9511 43.3012 38.8525C43.2472 38.7616 43.213 38.6603 43.2008 38.5553C43.1904 38.4474 43.1994 38.3384 43.2275 38.2336C43.2559 38.1256 43.2993 38.0221 43.3566 37.9262C43.4258 37.8113 43.5114 37.7071 43.6106 37.6168C43.7021 37.5308 43.8112 37.4657 43.9303 37.4262L44.1106 37.8074Z" fill="#407A53"/>
<path d="M30.0021 10.707C34.3095 10.7128 38.4915 12.1575 41.884 14.8116C45.2766 17.4657 47.6852 21.1771 48.7275 25.3565H49.1496C48.1089 21.0625 45.6551 17.2428 42.1824 14.5111C38.7096 11.7794 34.4194 10.2943 30.001 10.2943C25.5826 10.2943 21.2925 11.7794 17.8197 14.5111C14.3469 17.2428 11.8931 21.0625 10.8525 25.3565H11.2746C12.3173 21.177 14.7263 17.4655 18.1192 14.8114C21.5121 12.1573 25.6944 10.7127 30.0021 10.707Z" fill="#CD2D31"/>
<path d="M30.0021 49.293C25.694 49.2875 21.5113 47.8428 18.1183 45.1882C14.7253 42.5337 12.3165 38.8215 11.2746 34.6414H10.8525C11.8931 38.9355 14.3469 42.7552 17.8197 45.4868C21.2925 48.2185 25.5826 49.7036 30.001 49.7036C34.4194 49.7036 38.7096 48.2185 42.1824 45.4868C45.6551 42.7552 48.1089 38.9355 49.1496 34.6414H48.7275C47.6856 38.8212 45.2771 42.5331 41.8846 45.1876C38.492 47.8421 34.3097 49.2871 30.0021 49.293Z" fill="#CD2D31"/>
<path d="M30.0021 43.2582C27.3015 43.2551 24.6661 42.4286 22.4474 40.889C20.2287 39.3495 18.5321 37.17 17.584 34.6414H17.1455C18.0992 37.2856 19.8451 39.5713 22.1453 41.1869C24.4455 42.8026 27.1881 43.6695 29.999 43.6695C32.8099 43.6695 35.5524 42.8026 37.8526 41.1869C40.1528 39.5713 41.8988 37.2856 42.8525 34.6414H42.416C41.4684 37.1695 39.7725 39.3487 37.5545 40.8882C35.3366 42.4278 32.702 43.2545 30.0021 43.2582Z" fill="#CD2D31"/>
<path d="M30.002 16.7418C32.701 16.7446 35.3351 17.5697 37.5532 19.1073C39.7714 20.6449 41.4684 22.822 42.418 25.3484H42.8545C41.8999 22.7051 40.1536 20.4204 37.8535 18.8056C35.5534 17.1907 32.8114 16.3243 30.001 16.3243C27.1906 16.3243 24.4486 17.1907 22.1485 18.8056C19.8484 20.4204 18.1021 22.7051 17.1475 25.3484H17.584C18.5338 22.8217 20.231 20.6444 22.4496 19.1068C24.6682 17.5691 27.3027 16.7442 30.002 16.7418Z" fill="#CD2D31"/>
<path d="M25.3422 20.3484L24.8791 20.5676L24.9221 20.8832L24.6414 21.0185L24.4754 19.4672L24.7459 19.3381L25.8402 20.4467L25.5533 20.584L25.3422 20.3484ZM24.8443 20.3135L25.1639 20.1599L25.0328 20.0164L24.7603 19.7131L24.8238 20.1066L24.8443 20.3135Z" fill="#CD2D31"/>
<path d="M26.1619 19.0635L26.5512 20.207L26.2746 20.3013L25.8852 19.1578L25.5143 19.2828L25.4303 19.0349L26.4447 18.6885L26.5287 18.9385L26.1619 19.0635Z" fill="#CD2D31"/>
<path d="M28.6967 19.2582C28.7082 19.3266 28.704 19.3966 28.6844 19.4631C28.6655 19.5263 28.6326 19.5845 28.5881 19.6332C28.5427 19.6833 28.4876 19.7237 28.4262 19.7521C28.3616 19.784 28.2925 19.8061 28.2213 19.8176C28.1479 19.8278 28.0734 19.8278 28 19.8176C27.9323 19.8089 27.8669 19.7874 27.8074 19.7541C27.7477 19.7197 27.6968 19.672 27.6584 19.6148C27.6201 19.5577 27.5953 19.4924 27.5861 19.4242L27.502 18.8894C27.4899 18.8216 27.494 18.7519 27.5139 18.686C27.5339 18.6202 27.5691 18.5599 27.6168 18.5103C27.6644 18.4613 27.7207 18.4217 27.7828 18.3934C27.8477 18.3626 27.9167 18.3412 27.9877 18.3299C28.0557 18.3204 28.1246 18.3204 28.1926 18.3299C28.2644 18.3376 28.334 18.3592 28.3975 18.3934C28.4558 18.4249 28.5062 18.469 28.5451 18.5225C28.587 18.5837 28.6137 18.6539 28.6229 18.7275L28.6967 19.2582ZM28.332 18.8299C28.3272 18.7881 28.3124 18.748 28.2889 18.7131C28.2703 18.6838 28.245 18.6592 28.2152 18.6414C28.1873 18.6236 28.1558 18.6124 28.123 18.6086C28.0898 18.6024 28.0557 18.6024 28.0225 18.6086C27.9893 18.6148 27.9569 18.6252 27.9262 18.6394C27.8959 18.6537 27.8688 18.6739 27.8463 18.6988C27.8235 18.7253 27.8073 18.7569 27.7992 18.791C27.7896 18.8321 27.7896 18.8749 27.7992 18.916L27.8648 19.3381C27.8705 19.3804 27.8851 19.4209 27.9078 19.457C27.9264 19.4869 27.9516 19.5121 27.9816 19.5307C28.0107 19.547 28.0427 19.5575 28.0758 19.5615C28.1098 19.5666 28.1443 19.5666 28.1783 19.5615C28.2111 19.5572 28.2429 19.5475 28.2725 19.5328C28.3028 19.5185 28.33 19.4983 28.3525 19.4734C28.3745 19.4463 28.3906 19.4149 28.3996 19.3812C28.4091 19.34 28.4091 19.2973 28.3996 19.2562L28.332 18.8299Z" fill="#CD2D31"/>
<path d="M30.1004 19.1926C30.1047 19.2596 30.0934 19.3266 30.0675 19.3885C30.0415 19.4503 30.0016 19.5053 29.9508 19.5492C29.9015 19.5906 29.8453 19.6232 29.7848 19.6455C29.7187 19.6673 29.6496 19.6791 29.5799 19.6803L29.0246 19.6988L28.9754 18.2295L29.5328 18.2111C29.6019 18.2073 29.6711 18.2149 29.7377 18.2336C29.7992 18.2496 29.857 18.2774 29.9078 18.3156C29.9581 18.3548 29.9993 18.4044 30.0287 18.4611C30.0618 18.5243 30.0794 18.5946 30.0799 18.666L30.1004 19.1926ZM29.7869 18.7295C29.7868 18.6875 29.777 18.6462 29.7582 18.6086C29.7427 18.5773 29.7203 18.55 29.6926 18.5287C29.6671 18.5088 29.6378 18.4942 29.6066 18.4857C29.574 18.4806 29.5408 18.4806 29.5082 18.4857H29.2869L29.3197 19.4365H29.541C29.5724 19.436 29.6035 19.4305 29.6332 19.4201C29.6652 19.4103 29.6946 19.3935 29.7193 19.3709C29.7459 19.348 29.767 19.3192 29.7807 19.2869C29.7968 19.2466 29.8038 19.2032 29.8012 19.1599L29.7869 18.7295Z" fill="#CD2D31"/>
<path d="M30.4938 18.207L31.5041 18.291L31.4816 18.5533L30.7623 18.4939L30.7357 18.8299L31.3504 18.8811L31.3279 19.1434L30.7131 19.0922L30.6844 19.4365L31.4037 19.4959L31.3811 19.7582L30.3709 19.6742L30.4938 18.207Z" fill="#CD2D31"/>
<path d="M32.7623 19.5922C32.7523 19.6547 32.7268 19.7137 32.6881 19.7638C32.6495 19.8139 32.5989 19.8535 32.541 19.8791C32.4799 19.9053 32.4147 19.9206 32.3484 19.9242C32.2734 19.9279 32.1983 19.9217 32.125 19.9057C32.0253 19.8865 31.9292 19.8519 31.8402 19.8033C31.7481 19.7506 31.6668 19.6811 31.6004 19.5983L31.8053 19.4221C31.855 19.4808 31.913 19.5319 31.9775 19.5737C32.0394 19.6144 32.1092 19.6416 32.1824 19.6537C32.2218 19.6593 32.2618 19.6593 32.3012 19.6537C32.3309 19.6522 32.3601 19.6452 32.3873 19.6332C32.4086 19.622 32.4269 19.6058 32.4406 19.586C32.4543 19.5688 32.4635 19.5483 32.4672 19.5266C32.4766 19.4994 32.4766 19.4698 32.4672 19.4426C32.4532 19.4161 32.4337 19.3931 32.4098 19.375C32.3788 19.3517 32.3459 19.3312 32.3115 19.3135L32.1824 19.2479C32.1303 19.2241 32.0803 19.196 32.0328 19.1639C31.9876 19.1352 31.9469 19.0999 31.9119 19.0594C31.8791 19.0199 31.8554 18.9737 31.8422 18.9242C31.8288 18.8683 31.8288 18.81 31.8422 18.7541C31.8535 18.6945 31.8773 18.6379 31.9119 18.5881C31.9459 18.5404 31.9891 18.5 32.0389 18.4692C32.0918 18.4386 32.1504 18.4191 32.2111 18.4119C32.2789 18.4004 32.3482 18.4004 32.416 18.4119C32.5045 18.4287 32.5911 18.4548 32.6742 18.4897C32.7615 18.5286 32.8407 18.5835 32.9078 18.6516L32.7357 18.8565C32.6844 18.8067 32.6256 18.7652 32.5615 18.7336C32.5059 18.7071 32.4475 18.6872 32.3873 18.6742C32.3594 18.67 32.3311 18.67 32.3033 18.6742C32.2759 18.6752 32.2489 18.6808 32.2234 18.6905C32.1987 18.6994 32.1768 18.7144 32.1595 18.7341C32.1423 18.7538 32.1304 18.7776 32.125 18.8033C32.1167 18.8292 32.1167 18.8572 32.125 18.8832C32.1372 18.9084 32.1555 18.9302 32.1783 18.9467C32.2071 18.9704 32.2387 18.9904 32.2725 19.0061C32.3094 19.0266 32.3525 19.0471 32.3996 19.0676C32.5206 19.1145 32.6278 19.1914 32.7111 19.291C32.7417 19.3341 32.7621 19.3836 32.771 19.4357C32.7799 19.4879 32.7769 19.5414 32.7623 19.5922Z" fill="#CD2D31"/>
<path d="M34.0492 20.002C34.0299 20.0648 33.9954 20.1218 33.9488 20.168C33.9048 20.2105 33.8515 20.2421 33.793 20.2602C33.7268 20.2806 33.6572 20.2883 33.5881 20.2828C33.5135 20.278 33.4398 20.2635 33.3688 20.2397C33.2717 20.2078 33.1798 20.1615 33.0963 20.1024C33.0133 20.0371 32.9437 19.9564 32.8914 19.8647L33.1147 19.7151C33.1572 19.7792 33.209 19.8365 33.2684 19.8852C33.3223 19.9305 33.3841 19.9652 33.4508 19.9877C33.4893 20.0007 33.5292 20.009 33.5697 20.0123C33.5989 20.015 33.6284 20.0108 33.6557 20C33.679 19.9932 33.6997 19.9797 33.7152 19.961C33.7306 19.9457 33.7419 19.9266 33.7479 19.9057C33.7582 19.8786 33.7582 19.8488 33.7479 19.8217C33.7375 19.7936 33.7207 19.7684 33.6988 19.7479C33.6703 19.7214 33.6402 19.6968 33.6086 19.6741L33.4877 19.5942C33.4392 19.5629 33.3927 19.5287 33.3484 19.4918C33.3077 19.4585 33.2725 19.4191 33.2438 19.375C33.2156 19.3317 33.1974 19.2827 33.1906 19.2315C33.1831 19.1742 33.1895 19.1159 33.209 19.0614C33.2283 19.004 33.259 18.951 33.2992 18.9057C33.338 18.8628 33.3855 18.8285 33.4385 18.8053C33.4947 18.7804 33.5554 18.7672 33.6168 18.7664C33.6866 18.7666 33.7558 18.7784 33.8217 18.8012C33.9075 18.828 33.99 18.8645 34.0676 18.9098C34.1471 18.9584 34.2167 19.0217 34.2725 19.0963L34.0779 19.2787C34.0316 19.2249 33.9786 19.1774 33.9201 19.1373C33.8686 19.1033 33.8128 19.0764 33.7541 19.0573C33.7274 19.0489 33.7 19.0434 33.6721 19.0409C33.645 19.0367 33.6173 19.0367 33.5902 19.0409C33.5655 19.0468 33.5424 19.058 33.5225 19.0737C33.5029 19.0924 33.4881 19.1156 33.4795 19.1414C33.4703 19.1672 33.4703 19.1954 33.4795 19.2213C33.4879 19.2488 33.5035 19.2735 33.5246 19.293C33.5507 19.3192 33.5796 19.3425 33.6107 19.3627C33.6455 19.3873 33.6844 19.4119 33.7295 19.4385C33.8441 19.4992 33.9415 19.588 34.0123 19.6967C34.0411 19.7415 34.0594 19.7922 34.0658 19.8451C34.0722 19.898 34.0665 19.9516 34.0492 20.002Z" fill="#CD2D31"/>
<path d="M34.9734 20.5656L34.5102 20.3443L34.293 20.5758L34.0123 20.4426L35.1107 19.3361L35.3811 19.4652L35.2111 21.0143L34.9242 20.877L34.9734 20.5656ZM34.6865 20.1557L35.0082 20.3094L35.0369 20.1147L35.0984 19.7049L34.8299 20.002L34.6865 20.1557Z" fill="#CD2D31"/>
<path d="M46.1844 28.791L46.4508 21.3074C46.4508 21.3074 46.3279 20.8976 45.7869 21.291C44.4467 22.2808 44.3832 24.9795 45.0758 29.2828C45.0758 29.2828 44.9754 35.3156 44.7439 36.7131C44.7439 36.7131 45.5512 37.2316 46.2643 36.7131C46.2643 36.7131 45.7459 30.582 46.0697 29.3361C46.0983 29.2234 46.1844 28.791 46.1844 28.791Z" fill="#407A53"/>
<path d="M13.4857 24.6332L13.8176 21.1496C13.8176 21.1496 13.916 21.0431 13.9611 21.1496L14 24.2582C14 24.2582 14 24.4242 14.1496 24.4242C14.2992 24.4242 14.248 24.3095 14.2418 24.2644C14.2357 24.2193 14.3402 21.1414 14.3402 21.1414C14.3402 21.1414 14.4385 21.0123 14.4836 21.1414L14.582 24.2152C14.582 24.2152 14.5676 24.4037 14.7336 24.4037C14.7336 24.4037 14.832 24.373 14.8074 24.1763C14.7828 23.9795 14.8074 21.1414 14.8074 21.1414C14.8074 21.1414 14.8811 21.0328 14.9488 21.1168L15.1537 24.2193C15.1537 24.2193 15.1537 24.3914 15.2889 24.3914C15.4242 24.3914 15.3955 24.2439 15.4016 24.1701C15.4078 24.0963 15.3504 21.1394 15.3504 21.1394C15.3504 21.1394 15.4242 21.0451 15.4877 21.123L15.8299 23.875C15.8299 23.875 15.9713 25.2562 15.6926 25.8853C15.6009 26.0513 15.4939 26.2084 15.373 26.3545C15.2356 26.4876 15.1262 26.6468 15.0512 26.8227C14.9763 26.9987 14.9372 27.1879 14.9365 27.3791C14.9365 27.6824 15.5512 36.789 15.5512 36.789C15.337 36.9316 15.0853 37.0077 14.8279 37.0077C14.5705 37.0077 14.3188 36.9316 14.1045 36.789C14.1045 36.789 14.7623 28.6127 14.4426 27.4099C14.3721 26.9634 14.156 26.5527 13.8279 26.2418C13.5242 25.7642 13.4027 25.1931 13.4857 24.6332Z" fill="#407A53"/>
<path d="M28.3545 23.8771C25.8955 23.8894 23.7684 24.1066 23.7684 24.1066C23.7684 24.1066 25.8914 24.3238 28.3545 24.3361C28.4154 24.3361 28.4737 24.3119 28.5168 24.2689C28.5598 24.2258 28.584 24.1675 28.584 24.1066C28.584 24.0457 28.5598 23.9873 28.5168 23.9443C28.4737 23.9013 28.4154 23.8771 28.3545 23.8771Z" fill="#CD2D31"/>
<path d="M31.6557 23.8771C31.5949 23.8771 31.5365 23.9013 31.4934 23.9443C31.4504 23.9873 31.4262 24.0457 31.4262 24.1066C31.4262 24.1675 31.4504 24.2258 31.4934 24.2689C31.5365 24.3119 31.5949 24.3361 31.6557 24.3361C34.1147 24.3238 36.2397 24.1066 36.2397 24.1066C36.2397 24.1066 34.1188 23.8955 31.6557 23.8771Z" fill="#CD2D31"/>
<path d="M30.0041 24.4713C30.1818 24.4713 30.3258 24.3273 30.3258 24.1496C30.3258 23.9719 30.1818 23.8279 30.0041 23.8279C29.8264 23.8279 29.6824 23.9719 29.6824 24.1496C29.6824 24.3273 29.8264 24.4713 30.0041 24.4713Z" fill="#CD2D31"/>
<path d="M78.7131 27.2582H76.2029V15.3115L72.4242 27.2582H71.1352L67.3361 15.3115V27.2582H65.3258V13.6107H69.1742L72.043 22.3975L74.8525 13.6107H78.7213L78.7131 27.2582Z" fill="#407A53"/>
<path d="M86.0246 27.2582H83.5656V13.6107H86.0246V27.2582Z" fill="#407A53"/>
<path d="M98.4979 22.5184L100.777 22.7684C100.673 24.0502 100.109 25.2511 99.1885 26.1496C98.2787 27.0335 97.084 27.4747 95.6045 27.4734C94.3586 27.4734 93.347 27.1598 92.5697 26.5328C91.7567 25.8565 91.1373 24.9769 90.7746 23.9836C90.3449 22.8503 90.1315 21.6464 90.1455 20.4344C90.1455 18.3566 90.6387 16.6653 91.625 15.3607C92.6113 14.056 93.9679 13.4051 95.6947 13.4078C97.0471 13.4078 98.1735 13.8244 99.0738 14.6578C99.974 15.4911 100.54 16.6837 100.773 18.2357L98.4979 18.4693C98.0772 16.4091 97.1509 15.3798 95.7193 15.3811C94.7985 15.3811 94.0833 15.8094 93.5738 16.666C93.0642 17.5225 92.8094 18.7637 92.8094 20.3893C92.8094 22.0437 93.0826 23.2917 93.6291 24.1332C94.1755 24.9747 94.8989 25.3962 95.7992 25.3975C96.1503 25.401 96.4979 25.3265 96.8168 25.1794C97.1357 25.0324 97.418 24.8164 97.6434 24.5471C98.1458 23.9846 98.4464 23.2708 98.4979 22.5184Z" fill="#407A53"/>
<path d="M114.686 27.2582H112.227V21.3279H107.025V27.2582H104.566V13.6107H107.025V19.2193H112.227V13.6107H114.686V27.2582Z" fill="#407A53"/>
<path d="M128.402 27.2582H119.535V13.6107H128.311V15.6393H121.994V19.3402H127.072V21.3197H121.994V25.1373H128.402V27.2582Z" fill="#407A53"/>
<path d="M140.762 27.2582H132.361V13.6107H134.953V25.0287H140.762V27.2582Z" fill="#407A53"/>
<path d="M146.873 27.2582H144.414V13.6107H146.873V27.2582Z" fill="#407A53"/>
<path d="M162.023 27.2582H159.633L154.455 18.539L154.066 17.8894C153.986 17.7562 153.861 17.5471 153.695 17.2603V27.2582H151.715V13.6107H154.441L159.213 21.6414C159.254 21.707 159.543 22.1967 160.084 23.1107V13.6025H162.023V27.2582Z" fill="#407A53"/>
<path d="M74.1947 45.002H65.3258V31.3545H74.1127V33.3852H67.7848V37.084H72.8648V39.0594H67.7848V42.8791H74.1947V45.002Z" fill="#407A53"/>
<path d="M88.8668 45.002H86.2336L85.1435 41.752H79.8955L78.8258 45.002H76.7254L81.2561 31.3545H84.2849L88.8668 45.002ZM84.4877 39.7828L82.498 33.6947L80.5102 39.7828H84.4877Z" fill="#407A53"/>
<path d="M96.0041 45.002H93.375V33.4651H89.7356V31.3545H99.6332V33.4651H96.0041V45.002Z" fill="#407A53"/>
<path d="M101.707 41.7233L104.096 41.2131C104.38 42.5656 105.48 43.2418 107.396 43.2418C108.268 43.2418 108.94 43.069 109.41 42.7233C109.625 42.583 109.802 42.3917 109.925 42.1665C110.048 41.9412 110.113 41.689 110.115 41.4324C110.113 41.0663 110.001 40.7092 109.793 40.4078C109.588 40.0922 109.125 39.8443 108.424 39.6639L105.816 38.9836C104.922 38.75 104.262 38.485 103.836 38.1885C103.39 37.8684 103.036 37.4357 102.812 36.9344C102.554 36.3945 102.422 35.8031 102.426 35.2049C102.408 34.6437 102.521 34.0859 102.757 33.5763C102.993 33.0667 103.345 32.6195 103.785 32.2705C104.693 31.5355 105.855 31.1673 107.268 31.166C108.365 31.1465 109.448 31.412 110.412 31.9365C110.842 32.1566 111.221 32.4641 111.525 32.8392C111.829 33.2143 112.052 33.6487 112.178 34.1147L109.838 34.6947C109.475 33.6427 108.632 33.1168 107.309 33.1168C106.543 33.1168 105.958 33.2766 105.555 33.5963C105.363 33.7359 105.207 33.9194 105.1 34.1315C104.993 34.3435 104.939 34.5781 104.941 34.8156C104.941 35.5956 105.574 36.1421 106.84 36.4549L109.16 37.0348C110.566 37.3886 111.509 37.9105 111.99 38.6004C112.471 39.2716 112.728 40.0778 112.723 40.9037C112.723 42.2438 112.219 43.2985 111.209 44.0676C110.199 44.8367 108.891 45.2165 107.285 45.207C106.046 45.2348 104.822 44.9426 103.73 44.3586C103.23 44.0815 102.792 43.7045 102.444 43.2512C102.096 42.7978 101.845 42.2778 101.707 41.7233Z" fill="#407A53"/>
</g>
<defs>
<clipPath id="clip0_21_92">
<rect width="162.023" height="60" fill="white"/>
</clipPath>
</defs>
</svg>
