<svg width="44" height="44" viewBox="0 0 44 44" fill="none" xmlns="http://www.w3.org/2000/svg">
<g clip-path="url(#clip0_21_182)">
<path d="M12.629 13.1249L13.8627 14.1648L13.6253 14.4458L12.7913 13.744L13.5306 14.5585L13.3623 14.7568L12.4486 14.1888L13.2631 14.8756L13.0242 15.1551L11.7889 14.1152L12.1391 13.7004C12.2247 13.75 12.3224 13.8116 12.4396 13.8823L12.7928 14.1017L12.2728 13.5426L12.629 13.1249Z" fill="#407A53"/>
<path d="M13.3698 12.4141L14.6591 13.4149L14.3481 13.7154L14.1317 13.5216L14.0235 13.6253L14.2053 13.8522L13.8927 14.1527L12.9325 12.8378L13.3698 12.4141ZM13.9258 13.3157C13.7845 13.1985 13.6132 13.0482 13.4119 12.8649C13.5952 13.1173 13.7319 13.2992 13.8221 13.4104L13.9258 13.3157Z" fill="#407A53"/>
<path d="M13.6869 12.121L13.9333 11.9272C14.0381 11.8374 14.1519 11.7589 14.273 11.6927C14.3304 11.6652 14.3947 11.6553 14.4578 11.6642C14.5106 11.6736 14.5598 11.6969 14.6006 11.7318C14.6739 11.8043 14.7417 11.8822 14.8034 11.9647L15.1536 12.4156C15.2167 12.4899 15.2721 12.5704 15.3189 12.656C15.3377 12.6979 15.3429 12.7447 15.3339 12.7897C15.3224 12.835 15.3008 12.8771 15.2708 12.913C15.2207 12.9689 15.1648 13.0192 15.104 13.0632L14.6892 13.3923L13.6869 12.121ZM14.1888 12.0774L14.847 12.9099C14.8951 12.8724 14.9161 12.8393 14.9116 12.8123C14.887 12.7499 14.8508 12.6928 14.8049 12.644L14.4157 12.1526C14.388 12.1147 14.3573 12.079 14.324 12.0459C14.3165 12.0399 14.3078 12.0355 14.2985 12.0329C14.2892 12.0303 14.2795 12.0296 14.2699 12.0309C14.2396 12.0398 14.2119 12.0558 14.1888 12.0774Z" fill="#407A53"/>
<path d="M14.6682 11.3622L15.2513 10.976L15.4301 11.2464L15.1957 11.3967L15.3655 11.6522L15.5834 11.5019L15.7532 11.7589L15.5338 11.9091L15.7306 12.2097L15.9876 12.0399L16.1649 12.3089L15.5638 12.7101L14.6682 11.3622Z" fill="#407A53"/>
<path d="M17.1867 9.99921L18.0478 11.3847L17.6541 11.556L17.5189 11.2976L17.3806 11.3577L17.4738 11.6342L17.0816 11.813L16.6307 10.2457L17.1867 9.99921ZM17.3956 11.0406C17.3025 10.8813 17.1943 10.6814 17.0665 10.4395C17.1507 10.7401 17.2168 10.9595 17.2619 11.0947L17.3956 11.0406Z" fill="#407A53"/>
<path d="M18.2597 9.61298L18.3648 9.91352L18.1304 9.99467L18.5512 11.2164L18.1545 11.3531L17.7322 10.1314L17.4978 10.2126L17.3926 9.91202L18.2597 9.61298Z" fill="#407A53"/>
<path d="M20.8219 9.09302L20.888 10.716L20.3696 10.7971C20.2844 10.5597 20.1988 10.2877 20.1126 9.98113C20.1126 10.1179 20.1231 10.4019 20.1291 10.8347L19.6137 10.9158L19.1854 9.35149L19.5882 9.28837L19.7189 9.83687L19.8466 10.3688C19.8186 10.0883 19.7995 9.71766 19.7895 9.25682L20.2193 9.18919C20.2328 9.23427 20.2749 9.40709 20.347 9.70764L20.4883 10.3087C20.4507 9.91802 20.4312 9.53482 20.4267 9.15764L20.8219 9.09302Z" fill="#407A53"/>
<path d="M22.0511 10.0097C22.0511 10.1705 22.0511 10.2862 22.0511 10.3538C22.0457 10.4209 22.0234 10.4855 21.9865 10.5417C21.9466 10.5999 21.8915 10.6462 21.8272 10.6754C21.7526 10.7095 21.6718 10.7279 21.5898 10.7295C21.5101 10.7332 21.4305 10.7214 21.3553 10.695C21.2908 10.6714 21.2336 10.6312 21.1895 10.5784C21.1454 10.5256 21.1161 10.4622 21.1044 10.3944C21.0897 10.2787 21.0812 10.1624 21.0788 10.0458L21.0698 9.76928C21.0698 9.60699 21.0698 9.49278 21.0698 9.42516C21.0751 9.35786 21.0979 9.29311 21.1359 9.23732C21.1749 9.1788 21.2296 9.13244 21.2937 9.10357C21.3681 9.06881 21.4491 9.05037 21.5312 9.04948C21.6108 9.04583 21.6904 9.05757 21.7656 9.08404C21.8305 9.10708 21.888 9.14713 21.9322 9.2C21.9763 9.25286 22.0054 9.31661 22.0165 9.38458C22.0313 9.50026 22.0398 9.61664 22.0421 9.73322L22.0511 10.0097ZM21.6123 9.49429C21.6148 9.44364 21.6092 9.39292 21.5958 9.34401C21.5913 9.33417 21.5838 9.32606 21.5743 9.32091C21.5648 9.31575 21.5539 9.31384 21.5432 9.31546C21.5332 9.31478 21.5232 9.31697 21.5144 9.32176C21.5057 9.32655 21.4984 9.33375 21.4936 9.34251C21.4792 9.39123 21.4751 9.4424 21.4816 9.49278L21.5086 10.2441C21.5071 10.3023 21.5132 10.3604 21.5267 10.417C21.5304 10.4278 21.5379 10.437 21.5479 10.4428C21.5578 10.4485 21.5695 10.4506 21.5808 10.4485C21.5928 10.449 21.6047 10.4454 21.6145 10.4383C21.6244 10.4312 21.6315 10.4211 21.6349 10.4094C21.6407 10.349 21.6407 10.2881 21.6349 10.2276L21.6123 9.49429Z" fill="#407A53"/>
<path d="M22.29 9.06146L22.5905 9.07799C22.7249 9.08169 22.8587 9.09728 22.9903 9.12458C23.0595 9.14396 23.1186 9.18914 23.1556 9.25081C23.2008 9.34409 23.2175 9.44862 23.2037 9.55135C23.2072 9.63866 23.1858 9.72517 23.1421 9.80081C23.1172 9.82464 23.0877 9.84297 23.0553 9.85462C23.023 9.86627 22.9885 9.87098 22.9542 9.86843C23.0164 9.88168 23.073 9.91367 23.1165 9.9601C23.1388 9.98917 23.1552 10.0224 23.1646 10.0578C23.1702 10.1373 23.1702 10.2172 23.1646 10.2967L23.1405 10.722L22.7513 10.6994L22.7829 10.1645C22.7913 10.1102 22.7872 10.0546 22.7709 10.0022C22.7589 9.98113 22.7243 9.96911 22.6657 9.96611L22.6236 10.6919L22.2043 10.6679L22.29 9.06146ZM22.6927 9.36201L22.6717 9.72116C22.7059 9.72623 22.7408 9.72154 22.7724 9.70764C22.7919 9.69562 22.8039 9.65354 22.8069 9.58291V9.49425C22.8104 9.47658 22.8102 9.45839 22.8063 9.4408C22.8025 9.42322 22.795 9.40663 22.7844 9.39206C22.7582 9.37171 22.7259 9.36061 22.6927 9.3605V9.36201Z" fill="#407A53"/>
<path d="M23.9025 9.20572L23.7236 10.4845L23.9761 10.5206L23.931 10.8407L23.2638 10.746L23.4862 9.14862L23.9025 9.20572Z" fill="#407A53"/>
<path d="M24.3622 9.27484L24.6628 9.34397C24.7981 9.3697 24.9305 9.40897 25.058 9.46118C25.1157 9.48838 25.1639 9.53238 25.1963 9.58741C25.2217 9.63336 25.2346 9.68517 25.2338 9.73768C25.2223 9.83893 25.2043 9.93933 25.1797 10.0382L25.055 10.5897C25.0378 10.6853 25.0096 10.7786 24.9708 10.8677C24.9504 10.9091 24.9172 10.9428 24.8762 10.9639C24.834 10.9843 24.7877 10.9946 24.7409 10.994C24.6654 10.9894 24.5904 10.9778 24.517 10.9594L24.0016 10.8437L24.3622 9.27484ZM24.7109 9.637L24.478 10.6724C24.5366 10.6859 24.5756 10.6814 24.5937 10.6619C24.627 10.6034 24.6489 10.5391 24.6583 10.4725L24.7965 9.86091C24.8087 9.81564 24.8167 9.76937 24.8206 9.72266C24.8208 9.71315 24.819 9.70371 24.8154 9.69492C24.8118 9.68613 24.8064 9.67817 24.7995 9.67156C24.7735 9.65256 24.7429 9.64065 24.7109 9.637Z" fill="#407A53"/>
<path d="M26.3323 9.80981L26.7246 9.96009C26.808 9.99016 26.8869 10.0316 26.959 10.0833C27.0034 10.1141 27.0383 10.1568 27.0597 10.2065C27.0765 10.2506 27.0807 10.2985 27.0717 10.3448C27.0563 10.4178 27.0342 10.4893 27.0056 10.5582L26.953 10.6889C26.9291 10.7615 26.8908 10.8285 26.8403 10.8858C26.7993 10.9234 26.7457 10.9443 26.69 10.9444C26.6138 10.9437 26.5386 10.9273 26.4691 10.8963L26.3639 10.8557L26.1235 11.4568L25.7343 11.3065L26.3323 9.80981ZM26.6194 10.2216L26.4691 10.6033C26.4783 10.608 26.4878 10.612 26.4976 10.6153C26.511 10.6219 26.5256 10.6253 26.5405 10.6253C26.5553 10.6253 26.57 10.6219 26.5833 10.6153C26.6142 10.5882 26.6367 10.5527 26.6479 10.5131L26.696 10.3899C26.7146 10.3565 26.7205 10.3175 26.7125 10.2802C26.6886 10.2512 26.6559 10.2306 26.6194 10.2216Z" fill="#407A53"/>
<path d="M27.3888 10.2426L27.6533 10.3779C27.7752 10.4352 27.8918 10.503 28.0019 10.5807C28.0575 10.6267 28.093 10.6924 28.1011 10.7641C28.1053 10.8696 28.0787 10.974 28.0244 11.0646C27.9941 11.1452 27.9421 11.216 27.8742 11.269C27.8419 11.2807 27.8076 11.2854 27.7734 11.2828C27.7392 11.2802 27.7059 11.2704 27.6758 11.254C27.7267 11.2921 27.7654 11.3444 27.787 11.4042C27.7943 11.4399 27.7943 11.4767 27.787 11.5124C27.7595 11.5875 27.7264 11.6603 27.6878 11.7303L27.491 12.1135L27.1498 11.9302L27.3933 11.4523C27.4217 11.4065 27.4406 11.3554 27.4489 11.302C27.4489 11.2765 27.4188 11.2509 27.3662 11.2254L27.0356 11.8731L26.663 11.6822L27.3888 10.2426ZM27.6382 10.6799L27.4744 11C27.5039 11.0178 27.5377 11.0271 27.5721 11.027C27.5947 11.027 27.6217 10.991 27.6548 10.9279L27.6953 10.8497C27.7154 10.8197 27.723 10.783 27.7164 10.7475C27.6983 10.7172 27.6709 10.6934 27.6382 10.6799Z" fill="#407A53"/>
<path d="M28.7728 12.1225C28.7128 12.2206 28.6476 12.3154 28.5775 12.4066C28.5363 12.4597 28.4811 12.5002 28.4182 12.5238C28.3523 12.5497 28.2805 12.557 28.2108 12.5448C28.13 12.5315 28.0531 12.5007 27.9854 12.4547C27.918 12.4127 27.8593 12.3581 27.8126 12.2939C27.7703 12.2364 27.7453 12.1681 27.7404 12.097C27.7355 12.0299 27.7479 11.9626 27.7765 11.9016C27.8305 11.7985 27.8897 11.6982 27.9538 11.6011L28.1041 11.3682C28.1913 11.2319 28.2559 11.1373 28.298 11.0842C28.3406 11.0319 28.396 10.9915 28.4587 10.9669C28.5241 10.941 28.5954 10.9337 28.6646 10.9459C28.8246 10.9766 28.9672 11.0661 29.0643 11.1969C29.1048 11.2531 29.1296 11.3191 29.1359 11.388C29.1422 11.457 29.13 11.5264 29.1004 11.5891C29.0704 11.6492 29.0118 11.7499 28.9231 11.8896L28.7728 12.1225ZM28.7037 11.4508C28.7321 11.4111 28.7548 11.3676 28.7713 11.3216C28.7732 11.3109 28.7715 11.2998 28.7667 11.2901C28.7618 11.2804 28.7539 11.2725 28.7443 11.2675C28.7358 11.2628 28.7262 11.2603 28.7165 11.2603C28.7067 11.2603 28.6972 11.2628 28.6887 11.2675C28.6491 11.2997 28.6164 11.3396 28.5925 11.3847L28.1883 12.0204C28.1547 12.0671 28.1264 12.1176 28.1041 12.1706C28.1019 12.1816 28.1034 12.1929 28.1083 12.203C28.1131 12.213 28.1212 12.2212 28.1311 12.2262C28.1406 12.2342 28.1526 12.2385 28.165 12.2385C28.1773 12.2385 28.1893 12.2342 28.1988 12.2262C28.2393 12.1798 28.275 12.1295 28.3055 12.076L28.7037 11.4508Z" fill="#407A53"/>
<path d="M29.5062 11.4854L29.7526 11.6793C29.862 11.7604 29.9627 11.8525 30.0532 11.9543C30.0942 12.0032 30.1193 12.0635 30.1253 12.1271C30.1284 12.1793 30.117 12.2313 30.0922 12.2774C30.0393 12.3652 29.98 12.449 29.9149 12.5283L29.5663 12.9791C29.5091 13.058 29.4436 13.1306 29.3709 13.1955C29.3342 13.2238 29.2896 13.2401 29.2432 13.2421C29.1968 13.2421 29.151 13.2313 29.1095 13.2105C29.043 13.1745 28.9801 13.1323 28.9216 13.0843L28.5054 12.7582L29.5062 11.4854ZM29.6655 11.9618L29.0118 12.7973C29.0599 12.8349 29.0959 12.8484 29.1215 12.8379C29.1763 12.7996 29.2232 12.7511 29.2597 12.6951L29.6474 12.2007C29.6778 12.1651 29.705 12.1269 29.7286 12.0865C29.7326 12.0778 29.7347 12.0683 29.7347 12.0587C29.7347 12.0491 29.7326 12.0396 29.7286 12.0309C29.7133 12.0036 29.6916 11.9804 29.6655 11.9633V11.9618Z" fill="#407A53"/>
<path d="M31.1712 12.925L30.4273 13.7049C30.3697 13.769 30.3074 13.8288 30.241 13.8837C30.1965 13.916 30.145 13.9371 30.0907 13.9453C30.0254 13.9562 29.9583 13.949 29.8969 13.9243C29.8249 13.8956 29.7594 13.8527 29.7045 13.7981C29.6411 13.7385 29.5901 13.667 29.5542 13.5877C29.5248 13.5233 29.5129 13.4523 29.5197 13.3818C29.5275 13.3234 29.5503 13.268 29.5858 13.221C29.6609 13.1279 29.7406 13.0386 29.8247 12.9535L30.4829 12.2623L30.7835 12.5523L29.9479 13.4284C29.915 13.4592 29.8866 13.4946 29.8638 13.5336C29.8608 13.5434 29.8606 13.5538 29.8632 13.5637C29.8659 13.5736 29.8713 13.5826 29.8789 13.5895C29.8865 13.5964 29.8958 13.6011 29.9059 13.6029C29.916 13.6047 29.9264 13.6036 29.9359 13.5997C29.9783 13.5702 30.0167 13.5353 30.0501 13.496L30.8706 12.6349L31.1712 12.925Z" fill="#407A53"/>
<path d="M31.4777 14.333L31.2072 14.0145L31.4191 13.8311C31.4602 13.8004 31.4962 13.7634 31.5258 13.7214C31.5302 13.7103 31.5309 13.6981 31.528 13.6865C31.525 13.6749 31.5185 13.6645 31.5093 13.6568C31.502 13.6454 31.4911 13.6367 31.4783 13.632C31.4655 13.6274 31.4516 13.6271 31.4387 13.6313C31.3916 13.6563 31.3481 13.6877 31.3094 13.7244L30.7399 14.2173C30.6986 14.2483 30.6621 14.2853 30.6317 14.327C30.6258 14.339 30.6241 14.3526 30.6269 14.3657C30.6296 14.3787 30.6366 14.3905 30.6467 14.3992C30.6537 14.4097 30.664 14.4176 30.6759 14.4217C30.6879 14.4258 30.7009 14.4258 30.7128 14.4217C30.7633 14.3952 30.8098 14.3618 30.8511 14.3225L31.0014 14.1888L31.2749 14.5074L31.2283 14.5479C31.1413 14.63 31.0432 14.6993 30.9367 14.7538C30.8584 14.7811 30.7732 14.7811 30.6948 14.7538C30.5944 14.722 30.5055 14.6614 30.4393 14.5795C30.3666 14.5028 30.3148 14.4086 30.2891 14.306C30.2788 14.2655 30.2767 14.2234 30.2829 14.1821C30.2891 14.1409 30.3034 14.1012 30.3251 14.0656C30.3923 13.9659 30.4744 13.8772 30.5686 13.8026L30.9247 13.4945C30.9902 13.4365 31.0589 13.3823 31.1306 13.3322C31.1828 13.3 31.2422 13.2809 31.3034 13.2766C31.3738 13.2715 31.4443 13.285 31.5078 13.3157C31.5915 13.3598 31.6649 13.4209 31.7234 13.4952C31.7819 13.5695 31.8242 13.6553 31.8474 13.747C31.8655 13.8274 31.8543 13.9116 31.8158 13.9844C31.7531 14.0775 31.6766 14.1606 31.5889 14.2309L31.4777 14.333Z" fill="#407A53"/>
<path d="M32.1644 14.0776L32.5747 14.6441L32.3132 14.8334L32.1494 14.6065L31.9015 14.7869L32.0517 14.9987L31.8083 15.1791L31.658 14.9687L31.371 15.1776L31.5513 15.427L31.2899 15.6164L30.8616 15.0273L32.1644 14.0776Z" fill="#407A53"/>
<path d="M9.10808 24.4239H8.17939V20.0089L6.78335 24.4239H6.30699L4.90945 20.0089V24.4239H4.15808V19.3807H5.57967L6.63158 22.6281L7.66997 19.3807H9.10057L9.10808 24.4239Z" fill="#407A53"/>
<path d="M15.4421 22.6717L16.2836 22.7649C16.2445 23.2375 16.0365 23.6803 15.6976 24.0121C15.5206 24.1776 15.3123 24.3061 15.0849 24.39C14.8576 24.4739 14.6157 24.5114 14.3737 24.5005C13.971 24.5189 13.5745 24.3961 13.2526 24.1534C12.9523 23.9034 12.7237 23.5783 12.5899 23.2112C12.4302 22.793 12.3511 22.3484 12.357 21.9008C12.357 21.1314 12.5393 20.5063 12.904 20.0254C13.0649 19.8238 13.2647 19.6566 13.4916 19.5339C13.7185 19.4112 13.9677 19.3355 14.2245 19.3112C14.4813 19.2869 14.7404 19.3146 14.9862 19.3927C15.2321 19.4707 15.4597 19.5975 15.6555 19.7654C16.0113 20.1204 16.2333 20.5877 16.2836 21.0878L15.4421 21.1765C15.2858 20.4151 14.9432 20.0344 14.4142 20.0344C14.2511 20.0321 14.0906 20.0754 13.9508 20.1593C13.8109 20.2431 13.6971 20.3643 13.6223 20.5093C13.4329 20.8293 13.3398 21.2802 13.3398 21.8813C13.3398 22.4824 13.4405 22.9527 13.6403 23.2638C13.7205 23.406 13.8371 23.5242 13.9781 23.6064C14.1192 23.6885 14.2796 23.7316 14.4428 23.7311C14.572 23.7323 14.6999 23.7048 14.8174 23.6508C14.9348 23.5968 15.0388 23.5175 15.122 23.4186C15.3083 23.2118 15.4209 22.9492 15.4421 22.6717Z" fill="#407A53"/>
<path d="M21.9008 24.4239H20.9991V22.2329H19.0666V24.4239H18.1575V19.3807H19.0666V21.453H20.9886V19.3807H21.8903L21.9008 24.4239Z" fill="#407A53"/>
<path d="M27.0792 24.4239H23.8018V19.3807H27.0462V20.1321H24.7109V21.4996H26.5878V22.2299H24.7109V23.6425H27.0792V24.4239Z" fill="#407A53"/>
<path d="M31.879 24.4239H28.7759V19.3807H29.7331V23.6004H31.879V24.4239Z" fill="#407A53"/>
<path d="M39.8404 24.4239H38.9583L37.0438 21.202C37.0153 21.1525 36.9672 21.0728 36.8936 20.9616C36.865 20.912 36.8184 20.8354 36.7568 20.7287V24.4239H36.0265V19.3807H37.0303L38.7975 22.3516C38.8111 22.3757 38.9193 22.556 39.1176 22.8941V19.3807H39.8344L39.8404 24.4239Z" fill="#407A53"/>
<path d="M22.0015 44L0 22L22.0015 0L44.0015 22L22.0015 44ZM0.425273 22L22.0015 43.5762L43.5762 22L22.0015 0.42377L0.425273 22Z" fill="#CD2D31"/>
<path d="M19.3056 38.9779L19.2515 39.1973L18.966 39.1251L19.0201 38.9072L18.3829 38.7479L18.44 38.5195L19.1914 37.5638L19.4919 37.6374L18.7556 38.5736L19.0787 38.6548L19.1884 38.2175L19.4739 38.2896L19.3642 38.7254L19.4889 38.757L19.4258 39.0094L19.3056 38.9779Z" fill="#CD2D31"/>
<path d="M20.6881 39.0124C20.6808 39.0768 20.6564 39.138 20.6175 39.1898C20.5814 39.2364 20.5358 39.2748 20.4837 39.3025C20.4313 39.33 20.3742 39.3478 20.3154 39.3551C20.2571 39.3641 20.1978 39.3641 20.1396 39.3551C20.0813 39.3471 20.0246 39.3304 19.9713 39.3055C19.9156 39.2825 19.8646 39.2494 19.821 39.2078C19.7782 39.1655 19.7453 39.1141 19.7248 39.0575C19.702 38.9972 19.6953 38.9319 19.7053 38.8682L19.8135 38.1168C19.8216 38.0519 19.8464 37.9903 19.8856 37.938C19.9209 37.8902 19.9666 37.8511 20.0194 37.8238C20.0723 37.7954 20.1298 37.7766 20.1892 37.7682C20.2464 37.7592 20.3047 37.7592 20.362 37.7682C20.4202 37.7764 20.4769 37.7931 20.5303 37.8178C20.5857 37.8425 20.6366 37.8766 20.6806 37.9184C20.7229 37.9611 20.7557 38.0124 20.7767 38.0687C20.7995 38.1301 20.8062 38.1963 20.7963 38.2611L20.6881 39.0124ZM20.5002 38.2806C20.508 38.249 20.508 38.216 20.5002 38.1844C20.4924 38.1588 20.479 38.1352 20.4612 38.1153C20.4442 38.097 20.4237 38.0822 20.4011 38.0717C20.3794 38.0609 20.356 38.0538 20.3319 38.0507C20.308 38.0469 20.2837 38.0469 20.2598 38.0507C20.235 38.0551 20.2111 38.0637 20.1892 38.0762C20.1663 38.0903 20.1468 38.1093 20.1321 38.1318C20.1157 38.1595 20.105 38.1902 20.1005 38.222L20.0104 38.8546C20.0026 38.8857 20.0026 38.9182 20.0104 38.9493C20.0178 38.9741 20.0305 38.997 20.0477 39.0165C20.0648 39.0359 20.0859 39.0515 20.1095 39.062C20.1315 39.0718 20.1548 39.0784 20.1787 39.0816C20.2031 39.0853 20.2279 39.0853 20.2523 39.0816C20.2768 39.0776 20.3002 39.0689 20.3214 39.056C20.3447 39.0424 20.3643 39.0233 20.3785 39.0004C20.3951 38.9734 20.4058 38.9432 20.4101 38.9117L20.5002 38.2806Z" fill="#CD2D31"/>
<path d="M22.792 38.6202L22.6537 38.9132L22.4914 39.2559H22.266L22.0812 38.9313L21.9204 38.6382H21.9114L21.9354 39.4828L21.6228 39.4918L21.5778 37.9199H21.8648L22.1653 38.4654L22.3667 38.8486H22.3802L22.5606 38.4474L22.8145 37.8944L23.1015 37.8854L23.1466 39.4572L22.8341 39.4662L22.81 38.6217L22.792 38.6202Z" fill="#CD2D31"/>
<path d="M24.3052 38.24L24.191 38.5015C24.179 38.5331 24.1624 38.5721 24.1429 38.6172C24.1234 38.6623 24.1023 38.7134 24.0783 38.7675C24.0542 38.8216 24.0317 38.8757 24.0061 38.9328L23.9355 39.0966L23.8724 39.2469C23.8514 39.2919 23.8348 39.331 23.8213 39.3626L23.5433 39.4091L23.2833 37.8583L23.5839 37.8072L23.7537 38.8261H23.7627L24.0091 38.2611L24.2526 37.693L24.5336 37.6465L24.7936 39.1973L24.493 39.2484L24.3232 38.2385L24.3052 38.24Z" fill="#CD2D31"/>
<path d="M26.0319 38.8487L25.8425 38.219L25.2865 38.3858L25.4759 39.0155L25.1753 39.1056L24.7245 37.6029L25.025 37.5127L25.2069 38.1138L25.7629 37.947L25.5795 37.3459L25.8801 37.2542L26.3309 38.757L26.0319 38.8487Z" fill="#CD2D31"/>
<path d="M17.7577 5.62923C17.8172 5.61433 17.8783 5.60676 17.9396 5.60669C17.998 5.6076 18.0557 5.61985 18.1094 5.64276C18.1637 5.66618 18.212 5.70163 18.2506 5.74644C18.2945 5.79806 18.3254 5.85935 18.3408 5.92527C18.3604 5.99454 18.3604 6.06788 18.3408 6.13715C18.3208 6.20204 18.2828 6.2599 18.2311 6.30396C18.3018 6.31464 18.3671 6.34784 18.4174 6.39863C18.4684 6.44951 18.5043 6.51348 18.5211 6.58347C18.5431 6.65712 18.5467 6.73501 18.5317 6.81038C18.5184 6.87434 18.4918 6.93477 18.4535 6.9877C18.4158 7.03761 18.3695 7.08037 18.3168 7.11393C18.2641 7.1463 18.2068 7.17061 18.147 7.18606C18.0598 7.20933 17.9694 7.21796 17.8795 7.21161C17.7978 7.2073 17.7179 7.18579 17.645 7.14849C17.645 7.14849 17.645 7.12745 17.6601 7.10191L17.6901 7.01775L17.7187 6.9336L17.7352 6.88702C17.7871 6.91216 17.8431 6.92793 17.9005 6.9336C17.9548 6.93866 18.0096 6.93511 18.0628 6.92308C18.1228 6.91 18.1761 6.87589 18.2131 6.82691C18.2288 6.80359 18.239 6.77699 18.2429 6.74912C18.2469 6.72125 18.2443 6.69287 18.2356 6.66612C18.223 6.61158 18.1895 6.56414 18.1424 6.53387C18.1185 6.51884 18.0916 6.50917 18.0636 6.50554C18.0356 6.50191 18.0071 6.5044 17.9802 6.51284L17.7983 6.55942L17.7367 6.32049L17.914 6.2754C17.9638 6.26201 18.007 6.23105 18.0358 6.18825C18.0508 6.16463 18.0606 6.13805 18.0645 6.1103C18.0684 6.08256 18.0663 6.05431 18.0583 6.02745C18.0511 5.99872 18.0366 5.97233 18.0162 5.95082C17.9983 5.93291 17.9768 5.91907 17.9531 5.91024C17.9292 5.90094 17.9036 5.89684 17.878 5.89822C17.8536 5.89787 17.8293 5.90091 17.8058 5.90724C17.7519 5.92012 17.701 5.94306 17.6556 5.97486C17.6082 6.00694 17.5674 6.04774 17.5353 6.09508L17.3295 5.90724C17.3761 5.83941 17.4359 5.78166 17.5053 5.73743C17.5829 5.68773 17.6682 5.65118 17.7577 5.62923Z" fill="#CD2D31"/>
<path d="M19.4228 6.88555L19.2184 5.32721L19.5279 5.28664L19.6106 5.91328L19.7609 5.89224C19.7895 5.88838 19.8176 5.88184 19.845 5.8727C19.8703 5.86419 19.8938 5.85093 19.9141 5.83363C19.9354 5.81401 19.9527 5.79056 19.9652 5.76451C19.9804 5.73037 19.9915 5.69456 19.9983 5.65781L20.0779 5.20699L20.3935 5.16492L20.3139 5.63828C20.3019 5.70945 20.2791 5.77836 20.2463 5.84265C20.2212 5.89348 20.1807 5.93505 20.1305 5.96137C20.1951 5.97269 20.2539 6.00553 20.2973 6.05453C20.3442 6.1094 20.3823 6.17126 20.41 6.23787L20.6264 6.72025L20.2883 6.76533L20.1005 6.32953C20.0854 6.29438 20.0662 6.26109 20.0434 6.23036C20.0242 6.20807 20.0013 6.18926 19.9758 6.17475C19.9514 6.16284 19.9247 6.15619 19.8976 6.15522C19.8682 6.15154 19.8384 6.15154 19.809 6.15522L19.6391 6.17776L19.7248 6.83596L19.4228 6.88555Z" fill="#CD2D31"/>
<path d="M21.4681 6.30996C21.4362 6.4272 21.3764 6.53497 21.2938 6.62403C21.2221 6.68906 21.129 6.72544 21.0323 6.72621H20.8655L20.855 6.47976H20.9962C21.029 6.47988 21.0612 6.47105 21.0894 6.45422C21.1137 6.43623 21.1325 6.41175 21.1435 6.38359C21.1451 6.37628 21.1476 6.36921 21.151 6.36255L21.16 6.34452L20.6085 5.15135L20.9346 5.13632L21.1435 5.63974C21.1735 5.70736 21.1991 5.77198 21.2216 5.83209L21.2802 5.98236H21.2893L21.3975 5.61269C21.3975 5.60367 21.4065 5.58564 21.414 5.55859C21.4215 5.53154 21.4335 5.49998 21.444 5.46392L21.4771 5.35271C21.4891 5.31515 21.5011 5.27908 21.5117 5.24452L21.5387 5.15736C21.5441 5.14274 21.5481 5.12765 21.5507 5.11228L21.8618 5.09875L21.4681 6.30996Z" fill="#CD2D31"/>
<path d="M22.6282 6.14918L22.2946 6.67964L21.9399 6.66612L22.4719 5.88019L22.0316 5.09576L22.3863 5.11079L22.6477 5.62473L22.9483 5.13183L23.2984 5.14535L22.804 5.89672L23.2699 6.72022L22.9167 6.70669L22.6282 6.14918Z" fill="#CD2D31"/>
<path d="M24.2677 6.84344L24.3518 6.19276L23.7763 6.11762L23.6921 6.76981L23.3826 6.72923L23.5839 5.1709L23.8935 5.20997L23.8123 5.83961L24.3879 5.91325L24.469 5.28511L24.7831 5.32568L24.5817 6.88401L24.2677 6.84344Z" fill="#CD2D31"/>
<path d="M25.9551 6.13417L25.7508 6.33404L25.6621 6.4227L25.5449 6.5354C25.5028 6.57447 25.4607 6.61655 25.4156 6.66013L25.2879 6.78485L25.1722 6.89756L25.082 6.98622L24.8055 6.92311L25.1557 5.39032L25.4562 5.45945L25.2263 6.46778H25.2353L25.6696 6.041L26.1114 5.60822L26.3879 5.67133L26.0378 7.20412L25.7372 7.13499L25.9641 6.13568L25.9551 6.13417Z" fill="#CD2D31"/>
<path d="M18.5242 14.9507L18.1861 15.119L18.2206 15.3504L18.0148 15.4496L17.884 14.3135L18.0809 14.2173L18.8909 15.0243L18.6805 15.1265L18.5242 14.9507ZM18.159 14.9266L18.3935 14.8139L18.2958 14.7087L18.0944 14.4893L18.1425 14.7779L18.159 14.9266Z" fill="#CD2D31"/>
<path d="M19.1192 14.004L19.4108 14.8395L19.2094 14.9101L18.9164 14.0746L18.6459 14.1693L18.5828 13.9875L19.3236 13.7275L19.3882 13.9093L19.1192 14.004Z" fill="#CD2D31"/>
<path d="M20.9751 14.1302C20.9874 14.1821 20.9874 14.2361 20.9751 14.288C20.9609 14.3337 20.9368 14.3758 20.9045 14.4112C20.8712 14.4488 20.8309 14.4794 20.7858 14.5014C20.7382 14.5243 20.6876 14.5405 20.6355 14.5495C20.5822 14.5569 20.5281 14.5569 20.4747 14.5495C20.4253 14.5429 20.3775 14.5276 20.3335 14.5044C20.2912 14.4806 20.2547 14.4478 20.2268 14.4082C20.1958 14.3635 20.1762 14.3119 20.1697 14.2579L20.1035 13.8672C20.0949 13.8171 20.098 13.7657 20.1126 13.7169C20.1272 13.6707 20.1524 13.6285 20.1862 13.5937C20.2201 13.5569 20.2609 13.5273 20.3064 13.5065C20.354 13.4835 20.4046 13.4673 20.4567 13.4585C20.5065 13.4515 20.5571 13.4515 20.607 13.4585C20.6593 13.4644 20.7102 13.4797 20.7572 13.5035C20.7999 13.5266 20.8369 13.559 20.8654 13.5982C20.8971 13.6428 20.9177 13.6943 20.9255 13.7485L20.9751 14.1302ZM20.7061 13.8191C20.7019 13.7882 20.6912 13.7584 20.6746 13.732C20.6603 13.7108 20.6413 13.6933 20.619 13.6809C20.5983 13.6684 20.5753 13.6603 20.5514 13.6568C20.527 13.6531 20.5021 13.6531 20.4777 13.6568C20.4533 13.6611 20.4295 13.6687 20.4071 13.6794C20.3848 13.6904 20.3649 13.7057 20.3485 13.7244C20.3326 13.7439 20.3208 13.7664 20.3139 13.7906C20.3071 13.8207 20.3071 13.8521 20.3139 13.8822L20.365 14.1933C20.3695 14.2244 20.3808 14.2542 20.3981 14.2805C20.4118 14.302 20.4303 14.32 20.4522 14.3331C20.4734 14.3452 20.497 14.3529 20.5213 14.3556C20.5457 14.3594 20.5705 14.3594 20.5949 14.3556C20.6195 14.3525 20.6433 14.3454 20.6656 14.3346C20.6882 14.3241 20.7082 14.3086 20.724 14.2894C20.7399 14.2701 20.7512 14.2476 20.7572 14.2234C20.7641 14.1927 20.7641 14.1609 20.7572 14.1302L20.7061 13.8191Z" fill="#CD2D31"/>
<path d="M22.0059 14.0671C22.0085 14.1184 21.9998 14.1697 21.9804 14.2173C21.9619 14.2603 21.9336 14.2984 21.8978 14.3285C21.8627 14.3597 21.8219 14.3837 21.7775 14.3992C21.7317 14.4161 21.6836 14.4258 21.6348 14.4277L21.229 14.4442L21.184 13.3668L21.5927 13.3488C21.6434 13.3462 21.6941 13.3518 21.743 13.3653C21.788 13.3764 21.8304 13.3964 21.8677 13.4239C21.9073 13.4537 21.9395 13.4923 21.9616 13.5366C21.9838 13.5809 21.9954 13.6298 21.9954 13.6794L22.0059 14.0671ZM21.7745 13.7304C21.774 13.6995 21.7663 13.6692 21.752 13.6418C21.7406 13.6188 21.7242 13.5988 21.7039 13.5832C21.6848 13.5682 21.6628 13.5575 21.6393 13.5516C21.6162 13.5462 21.5924 13.5436 21.5687 13.5441L21.4064 13.5516L21.4349 14.2474H21.5972C21.6207 14.2456 21.6439 14.2411 21.6663 14.2339C21.6892 14.2263 21.7102 14.214 21.7279 14.1978C21.7471 14.1806 21.7624 14.1596 21.773 14.1362C21.7841 14.1065 21.7887 14.0747 21.7865 14.043L21.7745 13.7304Z" fill="#CD2D31"/>
<path d="M22.2901 13.3488L23.0309 13.4059L23.0174 13.5967L22.49 13.5576L22.4704 13.8041L22.9212 13.8386L22.9077 14.031L22.4569 13.9964L22.4389 14.2489L22.9663 14.2895L22.9513 14.4818L22.2104 14.4247L22.2901 13.3488Z" fill="#CD2D31"/>
<path d="M23.9596 14.3511C23.9521 14.3984 23.9325 14.4429 23.9025 14.4803C23.8751 14.5158 23.8395 14.5442 23.7988 14.5629C23.7545 14.582 23.7072 14.5932 23.659 14.596C23.6042 14.5999 23.5491 14.5963 23.4952 14.5855C23.4217 14.5714 23.3507 14.5461 23.2849 14.5104C23.2165 14.4723 23.1563 14.4212 23.1075 14.3601L23.2578 14.2293C23.2948 14.272 23.3378 14.3089 23.3855 14.339C23.4291 14.3668 23.4776 14.3862 23.5283 14.3961C23.5577 14.4003 23.5876 14.4003 23.617 14.3961C23.6385 14.3951 23.6595 14.3895 23.6786 14.3796C23.6942 14.3714 23.7076 14.3595 23.7177 14.3451C23.7274 14.3328 23.7341 14.3184 23.7372 14.303C23.7435 14.2824 23.7435 14.2604 23.7372 14.2399C23.7261 14.221 23.7113 14.2047 23.6936 14.1918C23.6709 14.1747 23.6468 14.1597 23.6215 14.1467L23.5253 14.0986C23.4873 14.0813 23.4506 14.0612 23.4156 14.0385C23.3825 14.0174 23.3526 13.9916 23.3269 13.9619C23.3032 13.9332 23.2858 13.9 23.2758 13.8642C23.2652 13.8228 23.2652 13.7794 23.2758 13.7379C23.2842 13.6945 23.301 13.6531 23.3254 13.6162C23.3499 13.5808 23.3817 13.5511 23.4186 13.5291C23.4576 13.5067 23.5004 13.492 23.5448 13.4855C23.5945 13.4768 23.6454 13.4768 23.6951 13.4855C23.7605 13.4981 23.8244 13.5172 23.886 13.5426C23.9499 13.57 24.008 13.6092 24.0573 13.6583L23.9325 13.8086C23.8943 13.7732 23.8513 13.7434 23.8048 13.7199C23.7643 13.7003 23.7213 13.6862 23.6771 13.6778C23.6566 13.6749 23.6359 13.6749 23.6155 13.6778C23.5954 13.6786 23.5756 13.6827 23.5569 13.6899C23.5392 13.6961 23.5232 13.7064 23.5103 13.7199C23.4973 13.7355 23.4885 13.7541 23.4847 13.774C23.4785 13.7925 23.4785 13.8126 23.4847 13.8311C23.494 13.8498 23.5074 13.8663 23.5238 13.8792C23.5454 13.8954 23.5686 13.9095 23.5929 13.9213L23.6876 13.9664C23.7768 13.9993 23.856 14.0547 23.9175 14.1272C23.9409 14.1589 23.9568 14.1956 23.9641 14.2343C23.9713 14.2731 23.9698 14.313 23.9596 14.3511Z" fill="#CD2D31"/>
<path d="M24.9063 14.6456C24.8925 14.6919 24.8677 14.7341 24.8341 14.7688C24.8022 14.8004 24.7629 14.8236 24.7199 14.8364C24.6717 14.853 24.6204 14.8591 24.5696 14.8545C24.5149 14.8508 24.4609 14.8402 24.4089 14.8229C24.3374 14.8006 24.27 14.7671 24.209 14.7237C24.1484 14.6767 24.0974 14.6186 24.0587 14.5524L24.221 14.4397C24.2523 14.4871 24.2908 14.5292 24.3352 14.5645C24.3747 14.5972 24.4201 14.6222 24.469 14.6381C24.497 14.6484 24.5263 14.6545 24.5561 14.6561C24.5781 14.6579 24.6001 14.6548 24.6207 14.6471C24.6366 14.6406 24.6509 14.6309 24.6628 14.6186C24.6741 14.6073 24.6824 14.5933 24.6869 14.578C24.6936 14.5575 24.6936 14.5354 24.6869 14.5149C24.678 14.4945 24.6653 14.4761 24.6493 14.4608C24.6284 14.4419 24.6063 14.4243 24.5832 14.4082L24.4945 14.3496C24.4588 14.3275 24.4246 14.3029 24.3923 14.2759C24.3617 14.2519 24.3353 14.223 24.3142 14.1903C24.2933 14.1591 24.2794 14.1237 24.2736 14.0866C24.268 14.0445 24.2727 14.0018 24.2871 13.9619C24.3004 13.9192 24.3224 13.8798 24.3518 13.8462C24.3801 13.8141 24.4149 13.7885 24.4539 13.771C24.4951 13.7528 24.5396 13.7431 24.5847 13.7425C24.6357 13.7414 24.6865 13.749 24.7349 13.765C24.7982 13.785 24.8592 13.8117 24.9168 13.8447C24.9774 13.8794 25.0309 13.9253 25.0746 13.9799L24.9243 14.1151C24.8626 14.0394 24.7801 13.9835 24.6869 13.9543C24.667 13.9478 24.6462 13.9443 24.6252 13.9438C24.6058 13.9407 24.5861 13.9407 24.5666 13.9438C24.548 13.9473 24.5307 13.9562 24.5171 13.9694C24.5015 13.9821 24.4905 13.9995 24.4855 14.019C24.4787 14.0374 24.4787 14.0576 24.4855 14.0761C24.4922 14.096 24.5036 14.114 24.5186 14.1287C24.5381 14.1474 24.5592 14.1645 24.5817 14.1798L24.6703 14.2339C24.755 14.2774 24.8269 14.3421 24.8792 14.4217C24.8999 14.4547 24.9131 14.4919 24.9178 14.5306C24.9225 14.5693 24.9185 14.6086 24.9063 14.6456Z" fill="#CD2D31"/>
<path d="M25.593 15.0514L25.2519 14.8921L25.0941 15.0649L24.8867 14.9672L25.6862 14.1497L25.8845 14.2429L25.7703 15.379L25.5584 15.2813L25.593 15.0514ZM25.3811 14.7508L25.6155 14.8605L25.6366 14.7102L25.6802 14.4097L25.4863 14.6276L25.3811 14.7508Z" fill="#CD2D31"/>
<path d="M12.064 27.6067L12.7056 28.618L12.4441 28.7848L11.9933 28.065L11.6567 28.2784L12.0474 28.8945L11.7859 29.0598L11.3952 28.4452L11.0496 28.6631L11.5004 29.3829L11.239 29.5452L10.5973 28.5339L12.064 27.6067Z" fill="#407A53"/>
<path d="M13.1323 29.8202C13.1345 29.7533 13.1222 29.6866 13.0963 29.6249C13.0713 29.5709 13.0395 29.5204 13.0016 29.4746C12.9768 29.4443 12.9479 29.4175 12.9159 29.3949C12.8834 29.3726 12.8465 29.3572 12.8077 29.3499C12.7676 29.3409 12.7261 29.3409 12.686 29.3499C12.6372 29.3625 12.592 29.3862 12.5538 29.419L12.1601 29.7406C12.1206 29.7709 12.0887 29.81 12.0669 29.8548C12.0492 29.8924 12.04 29.9334 12.0398 29.975C12.04 30.014 12.0471 30.0527 12.0609 30.0892C12.0752 30.1258 12.0955 30.1599 12.121 30.1899C12.159 30.2361 12.2029 30.277 12.2517 30.3116C12.3092 30.3499 12.3735 30.3769 12.4411 30.3912L12.3374 30.6918C12.2496 30.6735 12.166 30.6388 12.0909 30.5896C12.0078 30.5355 11.9338 30.4685 11.8715 30.3912C11.8193 30.3277 11.7768 30.2568 11.7453 30.1809C11.7143 30.1079 11.6965 30.0301 11.6927 29.951C11.6891 29.8734 11.7025 29.796 11.7318 29.724C11.7642 29.6454 11.8159 29.5762 11.882 29.5227L12.387 29.1124C12.4511 29.0572 12.5281 29.019 12.6109 29.0012C12.6867 28.9854 12.765 28.9854 12.8408 29.0012C12.9184 29.0193 12.9918 29.0519 13.0572 29.0974C13.1252 29.1431 13.186 29.1989 13.2375 29.2627C13.2993 29.3388 13.3499 29.4233 13.3878 29.5137C13.4256 29.5976 13.4436 29.6891 13.4404 29.7811L13.1323 29.8202Z" fill="#407A53"/>
<path d="M13.8236 30.3747L13.5066 30.7083C13.4162 30.8041 13.3193 30.8934 13.2165 30.9758C13.1339 31.0436 13.0404 31.097 12.94 31.1336C12.8522 31.1662 12.7572 31.1745 12.665 31.1576C12.5595 31.1365 12.4602 31.0912 12.375 31.0254L12.5163 30.7684C12.5746 30.7988 12.6385 30.8172 12.7041 30.8225C12.7629 30.8253 12.8215 30.8145 12.8754 30.791C12.9395 30.7614 12.9987 30.7224 13.0512 30.6753C13.1113 30.6242 13.1775 30.5581 13.2526 30.4814L13.7921 29.9149L14.6201 30.7038L13.4179 31.9631L13.1745 31.7212L14.1587 30.6873L13.8236 30.3747Z" fill="#407A53"/>
<path d="M15.2858 31.9496L14.9852 32.0653L14.8575 32.1164L14.6907 32.1825L14.5058 32.2546L14.321 32.3268L14.1542 32.3914L14.025 32.4425L13.7755 32.2606L14.7899 30.8496L15.0694 31.0509L14.4037 31.9796L15.0288 31.7302L15.6659 31.4792L15.9214 31.6626L14.9071 33.0751L14.6261 32.8723L15.2873 31.9526L15.2858 31.9496Z" fill="#407A53"/>
<path d="M16.6503 32.0773L17.7353 32.5853L17.6031 32.8663L16.8306 32.5056L16.6623 32.8663L17.322 33.1758L17.1898 33.4553L16.5301 33.1548L16.3573 33.5245L17.1282 33.8866L16.9975 34.1661L15.9125 33.6582L16.6503 32.0773Z" fill="#407A53"/>
<path d="M18.7346 33.3682C18.7015 33.3085 18.6553 33.2571 18.5994 33.2179C18.5488 33.1834 18.4937 33.1561 18.4356 33.1368C18.3984 33.1237 18.3593 33.1166 18.3199 33.1157C18.2794 33.1129 18.2389 33.1195 18.2013 33.1348C18.1638 33.1502 18.1303 33.174 18.1035 33.2044C18.0693 33.2418 18.0441 33.2865 18.0298 33.3351L17.8796 33.816C17.8619 33.864 17.8557 33.9155 17.8615 33.9663C17.867 34.0072 17.8808 34.0466 17.9021 34.082C17.924 34.1146 17.9515 34.1431 17.9833 34.1661C18.0149 34.1889 18.0499 34.2067 18.0869 34.2187C18.144 34.2386 18.2039 34.2492 18.2643 34.2503C18.333 34.2525 18.4015 34.2408 18.4656 34.2157L18.5363 34.5163C18.4529 34.5483 18.3641 34.5636 18.2748 34.5613C18.1756 34.5617 18.0771 34.5454 17.9833 34.5133C17.9053 34.4879 17.8314 34.4515 17.7639 34.4051C17.6988 34.3593 17.6419 34.3029 17.5956 34.2383C17.5504 34.175 17.5197 34.1027 17.5054 34.0264C17.4909 33.9417 17.4987 33.8547 17.5279 33.7739L17.7308 33.1563C17.7559 33.0754 17.8008 33.002 17.8615 32.9429C17.9175 32.8896 17.9841 32.8486 18.0569 32.8227C18.1324 32.7974 18.2117 32.7857 18.2913 32.7881C18.373 32.7909 18.454 32.8051 18.5318 32.8302C18.6254 32.861 18.7144 32.9045 18.7962 32.9594C18.8725 33.0112 18.9366 33.0789 18.9841 33.1578L18.7346 33.3682Z" fill="#407A53"/>
<path d="M19.7865 33.4959L19.4995 34.8949L19.1599 34.8243L19.4484 33.4268L18.9976 33.3336L19.0607 33.0331L20.3004 33.2885L20.2388 33.5891L19.7865 33.4959Z" fill="#407A53"/>
<path d="M20.2628 35.0302L20.4131 33.299L20.7572 33.3276L20.7001 33.9873L21.0998 34.0204C21.178 34.0263 21.2545 34.0467 21.3253 34.0805C21.387 34.111 21.4417 34.154 21.486 34.2067C21.5296 34.2584 21.5613 34.3189 21.5792 34.384C21.5995 34.4548 21.6061 34.5287 21.5987 34.6019C21.5934 34.6671 21.5777 34.731 21.5522 34.7913C21.5255 34.8526 21.4872 34.9082 21.4395 34.9551C21.3893 35.004 21.3294 35.0419 21.2636 35.0663C21.1843 35.095 21.0994 35.1047 21.0157 35.0948L20.2628 35.0302ZM20.6325 34.7507L20.9901 34.7807C21.0237 34.7856 21.0578 34.7837 21.0906 34.7752C21.1233 34.7667 21.1541 34.7517 21.181 34.7311C21.2043 34.7131 21.2236 34.6904 21.2378 34.6645C21.252 34.6387 21.2608 34.6102 21.2636 34.5809C21.2672 34.5502 21.2641 34.5192 21.2545 34.4899C21.2449 34.4606 21.229 34.4337 21.208 34.4111C21.1597 34.3626 21.0946 34.3346 21.0262 34.3329L20.6716 34.3014L20.6325 34.7507Z" fill="#407A53"/>
<path d="M23.1556 33.6477L23.2728 35.0708L22.9287 35.0993L22.81 33.6762L22.3501 33.7153L22.3246 33.4058L23.5869 33.3006L23.6125 33.6101L23.1556 33.6477Z" fill="#407A53"/>
<path d="M25.2219 34.1781C25.2408 34.2612 25.2408 34.3475 25.2219 34.4306C25.2019 34.5055 25.166 34.5752 25.1167 34.635C25.065 34.6967 25.0017 34.7478 24.9304 34.7852C24.8537 34.827 24.7711 34.8569 24.6854 34.8739C24.6 34.892 24.5124 34.8975 24.4254 34.8904C24.3452 34.8845 24.2671 34.8625 24.1955 34.8258C24.1261 34.7894 24.0655 34.7381 24.0182 34.6756C23.9668 34.6073 23.9318 34.5281 23.916 34.4441L23.7868 33.819C23.7656 33.7372 23.7656 33.6513 23.7868 33.5695C23.8084 33.4944 23.8458 33.4247 23.8965 33.3652C23.9497 33.3043 24.0133 33.2534 24.0843 33.2149C24.1589 33.1753 24.2389 33.147 24.3217 33.1307C24.4041 33.1127 24.4889 33.1082 24.5727 33.1172C24.6531 33.1238 24.7316 33.1452 24.8041 33.1803C24.8755 33.2157 24.9377 33.2672 24.986 33.3306C25.0392 33.3975 25.0754 33.4764 25.0912 33.5605L25.2219 34.1781ZM24.7711 33.6928C24.7618 33.6437 24.7423 33.5971 24.714 33.556C24.6898 33.5229 24.6585 33.4956 24.6223 33.4764C24.5879 33.4575 24.5501 33.4457 24.5111 33.4418C24.4714 33.4383 24.4313 33.4409 24.3924 33.4493C24.3534 33.4567 24.3158 33.4704 24.2812 33.4899C24.2465 33.5088 24.2158 33.5343 24.191 33.565C24.1655 33.5972 24.1476 33.6347 24.1384 33.6747C24.127 33.7242 24.127 33.7756 24.1384 33.825L24.2406 34.3209C24.2502 34.3703 24.2696 34.4174 24.2977 34.4592C24.3226 34.492 24.3537 34.5196 24.3894 34.5403C24.4244 34.5585 24.4627 34.5692 24.5021 34.5719C24.5418 34.5746 24.5817 34.5721 24.6208 34.5643C24.6596 34.5563 24.6971 34.5426 24.732 34.5238C24.7671 34.5061 24.7979 34.481 24.8222 34.4501C24.8472 34.4173 24.8646 34.3793 24.8733 34.3389C24.8847 34.2895 24.8847 34.2381 24.8733 34.1887L24.7711 33.6928Z" fill="#407A53"/>
<path d="M26.8613 32.7806C26.7979 32.7599 26.731 32.7522 26.6645 32.7581C26.6038 32.7649 26.5442 32.7796 26.4872 32.8016C26.4504 32.8167 26.416 32.8369 26.385 32.8618C26.3537 32.8854 26.328 32.9157 26.3098 32.9504C26.2904 32.9871 26.2796 33.0277 26.2783 33.0691C26.2755 33.1206 26.2848 33.1721 26.3053 33.2194L26.4962 33.6898C26.5131 33.7367 26.5409 33.7789 26.5773 33.813C26.6074 33.8419 26.644 33.863 26.684 33.8746C26.7218 33.8868 26.7617 33.8914 26.8012 33.8881C26.84 33.8852 26.8781 33.8761 26.9139 33.8611C26.9678 33.8377 27.0183 33.8074 27.0642 33.7709C27.1173 33.73 27.1617 33.6789 27.195 33.6206L27.4474 33.807C27.4046 33.8855 27.3469 33.9549 27.2776 34.0114C27.2018 34.075 27.116 34.1258 27.0236 34.1616C26.9479 34.1931 26.8679 34.2128 26.7862 34.2202C26.7071 34.228 26.6273 34.2219 26.5503 34.2022C26.4751 34.1824 26.405 34.1471 26.3444 34.0985C26.2779 34.0435 26.2262 33.9728 26.1941 33.8926L25.9507 33.2915C25.9164 33.2142 25.9029 33.1292 25.9116 33.0451C25.9198 32.9681 25.9444 32.8938 25.9837 32.8272C26.0222 32.7591 26.0732 32.699 26.134 32.6499C26.1982 32.5985 26.2696 32.557 26.3459 32.5266C26.4363 32.4883 26.5321 32.4639 26.6299 32.4545C26.7216 32.443 26.8147 32.4528 26.9019 32.4831L26.8613 32.7806Z" fill="#407A53"/>
<path d="M26.9996 32.2577L28.0515 31.6791L28.2018 31.9496L27.4505 32.3628L27.6428 32.7115L28.28 32.3583L28.4302 32.6303L27.7931 32.9835L27.9899 33.3411L28.7413 32.9279L28.8916 33.1999L27.8397 33.7784L26.9996 32.2577Z" fill="#407A53"/>
<path d="M29.3919 31.4582L29.4115 31.7723C29.4115 31.8098 29.4115 31.8564 29.4205 31.9105C29.4295 31.9646 29.4205 32.0247 29.4325 32.0893C29.4445 32.154 29.44 32.2201 29.443 32.2877L29.4565 32.4861C29.4565 32.5492 29.4641 32.6093 29.4671 32.6634C29.4701 32.7175 29.4671 32.7656 29.4761 32.8031L29.2251 32.9895L28.1927 31.5904L28.4708 31.3861L29.1485 32.3042H29.1575L29.1109 31.6325L29.0673 30.9503L29.3213 30.7639L30.3522 32.1615L30.0742 32.3674L29.404 31.4507L29.3919 31.4582ZM28.7397 31.1081C28.6912 31.1466 28.6339 31.1724 28.5729 31.1832C28.5247 31.1904 28.4755 31.1878 28.4283 31.1757C28.3811 31.1636 28.3367 31.1421 28.2979 31.1126C28.2643 31.0881 28.2331 31.0604 28.2048 31.0299L28.3911 30.8917C28.4024 30.9064 28.4161 30.9191 28.4317 30.9292C28.4486 30.9412 28.4674 30.9504 28.4873 30.9563C28.5082 30.9601 28.5295 30.9601 28.5504 30.9563C28.5728 30.9533 28.5941 30.9445 28.612 30.9307C28.6324 30.9169 28.6485 30.8976 28.6586 30.8751C28.6674 30.8558 28.672 30.8348 28.6721 30.8135C28.6722 30.7932 28.6691 30.7729 28.6631 30.7534C28.6582 30.7355 28.6501 30.7187 28.6391 30.7038L28.8239 30.5671C28.8436 30.6037 28.8601 30.6419 28.8735 30.6813C28.89 30.7255 28.8976 30.7724 28.896 30.8195C28.8945 30.8716 28.8822 30.9227 28.86 30.9698C28.8325 31.0255 28.7911 31.0731 28.7397 31.1081Z" fill="#407A53"/>
<path d="M29.673 30.4303L30.0306 30.7985C30.0569 30.8314 30.0899 30.8583 30.1276 30.8772C30.1652 30.8962 30.2064 30.9067 30.2485 30.9082C30.3363 30.8983 30.4172 30.8559 30.4755 30.7895C30.5167 30.7485 30.5521 30.702 30.5806 30.6512C30.6079 30.6034 30.6306 30.5531 30.6483 30.501L30.1418 29.9765L30.3898 29.7361L31.592 30.9833L31.341 31.2253L30.8421 30.7129C30.8211 30.7777 30.7923 30.8397 30.7565 30.8977C30.7177 30.9577 30.6723 31.0131 30.6212 31.063C30.5636 31.1196 30.4977 31.1672 30.4259 31.2042C30.362 31.2377 30.2919 31.2576 30.22 31.2629C30.1482 31.2667 30.0766 31.2533 30.0111 31.2238C29.9331 31.1888 29.8634 31.1376 29.8067 31.0735L29.4205 30.6753L29.673 30.4303Z" fill="#407A53"/>
<path d="M32.1976 29.6955L31.8204 30.1704L32.0308 30.4814L31.8083 30.7729L30.8256 29.2146L31.045 28.9381L32.7836 29.5392L32.5492 29.8397L32.1976 29.6955ZM31.6581 29.9194L31.918 29.5918L31.7017 29.5076L31.2508 29.3288V29.3363L31.5213 29.721L31.6581 29.9194Z" fill="#407A53"/>
<path d="M32.3478 27.7254C32.2845 27.7463 32.2261 27.7801 32.1765 27.8246C32.1316 27.8665 32.0922 27.914 32.0593 27.9658C32.0395 27.9999 32.0239 28.0363 32.0127 28.074C32.0045 28.1127 32.0045 28.1526 32.0127 28.1912C32.0197 28.232 32.035 28.2709 32.0578 28.3054C32.0865 28.3467 32.1239 28.3811 32.1675 28.4061L32.6003 28.6691C32.6425 28.6963 32.6902 28.7137 32.74 28.7202C32.7812 28.7236 32.8226 28.7185 32.8617 28.7052C32.8994 28.6921 32.9342 28.6717 32.9639 28.6451C32.9928 28.6194 33.0177 28.5895 33.0376 28.5564C33.0692 28.5052 33.0931 28.4494 33.1082 28.3911C33.1254 28.3249 33.1295 28.256 33.1202 28.1882H33.4343C33.4462 28.277 33.4411 28.3673 33.4193 28.4542C33.3974 28.5511 33.3593 28.6436 33.3065 28.7277C33.266 28.7974 33.2154 28.8607 33.1563 28.9156C33.0975 28.9693 33.0299 29.0125 32.9564 29.0433C32.8844 29.0721 32.807 29.0854 32.7295 29.0824C32.644 29.0772 32.5613 29.0503 32.4891 29.0042L31.933 28.6661C31.8596 28.6241 31.7981 28.5641 31.7542 28.4918C31.7146 28.4251 31.6895 28.3509 31.6806 28.2739C31.6729 28.1947 31.6795 28.1148 31.7001 28.038C31.721 27.9588 31.7528 27.8829 31.7948 27.8126C31.8456 27.7283 31.9084 27.6519 31.9811 27.5856C32.0482 27.5226 32.1282 27.4749 32.2156 27.4459L32.3478 27.7254Z" fill="#407A53"/>
<path d="M22.0015 7.8518C25.1603 7.85607 28.2271 8.9155 30.715 10.8619C33.2029 12.8082 34.9692 15.5299 35.7335 18.5948H36.0431C35.2799 15.4458 33.4805 12.6447 30.9338 10.6415C28.3871 8.63828 25.2409 7.54919 22.0008 7.54919C18.7606 7.54919 15.6145 8.63828 13.0678 10.6415C10.5211 12.6447 8.72165 15.4458 7.9585 18.5948H8.26806C9.03268 15.5298 10.7993 12.8081 13.2874 10.8617C15.7756 8.91537 18.8426 7.856 22.0015 7.8518Z" fill="#CD2D31"/>
<path d="M22.0015 36.1482C18.8423 36.1442 15.775 35.0847 13.2868 33.138C10.7986 31.1914 9.03215 28.4691 8.26806 25.4037H7.9585C8.72165 28.5527 10.5211 31.3538 13.0678 33.357C15.6145 35.3602 18.7606 36.4493 22.0008 36.4493C25.2409 36.4493 28.3871 35.3602 30.9338 33.357C33.4805 31.3538 35.2799 28.5527 36.0431 25.4037H35.7335C34.9695 28.4689 33.2033 31.1909 30.7154 33.1376C28.2275 35.0842 25.1605 36.1439 22.0015 36.1482Z" fill="#CD2D31"/>
<path d="M22.0015 31.7227C20.0211 31.7204 18.0885 31.1143 16.4614 29.9853C14.8344 28.8563 13.5902 27.258 12.8949 25.4037H12.5734C13.2727 27.3428 14.5531 29.019 16.2399 30.2038C17.9267 31.3885 19.9379 32.0243 21.9993 32.0243C24.0606 32.0243 26.0718 31.3885 27.7586 30.2038C29.4454 29.019 30.7258 27.3428 31.4251 25.4037H31.1051C30.4101 27.2577 29.1665 28.8557 27.54 29.9847C25.9135 31.1137 23.9814 31.72 22.0015 31.7227Z" fill="#CD2D31"/>
<path d="M22.0015 12.2773C23.9807 12.2794 25.9124 12.8845 27.539 14.012C29.1657 15.1396 30.4101 16.7361 31.1065 18.5888H31.4266C30.7266 16.6504 29.4459 14.975 27.7592 13.7907C26.0725 12.6065 24.0617 11.9711 22.0007 11.9711C19.9398 11.9711 17.929 12.6065 16.2422 13.7907C14.5555 14.975 13.2749 16.6504 12.5748 18.5888H12.8949C13.5914 16.7359 14.8361 15.1392 16.463 14.0116C18.09 12.884 20.022 12.2791 22.0015 12.2773Z" fill="#CD2D31"/>
<path d="M18.5843 14.9221L18.2446 15.0829L18.2762 15.3143L18.0703 15.4135L17.9486 14.2759L18.147 14.1813L18.9494 14.9943L18.739 15.0949L18.5843 14.9221ZM18.2191 14.8966L18.4535 14.7839L18.3574 14.6787L18.1575 14.4563L18.2041 14.7448L18.2191 14.8966Z" fill="#CD2D31"/>
<path d="M19.1854 13.9799L19.4709 14.8184L19.2681 14.8876L18.9825 14.049L18.7105 14.1407L18.6489 13.9589L19.3928 13.7049L19.4544 13.8882L19.1854 13.9799Z" fill="#CD2D31"/>
<path d="M21.0443 14.1227C21.0527 14.1728 21.0497 14.2242 21.0353 14.2729C21.0214 14.3193 20.9973 14.3619 20.9647 14.3977C20.9314 14.4344 20.891 14.4641 20.8459 14.4848C20.7985 14.5082 20.7479 14.5245 20.6957 14.5329C20.6418 14.5404 20.5872 14.5404 20.5334 14.5329C20.4837 14.5265 20.4358 14.5107 20.3921 14.4863C20.3484 14.4611 20.311 14.4261 20.2829 14.3842C20.2548 14.3423 20.2366 14.2944 20.2298 14.2444L20.1682 13.8522C20.1593 13.8025 20.1623 13.7514 20.1769 13.7031C20.1916 13.6548 20.2174 13.6106 20.2524 13.5742C20.2873 13.5383 20.3285 13.5092 20.3741 13.4885C20.4217 13.4659 20.4723 13.4502 20.5244 13.4419C20.5742 13.435 20.6248 13.435 20.6746 13.4419C20.7273 13.4476 20.7783 13.4634 20.8249 13.4885C20.8676 13.5116 20.9046 13.5439 20.9331 13.5832C20.9638 13.628 20.9834 13.6795 20.9902 13.7335L21.0443 14.1227ZM20.7768 13.8086C20.7733 13.7779 20.7625 13.7485 20.7453 13.7229C20.7316 13.7014 20.713 13.6834 20.6912 13.6703C20.6707 13.6573 20.6476 13.6491 20.6235 13.6463C20.5992 13.6418 20.5742 13.6418 20.5499 13.6463C20.5255 13.6509 20.5018 13.6584 20.4793 13.6688C20.4571 13.6794 20.4371 13.6942 20.4207 13.7124C20.4039 13.7319 20.3921 13.7551 20.3861 13.78C20.3791 13.8102 20.3791 13.8415 20.3861 13.8717L20.4342 14.1813C20.4384 14.2122 20.4491 14.242 20.4658 14.2684C20.4794 14.2904 20.4979 14.3089 20.5199 14.3225C20.5412 14.3345 20.5647 14.3421 20.589 14.3451C20.6139 14.3488 20.6392 14.3488 20.6641 14.3451C20.6882 14.3419 20.7115 14.3348 20.7332 14.324C20.7555 14.3135 20.7754 14.2987 20.7918 14.2804C20.808 14.2606 20.8198 14.2376 20.8264 14.2128C20.8333 14.1827 20.8333 14.1513 20.8264 14.1212L20.7768 13.8086Z" fill="#CD2D31"/>
<path d="M22.0737 14.0746C22.0768 14.1237 22.0685 14.1728 22.0495 14.2182C22.0305 14.2635 22.0012 14.3039 21.964 14.336C21.9278 14.3664 21.8866 14.3903 21.8422 14.4067C21.7937 14.4227 21.7431 14.4313 21.692 14.4322L21.2847 14.4457L21.2487 13.3683L21.6574 13.3548C21.7081 13.352 21.7588 13.3576 21.8077 13.3713C21.8528 13.383 21.8952 13.4034 21.9324 13.4314C21.9693 13.4602 21.9995 13.4965 22.0211 13.5381C22.0454 13.5845 22.0582 13.636 22.0586 13.6884L22.0737 14.0746ZM21.8437 13.7349C21.8437 13.7042 21.8365 13.6738 21.8227 13.6463C21.8113 13.6233 21.7949 13.6033 21.7746 13.5877C21.7559 13.5731 21.7344 13.5623 21.7115 13.5561C21.6876 13.5524 21.6633 13.5524 21.6394 13.5561H21.4771L21.5011 14.2534H21.6634C21.6865 14.2531 21.7093 14.249 21.731 14.2414C21.7545 14.2342 21.776 14.2219 21.7942 14.2053C21.8137 14.1885 21.8291 14.1674 21.8392 14.1437C21.851 14.1141 21.8562 14.0823 21.8543 14.0505L21.8437 13.7349Z" fill="#CD2D31"/>
<path d="M22.3621 13.3518L23.103 13.4134L23.0864 13.6058L22.559 13.5622L22.5395 13.8086L22.9903 13.8462L22.9737 14.0386L22.5229 14.001L22.5019 14.2534L23.0293 14.297L23.0128 14.4894L22.272 14.4278L22.3621 13.3518Z" fill="#CD2D31"/>
<path d="M24.0256 14.3676C24.0183 14.4134 23.9996 14.4567 23.9712 14.4934C23.9429 14.5302 23.9058 14.5593 23.8633 14.578C23.8186 14.5972 23.7707 14.6084 23.7221 14.6111C23.6671 14.6138 23.612 14.6092 23.5583 14.5975C23.4852 14.5834 23.4147 14.5581 23.3494 14.5224C23.2819 14.4838 23.2223 14.4328 23.1736 14.3721L23.3239 14.2429C23.3603 14.2859 23.4028 14.3234 23.4501 14.3541C23.4955 14.3839 23.5467 14.4039 23.6004 14.4127C23.6293 14.4168 23.6586 14.4168 23.6875 14.4127C23.7093 14.4116 23.7307 14.4065 23.7506 14.3977C23.7662 14.3895 23.7797 14.3776 23.7897 14.3631C23.7998 14.3504 23.8065 14.3355 23.8092 14.3195C23.8161 14.2996 23.8161 14.2779 23.8092 14.2579C23.799 14.2385 23.7846 14.2216 23.7672 14.2083C23.7444 14.1913 23.7203 14.1762 23.695 14.1632L23.6004 14.1152C23.5622 14.0976 23.5255 14.077 23.4907 14.0535C23.4575 14.0325 23.4277 14.0066 23.402 13.9769C23.378 13.9479 23.3606 13.9141 23.3509 13.8777C23.3411 13.8367 23.3411 13.794 23.3509 13.753C23.3592 13.7093 23.3766 13.6678 23.402 13.6313C23.4269 13.5963 23.4586 13.5666 23.4952 13.5441C23.5339 13.5216 23.5769 13.5073 23.6214 13.502C23.6711 13.4936 23.7219 13.4936 23.7717 13.502C23.8366 13.5144 23.9001 13.5335 23.961 13.5591C24.0251 13.5876 24.0832 13.6279 24.1323 13.6779L24.0061 13.8281C23.9685 13.7916 23.9254 13.7611 23.8784 13.738C23.8376 13.7185 23.7948 13.7039 23.7506 13.6944C23.7302 13.6913 23.7094 13.6913 23.689 13.6944C23.669 13.6952 23.6492 13.6992 23.6304 13.7064C23.6123 13.7129 23.5962 13.7239 23.5836 13.7384C23.571 13.7528 23.5623 13.7703 23.5583 13.7891C23.5522 13.8081 23.5522 13.8286 23.5583 13.8477C23.5673 13.8662 23.5807 13.8822 23.5974 13.8942C23.6185 13.9116 23.6417 13.9263 23.6665 13.9378C23.6935 13.9529 23.7251 13.9679 23.7597 13.9829C23.8484 14.0173 23.927 14.0737 23.9881 14.1467C24.0105 14.1783 24.0255 14.2146 24.032 14.2529C24.0385 14.2911 24.0364 14.3303 24.0256 14.3676Z" fill="#CD2D31"/>
<path d="M24.9694 14.6682C24.9553 14.7142 24.93 14.756 24.8958 14.7899C24.8636 14.8211 24.8244 14.8443 24.7816 14.8575C24.733 14.8725 24.682 14.8781 24.6313 14.8741C24.5766 14.8705 24.5225 14.8599 24.4705 14.8425C24.3992 14.8191 24.3319 14.7852 24.2706 14.7418C24.2098 14.6939 24.1588 14.6347 24.1204 14.5675L24.2842 14.4578C24.3153 14.5048 24.3533 14.5468 24.3969 14.5825C24.4363 14.6157 24.4817 14.6412 24.5306 14.6577C24.5588 14.6672 24.5881 14.6733 24.6178 14.6757C24.6392 14.6777 24.6609 14.6746 24.6809 14.6667C24.6979 14.6617 24.7131 14.6518 24.7245 14.6381C24.7358 14.6268 24.744 14.6129 24.7485 14.5975C24.756 14.5777 24.756 14.5558 24.7485 14.5359C24.7409 14.5153 24.7285 14.4968 24.7124 14.4818C24.6916 14.4624 24.6695 14.4444 24.6463 14.4277L24.5577 14.3691C24.5221 14.3462 24.488 14.3211 24.4555 14.294C24.4257 14.2696 24.3998 14.2407 24.3788 14.2083C24.3581 14.1766 24.3448 14.1407 24.3398 14.1031C24.3343 14.0611 24.339 14.0183 24.3533 13.9784C24.3674 13.9363 24.3899 13.8974 24.4194 13.8642C24.4479 13.8327 24.4827 13.8076 24.5216 13.7906C24.5628 13.7723 24.6073 13.7626 24.6523 13.762C24.7035 13.7622 24.7543 13.7709 24.8026 13.7876C24.8655 13.8073 24.926 13.834 24.9829 13.8672C25.0413 13.9028 25.0923 13.9493 25.1332 14.004L24.9905 14.1377C24.9565 14.0983 24.9176 14.0634 24.8747 14.034C24.837 14.0091 24.796 13.9894 24.753 13.9754C24.7335 13.9692 24.7133 13.9652 24.6929 13.9634C24.673 13.9603 24.6527 13.9603 24.6328 13.9634C24.6147 13.9677 24.5978 13.9759 24.5832 13.9874C24.5688 14.0011 24.558 14.0182 24.5517 14.037C24.5449 14.056 24.5449 14.0767 24.5517 14.0956C24.5578 14.1158 24.5692 14.1339 24.5847 14.1482C24.6039 14.1674 24.6251 14.1846 24.6478 14.1993C24.6734 14.2174 24.7019 14.2354 24.735 14.2549C24.8191 14.2994 24.8904 14.3646 24.9424 14.4443C24.9635 14.4771 24.9769 14.5143 24.9816 14.5531C24.9863 14.5919 24.9821 14.6312 24.9694 14.6682Z" fill="#CD2D31"/>
<path d="M25.6472 15.0814L25.3075 14.9192L25.1483 15.089L24.9424 14.9913L25.7478 14.1798L25.9462 14.2745L25.8215 15.4105L25.6111 15.3099L25.6472 15.0814ZM25.4368 14.7809L25.6727 14.8936L25.6937 14.7508L25.7388 14.4503L25.542 14.6682L25.4368 14.7809Z" fill="#CD2D31"/>
<path d="M33.8686 21.1134L34.064 15.6254C34.064 15.6254 33.9738 15.3249 33.5771 15.6134C32.5943 16.3392 32.5477 18.3183 33.0556 21.4741C33.0556 21.4741 32.982 25.8981 32.8122 26.923C32.8122 26.923 33.4043 27.3032 33.9272 26.923C33.9272 26.923 33.547 22.4268 33.7844 21.5131C33.8055 21.4305 33.8686 21.1134 33.8686 21.1134Z" fill="#407A53"/>
<path d="M9.88951 18.0643L10.133 15.5097C10.133 15.5097 10.2051 15.4316 10.2381 15.5097L10.2667 17.7893C10.2667 17.7893 10.2667 17.9111 10.3764 17.9111C10.4861 17.9111 10.4485 17.8269 10.444 17.7939C10.4395 17.7608 10.5162 15.5037 10.5162 15.5037C10.5162 15.5037 10.5883 15.409 10.6213 15.5037L10.6935 17.7578C10.6935 17.7578 10.683 17.896 10.8047 17.896C10.8047 17.896 10.8768 17.8735 10.8588 17.7292C10.8407 17.585 10.8588 15.5037 10.8588 15.5037C10.8588 15.5037 10.9129 15.424 10.9625 15.4857L11.1127 17.7608C11.1127 17.7608 11.1127 17.887 11.2119 17.887C11.3111 17.887 11.2901 17.7788 11.2946 17.7247C11.2991 17.6706 11.257 15.5022 11.257 15.5022C11.257 15.5022 11.3111 15.4331 11.3577 15.4902L11.6086 17.5083C11.6086 17.5083 11.7123 18.5212 11.508 18.9825C11.4407 19.1043 11.3622 19.2195 11.2735 19.3266C11.1728 19.4242 11.0926 19.541 11.0376 19.67C10.9826 19.799 10.954 19.9377 10.9534 20.078C10.9534 20.3004 11.4043 26.9786 11.4043 26.9786C11.2471 27.0832 11.0626 27.139 10.8738 27.139C10.685 27.139 10.5005 27.0832 10.3433 26.9786C10.3433 26.9786 10.8257 20.9826 10.5913 20.1005C10.5396 19.7731 10.3811 19.472 10.1405 19.244C9.91774 18.8937 9.82865 18.4749 9.88951 18.0643Z" fill="#407A53"/>
<path d="M20.7933 17.5098C18.99 17.5188 17.4302 17.6781 17.4302 17.6781C17.4302 17.6781 18.987 17.8374 20.7933 17.8464C20.8379 17.8464 20.8807 17.8287 20.9123 17.7971C20.9439 17.7656 20.9616 17.7228 20.9616 17.6781C20.9616 17.6335 20.9439 17.5907 20.9123 17.5591C20.8807 17.5276 20.8379 17.5098 20.7933 17.5098Z" fill="#CD2D31"/>
<path d="M23.2142 17.5098C23.1696 17.5098 23.1268 17.5276 23.0952 17.5591C23.0636 17.5907 23.0459 17.6335 23.0459 17.6781C23.0459 17.7228 23.0636 17.7656 23.0952 17.7971C23.1268 17.8287 23.1696 17.8464 23.2142 17.8464C25.0175 17.8374 26.5758 17.6781 26.5758 17.6781C26.5758 17.6781 25.0205 17.5234 23.2142 17.5098Z" fill="#CD2D31"/>
<path d="M22.003 17.9456C22.1333 17.9456 22.239 17.84 22.239 17.7097C22.239 17.5794 22.1333 17.4738 22.003 17.4738C21.8727 17.4738 21.7671 17.5794 21.7671 17.7097C21.7671 17.84 21.8727 17.9456 22.003 17.9456Z" fill="#CD2D31"/>
</g>
<defs>
<clipPath id="clip0_21_182">
<rect width="44" height="44" fill="white"/>
</clipPath>
</defs>
</svg>
