<svg width="262" height="97" viewBox="0 0 262 97" fill="none" xmlns="http://www.w3.org/2000/svg">
<g clip-path="url(#clip0_110_43)">
<path d="M27.8479 28.9344L30.5684 31.2268L30.0448 31.8463L28.2057 30.2993L29.8361 32.0948L29.4649 32.5321L27.4502 31.2799L29.2462 32.7938L28.7194 33.41L25.9955 31.1175L26.7676 30.2032C26.9565 30.3125 27.1719 30.4483 27.4304 30.604L28.2091 31.0877L27.0625 29.8553L27.8479 28.9344Z" fill="white"/>
<path d="M29.4815 27.3674L32.3246 29.5737L31.6387 30.2363L31.1615 29.8089L30.9229 30.0375L31.3239 30.5378L30.6346 31.2003L28.5172 28.3016L29.4815 27.3674ZM30.7075 29.3551C30.396 29.0967 30.0183 28.7654 29.5743 28.3612C29.9785 28.9178 30.2801 29.3186 30.4789 29.5638L30.7075 29.3551Z" fill="white"/>
<path d="M30.1807 26.7214L30.7241 26.294C30.9551 26.0962 31.2061 25.923 31.473 25.7772C31.5997 25.7165 31.7415 25.6946 31.8806 25.7143C31.9969 25.735 32.1056 25.7865 32.1954 25.8634C32.357 26.0232 32.5066 26.1948 32.6427 26.3769L33.4148 27.3707C33.554 27.5345 33.6761 27.7122 33.7793 27.9008C33.8207 27.9932 33.8323 28.0963 33.8124 28.1956C33.787 28.2955 33.7395 28.3883 33.6732 28.4673C33.5628 28.5905 33.4395 28.7015 33.3054 28.7985L32.3909 29.524L30.1807 26.7214ZM31.2874 26.6253L32.7388 28.4606C32.8448 28.3778 32.8912 28.3049 32.8813 28.2453C32.8269 28.1079 32.7471 27.982 32.646 27.8743L31.7878 26.791C31.7266 26.7074 31.6591 26.6288 31.5856 26.5557C31.569 26.5425 31.5499 26.5328 31.5294 26.5271C31.5089 26.5214 31.4874 26.5199 31.4664 26.5226C31.3995 26.5424 31.3382 26.5776 31.2874 26.6253V26.6253Z" fill="white"/>
<path d="M32.3445 25.0484L33.6302 24.197L34.0245 24.7933L33.5076 25.1246L33.882 25.6878L34.3625 25.3565L34.7369 25.923L34.2531 26.2543L34.6872 26.9168L35.2539 26.5425L35.6449 27.1355L34.3194 28.02L32.3445 25.0484Z" fill="white"/>
<path d="M37.8982 22.0436L39.7969 25.0981L38.9287 25.4757L38.6305 24.9059L38.3256 25.0385L38.5311 25.648L37.6662 26.0422L36.6721 22.587L37.8982 22.0436ZM38.3588 24.3394C38.1533 23.9883 37.9147 23.5477 37.6331 23.0143C37.8186 23.6769 37.9644 24.1605 38.0638 24.4587L38.3588 24.3394Z" fill="white"/>
<path d="M40.2641 21.1921L40.496 21.8547L39.9791 22.0336L40.9069 24.7269L40.0321 25.0284L39.101 22.3351L38.5841 22.514L38.3521 21.8514L40.2641 21.1921Z" fill="white"/>
<path d="M45.9139 20.0459L46.0597 23.6238L44.9165 23.8027C44.7287 23.2792 44.5398 22.6796 44.3498 22.0038C44.3498 22.3053 44.373 22.9314 44.3863 23.8855L43.2497 24.0644L42.3053 20.6157L43.1934 20.4766L43.4816 21.6858L43.7633 22.8585C43.7014 22.2401 43.6595 21.4229 43.6374 20.407L44.5851 20.2579C44.6149 20.3573 44.7077 20.7383 44.8667 21.4009L45.1782 22.726C45.0954 21.8647 45.0523 21.0199 45.0424 20.1884L45.9139 20.0459Z" fill="white"/>
<path d="M48.6244 22.0668C48.6244 22.4213 48.6244 22.6764 48.6244 22.8255C48.6124 22.9733 48.5634 23.1157 48.482 23.2396C48.3939 23.368 48.2725 23.47 48.1307 23.5344C47.9662 23.6095 47.788 23.6501 47.6072 23.6537C47.4316 23.6617 47.256 23.6359 47.0902 23.5775C46.9478 23.5255 46.8217 23.4369 46.7245 23.3205C46.6274 23.2042 46.5626 23.0643 46.5368 22.9149C46.5046 22.6599 46.4858 22.4034 46.4805 22.1464L46.4606 21.5368C46.4606 21.179 46.4606 20.9272 46.4606 20.7782C46.4723 20.6298 46.5226 20.487 46.6064 20.3641C46.6924 20.235 46.813 20.1329 46.9544 20.0692C47.1184 19.9926 47.2969 19.9519 47.4779 19.9499C47.6535 19.9419 47.829 19.9678 47.9949 20.0261C48.138 20.0769 48.2648 20.1652 48.3622 20.2818C48.4595 20.3983 48.5238 20.5389 48.5482 20.6887C48.5807 20.9437 48.5995 21.2003 48.6046 21.4573L48.6244 22.0668ZM47.6569 20.9305C47.6623 20.8189 47.65 20.7071 47.6204 20.5993C47.6106 20.5776 47.5939 20.5597 47.573 20.5483C47.5521 20.537 47.528 20.5328 47.5044 20.5363C47.4824 20.5348 47.4604 20.5396 47.4411 20.5502C47.4217 20.5608 47.4057 20.5766 47.3951 20.5959C47.3634 20.7033 47.3544 20.8162 47.3686 20.9272L47.4282 22.5837C47.4248 22.7118 47.4382 22.8399 47.468 22.9646C47.4763 22.9886 47.4929 23.0087 47.5147 23.0215C47.5366 23.0343 47.5624 23.0388 47.5873 23.0342C47.6139 23.0352 47.6402 23.0273 47.6618 23.0117C47.6834 22.9961 47.6992 22.9737 47.7066 22.9481C47.7194 22.8148 47.7194 22.6805 47.7066 22.5472L47.6569 20.9305Z" fill="white"/>
<path d="M49.1513 19.9763L49.814 20.0128C50.1103 20.0209 50.4052 20.0553 50.6954 20.1155C50.8481 20.1582 50.9785 20.2578 51.0599 20.3937C51.1596 20.5994 51.1965 20.8298 51.166 21.0563C51.1737 21.2488 51.1266 21.4395 51.0301 21.6062C50.9754 21.6588 50.9103 21.6992 50.8389 21.7249C50.7675 21.7506 50.6916 21.7609 50.6159 21.7553C50.7531 21.7845 50.878 21.855 50.9738 21.9574C51.023 22.0215 51.059 22.0947 51.0798 22.1727C51.0922 22.3481 51.0922 22.5241 51.0798 22.6995L51.0268 23.637L50.1686 23.5873L50.2382 22.4079C50.2567 22.2882 50.2476 22.1658 50.2116 22.0502C50.1851 22.0038 50.1089 21.9773 49.9797 21.9707L49.8869 23.5707L48.9624 23.5177L49.1513 19.9763ZM50.0393 20.6389L49.9929 21.4307C50.0683 21.4418 50.1452 21.4315 50.215 21.4008C50.258 21.3743 50.2845 21.2816 50.2912 21.1259V20.9304C50.2989 20.8915 50.2984 20.8514 50.2898 20.8126C50.2813 20.7738 50.2648 20.7372 50.2415 20.7051C50.1836 20.6603 50.1125 20.6358 50.0393 20.6356V20.6389Z" fill="white"/>
<path d="M52.7068 20.2946L52.3125 23.1138L52.8692 23.1933L52.7698 23.899L51.2985 23.6902L51.7889 20.1687L52.7068 20.2946Z" fill="white"/>
<path d="M53.7208 20.4469L54.3835 20.5993C54.682 20.656 54.9739 20.7426 55.255 20.8577C55.3823 20.9176 55.4886 21.0146 55.5599 21.1359C55.616 21.2372 55.6445 21.3515 55.6427 21.4672C55.6174 21.6904 55.5775 21.9118 55.5234 22.1298L55.2484 23.3456C55.2105 23.5564 55.1482 23.7621 55.0628 23.9585C55.0176 24.0496 54.9445 24.1239 54.8541 24.1705C54.7612 24.2155 54.6591 24.2382 54.5559 24.2368C54.3893 24.2267 54.224 24.2012 54.0621 24.1606L52.9255 23.9055L53.7208 20.4469ZM54.4896 21.2453L53.976 23.5278C54.1052 23.5576 54.1914 23.5477 54.2311 23.5046C54.3045 23.3757 54.3529 23.2341 54.3736 23.0872L54.6785 21.7389C54.7053 21.6391 54.723 21.5371 54.7315 21.4341C54.7319 21.4131 54.728 21.3923 54.72 21.3729C54.712 21.3536 54.7001 21.336 54.6851 21.3215C54.6276 21.2796 54.5602 21.2533 54.4896 21.2453V21.2453Z" fill="white"/>
<path d="M58.065 21.6262L58.9298 21.9575C59.1139 22.0238 59.2878 22.1152 59.4468 22.2292C59.5448 22.2971 59.6217 22.3912 59.6688 22.5008C59.7059 22.5979 59.7151 22.7035 59.6953 22.8056C59.6614 22.9666 59.6126 23.1241 59.5495 23.276L59.4335 23.5642C59.381 23.7242 59.2964 23.8719 59.185 23.9982C59.0946 24.0812 58.9764 24.1273 58.8536 24.1274C58.6857 24.1259 58.5199 24.0898 58.3665 24.0214L58.1346 23.932L57.6044 25.2571L56.7462 24.9258L58.065 21.6262ZM58.6979 22.5339L58.3665 23.3754C58.3868 23.3859 58.4078 23.3947 58.4295 23.4019C58.4588 23.4165 58.4912 23.4241 58.5239 23.4241C58.5567 23.4241 58.589 23.4165 58.6184 23.4019C58.6866 23.3421 58.7361 23.2639 58.7609 23.1766L58.8669 22.905C58.9079 22.8314 58.9209 22.7455 58.9033 22.6631C58.8505 22.5992 58.7784 22.5539 58.6979 22.5339V22.5339Z" fill="white"/>
<path d="M60.3945 22.5803L60.9777 22.8785C61.2465 23.0048 61.5038 23.1544 61.7465 23.3257C61.869 23.427 61.9475 23.5719 61.9652 23.7299C61.9745 23.9625 61.9158 24.1927 61.7962 24.3924C61.7292 24.5702 61.6146 24.7261 61.4648 24.843C61.3937 24.8688 61.318 24.8792 61.2425 24.8735C61.1671 24.8677 61.0938 24.8461 61.0274 24.8099C61.1397 24.894 61.225 25.0092 61.2726 25.1411C61.2887 25.2198 61.2887 25.301 61.2726 25.3797C61.2121 25.5451 61.1389 25.7057 61.0539 25.86L60.6198 26.7048L59.8676 26.3006L60.4044 25.2472C60.4671 25.1461 60.5088 25.0334 60.527 24.9159C60.527 24.8596 60.4608 24.8032 60.3448 24.7469L59.6158 26.1748L58.794 25.754L60.3945 22.5803ZM60.9446 23.5444L60.5834 24.25C60.6484 24.2892 60.7229 24.3099 60.7988 24.3096C60.8485 24.3096 60.9081 24.2301 60.981 24.091L61.0705 23.9187C61.1148 23.8526 61.1314 23.7717 61.1169 23.6934C61.077 23.6265 61.0166 23.5742 60.9446 23.5444Z" fill="white"/>
<path d="M63.4464 26.7247C63.314 26.941 63.1702 27.15 63.0156 27.3508C62.9247 27.4679 62.8031 27.5574 62.6643 27.6092C62.5191 27.6665 62.3608 27.6825 62.207 27.6556C62.0289 27.6263 61.8593 27.5584 61.71 27.4568C61.5613 27.3643 61.4319 27.244 61.3289 27.1024C61.2358 26.9757 61.1806 26.8252 61.1699 26.6684C61.159 26.5204 61.1864 26.3721 61.2494 26.2377C61.3684 26.0104 61.4989 25.7892 61.6404 25.5752L61.9718 25.0617C62.164 24.7613 62.3065 24.5526 62.3992 24.4355C62.4932 24.3204 62.6154 24.2314 62.7538 24.1771C62.8979 24.1198 63.0551 24.1038 63.2078 24.1308C63.5605 24.1984 63.875 24.3958 64.0892 24.684C64.1785 24.8079 64.233 24.9534 64.247 25.1055C64.261 25.2575 64.2339 25.4106 64.1687 25.5486C64.1025 25.6812 63.9732 25.9031 63.7777 26.2112L63.4464 26.7247ZM63.2939 25.2439C63.3565 25.1562 63.4067 25.0604 63.443 24.959C63.4471 24.9353 63.4435 24.911 63.4328 24.8896C63.422 24.8681 63.4047 24.8506 63.3834 24.8397C63.3646 24.8293 63.3435 24.8238 63.3221 24.8238C63.3006 24.8238 63.2795 24.8293 63.2608 24.8397C63.1735 24.9108 63.1014 24.9987 63.0487 25.0981L62.1573 26.4994C62.0833 26.6026 62.021 26.7137 61.9718 26.8307C61.967 26.8549 61.9702 26.8799 61.9809 26.9021C61.9917 26.9242 62.0095 26.9422 62.0314 26.9533C62.0523 26.9708 62.0787 26.9804 62.106 26.9804C62.1333 26.9804 62.1596 26.9708 62.1805 26.9533C62.2699 26.851 62.3487 26.74 62.4158 26.622L63.2939 25.2439Z" fill="white"/>
<path d="M65.0634 25.32L65.6069 25.7474C65.8481 25.9262 66.0701 26.1293 66.2696 26.3536C66.36 26.4616 66.4154 26.5945 66.4287 26.7346C66.4355 26.8497 66.4103 26.9643 66.3558 27.0659C66.239 27.2595 66.1083 27.4444 65.9648 27.6191L65.196 28.613C65.0699 28.787 64.9255 28.9469 64.7652 29.09C64.6841 29.1524 64.5858 29.1883 64.4836 29.1927C64.3812 29.1926 64.2803 29.1688 64.1886 29.1232C64.0421 29.0438 63.9034 28.9506 63.7744 28.8449L62.8566 28.126L65.0634 25.32ZM65.4147 26.3702L63.9733 28.2121C64.0793 28.295 64.1588 28.3248 64.2152 28.3016C64.336 28.2172 64.4395 28.1103 64.52 27.9869L65.3749 26.8969C65.4419 26.8185 65.5018 26.7342 65.5539 26.6452C65.5628 26.626 65.5674 26.6051 65.5674 26.5839C65.5674 26.5627 65.5628 26.5418 65.5539 26.5226C65.5201 26.4625 65.4724 26.4114 65.4147 26.3735V26.3702Z" fill="white"/>
<path d="M68.7349 28.4937L67.0947 30.2131C66.9676 30.3544 66.8302 30.4862 66.6838 30.6073C66.5858 30.6784 66.4721 30.725 66.3524 30.7432C66.2084 30.7672 66.0605 30.7512 65.925 30.6968C65.7663 30.6336 65.622 30.5389 65.5008 30.4185C65.361 30.2871 65.2485 30.1295 65.1695 29.9547C65.1046 29.8127 65.0783 29.6562 65.0932 29.5008C65.1106 29.3721 65.1608 29.25 65.239 29.1464C65.4046 28.941 65.5804 28.7442 65.7659 28.5567L67.2173 27.0328L67.88 27.6722L66.0376 29.6035C65.9649 29.6715 65.9024 29.7496 65.8521 29.8354C65.8454 29.857 65.8449 29.8801 65.8508 29.9019C65.8567 29.9237 65.8687 29.9434 65.8854 29.9587C65.9021 29.974 65.9227 29.9842 65.945 29.9882C65.9673 29.9922 65.9902 29.9898 66.0111 29.9812C66.1045 29.9161 66.1892 29.8393 66.263 29.7526L68.0722 27.8544L68.7349 28.4937Z" fill="white"/>
<path d="M69.4109 31.5979L68.8145 30.8956L69.2817 30.4914C69.3723 30.4236 69.4517 30.342 69.517 30.2496C69.5266 30.225 69.5282 30.198 69.5217 30.1725C69.5152 30.1469 69.5008 30.124 69.4805 30.1071C69.4644 30.0819 69.4404 30.0627 69.4122 30.0525C69.3841 30.0423 69.3533 30.0417 69.3248 30.0508C69.2209 30.1061 69.1251 30.1752 69.0398 30.2562L67.7839 31.3428C67.6929 31.4111 67.6125 31.4927 67.5453 31.5846C67.5324 31.6111 67.5287 31.641 67.5347 31.6698C67.5407 31.6986 67.5561 31.7246 67.5785 31.7436C67.5939 31.7669 67.6165 31.7844 67.6429 31.7934C67.6693 31.8024 67.6979 31.8024 67.7243 31.7933C67.8355 31.7349 67.9381 31.6613 68.0291 31.5747L68.3605 31.2798L68.9636 31.9822L68.8609 32.0716C68.6692 32.2526 68.4527 32.4054 68.218 32.5255C68.0453 32.5856 67.8573 32.5856 67.6845 32.5255C67.4631 32.4554 67.2672 32.3218 67.1212 32.1412C66.9607 31.9721 66.8466 31.7644 66.7898 31.5383C66.7672 31.449 66.7626 31.3562 66.7762 31.2652C66.7899 31.1742 66.8215 31.0868 66.8694 31.0082C67.0174 30.7885 67.1985 30.593 67.4062 30.4285L68.1915 29.7493C68.3359 29.6215 68.4874 29.502 68.6455 29.3915C68.7607 29.3204 68.8915 29.2783 69.0265 29.269C69.1817 29.2577 69.3371 29.2874 69.4772 29.3551C69.6617 29.4523 69.8237 29.5871 69.9527 29.7509C70.0817 29.9147 70.1749 30.1038 70.2261 30.3059C70.266 30.4831 70.2414 30.6687 70.1565 30.8293C70.0181 31.0346 69.8494 31.2178 69.6561 31.3726L69.4109 31.5979Z" fill="white"/>
<path d="M70.9253 31.0347L71.8299 32.2836L71.2533 32.7011L70.8922 32.2008L70.3454 32.5984L70.6768 33.0655L70.14 33.463L69.8086 32.9992L69.1757 33.4597L69.5733 34.0096L68.9968 34.427L68.0524 33.1284L70.9253 31.0347Z" fill="white"/>
<path d="M20.084 53.8437H18.0361V44.1106L14.9578 53.8437H13.9073L10.8256 44.1106V53.8437H9.16882V42.7258H12.3035L14.6231 49.8849L16.9128 42.7258H20.0674L20.084 53.8437Z" fill="white"/>
<path d="M34.051 49.9808L35.9067 50.1862C35.8205 51.2283 35.3617 52.2044 34.6143 52.9359C34.2241 53.3008 33.7647 53.584 33.2634 53.7689C32.7621 53.9538 32.2288 54.0366 31.695 54.0126C30.807 54.053 29.9328 53.7824 29.223 53.2473C28.5609 52.6962 28.0566 51.9795 27.7617 51.1702C27.4095 50.2483 27.2352 49.2681 27.2481 48.2814C27.2481 46.5852 27.6502 45.207 28.4543 44.1469C28.809 43.7024 29.2497 43.3339 29.75 43.0634C30.2503 42.7929 30.7999 42.6259 31.3662 42.5725C31.9325 42.519 32.5037 42.5801 33.0458 42.7521C33.5879 42.9242 34.0898 43.2036 34.5216 43.5738C35.3062 44.3565 35.7956 45.3866 35.9067 46.4891L34.051 46.6846C33.7064 45.0061 32.9509 44.1668 31.7845 44.1668C31.4249 44.1618 31.071 44.2571 30.7625 44.4421C30.454 44.627 30.2032 44.8942 30.0382 45.2137C29.6207 45.9193 29.4152 46.9132 29.4152 48.2383C29.4152 49.5634 29.6372 50.6004 30.078 51.2861C30.2547 51.5996 30.5118 51.8603 30.8228 52.0414C31.1338 52.2225 31.4875 52.3174 31.8474 52.3164C32.1325 52.3189 32.4145 52.2584 32.6734 52.1393C32.9323 52.0202 33.1617 51.8454 33.3452 51.6273C33.756 51.1716 34.0042 50.5926 34.051 49.9808V49.9808Z" fill="white"/>
<path d="M48.293 53.8437H46.3049V49.0136H42.0435V53.8437H40.0388V42.7258H42.0435V47.2942H46.2817V42.7258H48.2699L48.293 53.8437Z" fill="white"/>
<path d="M59.7119 53.8437H52.4849V42.7258H59.639V44.3823H54.4896V47.3969H58.6284V49.007H54.4896V52.121H59.7119V53.8437Z" fill="white"/>
<path d="M70.2957 53.8437H63.453V42.7258H65.5638V52.0283H70.2957V53.8437Z" fill="white"/>
<path d="M87.8514 53.8437H85.9063L81.6847 46.741C81.6217 46.6317 81.5157 46.4561 81.3533 46.2109C81.2904 46.1016 81.1876 45.9327 81.0518 45.6974V53.8437H79.4413V42.7258H81.6549L85.5517 49.2753C85.5815 49.3283 85.8201 49.7259 86.2575 50.4713V42.7258H87.8381L87.8514 53.8437Z" fill="white"/>
<path d="M48.5151 97L0 48.5L48.5151 0L97.0269 48.5L48.5151 97ZM0.937762 48.5L48.5151 96.0658L96.0891 48.5L48.5151 0.934221L0.937762 48.5Z" fill="white"/>
<path d="M42.5704 85.9285L42.4511 86.4122L41.8215 86.2531L41.9408 85.7728L40.5358 85.4216L40.6617 84.9181L42.3186 82.8111L42.9813 82.9734L41.3576 85.0373L42.07 85.2162L42.3119 84.2522L42.9415 84.4112L42.6996 85.3719L42.9747 85.4415L42.8355 85.9981L42.5704 85.9285Z" fill="white"/>
<path d="M45.619 86.0047C45.603 86.1466 45.5492 86.2816 45.4632 86.3956C45.3836 86.4984 45.2831 86.5831 45.1683 86.6441C45.0527 86.7048 44.9269 86.7441 44.7972 86.76C44.6687 86.7799 44.538 86.7799 44.4095 86.76C44.281 86.7425 44.1558 86.7057 44.0384 86.6507C43.9155 86.6 43.8032 86.527 43.707 86.4354C43.6125 86.3421 43.5401 86.2289 43.4949 86.1041C43.4447 85.971 43.4298 85.8272 43.4519 85.6867L43.6904 84.0302C43.7082 83.8872 43.7631 83.7513 43.8495 83.636C43.9272 83.5306 44.0281 83.4445 44.1444 83.3842C44.2611 83.3218 44.3878 83.2803 44.5189 83.2617C44.6451 83.2418 44.7737 83.2418 44.8999 83.2617C45.0283 83.2798 45.1534 83.3166 45.2711 83.371C45.3933 83.4256 45.5054 83.5007 45.6024 83.5929C45.6958 83.6871 45.7681 83.8 45.8145 83.9242C45.8646 84.0596 45.8794 84.2056 45.8576 84.3483L45.619 86.0047ZM45.2048 84.3913C45.2218 84.3217 45.2218 84.249 45.2048 84.1793C45.1874 84.1229 45.158 84.0709 45.1186 84.0269C45.0811 83.9866 45.0361 83.954 44.9861 83.9308C44.9382 83.907 44.8867 83.8913 44.8337 83.8845C44.781 83.8762 44.7273 83.8762 44.6746 83.8845C44.6198 83.8942 44.5672 83.9133 44.5189 83.9408C44.4683 83.9718 44.4253 84.0137 44.3929 84.0634C44.3569 84.1244 44.3333 84.192 44.3233 84.2621L44.1245 85.6568C44.1074 85.7254 44.1074 85.797 44.1245 85.8655C44.141 85.9202 44.169 85.9707 44.2068 86.0136C44.2445 86.0565 44.2911 86.0907 44.3432 86.114C44.3917 86.1356 44.4431 86.1501 44.4957 86.1571C44.5495 86.1654 44.6042 86.1654 44.658 86.1571C44.712 86.1483 44.7638 86.1292 44.8105 86.1008C44.8617 86.0707 44.9049 86.0286 44.9364 85.9782C44.9729 85.9186 44.9966 85.852 45.006 85.7827L45.2048 84.3913Z" fill="white"/>
<path d="M50.2581 85.14L49.9532 85.786L49.5953 86.5414H49.0983L48.6907 85.8258L48.3361 85.1798H48.3163L48.3693 87.0416L47.68 87.0615L47.5806 83.5962H48.2135L48.8763 84.7988L49.3203 85.6436H49.3501L49.7478 84.759L50.3078 83.5399L50.9407 83.5201L51.0401 86.9853L50.3508 87.0052L50.2978 85.1433L50.2581 85.14Z" fill="white"/>
<path d="M53.5949 84.3019L53.3431 84.8783C53.3165 84.9479 53.2801 85.034 53.237 85.1334C53.1939 85.2328 53.1475 85.3454 53.0945 85.4647C53.0415 85.5839 52.9918 85.7032 52.9355 85.8291L52.7797 86.1902L52.6406 86.5215C52.5942 86.6209 52.5577 86.707 52.5279 86.7766L51.9149 86.8793L51.3416 83.4604L52.0043 83.3478L52.3788 85.5939H52.3987L52.9421 84.3483L53.4789 83.096L54.0986 82.9933L54.6718 86.4122L54.0091 86.5248L53.6347 84.2986L53.5949 84.3019Z" fill="white"/>
<path d="M57.4023 85.6436L56.9848 84.2555L55.7587 84.6232L56.1762 86.0113L55.5135 86.2101L54.5194 82.8972L55.1821 82.6985L55.5831 84.0236L56.8091 83.6559L56.4049 82.3308L57.0676 82.1287L58.0617 85.4415L57.4023 85.6436Z" fill="white"/>
<path d="M39.1573 12.4098C39.2885 12.3769 39.4231 12.3603 39.5583 12.3601C39.6871 12.3621 39.8143 12.3891 39.9327 12.4396C40.0525 12.4913 40.159 12.5694 40.2442 12.6682C40.3408 12.782 40.409 12.9171 40.443 13.0624C40.4863 13.2151 40.4863 13.3768 40.443 13.5295C40.399 13.6726 40.3151 13.8001 40.2011 13.8973C40.357 13.9208 40.5011 13.994 40.612 14.106C40.7243 14.2181 40.8035 14.3592 40.8407 14.5135C40.889 14.6758 40.897 14.8475 40.8639 15.0137C40.8347 15.1547 40.7759 15.2879 40.6916 15.4046C40.6085 15.5146 40.5064 15.6089 40.39 15.6829C40.2738 15.7542 40.1476 15.8078 40.0156 15.8419C39.8234 15.8932 39.6241 15.9122 39.4257 15.8982C39.2456 15.8887 39.0694 15.8413 38.9088 15.7591C38.9088 15.7591 38.9088 15.7127 38.942 15.6564L39.0082 15.4709L39.0712 15.2853L39.1076 15.1826C39.2221 15.2381 39.3455 15.2728 39.4721 15.2853C39.5919 15.2965 39.7127 15.2887 39.83 15.2622C39.9623 15.2333 40.0798 15.1581 40.1614 15.0501C40.1961 14.9987 40.2186 14.9401 40.2272 14.8786C40.2359 14.8172 40.2303 14.7546 40.2111 14.6957C40.1832 14.5754 40.1095 14.4708 40.0056 14.4041C39.9529 14.371 39.8936 14.3497 39.8318 14.3417C39.77 14.3337 39.7072 14.3391 39.6478 14.3577L39.2468 14.4604L39.111 13.9337L39.502 13.8343C39.6117 13.8048 39.707 13.7365 39.7704 13.6422C39.8036 13.5901 39.8252 13.5315 39.8338 13.4703C39.8424 13.4092 39.8377 13.3469 39.8201 13.2877C39.8041 13.2244 39.7722 13.1662 39.7273 13.1188C39.6879 13.0793 39.6404 13.0488 39.5881 13.0293C39.5354 13.0088 39.4789 12.9998 39.4224 13.0028C39.3688 13.002 39.3152 13.0087 39.2634 13.0227C39.1445 13.0511 39.0321 13.1017 38.932 13.1718C38.8276 13.2425 38.7377 13.3324 38.6669 13.4368L38.213 13.0227C38.3157 12.8731 38.4476 12.7458 38.6007 12.6483C38.7718 12.5388 38.9599 12.4582 39.1573 12.4098V12.4098Z" fill="white"/>
<path d="M42.8289 15.1794L42.3782 11.744L43.0608 11.6546L43.2431 13.036L43.5745 12.9896C43.6375 12.9811 43.6997 12.9667 43.76 12.9466C43.8158 12.9278 43.8676 12.8986 43.9125 12.8604C43.9593 12.8172 43.9975 12.7655 44.0251 12.7081C44.0586 12.6328 44.0831 12.5538 44.098 12.4728L44.2736 11.479L44.9695 11.3862L44.7939 12.4298C44.7674 12.5867 44.7171 12.7386 44.6448 12.8803C44.5896 12.9924 44.5002 13.084 44.3896 13.142C44.5319 13.167 44.6615 13.2394 44.7574 13.3474C44.8608 13.4684 44.9447 13.6048 45.006 13.7516L45.4831 14.815L44.7375 14.9144L44.3233 13.9537C44.29 13.8762 44.2477 13.8028 44.1974 13.735C44.1551 13.6859 44.1047 13.6444 44.0483 13.6125C43.9945 13.5862 43.9358 13.5715 43.876 13.5694C43.8111 13.5613 43.7454 13.5613 43.6805 13.5694L43.3061 13.6191L43.4949 15.0701L42.8289 15.1794Z" fill="white"/>
<path d="M47.3388 13.9106C47.2685 14.1691 47.1366 14.4067 46.9544 14.603C46.7964 14.7464 46.5912 14.8266 46.3778 14.8283H46.01L45.9868 14.285H46.2983C46.3706 14.2852 46.4416 14.2658 46.5037 14.2287C46.5573 14.189 46.5987 14.135 46.623 14.073C46.6265 14.0568 46.6321 14.0413 46.6396 14.0266L46.6595 13.9868L45.4434 11.3564L46.1624 11.3233L46.623 12.4331C46.6893 12.5822 46.7456 12.7246 46.7953 12.8571L46.9246 13.1884H46.9444L47.183 12.3735C47.183 12.3536 47.2029 12.3138 47.2195 12.2542C47.236 12.1946 47.2625 12.125 47.2857 12.0455L47.3586 11.8003C47.3852 11.7175 47.4117 11.638 47.4349 11.5618L47.4945 11.3697C47.5064 11.3374 47.5153 11.3042 47.521 11.2703L48.2069 11.2405L47.3388 13.9106Z" fill="white"/>
<path d="M49.8969 13.5561L49.1612 14.7256L48.3792 14.6957L49.5522 12.9631L48.5813 11.2338L49.3634 11.267L49.9399 12.3999L50.6027 11.3133L51.3747 11.3432L50.2846 12.9996L51.3118 14.815L50.5331 14.7852L49.8969 13.5561Z" fill="white"/>
<path d="M53.512 15.0867L53.6976 13.6522L52.4285 13.4866L52.2429 14.9243L51.5603 14.8349L52.0043 11.3995L52.6869 11.4856L52.508 12.8737L53.7771 13.036L53.9561 11.6512L54.6486 11.7407L54.2046 15.1761L53.512 15.0867Z" fill="white"/>
<path d="M57.2333 13.5229L56.7827 13.9635L56.5871 14.159L56.3287 14.4074C56.2359 14.4936 56.1431 14.5863 56.0437 14.6824L55.762 14.9574L55.5069 15.2058L55.3081 15.4013L54.6984 15.2622L55.4704 11.8831L56.1332 12.0354L55.6262 14.2584H55.6461L56.6037 13.3175L57.5779 12.3634L58.1876 12.5026L57.4156 15.8817L56.7528 15.7293L57.2532 13.5262L57.2333 13.5229Z" fill="white"/>
<path d="M40.8473 32.9595L40.1017 33.3305L40.1779 33.8407L39.724 34.0593L39.4357 31.5548L39.8698 31.3428L41.6558 33.1218L41.1919 33.3471L40.8473 32.9595ZM40.0421 32.9065L40.559 32.658L40.3436 32.4261L39.8996 31.9424L40.0056 32.5785L40.0421 32.9065Z" fill="white"/>
<path d="M42.1595 30.8723L42.8024 32.7142L42.3584 32.8699L41.7122 31.028L41.1157 31.2367L40.9766 30.8358L42.6102 30.2627L42.7527 30.6635L42.1595 30.8723Z" fill="white"/>
<path d="M46.2519 31.1505C46.2789 31.2649 46.2789 31.384 46.2519 31.4984C46.2206 31.5993 46.1674 31.692 46.0961 31.77C46.0228 31.8529 45.9338 31.9204 45.8344 31.9688C45.7294 32.0195 45.6179 32.0552 45.503 32.0748C45.3854 32.0913 45.266 32.0913 45.1484 32.0748C45.0395 32.0604 44.9341 32.0267 44.8369 31.9754C44.7437 31.9231 44.6634 31.8507 44.6017 31.7634C44.5333 31.6649 44.4901 31.5512 44.4758 31.4321L44.33 30.5708C44.3109 30.4603 44.3177 30.3469 44.3498 30.2395C44.382 30.1375 44.4376 30.0445 44.5122 29.9679C44.5869 29.8868 44.677 29.8215 44.7773 29.7757C44.8822 29.7248 44.9937 29.6891 45.1087 29.6697C45.2186 29.6544 45.3301 29.6544 45.44 29.6697C45.5555 29.6828 45.6678 29.7165 45.7714 29.7691C45.8655 29.8199 45.9471 29.8913 46.01 29.9778C46.0798 30.0762 46.1252 30.1897 46.1425 30.3091L46.2519 31.1505ZM45.6587 30.4648C45.6495 30.3965 45.6258 30.331 45.5892 30.2726C45.5577 30.226 45.5157 30.1874 45.4665 30.16C45.4209 30.1326 45.3702 30.1146 45.3174 30.107C45.2636 30.0987 45.2089 30.0987 45.1551 30.107C45.1012 30.1165 45.0488 30.1332 44.9993 30.1567C44.9502 30.1811 44.9063 30.2148 44.8701 30.2561C44.835 30.299 44.8091 30.3486 44.7939 30.4018C44.7788 30.4684 44.7788 30.5374 44.7939 30.6039L44.9065 31.2897C44.9165 31.3583 44.9414 31.4239 44.9794 31.4818C45.0096 31.5292 45.0505 31.5689 45.0987 31.5978C45.1456 31.6246 45.1975 31.6415 45.2512 31.6475C45.305 31.6557 45.3597 31.6557 45.4135 31.6475C45.4676 31.6406 45.5203 31.625 45.5693 31.6011C45.6191 31.5779 45.6632 31.5439 45.6982 31.5015C45.7332 31.459 45.7582 31.4093 45.7714 31.3559C45.7865 31.2883 45.7865 31.2182 45.7714 31.1505L45.6587 30.4648Z" fill="white"/>
<path d="M48.525 31.0114C48.5307 31.1246 48.5115 31.2377 48.4687 31.3427C48.4279 31.4375 48.3655 31.5214 48.2864 31.5878C48.2092 31.6566 48.1191 31.7095 48.0214 31.7435C47.9204 31.7809 47.8141 31.8022 47.7066 31.8065L46.8119 31.8429L46.7125 29.4676L47.6138 29.4279C47.7255 29.4222 47.8374 29.4345 47.9451 29.4643C48.0444 29.4889 48.1379 29.5328 48.2202 29.5935C48.3075 29.6592 48.3784 29.7442 48.4273 29.8419C48.4762 29.9397 48.5017 30.0474 48.5018 30.1567L48.525 31.0114ZM48.0147 30.2693C48.0136 30.2012 47.9966 30.1343 47.965 30.0739C47.94 30.0233 47.9037 29.9791 47.859 29.9447C47.8169 29.9117 47.7683 29.888 47.7165 29.8751C47.6655 29.863 47.6132 29.8575 47.5608 29.8585L47.2029 29.8751L47.2658 31.4089H47.6237C47.6755 31.405 47.7267 31.395 47.7761 31.3791C47.8265 31.3625 47.8728 31.3354 47.912 31.2996C47.9542 31.2617 47.988 31.2154 48.0114 31.1638C48.0359 31.0982 48.0461 31.0282 48.0412 30.9584L48.0147 30.2693Z" fill="white"/>
<path d="M49.1513 29.428L50.785 29.5539L50.7551 29.9746L49.592 29.8885L49.549 30.4318L50.5431 30.508L50.5132 30.932L49.5191 30.8558L49.4794 31.4124L50.6425 31.5018L50.6093 31.9259L48.9757 31.8L49.1513 29.428Z" fill="white"/>
<path d="M52.8328 31.6376C52.8163 31.7419 52.7729 31.8401 52.7068 31.9225C52.6464 32.0008 52.568 32.0633 52.4782 32.1047C52.3805 32.1468 52.2762 32.1714 52.17 32.1776C52.0491 32.1861 51.9276 32.1783 51.8088 32.1544C51.6466 32.1234 51.4901 32.0675 51.3449 31.9888C51.1943 31.9048 51.0615 31.7923 50.9539 31.6575L51.2853 31.3693C51.3668 31.4632 51.4617 31.5447 51.5669 31.6111C51.6631 31.6724 51.7698 31.7151 51.8817 31.737C51.9466 31.7461 52.0124 31.7461 52.0772 31.737C52.1246 31.7347 52.1709 31.7223 52.2131 31.7006C52.2475 31.6825 52.2771 31.6563 52.2993 31.6244C52.3209 31.5974 52.3356 31.5655 52.3423 31.5316C52.3562 31.4863 52.3562 31.4378 52.3423 31.3925C52.3178 31.351 52.2851 31.3149 52.2462 31.2865C52.1961 31.2489 52.1429 31.2157 52.0872 31.1871L51.8751 31.0811C51.7913 31.0429 51.7105 30.9986 51.6332 30.9486C51.5602 30.9021 51.4943 30.8452 51.4377 30.7796C51.3854 30.7165 51.3471 30.6432 51.325 30.5643C51.3016 30.473 51.3016 30.3773 51.325 30.286C51.3434 30.1902 51.3806 30.099 51.4344 30.0176C51.4883 29.9396 51.5584 29.8741 51.6398 29.8255C51.7258 29.7763 51.8202 29.7437 51.9182 29.7294C52.0278 29.7102 52.1399 29.7102 52.2495 29.7294C52.3937 29.7571 52.5347 29.7993 52.6704 29.8553C52.8113 29.9156 52.9395 30.0022 53.0481 30.1104L52.7731 30.4417C52.6887 30.3638 52.5939 30.298 52.4914 30.2462C52.4021 30.203 52.3074 30.1718 52.2098 30.1535C52.1647 30.147 52.119 30.147 52.0739 30.1535C52.0297 30.1552 51.986 30.1642 51.9447 30.18C51.9057 30.1937 51.8705 30.2164 51.842 30.2462C51.8134 30.2806 51.7941 30.3216 51.7856 30.3655C51.772 30.4064 51.772 30.4505 51.7856 30.4914C51.8062 30.5327 51.8356 30.5689 51.8718 30.5974C51.9195 30.6331 51.9706 30.6642 52.0242 30.6902L52.233 30.7895C52.4296 30.8622 52.6043 30.9842 52.74 31.144C52.7915 31.2141 52.8265 31.2948 52.8426 31.3803C52.8587 31.4657 52.8553 31.5537 52.8328 31.6376V31.6376Z" fill="white"/>
<path d="M54.9204 32.2869C54.8899 32.3889 54.8354 32.4821 54.7613 32.5586C54.6908 32.6281 54.6043 32.6793 54.5095 32.7077C54.403 32.7441 54.2901 32.7577 54.1781 32.7474C54.0574 32.7394 53.9383 32.716 53.8235 32.6779C53.666 32.6286 53.5173 32.5548 53.3828 32.4592C53.2493 32.3556 53.1368 32.2274 53.0515 32.0815L53.4093 31.8331C53.4782 31.9374 53.5632 32.0302 53.6612 32.108C53.7483 32.1803 53.8484 32.2354 53.9561 32.2704C54.0178 32.2931 54.0826 32.3065 54.1483 32.3101C54.1967 32.314 54.2453 32.3072 54.2908 32.2903C54.3257 32.2759 54.3573 32.2545 54.3835 32.2273C54.4085 32.2024 54.4267 32.1717 54.4366 32.1379C54.4515 32.0927 54.4515 32.0439 54.4366 31.9987C54.4171 31.9539 54.3889 31.9134 54.3537 31.8795C54.3076 31.8378 54.2589 31.7991 54.2079 31.7635L54.0124 31.6343C53.9336 31.5856 53.8583 31.5313 53.7871 31.472C53.7195 31.4191 53.6613 31.3553 53.6148 31.2832C53.5687 31.2144 53.5382 31.1364 53.5253 31.0546C53.513 30.9618 53.5233 30.8675 53.5551 30.7796C53.5844 30.6856 53.6329 30.5987 53.6976 30.5245C53.7601 30.4539 53.8369 30.3974 53.9229 30.3589C54.0138 30.3186 54.1119 30.2972 54.2112 30.2959C54.3237 30.2936 54.4357 30.3104 54.5426 30.3456C54.6821 30.3896 54.8166 30.4485 54.9435 30.5212C55.0772 30.5978 55.1953 30.699 55.2915 30.8194L54.9601 31.1175C54.8242 30.9505 54.6421 30.8272 54.4366 30.763C54.3927 30.7486 54.3469 30.7408 54.3007 30.7398C54.2579 30.733 54.2143 30.733 54.1715 30.7398C54.1303 30.7476 54.0923 30.7672 54.0621 30.7962C54.0279 30.8243 54.0035 30.8626 53.9925 30.9055C53.9776 30.9461 53.9776 30.9907 53.9925 31.0314C54.0074 31.0752 54.0324 31.1149 54.0654 31.1473C54.1086 31.1887 54.1551 31.2264 54.2046 31.26L54.4001 31.3792C54.5867 31.4753 54.7454 31.618 54.8607 31.7933C54.9064 31.8661 54.9355 31.9481 54.9458 32.0335C54.9561 32.1188 54.9474 32.2054 54.9204 32.2869V32.2869Z" fill="white"/>
<path d="M56.4347 33.1813L55.6825 32.8302L55.3346 33.2111L54.8773 32.9958L56.6402 31.1936L57.0776 31.399L56.8257 33.9035L56.3585 33.6882L56.4347 33.1813ZM55.9675 32.5187L56.4844 32.7606L56.5308 32.4293L56.6269 31.7667L56.1995 32.2471L55.9675 32.5187Z" fill="white"/>
<path d="M26.6019 60.8601L28.0168 63.0896L27.4403 63.4574L26.4462 61.8705L25.7039 62.3409L26.5655 63.6992L25.9889 64.0636L25.1273 62.7087L24.3652 63.189L25.3593 64.7759L24.7827 65.1337L23.3678 62.9041L26.6019 60.8601Z" fill="white"/>
<path d="M28.9579 65.74C28.9627 65.5924 28.9356 65.4455 28.8784 65.3094C28.8235 65.1904 28.7533 65.079 28.6697 64.9781C28.6149 64.9113 28.5514 64.8522 28.4808 64.8025C28.409 64.7532 28.3277 64.7194 28.2422 64.7031C28.1538 64.6834 28.0622 64.6834 27.9738 64.7031C27.8662 64.731 27.7665 64.7832 27.6822 64.8555L26.814 65.5645C26.727 65.6314 26.6567 65.7176 26.6086 65.8162C26.5696 65.8992 26.5493 65.9896 26.5489 66.0813C26.5493 66.1673 26.565 66.2525 26.5953 66.333C26.627 66.4138 26.6718 66.4888 26.7279 66.555C26.8116 66.6568 26.9086 66.7471 27.0161 66.8233C27.1429 66.9078 27.2846 66.9674 27.4337 66.9989L27.205 67.6615C27.0114 67.6211 26.827 67.5446 26.6616 67.4362C26.4783 67.3168 26.315 67.1692 26.1778 66.9989C26.0626 66.8589 25.9688 66.7026 25.8994 66.5351C25.8312 66.3743 25.7919 66.2027 25.7835 66.0283C25.7756 65.8572 25.805 65.6866 25.8696 65.528C25.9411 65.3546 26.0551 65.202 26.201 65.0841L27.3144 64.1797C27.4559 64.058 27.6256 63.9737 27.8081 63.9345C27.9753 63.8997 28.1479 63.8997 28.3151 63.9345C28.4861 63.9744 28.648 64.0463 28.7923 64.1466C28.9423 64.2474 29.0764 64.3702 29.1899 64.511C29.3262 64.6786 29.4378 64.8649 29.5213 65.0642C29.6046 65.2493 29.6443 65.4511 29.6372 65.6539L28.9579 65.74Z" fill="white"/>
<path d="M30.4822 66.9625L29.783 67.6979C29.5837 67.909 29.37 68.106 29.1435 68.2876C28.9613 68.4371 28.7552 68.5547 28.5338 68.6354C28.3401 68.7073 28.1306 68.7256 27.9274 68.6885C27.6946 68.6418 27.4757 68.5421 27.2878 68.3969L27.5993 67.8304C27.728 67.8974 27.8689 67.938 28.0135 67.9497C28.1431 67.9557 28.2723 67.9319 28.3913 67.8801C28.5325 67.8149 28.6632 67.7289 28.779 67.625C28.9115 67.5124 29.0573 67.3666 29.223 67.1977L30.4126 65.9487L32.2384 67.688L29.5875 70.4641L29.0507 69.9308L31.2211 67.6515L30.4822 66.9625Z" fill="white"/>
<path d="M33.7064 70.4343L33.0436 70.6894L32.762 70.8021L32.3942 70.9478L31.9866 71.1069L31.579 71.2659L31.2112 71.4083L30.9262 71.521L30.3762 71.1201L32.6129 68.0093L33.2292 68.4533L31.7613 70.5006L33.1397 69.9507L34.5447 69.3974L35.108 69.8016L32.8713 72.9157L32.2517 72.4684L33.7097 70.441L33.7064 70.4343Z" fill="white"/>
<path d="M36.7152 70.7159L39.1077 71.8357L38.816 72.4552L37.1128 71.6601L36.7417 72.4552L38.1964 73.1376L37.9048 73.7538L36.4501 73.0912L36.069 73.9062L37.7689 74.7046L37.4806 75.3208L35.0882 74.201L36.7152 70.7159Z" fill="white"/>
<path d="M41.3112 73.5617C41.2382 73.4301 41.1362 73.3168 41.013 73.2304C40.9014 73.1544 40.7799 73.0942 40.6518 73.0515C40.5697 73.0227 40.4836 73.0071 40.3967 73.0051C40.3075 72.9989 40.218 73.0134 40.1353 73.0472C40.0526 73.0811 39.9787 73.1336 39.9195 73.2006C39.8441 73.283 39.7886 73.3816 39.7571 73.4888L39.4258 74.5489C39.3868 74.6547 39.3732 74.7682 39.386 74.8802C39.398 74.9704 39.4284 75.0573 39.4755 75.1353C39.5237 75.2071 39.5843 75.2699 39.6544 75.3208C39.7241 75.3711 39.8013 75.4102 39.8831 75.4367C40.0089 75.4804 40.1409 75.5039 40.2741 75.5063C40.4257 75.5112 40.5768 75.4853 40.7181 75.4301L40.8738 76.0927C40.69 76.1632 40.4941 76.197 40.2973 76.1921C40.0786 76.1927 39.8613 76.1569 39.6544 76.086C39.4825 76.0302 39.3196 75.9499 39.1706 75.8475C39.0272 75.7466 38.9017 75.6223 38.7995 75.4798C38.7 75.3404 38.6321 75.181 38.6007 75.0127C38.5687 74.826 38.5859 74.6342 38.6504 74.4561L39.0977 73.0946C39.1531 72.9162 39.2522 72.7544 39.386 72.6241C39.5094 72.5066 39.6562 72.4163 39.8168 72.3591C39.9832 72.3033 40.1582 72.2775 40.3337 72.2829C40.5139 72.289 40.6923 72.3202 40.8639 72.3757C41.0704 72.4436 41.2666 72.5394 41.4471 72.6606C41.6152 72.7746 41.7566 72.9238 41.8613 73.0979L41.3112 73.5617Z" fill="white"/>
<path d="M43.6308 73.8434L42.9979 76.9276L42.249 76.7719L42.8852 73.691L41.8911 73.4856L42.0303 72.823L44.764 73.3862L44.6282 74.0488L43.6308 73.8434Z" fill="white"/>
<path d="M44.6812 77.2257L45.0126 73.4093L45.7714 73.4722L45.6455 74.9265L46.5269 74.9994C46.6993 75.0126 46.8679 75.0576 47.024 75.1319C47.16 75.1993 47.2807 75.2941 47.3785 75.4102C47.4745 75.5241 47.5446 75.6575 47.584 75.8011C47.6287 75.9571 47.6433 76.1201 47.627 76.2815C47.6153 76.4252 47.5806 76.5661 47.5243 76.6989C47.4656 76.8342 47.3812 76.9568 47.2758 77.06C47.1651 77.1679 47.033 77.2514 46.8881 77.3052C46.7133 77.3685 46.526 77.39 46.3414 77.3681L44.6812 77.2257ZM45.4964 76.6095L46.285 76.6757C46.3589 76.6865 46.4342 76.6823 46.5065 76.6636C46.5788 76.6448 46.6465 76.6118 46.7059 76.5664C46.7572 76.5265 46.7999 76.4765 46.8312 76.4196C46.8625 76.3626 46.8819 76.2998 46.8881 76.2351C46.8959 76.1676 46.889 76.0991 46.8679 76.0345C46.8467 75.9699 46.8118 75.9106 46.7655 75.8608C46.659 75.7539 46.5154 75.6922 46.3645 75.6885L45.5825 75.6189L45.4964 76.6095Z" fill="white"/>
<path d="M51.06 74.1778L51.3184 77.3151L50.5596 77.378L50.2978 74.2408L49.2839 74.3269L49.2275 73.6445L52.011 73.4126L52.0673 74.095L51.06 74.1778Z" fill="white"/>
<path d="M55.6162 75.3473C55.6578 75.5305 55.6578 75.7207 55.6162 75.9039C55.5721 76.0689 55.493 76.2226 55.3842 76.3544C55.2702 76.4906 55.1306 76.6031 54.9734 76.6857C54.8042 76.7778 54.6221 76.8437 54.4332 76.8811C54.2449 76.921 54.0518 76.9332 53.86 76.9176C53.6831 76.9045 53.5107 76.856 53.353 76.7751C53.1999 76.6948 53.0664 76.5817 52.962 76.4439C52.8485 76.2934 52.7714 76.1188 52.7366 75.9337L52.4517 74.5555C52.4049 74.3752 52.4049 74.1859 52.4517 74.0056C52.4993 73.8399 52.5818 73.6863 52.6936 73.555C52.8109 73.4209 52.9511 73.3087 53.1078 73.2238C53.2722 73.1365 53.4486 73.074 53.6313 73.0382C53.813 72.9986 53.9998 72.9885 54.1847 73.0084C54.362 73.0228 54.535 73.07 54.695 73.1476C54.8524 73.2256 54.9896 73.339 55.096 73.4788C55.2135 73.6264 55.2931 73.8004 55.3279 73.9857L55.6162 75.3473ZM54.6221 74.2772C54.6016 74.1691 54.5588 74.0664 54.4962 73.9758C54.443 73.9027 54.3739 73.8426 54.2941 73.8002C54.2183 73.7586 54.1349 73.7326 54.0488 73.724C53.9613 73.7164 53.873 73.722 53.7871 73.7406C53.701 73.7569 53.6182 73.7871 53.5419 73.83C53.4653 73.8716 53.3978 73.9279 53.343 73.9956C53.2869 74.0667 53.2473 74.1493 53.2271 74.2375C53.2019 74.3465 53.2019 74.4598 53.2271 74.5688L53.4524 75.662C53.4735 75.771 53.5163 75.8747 53.5783 75.9668C53.6332 76.0392 53.7019 76.1 53.7804 76.1457C53.8576 76.1857 53.9422 76.2094 54.029 76.2153C54.1166 76.2213 54.2046 76.2158 54.2907 76.1987C54.3764 76.1809 54.459 76.1508 54.536 76.1093C54.6133 76.0704 54.6812 76.015 54.7348 75.9469C54.7899 75.8745 54.8284 75.7908 54.8474 75.7018C54.8726 75.5928 54.8726 75.4795 54.8474 75.3705L54.6221 74.2772Z" fill="white"/>
<path d="M59.2314 72.2663C59.0915 72.2206 58.9439 72.2037 58.7973 72.2166C58.6634 72.2318 58.532 72.264 58.4063 72.3127C58.3252 72.3459 58.2493 72.3905 58.181 72.4452C58.112 72.4974 58.0554 72.5641 58.0153 72.6407C57.9724 72.7215 57.9486 72.811 57.9457 72.9024C57.9396 73.016 57.96 73.1294 58.0054 73.2337L58.4262 74.2706C58.4635 74.374 58.5248 74.4671 58.6051 74.5422C58.6714 74.6059 58.7521 74.6525 58.8404 74.6781C58.9237 74.705 59.0116 74.7151 59.0988 74.7079C59.1843 74.7014 59.2683 74.6813 59.3474 74.6483C59.466 74.5967 59.5774 74.5299 59.6787 74.4495C59.7958 74.3592 59.8938 74.2466 59.967 74.1182L60.5237 74.529C60.4294 74.7021 60.3022 74.8551 60.1493 74.9795C59.9821 75.12 59.7929 75.2319 59.5893 75.3108C59.4223 75.3802 59.2458 75.4237 59.0657 75.44C58.8913 75.4572 58.7152 75.4437 58.5455 75.4003C58.3798 75.3567 58.2251 75.2788 58.0915 75.1717C57.9448 75.0505 57.8308 74.8945 57.7601 74.7178L57.2233 73.3927C57.1477 73.2222 57.118 73.0349 57.1372 72.8494C57.1553 72.6798 57.2096 72.516 57.2962 72.369C57.381 72.219 57.4934 72.0863 57.6276 71.9781C57.7691 71.865 57.9265 71.7734 58.0948 71.7065C58.2942 71.6218 58.5054 71.5682 58.7211 71.5474C58.9232 71.5221 59.1284 71.5436 59.3209 71.6104L59.2314 72.2663Z" fill="white"/>
<path d="M59.5363 71.1136L61.8558 69.8381L62.1872 70.4344L60.5303 71.3455L60.9545 72.1141L62.3595 71.3355L62.6908 71.9352L61.2859 72.7137L61.7199 73.5021L63.3768 72.5911L63.7081 73.1907L61.3886 74.4662L59.5363 71.1136Z" fill="white"/>
<path d="M64.8116 69.351L64.8547 70.0434C64.8547 70.1262 64.8547 70.2289 64.8745 70.3482C64.8944 70.4674 64.8745 70.6 64.9011 70.7424C64.9276 70.8849 64.9176 71.0306 64.9242 71.1797L64.9541 71.617C64.9541 71.7561 64.9706 71.8887 64.9773 72.0079C64.9839 72.1272 64.9773 72.2332 64.9971 72.316L64.4438 72.7268L62.1673 69.6425L62.7803 69.192L64.2748 71.2161H64.2947L64.1919 69.7353L64.0958 68.2313L64.6558 67.8205L66.929 70.9014L66.316 71.3553L64.8381 69.3345L64.8116 69.351ZM63.3735 68.5791C63.2665 68.664 63.1401 68.721 63.0056 68.7448C62.8993 68.7606 62.7908 68.755 62.6867 68.7283C62.5825 68.7015 62.4848 68.6542 62.3993 68.5891C62.3251 68.5351 62.2563 68.4741 62.1938 68.4069L62.6047 68.1021C62.6296 68.1346 62.6599 68.1626 62.6942 68.1849C62.7315 68.2113 62.7729 68.2315 62.8168 68.2445C62.8628 68.2529 62.9099 68.2529 62.9559 68.2445C63.0054 68.238 63.0522 68.2186 63.0918 68.1882C63.1367 68.1576 63.1722 68.1152 63.1945 68.0656C63.214 68.023 63.2241 67.9767 63.2244 67.9298C63.2245 67.8849 63.2178 67.8402 63.2045 67.7973C63.1937 67.7579 63.1757 67.7208 63.1514 67.688L63.559 67.3865C63.6024 67.4673 63.639 67.5515 63.6684 67.6383C63.7047 67.7357 63.7216 67.8392 63.7181 67.9431C63.7146 68.0578 63.6876 68.1706 63.6386 68.2744C63.578 68.3972 63.4867 68.5022 63.3735 68.5791V68.5791Z" fill="white"/>
<path d="M65.4313 67.085L66.2199 67.8967C66.2778 67.9693 66.3507 68.0285 66.4336 68.0703C66.5166 68.112 66.6076 68.1353 66.7004 68.1385C66.894 68.1166 67.0724 68.0233 67.2008 67.8768C67.2918 67.7864 67.3698 67.6838 67.4327 67.572C67.4929 67.4666 67.5428 67.3557 67.5818 67.2407L66.4651 66.0846L67.0119 65.5545L69.6628 68.3042L69.1094 68.8375L68.0093 67.7078C67.9629 67.8508 67.8995 67.9876 67.8204 68.1153C67.7349 68.2476 67.6349 68.3698 67.5222 68.4797C67.3951 68.6046 67.2498 68.7096 67.0914 68.7912C66.9505 68.8649 66.796 68.9088 66.6374 68.9203C66.4792 68.9287 66.3213 68.8992 66.1768 68.8342C66.0048 68.7571 65.8511 68.6442 65.7262 68.5029L64.8746 67.625L65.4313 67.085Z" fill="white"/>
<path d="M70.9982 65.4651L70.1665 66.5119L70.6304 67.1977L70.14 67.8404L67.9728 64.4049L68.4566 63.7954L72.2905 65.1205L71.7736 65.7831L70.9982 65.4651ZM69.8086 65.9587L70.3819 65.2365L69.9047 65.0509L68.9106 64.6567V64.6733L69.5071 65.5214L69.8086 65.9587Z" fill="white"/>
<path d="M71.3295 61.1221C71.1899 61.1681 71.0613 61.2426 70.9518 61.3407C70.8527 61.4331 70.7659 61.5377 70.6933 61.6521C70.6498 61.7273 70.6153 61.8073 70.5906 61.8906C70.5724 61.9758 70.5724 62.0638 70.5906 62.149C70.606 62.2389 70.6399 62.3246 70.69 62.4008C70.7533 62.4917 70.8359 62.5675 70.9319 62.6228L71.8862 63.2025C71.9793 63.2624 72.0846 63.3008 72.1944 63.3151C72.2852 63.3227 72.3765 63.3114 72.4628 63.282C72.5459 63.2532 72.6225 63.2082 72.6881 63.1495C72.7519 63.093 72.8066 63.0271 72.8505 62.9541C72.9204 62.8411 72.9729 62.7182 73.0062 62.5896C73.0442 62.4437 73.0532 62.2918 73.0327 62.1424H73.7253C73.7516 62.3382 73.7404 62.5372 73.6921 62.7288C73.644 62.9423 73.5599 63.1462 73.4436 63.3317C73.3543 63.4854 73.2426 63.625 73.1123 63.7458C72.9826 63.8643 72.8335 63.9595 72.6715 64.0274C72.5127 64.091 72.3422 64.1203 72.1712 64.1135C71.9827 64.1021 71.8002 64.0428 71.641 63.9413L70.415 63.1959C70.2531 63.1033 70.1174 62.971 70.0206 62.8116C69.9333 62.6647 69.878 62.501 69.8583 62.3312C69.8414 62.1567 69.8559 61.9805 69.9013 61.8111C69.9473 61.6365 70.0176 61.4692 70.1101 61.3142C70.2221 61.1284 70.3605 60.9599 70.521 60.814C70.6688 60.6749 70.8452 60.5697 71.0379 60.5059L71.3295 61.1221Z" fill="white"/>
<path d="M48.5151 17.3096C55.4804 17.319 62.243 19.6546 67.7289 23.9454C73.2149 28.2362 77.1098 34.2364 78.7952 40.9931H79.4778C77.795 34.051 73.827 27.8758 68.2113 23.4596C62.5957 19.0434 55.6582 16.6425 48.5134 16.6425C41.3686 16.6425 34.4312 19.0434 28.8155 23.4596C23.1998 27.8758 19.2319 34.051 17.5491 40.9931H18.2317C19.9177 34.2361 23.8133 28.2359 29.2998 23.9451C34.7863 19.6543 41.5493 17.3188 48.5151 17.3096V17.3096Z" fill="white"/>
<path d="M48.5151 79.6904C41.5487 79.6816 34.7851 77.3459 29.2984 73.0543C23.8117 68.7628 19.9166 62.7615 18.2317 56.0036H17.5491C19.2319 62.9457 23.1998 69.1209 28.8155 73.5371C34.4312 77.9533 41.3686 80.3542 48.5134 80.3542C55.6582 80.3542 62.5957 77.9533 68.2113 73.5371C73.827 69.1209 77.795 62.9457 79.4778 56.0036H78.7952C77.1104 62.7609 73.2158 68.7618 67.7298 73.0533C62.2437 77.3448 55.4809 79.6808 48.5151 79.6904V79.6904Z" fill="white"/>
<path d="M48.5151 69.9341C44.1482 69.929 39.8866 68.5929 36.2988 66.104C32.711 63.615 29.9675 60.0916 28.4344 56.0036H27.7253C29.2674 60.2784 32.0908 63.9736 35.8103 66.5856C39.5299 69.1975 43.9647 70.599 48.5101 70.599C53.0555 70.599 57.4903 69.1975 61.2099 66.5856C64.9295 63.9736 67.7528 60.2784 69.295 56.0036H68.5892C67.0568 60.0908 64.3145 63.6138 60.7279 66.1027C57.1413 68.5916 52.881 69.9281 48.5151 69.9341V69.9341Z" fill="white"/>
<path d="M48.5151 27.0659C52.8795 27.0704 57.1389 28.4044 60.7258 30.8902C64.3127 33.376 67.0568 36.8955 68.5924 40.9799H69.2983C67.7546 36.7066 64.9307 33.013 61.2114 30.4023C57.492 27.7917 53.0579 26.3909 48.5134 26.3909C43.9689 26.3909 39.5349 27.7917 35.8155 30.4023C32.0961 33.013 29.2722 36.7066 27.7286 40.9799H28.4344C29.9702 36.895 32.7148 33.3751 36.3024 30.8892C39.8899 28.4034 44.1501 27.0697 48.5151 27.0659V27.0659Z" fill="white"/>
<path d="M40.9799 32.8964L40.231 33.2509L40.3006 33.7611L39.8466 33.9797L39.5782 31.4719L40.0156 31.2632L41.7851 33.0554L41.3212 33.2774L40.9799 32.8964ZM40.1746 32.8401L40.6916 32.5916L40.4795 32.3597L40.0388 31.8694L40.1415 32.5055L40.1746 32.8401Z" fill="white"/>
<path d="M42.3053 30.8194L42.9349 32.6679L42.4875 32.8203L41.8579 30.9717L41.2582 31.1738L41.1223 30.773L42.7626 30.2131L42.8984 30.6173L42.3053 30.8194Z" fill="white"/>
<path d="M46.4043 31.1341C46.4229 31.2446 46.4161 31.3579 46.3844 31.4654C46.3539 31.5676 46.3006 31.6616 46.2287 31.7403C46.1553 31.8214 46.0662 31.8867 45.9669 31.9325C45.8624 31.9841 45.7507 32.0199 45.6355 32.0385C45.5168 32.055 45.3964 32.055 45.2777 32.0385C45.1682 32.0244 45.0625 31.9896 44.9662 31.9358C44.8698 31.8801 44.7874 31.8031 44.7253 31.7107C44.6633 31.6182 44.6233 31.5128 44.6083 31.4024L44.4725 30.5378C44.4529 30.4282 44.4594 30.3156 44.4917 30.2091C44.5239 30.1026 44.5809 30.0052 44.658 29.9249C44.735 29.8458 44.826 29.7818 44.9264 29.7361C45.0314 29.6862 45.143 29.6517 45.2578 29.6334C45.3677 29.6181 45.4792 29.6181 45.5892 29.6334C45.7052 29.6458 45.8178 29.6807 45.9205 29.7361C46.0147 29.7869 46.0962 29.8583 46.1591 29.9448C46.2269 30.0436 46.27 30.1572 46.285 30.2761L46.4043 31.1341ZM45.8145 30.4417C45.8068 30.3741 45.7829 30.3093 45.7449 30.2529C45.7147 30.2055 45.6739 30.1658 45.6256 30.1369C45.5806 30.1082 45.5296 30.09 45.4765 30.0839C45.4228 30.074 45.3678 30.074 45.3141 30.0839C45.2604 30.094 45.208 30.1107 45.1584 30.1336C45.1094 30.1568 45.0655 30.1895 45.0292 30.2297C44.9922 30.2726 44.9661 30.3237 44.9529 30.3788C44.9375 30.4452 44.9375 30.5144 44.9529 30.5809L45.059 31.2633C45.0682 31.3316 45.0919 31.3971 45.1286 31.4554C45.1586 31.5038 45.1995 31.5446 45.2479 31.5747C45.2949 31.601 45.3467 31.6179 45.4003 31.6244C45.4552 31.6327 45.511 31.6327 45.566 31.6244C45.619 31.6175 45.6705 31.6019 45.7184 31.578C45.7674 31.5548 45.8113 31.5222 45.8476 31.4819C45.8833 31.4382 45.9093 31.3874 45.9238 31.3329C45.9391 31.2664 45.9391 31.1973 45.9238 31.1308L45.8145 30.4417Z" fill="white"/>
<path d="M48.6741 31.0281C48.6811 31.1363 48.6628 31.2447 48.6209 31.3447C48.5789 31.4447 48.5143 31.5336 48.4322 31.6045C48.3524 31.6715 48.2616 31.7241 48.1638 31.7602C48.0568 31.7955 47.9451 31.8145 47.8324 31.8165L46.9344 31.8463L46.8549 29.471L47.7562 29.4412C47.8679 29.4351 47.9799 29.4474 48.0876 29.4777C48.1871 29.5034 48.2805 29.5484 48.3626 29.6102C48.444 29.6736 48.5107 29.7538 48.5581 29.8454C48.6117 29.9476 48.6401 30.0612 48.641 30.1767L48.6741 31.0281ZM48.1671 30.2794C48.167 30.2115 48.1512 30.1446 48.1207 30.0839C48.0957 30.0333 48.0594 29.9891 48.0147 29.9547C47.9734 29.9225 47.9261 29.8989 47.8755 29.8851C47.8228 29.877 47.7692 29.877 47.7165 29.8851H47.3586L47.4116 31.4223H47.7695C47.8203 31.4216 47.8707 31.4126 47.9186 31.3958C47.9703 31.3799 48.0179 31.3528 48.0578 31.3163C48.1009 31.2792 48.1349 31.2327 48.1572 31.1805C48.1832 31.1153 48.1945 31.0451 48.1903 30.9751L48.1671 30.2794Z" fill="white"/>
<path d="M49.3103 29.4346L50.944 29.5704L50.9075 29.9945L49.7444 29.8984L49.7013 30.4417L50.6954 30.5245L50.659 30.9486L49.6649 30.8657L49.6185 31.4223L50.7816 31.5184L50.7451 31.9424L49.1115 31.8066L49.3103 29.4346Z" fill="white"/>
<path d="M52.9786 31.6741C52.9624 31.7751 52.9212 31.8705 52.8586 31.9515C52.7961 32.0325 52.7143 32.0966 52.6207 32.1379C52.522 32.1803 52.4165 32.205 52.3092 32.2108C52.188 32.2168 52.0666 32.2068 51.948 32.1809C51.7869 32.1499 51.6315 32.094 51.4874 32.0153C51.3386 31.9301 51.2071 31.8178 51.0997 31.684L51.4311 31.3991C51.5114 31.494 51.6052 31.5765 51.7094 31.6443C51.8097 31.71 51.9225 31.754 52.0408 31.7735C52.1046 31.7825 52.1693 31.7825 52.233 31.7735C52.281 31.7711 52.3282 31.7598 52.3722 31.7403C52.4066 31.7222 52.4362 31.6961 52.4583 31.6641C52.4805 31.6362 52.4954 31.6032 52.5014 31.5681C52.5166 31.5241 52.5166 31.4763 52.5014 31.4322C52.4788 31.3895 52.4472 31.3522 52.4086 31.3229C52.3585 31.2854 52.3053 31.2521 52.2496 31.2235L52.0408 31.1175C51.9566 31.0789 51.8757 31.0335 51.7989 30.9817C51.7259 30.9352 51.66 30.8783 51.6034 30.8127C51.5505 30.7489 51.512 30.6743 51.4907 30.5941C51.4691 30.5037 51.4691 30.4095 51.4907 30.3191C51.5091 30.2228 51.5474 30.1313 51.6034 30.0508C51.6584 29.9737 51.7282 29.9083 51.8089 29.8586C51.8943 29.8091 51.9891 29.7775 52.0872 29.7659C52.1969 29.7474 52.3089 29.7474 52.4186 29.7659C52.5618 29.7932 52.7017 29.8353 52.8361 29.8918C52.9773 29.9546 53.1054 30.0433 53.2138 30.1535L52.9355 30.4848C52.8526 30.4042 52.7576 30.3371 52.6538 30.286C52.564 30.2432 52.4695 30.2109 52.3722 30.1899C52.3271 30.1832 52.2814 30.1832 52.2363 30.1899C52.1921 30.1917 52.1484 30.2006 52.1071 30.2164C52.0672 30.2307 52.0317 30.255 52.0039 30.2869C51.976 30.3188 51.9568 30.3572 51.948 30.3986C51.9346 30.4407 51.9346 30.4858 51.948 30.5278C51.9678 30.5686 51.9974 30.6039 52.0342 30.6305C52.0807 30.6689 52.1319 30.7012 52.1866 30.7266C52.2463 30.7597 52.3158 30.7929 52.3921 30.826C52.5878 30.9019 52.761 31.0261 52.8957 31.1871C52.9452 31.2568 52.9783 31.3368 52.9927 31.4211C53.007 31.5054 53.0022 31.5919 52.9786 31.6741V31.6741Z" fill="white"/>
<path d="M55.0595 32.3368C55.0284 32.4382 54.9726 32.5304 54.8972 32.6051C54.8261 32.6739 54.7398 32.7249 54.6453 32.7542C54.5382 32.7872 54.4257 32.7996 54.314 32.7906C54.1933 32.7829 54.0741 32.7595 53.9594 32.721C53.8022 32.6695 53.6537 32.5947 53.5187 32.4991C53.3845 32.3935 53.272 32.263 53.1873 32.1148L53.5485 31.873C53.6172 31.9765 53.7009 32.0692 53.797 32.1479C53.8841 32.2211 53.9841 32.2773 54.0919 32.3136C54.1541 32.3347 54.2187 32.3481 54.2841 32.3533C54.3314 32.3577 54.3791 32.3509 54.4233 32.3334C54.4609 32.3226 54.4944 32.3006 54.5194 32.2705C54.5443 32.2456 54.5626 32.2149 54.5724 32.1811C54.589 32.1373 54.589 32.089 54.5724 32.0452C54.5556 31.9998 54.5283 31.959 54.4929 31.926C54.4469 31.8832 54.3982 31.8433 54.3471 31.8067L54.1516 31.6775C54.0732 31.6269 53.998 31.5716 53.9263 31.5119C53.8605 31.458 53.8035 31.3943 53.7573 31.323C53.7116 31.2531 53.6822 31.1739 53.6711 31.0911C53.6591 30.9984 53.6693 30.9042 53.7009 30.8162C53.7321 30.7233 53.7817 30.6377 53.8467 30.5644C53.9095 30.495 53.9863 30.4396 54.0721 30.4021C54.1629 30.3618 54.261 30.3404 54.3603 30.3391C54.4731 30.3396 54.5851 30.3586 54.6917 30.3954C54.8304 30.4388 54.9638 30.4977 55.0894 30.571C55.218 30.6495 55.3304 30.7519 55.4207 30.8725L55.1059 31.1673C55.0311 31.0804 54.9454 31.0036 54.8508 30.9387C54.7675 30.8838 54.6772 30.8403 54.5824 30.8095C54.5393 30.7959 54.4948 30.7871 54.4498 30.783C54.4059 30.7762 54.3612 30.7762 54.3173 30.783C54.2774 30.7924 54.24 30.8105 54.2079 30.836C54.1761 30.8662 54.1523 30.9038 54.1383 30.9454C54.1234 30.9871 54.1234 31.0328 54.1383 31.0746C54.1519 31.119 54.1771 31.159 54.2112 31.1905C54.2535 31.2328 54.3002 31.2706 54.3504 31.3031C54.4067 31.3429 54.4697 31.3827 54.5426 31.4257C54.728 31.5238 54.8853 31.6675 54.9999 31.8431C55.0465 31.9156 55.0761 31.9976 55.0864 32.0831C55.0967 32.1686 55.0875 32.2553 55.0595 32.3368V32.3368Z" fill="white"/>
<path d="M56.554 33.2477L55.8051 32.8899L55.4538 33.2643L54.9999 33.0489L56.776 31.26L57.2134 31.4687L56.9384 33.9732L56.4744 33.7512L56.554 33.2477ZM56.0901 32.5851L56.6103 32.8336L56.6567 32.5189L56.7561 31.8563L56.322 32.3367L56.0901 32.5851Z" fill="white"/>
<path d="M74.6829 46.5454L75.1137 34.4469C75.1137 34.4469 74.9149 33.7844 74.0401 34.4204C71.873 36.0205 71.7703 40.3835 72.8903 47.3405C72.8903 47.3405 72.7279 57.0935 72.3535 59.3529C72.3535 59.3529 73.659 60.191 74.8122 59.3529C74.8122 59.3529 73.9738 49.4409 74.4974 47.4266C74.5438 47.2444 74.6829 46.5454 74.6829 46.5454Z" fill="white"/>
<path d="M21.8071 39.8238L22.3439 34.192C22.3439 34.192 22.503 34.0197 22.5759 34.192L22.6388 39.2175C22.6388 39.2175 22.6388 39.4859 22.8807 39.4859C23.1226 39.4859 23.0398 39.3004 23.0298 39.2275C23.0199 39.1546 23.1889 34.1787 23.1889 34.1787C23.1889 34.1787 23.3479 33.97 23.4208 34.1787L23.5799 39.148C23.5799 39.148 23.5567 39.4527 23.8251 39.4527C23.8251 39.4527 23.9842 39.403 23.9444 39.085C23.9046 38.767 23.9444 34.1787 23.9444 34.1787C23.9444 34.1787 24.0637 34.0031 24.173 34.1389L24.5044 39.1546C24.5044 39.1546 24.5044 39.4329 24.7231 39.4329C24.9418 39.4329 24.8954 39.1943 24.9053 39.0751C24.9153 38.9558 24.8225 34.1754 24.8225 34.1754C24.8225 34.1754 24.9418 34.023 25.0445 34.1489L25.5979 38.598C25.5979 38.598 25.8265 40.8309 25.3759 41.8479C25.2276 42.1163 25.0545 42.3703 24.859 42.6066C24.6368 42.8217 24.4599 43.079 24.3387 43.3635C24.2175 43.648 24.1544 43.9538 24.1531 44.263C24.1531 44.7533 25.1472 59.4756 25.1472 59.4756C24.8007 59.7062 24.3938 59.8292 23.9775 59.8292C23.5613 59.8292 23.1543 59.7062 22.8078 59.4756C22.8078 59.4756 23.8715 46.2573 23.3546 44.3127C23.2406 43.5909 22.8911 42.927 22.3605 42.4244C21.8693 41.6522 21.6729 40.729 21.8071 39.8238V39.8238Z" fill="white"/>
<path d="M45.8509 38.6012C41.8746 38.6211 38.435 38.9723 38.435 38.9723C38.435 38.9723 41.8679 39.3234 45.8509 39.3433C45.9494 39.3433 46.0438 39.3042 46.1134 39.2346C46.183 39.165 46.2221 39.0707 46.2221 38.9723C46.2221 38.8739 46.183 38.7795 46.1134 38.7099C46.0438 38.6403 45.9494 38.6012 45.8509 38.6012Z" fill="white"/>
<path d="M51.1892 38.6012C51.0908 38.6012 50.9964 38.6403 50.9268 38.7099C50.8572 38.7795 50.8181 38.8739 50.8181 38.9723C50.8181 39.0707 50.8572 39.165 50.9268 39.2346C50.9964 39.3042 51.0908 39.3433 51.1892 39.3433C55.1656 39.3234 58.6018 38.9723 58.6018 38.9723C58.6018 38.9723 55.1722 38.631 51.1892 38.6012Z" fill="white"/>
<path d="M48.5184 39.562C48.8057 39.562 49.0387 39.3291 49.0387 39.0418C49.0387 38.7546 48.8057 38.5217 48.5184 38.5217C48.2311 38.5217 47.9982 38.7546 47.9982 39.0418C47.9982 39.3291 48.2311 39.562 48.5184 39.562Z" fill="white"/>
<path d="M127.284 44.0674H123.225V24.7536L117.114 44.0674H115.03L108.886 24.7536V44.0674H105.636V22.0039H111.859L116.498 36.2094L121.041 22.0039H127.297L127.284 44.0674Z" fill="white"/>
<path d="M139.107 44.0674H135.13V22.0039H139.107V44.0674Z" fill="white"/>
<path d="M159.277 36.4049L162.962 36.8091C162.794 38.8813 161.882 40.8228 160.394 42.2753C158.922 43.7042 156.991 44.4176 154.598 44.4154C152.583 44.4154 150.948 43.9085 149.691 42.8948C148.376 41.8014 147.374 40.3795 146.788 38.7736C146.093 36.9414 145.748 34.9951 145.771 33.0358C145.771 29.6766 146.568 26.9424 148.163 24.8332C149.758 22.724 151.952 21.6716 154.744 21.676C156.931 21.676 158.752 22.3496 160.208 23.6969C161.664 25.0441 162.58 26.9722 162.955 29.4811L159.277 29.8588C158.597 26.5282 157.099 24.8641 154.784 24.8663C153.295 24.8663 152.138 25.5587 151.314 26.9435C150.49 28.3282 150.078 30.3347 150.078 32.9629C150.078 35.6375 150.52 37.655 151.404 39.0155C152.287 40.3759 153.457 41.0573 154.913 41.0595C155.481 41.065 156.043 40.9446 156.558 40.7068C157.074 40.4691 157.531 40.12 157.895 39.6846C158.708 38.7753 159.194 37.6213 159.277 36.4049V36.4049Z" fill="white"/>
<path d="M185.455 44.0674H181.478V34.4801H173.065V44.0674H169.089V22.0039H173.065V31.0712H181.478V22.0039H185.455V44.0674Z" fill="white"/>
<path d="M207.633 44.0674H193.295V22.0039H207.487V25.2836H197.271V31.2666H205.482V34.4668H197.271V40.6386H207.633V44.0674Z" fill="white"/>
<path d="M227.621 44.0674H214.035V22.0039H218.227V40.4631H227.621V44.0674Z" fill="white"/>
<path d="M237.502 44.0674H233.526V22.0039H237.502V44.0674Z" fill="white"/>
<path d="M262 44.0674H258.136L249.763 29.9713L249.133 28.9211C249.004 28.7058 248.802 28.3678 248.533 27.9041V44.0674H245.332V22.0039H249.74L257.457 34.9869C257.523 35.0929 257.991 35.8847 258.865 37.3622V21.9906H262V44.0674Z" fill="white"/>
<path d="M119.977 72.7533H105.636V50.6898H119.845V53.9728H109.612V59.9525H117.827V63.1461H109.612V69.3212H119.977V72.7533Z" fill="white"/>
<path d="M143.703 72.7533H139.445L137.682 67.4991H129.196L127.466 72.7533H124.07L131.396 50.6898H136.294L143.703 72.7533ZM136.622 64.3155L133.404 54.4731L130.19 64.3155H136.622Z" fill="white"/>
<path d="M155.244 72.7533H150.993V54.102H145.108V50.6898H161.113V54.102H155.244V72.7533Z" fill="white"/>
<path d="M164.466 67.4527L168.33 66.6278C168.789 68.8142 170.568 69.9075 173.665 69.9075C175.076 69.9075 176.162 69.6281 176.922 69.0693C177.27 68.8425 177.556 68.5332 177.755 68.169C177.953 67.8049 178.059 67.3971 178.062 66.9822C178.059 66.3904 177.878 65.8131 177.542 65.3258C177.21 64.8156 176.462 64.4148 175.328 64.1233L171.11 63.0234C169.665 62.6457 168.598 62.2173 167.909 61.738C167.187 61.2205 166.616 60.5209 166.252 59.7106C165.836 58.8376 165.623 57.8816 165.629 56.9145C165.599 56.0072 165.782 55.1054 166.164 54.2816C166.546 53.4577 167.115 52.7347 167.826 52.1705C169.295 50.9823 171.173 50.3871 173.459 50.3849C175.233 50.3535 176.984 50.7827 178.543 51.6305C179.238 51.9864 179.851 52.4835 180.343 53.0899C180.834 53.6963 181.194 54.3987 181.399 55.1521L177.615 56.0896C177.027 54.389 175.664 53.5387 173.526 53.5387C172.286 53.5387 171.341 53.7971 170.689 54.3139C170.379 54.5397 170.126 54.8363 169.953 55.1791C169.78 55.522 169.692 55.9011 169.695 56.2851C169.695 57.5462 170.719 58.4296 172.767 58.9354L176.518 59.8729C178.791 60.4449 180.316 61.2886 181.094 62.4039C181.872 63.489 182.288 64.7923 182.28 66.1275C182.28 68.2941 181.464 69.9991 179.832 71.2426C178.199 72.486 176.084 73.0999 173.486 73.0845C171.483 73.1296 169.503 72.6572 167.737 71.713C166.929 71.2649 166.221 70.6555 165.659 69.9226C165.096 69.1897 164.69 68.349 164.466 67.4527V67.4527Z" fill="white"/>
</g>
<defs>
<clipPath id="clip0_110_43">
<rect width="262" height="97" fill="white"/>
</clipPath>
</defs>
</svg>
