<svg width="25" height="25" viewBox="0 0 25 25" fill="none" xmlns="http://www.w3.org/2000/svg">
<path d="M24.6906 11.9014L22.0157 10.0156C21.531 9.67391 20.8611 10.0218 20.8611 10.6142V11.7676H8.01738C7.61289 11.7676 7.28491 12.0955 7.28491 12.5001C7.28491 12.9046 7.61289 13.2325 8.01738 13.2325H20.861V14.3859C20.861 14.9822 21.5345 15.3236 22.0155 14.9845L24.6905 13.0987C25.099 12.8109 25.1072 12.1957 24.6906 11.9014Z" fill="#CD2D31"/>
<path d="M21.0191 17.2031C20.669 17.0007 20.2209 17.1202 20.0183 17.4704C18.2978 20.4448 15.0816 22.4416 11.4064 22.4416C5.92466 22.4416 1.46489 17.9819 1.46489 12.5001C1.46489 7.01841 5.92466 2.55864 11.4064 2.55864C15.0841 2.55864 18.2988 4.55732 20.0183 7.52978C20.2208 7.87998 20.669 7.99946 21.019 7.79707C21.3692 7.59453 21.4888 7.14643 21.2863 6.79629C19.3075 3.37549 15.6118 1.09375 11.4064 1.09375C5.10205 1.09375 0 6.19526 0 12.5001C0 18.8045 5.10151 23.9065 11.4064 23.9065C15.6136 23.9065 19.3084 21.6232 21.2864 18.2039C21.4889 17.8538 21.3692 17.4057 21.0191 17.2031Z" fill="#CD2D31"/>
</svg>
