<svg width="50" height="50" viewBox="0 0 50 50" fill="none" xmlns="http://www.w3.org/2000/svg">
<path d="M25 50C38.8071 50 50 38.8071 50 25C50 11.1929 38.8071 0 25 0C11.1929 0 0 11.1929 0 25C0 38.8071 11.1929 50 25 50Z" fill="#003473"/>
<path d="M24.3456 32.5233C26.5199 30.5606 27.892 27.7109 27.892 24.5458C27.892 21.3798 26.5195 18.5317 24.3456 16.5473C22.4457 14.8171 19.9144 13.7615 17.1283 13.7615C11.1778 13.7615 6.34363 18.5948 6.34363 24.5453C6.34363 30.4975 11.1778 35.3087 17.1283 35.3087C19.9145 35.3091 22.4457 34.2544 24.3456 32.5233Z" fill="#009DDD"/>
<path d="M24.3456 32.5234C26.5199 30.5607 27.892 27.711 27.892 24.5458C27.892 21.3799 26.5195 18.5318 24.3456 16.5474V32.5234Z" fill="#009DDD"/>
<path d="M31.5854 13.762C28.7989 13.762 26.2661 14.8176 24.3457 16.5478C23.9663 16.9062 23.6079 17.2864 23.2692 17.6882H25.4427C25.7387 18.0458 26.0131 18.4477 26.2661 18.8271H22.4457C22.2143 19.2072 22.0031 19.5877 21.8125 19.9668H26.878C27.0477 20.3461 27.2155 20.7274 27.3422 21.1068H21.3712C21.244 21.4866 21.1382 21.8674 21.0541 22.2674H27.6592C27.8065 22.9851 27.8921 23.7663 27.8921 24.5462C27.8921 25.7281 27.7011 26.8895 27.3423 27.9656H21.3713C21.4968 28.3449 21.6448 28.7255 21.813 29.1053H26.8785C26.689 29.4854 26.4984 29.886 26.2662 30.245H22.4458C22.7003 30.6461 22.974 31.0258 23.2692 31.3847H25.4427C25.1056 31.7858 24.7463 32.1659 24.3457 32.5244C26.2662 34.2554 28.7989 35.3102 31.5854 35.3102C37.5367 35.3102 42.3488 30.4989 42.3488 24.5468C42.3483 18.5954 37.5367 13.762 31.5854 13.762Z" fill="#ED1C2E"/>
<path d="M38.633 26.8673C38.633 26.677 38.8027 26.5298 38.9922 26.5298C39.1825 26.5298 39.3297 26.6771 39.3297 26.8673C39.3297 27.0579 39.1824 27.2265 38.9922 27.2265C38.8027 27.2265 38.633 27.0579 38.633 26.8673ZM38.9922 27.142C39.1395 27.142 39.2452 27.0153 39.2452 26.8673C39.2452 26.7197 39.1394 26.6139 38.9922 26.6139C38.8442 26.6139 38.7186 26.7197 38.7186 26.8673C38.7186 27.0153 38.8442 27.142 38.9922 27.142ZM38.9499 27.0153H38.8658V26.7196H38.9921C39.0335 26.7196 39.0553 26.7196 39.0769 26.7409C39.0978 26.7618 39.1184 26.7824 39.1184 26.8041C39.1184 26.8467 39.0975 26.8889 39.0552 26.8889L39.1184 27.0152H39.0336L38.9921 26.9094H38.9499V27.0153ZM38.9499 26.8467H38.9921C38.9921 26.8467 39.013 26.8467 39.0336 26.8467C39.0336 26.8467 39.0336 26.825 39.0336 26.8041V26.7824C39.0127 26.7824 38.9921 26.7824 38.9712 26.7824H38.9495V26.8467H38.9499Z" fill="white"/>
<path d="M15.7775 27.2265H14.4275L15.2291 23.0267L13.3936 27.2265H12.1683L11.9578 23.0476L11.1562 27.2265H9.93164L10.9663 21.7607H13.0758L13.1812 25.1367L14.6604 21.7607H16.8319L15.7775 27.2265Z" fill="white"/>
<path d="M30.7619 27.1638C30.3818 27.2685 30.1074 27.3107 29.7904 27.3107C29.1157 27.3107 28.7348 26.9732 28.7348 26.3407C28.7348 26.2136 28.7565 26.0865 28.777 25.9389L28.861 25.4956L28.9258 25.1585L29.5373 21.7612H30.8665L30.6774 22.7734H31.373L31.1835 23.8506H30.4872L30.1497 25.7072C30.128 25.7917 30.1075 25.8552 30.1075 25.8971C30.1075 26.1296 30.2555 26.2342 30.5725 26.2342C30.7198 26.2342 30.8454 26.2133 30.931 26.1923L30.7619 27.1638Z" fill="white"/>
<path d="M34.6661 22.8164C34.5603 22.7733 34.5398 22.7733 34.5188 22.7733C34.4549 22.7516 34.413 22.7516 34.413 22.7314C34.37 22.7314 34.3282 22.7314 34.2657 22.7314C33.8216 22.7314 33.5054 22.9213 33.104 23.4483L33.2303 22.7733H32.0057L31.1831 27.2265H32.5339C33.0191 24.5031 33.2093 24.0183 33.863 24.0183C33.9052 24.0183 33.9696 24.0396 34.0321 24.0396L34.1801 24.0815L34.6661 22.8164Z" fill="white"/>
<path d="M25.4427 24.1869C25.4427 24.736 25.7597 25.1367 26.4773 25.4118C27.0264 25.6432 27.1109 25.7071 27.1109 25.9183C27.1109 26.1923 26.8571 26.3194 26.3297 26.3194C25.9286 26.3194 25.5481 26.2559 25.1052 26.1299L24.9363 27.1641H25.0002L25.2316 27.2269C25.3157 27.2269 25.4419 27.2482 25.5901 27.2482C25.9071 27.2897 26.1605 27.2897 26.3504 27.2897C27.7644 27.2897 28.4398 26.8255 28.4398 25.8129C28.4398 25.2006 28.1654 24.8422 27.4691 24.5678C26.8987 24.3566 26.8359 24.2934 26.8359 24.0823C26.8359 23.851 27.068 23.7238 27.5113 23.7238C27.7643 23.7238 28.1436 23.7456 28.4812 23.7866L28.6716 22.774C28.3131 22.7117 27.7857 22.6899 27.4897 22.6899C25.9708 22.6892 25.4427 23.3642 25.4427 24.1869Z" fill="white"/>
<path d="M20.1249 27.2265H19.0271L19.0488 26.7615C18.7113 27.1207 18.247 27.2893 17.6348 27.2893C16.918 27.2893 16.411 26.8041 16.411 26.0865C16.411 25.0095 17.2752 24.3768 18.7748 24.3768C18.9213 24.3768 19.1119 24.3768 19.3231 24.3985C19.3653 24.2509 19.3653 24.1869 19.3653 24.1241C19.3653 23.8288 19.1324 23.723 18.4996 23.723C18.1195 23.723 17.6987 23.7652 17.4026 23.8288L17.2131 23.8923L17.086 23.9129L17.2755 22.9213C17.9517 22.7516 18.3733 22.6892 18.8806 22.6892C20.0403 22.6892 20.6317 23.1318 20.6317 23.9757C20.6317 24.2082 20.6108 24.3771 20.5268 24.8627L20.2524 26.4457L20.2102 26.7197L20.1671 26.9526L20.1462 27.0995L20.1249 27.2265ZM19.1542 25.2421C19.0054 25.2212 18.943 25.2212 18.8589 25.2212C18.0986 25.2212 17.7192 25.4533 17.7192 25.897C17.7192 26.171 17.8874 26.3612 18.1827 26.3612C18.7326 26.3612 19.1329 25.897 19.1542 25.2421Z" fill="white"/>
<path d="M24.535 27.1206C24.0716 27.2473 23.6283 27.3101 23.1633 27.3101C21.6668 27.3101 20.8844 26.6134 20.8844 25.3051C20.8844 23.7853 21.8768 22.667 23.2276 22.667C24.3246 22.667 25.0226 23.3002 25.0226 24.2709C25.0226 24.608 24.9795 24.9261 24.8745 25.3687H22.193C22.193 25.4528 22.193 25.4737 22.193 25.5167C22.193 26.0232 22.5731 26.2972 23.354 26.2972C23.8395 26.2972 24.2825 26.2131 24.7463 26.0236L24.535 27.1206ZM23.8182 24.4833C23.8182 24.3984 23.8182 24.3135 23.8182 24.2507C23.8182 23.8923 23.5853 23.6803 23.185 23.6803C22.7626 23.6803 22.4673 23.9756 22.3398 24.4833H23.8182Z" fill="white"/>
<path d="M38.8441 25.2001C38.6329 26.6765 37.599 27.331 36.2265 27.331C34.7292 27.331 34.1177 26.4242 34.1177 25.2846C34.1177 23.7226 35.1508 22.6453 36.7546 22.6453C38.1477 22.6453 38.8863 23.5319 38.8863 24.6506C38.8868 24.9266 38.8868 24.9471 38.8441 25.2001ZM37.4518 24.6297C37.4518 24.1655 37.2615 23.7447 36.714 23.7447C36.037 23.7447 35.6155 24.5456 35.6155 25.2636C35.6155 25.855 35.9115 26.2556 36.3758 26.2556C36.6711 26.2556 37.3043 25.855 37.4097 25.1796C37.4518 25.0099 37.4518 24.8208 37.4518 24.6297Z" fill="white"/>
</svg>
