<svg width="23" height="21" viewBox="0 0 23 21" fill="none" xmlns="http://www.w3.org/2000/svg">
<path d="M9.85938 1.18359C9.85938 0.872793 9.73591 0.574722 9.51614 0.354953C9.29637 0.135184 8.9983 0.0117188 8.6875 0.0117188H2.125C1.8142 0.0117188 1.51613 0.135184 1.29636 0.354953C1.07659 0.574722 0.953125 0.872793 0.953125 1.18359V7.74609C0.953125 8.05689 1.07659 8.35496 1.29636 8.57473C1.51613 8.7945 1.8142 8.91797 2.125 8.91797H8.6875C8.9983 8.91797 9.29637 8.7945 9.51614 8.57473C9.73591 8.35496 9.85938 8.05689 9.85938 7.74609V1.18359ZM9.07812 7.74609C9.07812 7.84969 9.03697 7.94905 8.96371 8.02231C8.89046 8.09556 8.7911 8.13672 8.6875 8.13672H2.125C2.0214 8.13672 1.92204 8.09556 1.84879 8.02231C1.77553 7.94905 1.73438 7.84969 1.73438 7.74609V1.18359C1.73438 1.07999 1.77553 0.980636 1.84879 0.90738C1.92204 0.834123 2.0214 0.792969 2.125 0.792969H8.6875C8.7911 0.792969 8.89046 0.834123 8.96371 0.90738C9.03697 0.980636 9.07812 1.07999 9.07812 1.18359V7.74609ZM22.0469 1.18359C22.0469 0.872793 21.9234 0.574722 21.7036 0.354953C21.4839 0.135184 21.1858 0.0117188 20.875 0.0117188H14.3125C14.0017 0.0117188 13.7036 0.135184 13.4839 0.354953C13.2641 0.574722 13.1406 0.872793 13.1406 1.18359V7.74609C13.1406 8.05689 13.2641 8.35496 13.4839 8.57473C13.7036 8.7945 14.0017 8.91797 14.3125 8.91797H20.875C21.1858 8.91797 21.4839 8.7945 21.7036 8.57473C21.9234 8.35496 22.0469 8.05689 22.0469 7.74609V1.18359ZM21.2656 7.74609C21.2656 7.84969 21.2245 7.94905 21.1512 8.02231C21.078 8.09556 20.9786 8.13672 20.875 8.13672H14.3125C14.2089 8.13672 14.1095 8.09556 14.0363 8.02231C13.963 7.94905 13.9219 7.84969 13.9219 7.74609V1.18359C13.9219 1.07999 13.963 0.980636 14.0363 0.90738C14.1095 0.834123 14.2089 0.792969 14.3125 0.792969H20.875C20.9786 0.792969 21.078 0.834123 21.1512 0.90738C21.2245 0.980636 21.2656 1.07999 21.2656 1.18359V7.74609ZM8.6875 11.6914H2.125C1.8142 11.6914 1.51613 11.8149 1.29636 12.0346C1.07659 12.2544 0.953125 12.5525 0.953125 12.8633V19.4258C0.953125 19.7366 1.07659 20.0346 1.29636 20.2544C1.51613 20.4742 1.8142 20.5977 2.125 20.5977H8.6875C8.9983 20.5977 9.29637 20.4742 9.51614 20.2544C9.73591 20.0346 9.85938 19.7366 9.85938 19.4258V12.8633C9.85938 12.5525 9.73591 12.2544 9.51614 12.0346C9.29637 11.8149 8.9983 11.6914 8.6875 11.6914ZM9.07812 19.4258C9.07812 19.5294 9.03697 19.6287 8.96371 19.702C8.89046 19.7752 8.7911 19.8164 8.6875 19.8164H2.125C2.0214 19.8164 1.92204 19.7752 1.84879 19.702C1.77553 19.6287 1.73438 19.5294 1.73438 19.4258V12.8633C1.73438 12.7597 1.77553 12.6603 1.84879 12.5871C1.92204 12.5138 2.0214 12.4727 2.125 12.4727H8.6875C8.7911 12.4727 8.89046 12.5138 8.96371 12.5871C9.03697 12.6603 9.07812 12.7597 9.07812 12.8633V19.4258ZM14.3125 20.5977H20.875C21.1858 20.5977 21.4839 20.4742 21.7036 20.2544C21.9234 20.0346 22.0469 19.7366 22.0469 19.4258V12.8633C22.0469 12.5525 21.9234 12.2544 21.7036 12.0346C21.4839 11.8149 21.1858 11.6914 20.875 11.6914H14.3125C14.0017 11.6914 13.7036 11.8149 13.4839 12.0346C13.2641 12.2544 13.1406 12.5525 13.1406 12.8633V19.4258C13.1406 19.7366 13.2641 20.0346 13.4839 20.2544C13.7036 20.4742 14.0017 20.5977 14.3125 20.5977ZM13.9219 12.8633C13.9219 12.7597 13.963 12.6603 14.0363 12.5871C14.1095 12.5138 14.2089 12.4727 14.3125 12.4727H20.875C20.9786 12.4727 21.078 12.5138 21.1512 12.5871C21.2245 12.6603 21.2656 12.7597 21.2656 12.8633V19.4258C21.2656 19.5294 21.2245 19.6287 21.1512 19.702C21.078 19.7752 20.9786 19.8164 20.875 19.8164H14.3125C14.2089 19.8164 14.1095 19.7752 14.0363 19.702C13.963 19.6287 13.9219 19.5294 13.9219 19.4258V12.8633Z" fill="#CD2C31"/>
</svg>
