<svg width="58" height="70" viewBox="0 0 58 70" fill="none" xmlns="http://www.w3.org/2000/svg">
<path d="M43.4226 0H14.5775C11.6522 0 9.28174 2.37043 9.28174 5.2958V23.1692H48.7184V5.2958C48.7184 2.37043 46.348 0 43.4226 0V0ZM39.9988 10.7168C39.31 11.4056 38.3607 11.831 37.31 11.831H20.6902C18.5902 11.831 16.8874 10.1281 16.8874 8.02812C16.8874 6.97744 17.3127 6.02807 18.0015 5.33941C18.6903 4.65063 19.6396 4.22529 20.6902 4.22529H37.3099C39.4099 4.22529 41.1127 5.92813 41.1127 8.02812C41.1129 9.07881 40.6874 10.0282 39.9988 10.7168Z" fill="#E19974"/>
<path d="M20.6902 4.2251H16.4649C14.3647 4.2251 12.6621 5.92766 12.6621 8.02793C12.6621 10.1282 14.3647 11.8308 16.4649 11.8308H20.6902C18.59 11.8308 16.8874 10.1282 16.8874 8.02793C16.8874 5.92779 18.5901 4.2251 20.6902 4.2251Z" fill="#DC8758"/>
<path d="M43.423 0H39.1978C42.1222 0 44.493 2.3707 44.493 5.29525V23.1692H48.7183V5.29525C48.7183 2.3707 46.3476 0 43.423 0V0Z" fill="#DC8758"/>
<path d="M57.169 34.1507V38.0987H0.831055V34.1507C0.831055 33.8989 0.903652 33.6522 1.03996 33.4404L9.28164 20.6479H48.7183L56.96 33.4404C57.0966 33.6524 57.169 33.8989 57.169 34.1507Z" fill="#DC8758"/>
<path d="M56.9603 33.4405L48.7186 20.6479H44.4932L52.7348 33.4405C52.8713 33.6522 52.9438 33.8987 52.9438 34.1507V38.0987H57.169V34.1507C57.1692 33.8987 57.0967 33.6522 56.9603 33.4405Z" fill="#D77F4A"/>
<path d="M55.7606 69.9998H2.23953C1.4616 69.9998 0.831055 69.3692 0.831055 68.5913V33.7646H57.169V68.5913C57.169 69.3692 56.5385 69.9998 55.7606 69.9998Z" fill="#E19974"/>
<path d="M52.9436 33.7646V68.5913C52.9436 69.3692 52.3131 69.9998 51.5352 69.9998H55.7604C56.5384 69.9998 57.1689 69.3692 57.1689 68.5913V33.7646H52.9436Z" fill="#DC8758"/>
<path d="M35.4807 56.3294C39.9734 51.8367 41.1668 45.7461 38.1463 42.7256C35.1258 39.705 29.0351 40.8985 24.5424 45.3911C20.0498 49.8838 18.8563 55.9745 21.8768 58.995C24.8974 62.0155 30.988 60.8221 35.4807 56.3294Z" fill="#97DA7B"/>
<path d="M38.1568 42.7258C36.5662 41.1352 34.124 40.7144 31.5123 41.327C32.4361 41.5921 33.26 42.0542 33.9315 42.7258C36.9525 45.7467 35.7589 51.8384 31.2655 56.3316C29.138 58.4591 26.6526 59.8455 24.3042 60.3964C27.5358 61.3238 31.9964 59.8262 35.4909 56.3316C39.9841 51.8384 41.1777 45.7469 38.1568 42.7258Z" fill="#80D261"/>
<path d="M34.9704 50.3229L32.3587 49.9742L34.0991 48.2338C34.4996 47.8334 34.4996 47.1841 34.0991 46.7838C33.6985 46.3833 33.0494 46.3833 32.6489 46.7838L30.9086 48.5241L30.56 45.9125C30.4851 45.351 29.967 44.9562 29.408 45.0317C28.8468 45.1066 28.4523 45.6225 28.5274 46.1837L29.0834 50.3493L26.7168 52.7159L26.3682 50.1043C26.2933 49.5428 25.7757 49.1486 25.2162 49.2235C24.655 49.2984 24.2605 49.8143 24.3356 50.3755L24.8916 54.5411L17.4498 61.9829C17.0493 62.3834 17.0493 63.0327 17.4498 63.433C17.65 63.6331 17.9125 63.7333 18.1749 63.7333C18.4373 63.7333 18.6998 63.6333 18.9001 63.433L26.3418 55.9912L30.5075 56.5473C30.5536 56.5534 30.5992 56.5564 30.6445 56.5564C31.1503 56.5564 31.5907 56.1818 31.6595 55.6665C31.7345 55.1053 31.3401 54.5895 30.7789 54.5145L28.1673 54.1659L30.5337 51.7994L34.6994 52.3555C34.7455 52.3616 34.7912 52.3646 34.8364 52.3646C35.3423 52.3646 35.7827 51.99 35.8514 51.4747C35.9261 50.9136 35.5316 50.3978 34.9704 50.3229Z" fill="#DC8758"/>
</svg>
