<svg width="60" height="60" viewBox="0 0 60 60" fill="none" xmlns="http://www.w3.org/2000/svg">
<g clip-path="url(#clip0_128_2765)">
<path d="M42.9168 0H35.6699V60H42.9168C43.5835 60 44.1241 59.4595 44.1241 58.7927V1.20727C44.1239 0.540469 43.5835 0 42.9168 0V0Z" fill="#1C96F9"/>
<path d="M44.1236 1.20727V58.7927C44.1236 59.4592 43.5827 60 42.9163 60H39.3984C40.0649 60 40.6057 59.4592 40.6057 58.7927V1.20727C40.6056 0.54082 40.0648 0 39.3984 0H42.9164C43.5827 0 44.1236 0.54082 44.1236 1.20727Z" fill="#1785F8"/>
<path d="M32.5525 11.244H57.1819C57.8416 11.244 58.377 11.7794 58.377 12.4391V53.5073C58.377 54.167 57.8417 54.7024 57.1819 54.7024H32.5525C31.8929 54.7024 31.3574 54.167 31.3574 53.5073V12.4391C31.3575 11.7794 31.8929 11.244 32.5525 11.244Z" fill="#FCC16D"/>
<path d="M58.3772 12.4395V53.5075C58.3772 54.1666 57.8412 54.7027 57.1821 54.7027H53.2573C53.9165 54.7027 54.4514 54.1666 54.4514 53.5075V12.4395C54.4514 11.7791 53.9165 11.2443 53.2573 11.2443H57.1821C57.8412 11.2443 58.3772 11.7791 58.3772 12.4395Z" fill="#FCB44D"/>
<path d="M36.4595 11.2437H41.7176V54.7019H36.4595V11.2437Z" fill="#7A6E79"/>
<path d="M51.6859 21.051C53.0048 21.051 54.0739 19.9818 54.0739 18.6629C54.0739 17.3441 53.0048 16.2749 51.6859 16.2749C50.367 16.2749 49.2979 17.3441 49.2979 18.6629C49.2979 19.9818 50.367 21.051 51.6859 21.051Z" fill="#FC5A95"/>
<path d="M51.6859 24.4394C53.0048 24.4394 54.0739 23.3703 54.0739 22.0514C54.0739 20.7325 53.0048 19.6633 51.6859 19.6633C50.367 19.6633 49.2979 20.7325 49.2979 22.0514C49.2979 23.3703 50.367 24.4394 51.6859 24.4394Z" fill="#31A7FB"/>
<path d="M54.0738 50.6038C53.5737 50.6038 53.1685 50.1985 53.1685 49.6984V38.5847C53.1685 38.0846 53.5738 37.6793 54.0738 37.6793C54.5739 37.6793 54.9792 38.0847 54.9792 38.5847V49.6984C54.9792 50.1985 54.5739 50.6038 54.0738 50.6038Z" fill="#EFA543"/>
<path d="M50.6803 50.6037C50.1801 50.6037 49.7749 50.1984 49.7749 49.6983V49.6859C49.7749 49.1858 50.1803 48.7805 50.6803 48.7805C51.1805 48.7805 51.5857 49.1859 51.5857 49.6859V49.6983C51.5857 50.1984 51.1803 50.6037 50.6803 50.6037Z" fill="#EFA543"/>
<path d="M50.6803 47.9624C50.1801 47.9624 49.7749 47.557 49.7749 47.057V47.0446C49.7749 46.5444 50.1803 46.1392 50.6803 46.1392C51.1805 46.1392 51.5857 46.5445 51.5857 47.0446V47.057C51.5857 47.557 51.1803 47.9624 50.6803 47.9624Z" fill="#EFA543"/>
<path d="M37.9112 1.20727V58.7927C37.9112 59.4592 37.3704 60 36.7039 60H31.875L31.1204 57.3864C30.9708 56.8697 30.4974 56.5136 29.9603 56.5136H9.67498C9.13779 56.5136 8.66447 56.8697 8.51482 57.3864L7.76025 60H2.82982C2.16338 60 1.62256 59.4592 1.62256 58.7927V1.20727C1.62268 0.54082 2.1635 0 2.82982 0H36.7039C37.3704 0 37.9112 0.54082 37.9112 1.20727Z" fill="#64B9FC"/>
<path d="M33.6048 60H6.03027L7.30797 55.575C7.45715 55.0583 7.93012 54.7026 8.46777 54.7026H31.1673C31.7051 54.7026 32.178 55.0583 32.3271 55.575L33.6048 60Z" fill="#7A6E79"/>
<path d="M32.3571 21.4625H7.27807C6.61127 21.4625 6.0708 20.922 6.0708 20.2552V7.48913C6.0708 6.82233 6.61127 6.28186 7.27807 6.28186H32.3571C33.0239 6.28186 33.5644 6.82233 33.5644 7.48913V20.2552C33.5644 20.9219 33.0238 21.4625 32.3571 21.4625Z" fill="#27D1B3"/>
<path d="M33.564 7.48852V20.2552C33.564 20.9216 33.0244 21.4624 32.3568 21.4624H29.0127C29.6791 21.4624 30.22 20.9216 30.22 20.2552V7.48852C30.22 6.82207 29.6791 6.28125 29.0127 6.28125H32.3568C33.0244 6.28125 33.564 6.82219 33.564 7.48852Z" fill="#20B69F"/>
<path d="M9.65197 10.6445H14.1127C14.6128 10.6445 15.0181 10.2392 15.0181 9.73913C15.0181 9.23897 14.6128 8.83374 14.1127 8.83374H9.65197C9.15193 8.83374 8.74658 9.23909 8.74658 9.73913C8.74646 10.2392 9.15193 10.6445 9.65197 10.6445Z" fill="#C8F2E7"/>
<path d="M12.2823 14.3361C11.9287 13.9827 11.3554 13.9827 11.0018 14.3361L10.6468 14.6911L10.2919 14.3361C9.9383 13.9828 9.36502 13.9826 9.01135 14.3361C8.65768 14.6898 8.65768 15.263 9.01135 15.6167L9.36631 15.9717L9.01135 16.3267C8.65768 16.6803 8.65768 17.2535 9.01135 17.6073C9.18818 17.784 9.41986 17.8725 9.65154 17.8725C9.88322 17.8725 10.115 17.784 10.2917 17.6072L10.6467 17.2522L11.0017 17.6072C11.1785 17.784 11.4102 17.8725 11.6419 17.8725C11.8735 17.8725 12.1053 17.784 12.2821 17.6073C12.6357 17.2536 12.6357 16.6805 12.2821 16.3267L11.9271 15.9717L12.2821 15.6167C12.636 15.263 12.636 14.6898 12.2823 14.3361Z" fill="#20B69F"/>
<path d="M17.1817 14.3361C16.8282 13.9827 16.2549 13.9827 15.9012 14.3361L15.5462 14.6911L15.1913 14.3361C14.8377 13.9828 14.2644 13.9826 13.9108 14.3361C13.5571 14.6898 13.5571 15.263 13.9108 15.6167L14.2657 15.9717L13.9108 16.3267C13.5571 16.6803 13.5571 17.2535 13.9108 17.6073C14.0876 17.784 14.3193 17.8725 14.551 17.8725C14.7826 17.8725 15.0144 17.784 15.1912 17.6072L15.5461 17.2522L15.9011 17.6072C16.0779 17.784 16.3096 17.8725 16.5413 17.8725C16.773 17.8725 17.0048 17.784 17.1815 17.6073C17.5351 17.2536 17.5351 16.6805 17.1815 16.3267L16.8265 15.9717L17.1815 15.6167C17.5354 15.263 17.5354 14.6898 17.1817 14.3361Z" fill="#20B69F"/>
<path d="M22.0806 14.3361C21.7271 13.9827 21.1538 13.9827 20.8001 14.3361L20.4452 14.6911L20.0902 14.3361C19.7366 13.9828 19.1634 13.9826 18.8097 14.3361C18.456 14.6898 18.456 15.263 18.8097 15.6167L19.1646 15.9717L18.8097 16.3267C18.456 16.6803 18.456 17.2535 18.8097 17.6073C18.9865 17.784 19.2182 17.8725 19.4499 17.8725C19.6816 17.8725 19.9134 17.784 20.0901 17.6072L20.445 17.2522L20.8 17.6072C20.9768 17.784 21.2085 17.8725 21.4402 17.8725C21.6719 17.8725 21.9037 17.784 22.0804 17.6073C22.4341 17.2536 22.4341 16.6805 22.0804 16.3267L21.7254 15.9717L22.0804 15.6167C22.4343 15.263 22.4343 14.6898 22.0806 14.3361Z" fill="#20B69F"/>
<path d="M26.6251 15.9716L26.98 15.6166C27.3337 15.263 27.3337 14.6898 26.98 14.336C26.6265 13.9826 26.0532 13.9826 25.6995 14.336L25.3446 14.691L24.9896 14.336C24.6361 13.9827 24.0628 13.9824 23.7091 14.336C23.3554 14.6897 23.3554 15.2628 23.7091 15.6166L24.0641 15.9716L23.7091 16.3265C23.3554 16.6802 23.3554 17.2534 23.7091 17.6072C23.8859 17.7839 24.1176 17.8724 24.3493 17.8724C24.581 17.8724 24.8128 17.7839 24.9895 17.6071L25.3445 17.2521L25.6994 17.6071C25.8763 17.7839 26.1079 17.8724 26.3396 17.8724C26.5713 17.8724 26.8031 17.7839 26.9798 17.6072C27.3335 17.2535 27.3335 16.6803 26.9798 16.3265L26.6251 15.9716Z" fill="#20B69F"/>
<path d="M9.44213 32.1311H6.42689C5.96107 32.1311 5.5835 31.7535 5.5835 31.2877V28.2725C5.5835 27.8067 5.96107 27.4291 6.42689 27.4291H9.44213C9.90795 27.4291 10.2855 27.8067 10.2855 28.2725V31.2877C10.2855 31.7535 9.90795 32.1311 9.44213 32.1311Z" fill="#EAF6FF"/>
<path d="M17.2048 32.1311H14.1896C13.7238 32.1311 13.3462 31.7535 13.3462 31.2877V28.2725C13.3462 27.8067 13.7238 27.4291 14.1896 27.4291H17.2048C17.6706 27.4291 18.0482 27.8067 18.0482 28.2725V31.2877C18.0482 31.7535 17.6706 32.1311 17.2048 32.1311Z" fill="#EAF6FF"/>
<path d="M24.9675 32.1311H21.9523C21.4865 32.1311 21.1089 31.7535 21.1089 31.2877V28.2725C21.1089 27.8067 21.4865 27.4291 21.9523 27.4291H24.9675C25.4333 27.4291 25.8109 27.8067 25.8109 28.2725V31.2877C25.8109 31.7535 25.4333 32.1311 24.9675 32.1311Z" fill="#EAF6FF"/>
<path d="M32.7302 32.1311H29.715C29.2492 32.1311 28.8716 31.7535 28.8716 31.2877V28.2725C28.8716 27.8067 29.2492 27.4291 29.715 27.4291H32.7302C33.196 27.4291 33.5736 27.8067 33.5736 28.2725V31.2877C33.5735 31.7535 33.1959 32.1311 32.7302 32.1311Z" fill="#FCC16D"/>
<path d="M9.44213 39.9408H6.42689C5.96107 39.9408 5.5835 39.5632 5.5835 39.0974V36.0822C5.5835 35.6163 5.96107 35.2388 6.42689 35.2388H9.44213C9.90795 35.2388 10.2855 35.6163 10.2855 36.0822V39.0974C10.2855 39.5632 9.90795 39.9408 9.44213 39.9408Z" fill="#EAF6FF"/>
<path d="M17.2048 39.9408H14.1896C13.7238 39.9408 13.3462 39.5632 13.3462 39.0974V36.0822C13.3462 35.6163 13.7238 35.2388 14.1896 35.2388H17.2048C17.6706 35.2388 18.0482 35.6163 18.0482 36.0822V39.0974C18.0482 39.5632 17.6706 39.9408 17.2048 39.9408Z" fill="#EAF6FF"/>
<path d="M24.9675 39.9408H21.9523C21.4865 39.9408 21.1089 39.5632 21.1089 39.0974V36.0822C21.1089 35.6163 21.4865 35.2388 21.9523 35.2388H24.9675C25.4333 35.2388 25.8109 35.6163 25.8109 36.0822V39.0974C25.8109 39.5632 25.4333 39.9408 24.9675 39.9408Z" fill="#EAF6FF"/>
<path d="M32.7302 39.9408H29.715C29.2492 39.9408 28.8716 39.5632 28.8716 39.0974V36.0822C28.8716 35.6163 29.2492 35.2388 29.715 35.2388H32.7302C33.196 35.2388 33.5736 35.6163 33.5736 36.0822V39.0974C33.5735 39.5632 33.1959 39.9408 32.7302 39.9408Z" fill="#FC5A95"/>
<path d="M9.44213 47.7506H6.42689C5.96107 47.7506 5.5835 47.373 5.5835 46.9072V43.892C5.5835 43.4262 5.96107 43.0486 6.42689 43.0486H9.44213C9.90795 43.0486 10.2855 43.4262 10.2855 43.892V46.9072C10.2855 47.373 9.90795 47.7506 9.44213 47.7506Z" fill="#EAF6FF"/>
<path d="M17.2048 47.7506H14.1896C13.7238 47.7506 13.3462 47.373 13.3462 46.9072V43.892C13.3462 43.4262 13.7238 43.0486 14.1896 43.0486H17.2048C17.6706 43.0486 18.0482 43.4262 18.0482 43.892V46.9072C18.0482 47.373 17.6706 47.7506 17.2048 47.7506Z" fill="#EAF6FF"/>
<path d="M24.9675 47.7506H21.9523C21.4865 47.7506 21.1089 47.373 21.1089 46.9072V43.892C21.1089 43.4262 21.4865 43.0486 21.9523 43.0486H24.9675C25.4333 43.0486 25.8109 43.4262 25.8109 43.892V46.9072C25.8109 47.373 25.4333 47.7506 24.9675 47.7506Z" fill="#EAF6FF"/>
<path d="M32.7302 47.7506H29.715C29.2492 47.7506 28.8716 47.373 28.8716 46.9072V43.892C28.8716 43.4262 29.2492 43.0486 29.715 43.0486H32.7302C33.196 43.0486 33.5736 43.4262 33.5736 43.892V46.9072C33.5735 47.373 33.1959 47.7506 32.7302 47.7506Z" fill="#27D1B3"/>
</g>
<defs>
<clipPath id="clip0_128_2765">
<rect width="60" height="60" fill="white"/>
</clipPath>
</defs>
</svg>
