<svg width="60" height="60" viewBox="0 0 60 60" fill="none" xmlns="http://www.w3.org/2000/svg">
<path d="M28.1158 6.5625C27.1213 6.5625 26.1675 6.95766 25.4642 7.6609L15.3125 17.8125V27.1875H43.4375C46.5442 27.1875 49.0625 24.6691 49.0625 21.5625H52.8125V6.5625H28.1158Z" fill="#F0915A"/>
<path d="M58.4375 24.375V3.75H55.625C54.0717 3.75 52.8125 5.00918 52.8125 6.5625V21.5625C52.8125 23.1158 54.0717 24.375 55.625 24.375H58.4375Z" fill="#555A6E"/>
<path d="M55.625 15.9375V24.375H58.4375V14.0625H57.5C56.4644 14.0625 55.625 14.902 55.625 15.9375Z" fill="#463C4B"/>
<path d="M50.9375 32.8125V13.125C50.9375 12.0894 50.0981 11.25 49.0625 11.25H11.5625C10.5269 11.25 9.6875 12.0894 9.6875 13.125V32.8125C9.6875 33.8481 10.5269 34.6875 11.5625 34.6875H49.0625C50.098 34.6875 50.9375 33.8481 50.9375 32.8125Z" fill="#78AF41"/>
<path d="M12.5 28.125V17.8125C12.5 17.2948 12.9198 16.875 13.4375 16.875C14.4731 16.875 15.3125 16.0356 15.3125 15C15.3125 14.4823 15.7323 14.0625 16.25 14.0625H44.375C44.8927 14.0625 45.3125 14.4823 45.3125 15C45.3125 16.0356 46.1519 16.875 47.1875 16.875C47.7052 16.875 48.125 17.2948 48.125 17.8125V28.125C48.125 28.6427 47.7052 29.0625 47.1875 29.0625C46.1519 29.0625 45.3125 29.9019 45.3125 30.9375C45.3125 31.4552 44.8927 31.875 44.375 31.875H16.25C15.7323 31.875 15.3125 31.4552 15.3125 30.9375C15.3125 29.9019 14.4731 29.0625 13.4375 29.0625C12.9196 29.0625 12.5 28.6427 12.5 28.125Z" fill="#466932"/>
<path d="M30.3125 30C34.1958 30 37.3438 26.852 37.3438 22.9688C37.3438 19.0855 34.1958 15.9375 30.3125 15.9375C26.4292 15.9375 23.2812 19.0855 23.2812 22.9688C23.2812 26.852 26.4292 30 30.3125 30Z" fill="#78AF41"/>
<path d="M32.9644 7.6609L24.1385 16.4868C23.4063 17.2189 23.4063 18.4062 24.1385 19.1384L24.4602 19.46C26.6569 21.6567 30.2184 21.6567 32.4151 19.46L35.9378 15.9375H43.4378C46.5444 15.9375 49.0628 13.4191 49.0628 10.3125V6.5625H35.6161C34.6215 6.5625 33.6676 6.95766 32.9644 7.6609Z" fill="#FAB991"/>
<path d="M24.375 16.2501C25.4968 17.3719 27.3157 17.3719 28.4375 16.2501C28.6964 15.9912 28.6964 15.5715 28.4375 15.3126L26.8751 13.7501L24.375 16.2501Z" fill="#F0915A"/>
<path d="M30.3125 39.375H21.8659C20.8713 39.375 19.9175 39.77 19.2143 40.4734L15 44.6875L20.3126 49.9999L22.8884 47.4241C23.24 47.0725 23.7169 46.875 24.2142 46.875H30.3125C32.3836 46.875 34.0625 45.1961 34.0625 43.125C34.0625 41.0539 32.3836 39.375 30.3125 39.375Z" fill="#FAB991"/>
<path d="M47.3013 39.2612C46.2029 38.1629 44.4222 38.1629 43.3238 39.2612L35.71 46.875H24.2141C23.7169 46.875 23.24 47.0726 22.8883 47.4242L20.3125 49.9999L24.375 54.0625L25.9375 52.5H36.8751C37.621 52.5 38.3363 52.2036 38.8638 51.6763L47.3013 43.2388C48.3995 42.1404 48.3995 40.3596 47.3013 39.2612Z" fill="#F0915A"/>
<path d="M24.0625 56.25H1.5625L13.3996 44.4129C13.7657 44.0468 14.3594 44.0468 14.7255 44.4129L24.6496 54.337C25.0157 54.7031 25.0157 55.2968 24.6496 55.6629L24.0625 56.25Z" fill="#555A6E"/>
<path d="M20.3125 50L14.0625 56.25H24.0625L24.6496 55.6629C25.0157 55.2968 25.0157 54.7031 24.6496 54.337L20.3125 50Z" fill="#463C4B"/>
<path d="M30.3125 45H29.375C28.8573 45 28.4375 44.5802 28.4375 44.0625V42.1875C28.4375 41.6698 28.8573 41.25 29.375 41.25H30.3125C31.3481 41.25 32.1875 42.0894 32.1875 43.125C32.1875 44.1605 31.348 45 30.3125 45Z" fill="#F0915A"/>
</svg>
