<svg width="44" height="60" viewBox="0 0 44 60" fill="none" xmlns="http://www.w3.org/2000/svg">
<path d="M36.4825 0H7.51702C5.80304 0 4.41357 1.38946 4.41357 3.10345V51.7241C4.41357 53.4381 5.80304 54.8276 7.51702 54.8276H36.4825C38.1965 54.8276 39.586 53.4381 39.586 51.7241V3.10345C39.586 1.38946 38.1965 0 36.4825 0Z" fill="#B0D3F0"/>
<path fill-rule="evenodd" clip-rule="evenodd" d="M27.4724 36.2069H40.6207C42.3347 36.2069 43.7241 34.8175 43.7241 33.1035V11.3793C43.7241 9.66534 42.3347 8.27588 40.6207 8.27588H3.37933C1.66534 8.27588 0.275879 9.66534 0.275879 11.3793V33.1035C0.275879 34.8175 1.66534 36.2069 3.37933 36.2069H27.4724Z" fill="#3B97D3"/>
<path d="M22 50.6897C26.5706 50.6897 30.2758 46.9844 30.2758 42.4138C30.2758 37.8432 26.5706 34.1379 22 34.1379C17.4293 34.1379 13.7241 37.8432 13.7241 42.4138C13.7241 46.9844 17.4293 50.6897 22 50.6897Z" fill="#4FBA6F"/>
<path fill-rule="evenodd" clip-rule="evenodd" d="M39.586 51.7241V56.8965C39.586 58.6105 38.1965 60 36.4825 60H7.51702C5.80304 60 4.41357 58.6105 4.41357 56.8965V51.7241C4.41357 53.4381 5.80304 54.8276 7.51702 54.8276H36.4825C38.1965 54.8276 39.586 53.4381 39.586 51.7241Z" fill="#547580"/>
<path fill-rule="evenodd" clip-rule="evenodd" d="M19.9313 46.5517C19.6568 46.5524 19.3934 46.4433 19.1999 46.2486L18.1654 45.2141C17.7734 44.8082 17.779 44.163 18.178 43.764C18.577 43.3649 19.2222 43.3593 19.6282 43.7514L19.8619 43.9852L24.3102 38.6472C24.5471 38.363 24.9177 38.2268 25.2822 38.2898C25.6468 38.3529 25.9501 38.6057 26.0778 38.9529C26.2054 39.3002 26.1382 39.6892 25.9013 39.9734L20.7288 46.1803C20.5418 46.4029 20.2703 46.5371 19.9799 46.5507L19.9313 46.5517Z" fill="#ECF0F1"/>
<path fill-rule="evenodd" clip-rule="evenodd" d="M32.3449 0L29.3853 3.15724C28.7984 3.78309 27.9787 4.13809 27.1208 4.13793H16.8794C16.0215 4.13809 15.2018 3.78309 14.6149 3.15724L11.6553 0H32.3449Z" fill="#547580"/>
<path d="M11.6553 13.4482H7.51739C6.94606 13.4482 6.48291 13.9114 6.48291 14.4827V18.6207C6.48291 19.192 6.94606 19.6551 7.51739 19.6551H11.6553C12.2267 19.6551 12.6898 19.192 12.6898 18.6207V14.4827C12.6898 13.9114 12.2267 13.4482 11.6553 13.4482Z" fill="#F0C419"/>
<path fill-rule="evenodd" clip-rule="evenodd" d="M10.6207 25.8621H6.48273C5.9114 25.8621 5.44824 25.3989 5.44824 24.8276C5.44824 24.2562 5.9114 23.7931 6.48273 23.7931H10.6207C11.192 23.7931 11.6551 24.2562 11.6551 24.8276C11.6551 25.3989 11.192 25.8621 10.6207 25.8621Z" fill="#BDC3C7"/>
<path fill-rule="evenodd" clip-rule="evenodd" d="M25.1034 31.0344H6.48272C5.9114 31.0344 5.44824 30.5713 5.44824 29.9999C5.44824 29.4286 5.9114 28.9655 6.48272 28.9655H25.1034C25.6747 28.9655 26.1379 29.4286 26.1379 29.9999C26.1379 30.5713 25.6747 31.0344 25.1034 31.0344Z" fill="#BDC3C7"/>
<path fill-rule="evenodd" clip-rule="evenodd" d="M18.8965 25.8621H14.7586C14.1873 25.8621 13.7241 25.3989 13.7241 24.8276C13.7241 24.2562 14.1873 23.7931 14.7586 23.7931H18.8965C19.4679 23.7931 19.931 24.2562 19.931 24.8276C19.931 25.3989 19.4679 25.8621 18.8965 25.8621Z" fill="#BDC3C7"/>
<path fill-rule="evenodd" clip-rule="evenodd" d="M27.1724 25.8621H23.0345C22.4632 25.8621 22 25.3989 22 24.8276C22 24.2562 22.4632 23.7931 23.0345 23.7931H27.1724C27.7437 23.7931 28.2069 24.2562 28.2069 24.8276C28.2069 25.3989 27.7437 25.8621 27.1724 25.8621Z" fill="#BDC3C7"/>
<path fill-rule="evenodd" clip-rule="evenodd" d="M35.4483 25.8621H31.3104C30.739 25.8621 30.2759 25.3989 30.2759 24.8276C30.2759 24.2562 30.739 23.7931 31.3104 23.7931H35.4483C36.0196 23.7931 36.4828 24.2562 36.4828 24.8276C36.4828 25.3989 36.0196 25.8621 35.4483 25.8621Z" fill="#BDC3C7"/>
<path fill-rule="evenodd" clip-rule="evenodd" d="M28.2068 14.4828H25.1033C24.532 14.4828 24.0688 14.0196 24.0688 13.4483C24.0688 12.877 24.532 12.4138 25.1033 12.4138H28.2068C28.7781 12.4138 29.2413 12.877 29.2413 13.4483C29.2413 14.0196 28.7781 14.4828 28.2068 14.4828Z" fill="#2980BA"/>
<path fill-rule="evenodd" clip-rule="evenodd" d="M38.5519 14.4828H32.345C31.7737 14.4828 31.3105 14.0196 31.3105 13.4483C31.3105 12.877 31.7737 12.4138 32.345 12.4138H38.5519C39.1232 12.4138 39.5864 12.877 39.5864 13.4483C39.5864 14.0196 39.1232 14.4828 38.5519 14.4828Z" fill="#2980BA"/>
</svg>
