<svg width="15" height="25" viewBox="0 0 15 25" fill="none" xmlns="http://www.w3.org/2000/svg">
<path d="M12.1875 0.390625H2.8125C2.29468 0.391207 1.79823 0.597168 1.43207 0.963324C1.06592 1.32948 0.859957 1.82593 0.859375 2.34375V22.6562C0.859957 23.1741 1.06592 23.6705 1.43207 24.0367C1.79823 24.4028 2.29468 24.6088 2.8125 24.6094H12.1875C12.7053 24.6088 13.2018 24.4028 13.5679 24.0367C13.9341 23.6705 14.14 23.1741 14.1406 22.6562V2.34375C14.14 1.82593 13.9341 1.32948 13.5679 0.963324C13.2018 0.597168 12.7053 0.391207 12.1875 0.390625V0.390625ZM10.1485 1.17188L9.91416 2.34375H5.08589L4.85151 1.17188H10.1485ZM13.3594 22.6562C13.359 22.9669 13.2354 23.2648 13.0158 23.4845C12.7961 23.7042 12.4982 23.8278 12.1875 23.8281H2.8125C2.50181 23.8278 2.20394 23.7042 1.98424 23.4845C1.76455 23.2648 1.64097 22.9669 1.64062 22.6562V2.34375C1.64097 2.03306 1.76455 1.73519 1.98424 1.51549C2.20394 1.2958 2.50181 1.17222 2.8125 1.17188H4.05474L4.38257 2.81099C4.40028 2.89954 4.44812 2.97922 4.51796 3.03647C4.5878 3.09372 4.67532 3.125 4.76562 3.125H10.2344C10.3247 3.125 10.4122 3.09372 10.482 3.03647C10.5519 2.97922 10.5997 2.89954 10.6174 2.81099L10.9453 1.17188H12.1875C12.4982 1.17222 12.7961 1.2958 13.0158 1.51549C13.2354 1.73519 13.359 2.03306 13.3594 2.34375V22.6562Z" fill="#CD2C31"/>
</svg>
