<svg width="80" height="80" viewBox="0 0 80 80" fill="none" xmlns="http://www.w3.org/2000/svg">
<g clip-path="url(#clip0_317_8439)">
<path d="M5.51724 0H38.6207C41.6676 0 44.1379 2.47037 44.1379 5.51724V74.4828C44.1379 77.5296 41.6676 80 38.6207 80H5.51724C2.47037 80 0 77.5296 0 74.4828V5.51724C0 2.47037 2.47037 0 5.51724 0Z" fill="#C2DFF6"/>
<path d="M4.1377 64.8276H39.9998V67.5863H4.1377V64.8276Z" fill="#F1F2F2"/>
<path d="M0 45.5171V74.4826C0 77.5295 2.47037 79.9999 5.51724 79.9999H28.9655C12.956 79.9999 0 64.5762 0 45.5171Z" fill="#96C8EF"/>
<path d="M12.4139 5.51724H31.7242C33.2477 5.51724 34.4829 4.28206 34.4829 2.75862V0H9.65527V2.75862C9.65527 4.28206 10.8905 5.51724 12.4139 5.51724Z" fill="#58595B"/>
<path d="M19.3105 22.3105C19.3105 20.6537 20.6537 19.3105 22.3105 19.3105H77.0002C78.6571 19.3105 80.0002 20.6537 80.0002 22.3105V35.6209C80.0002 37.2777 78.6571 38.6209 77.0002 38.6209H22.3105C20.6537 38.6209 19.3105 37.2777 19.3105 35.6209V22.3105Z" fill="#EFEFEF"/>
<path d="M24.8774 32.9189L27.5861 31.3544V34.4827H30.3448V31.3544L33.0535 32.9189L34.4329 30.5293L31.7241 28.9655L34.4329 27.4016L33.0535 25.0121L30.3448 26.5766V23.4482H27.5861V26.5766L24.8774 25.0121L23.498 27.4016L26.2068 28.9655L23.498 30.5293L24.8774 32.9189Z" fill="#CD2D31"/>
<path d="M38.6703 32.9189L41.3791 31.3544V34.4827H44.1377V31.3544L46.8465 32.9189L48.2258 30.5293L45.517 28.9655L48.2258 27.4016L46.8465 25.0121L44.1377 26.5766V23.4482H41.3791V26.5766L38.6703 25.0121L37.291 27.4016L39.9998 28.9655L37.291 30.5293L38.6703 32.9189Z" fill="#CD2D31"/>
<path d="M52.4638 32.9189L55.1726 31.3544V34.4827H57.9312V31.3544L60.64 32.9189L62.0193 30.5293L59.3105 28.9655L62.0193 27.4016L60.64 25.0121L57.9312 26.5766V23.4482H55.1726V26.5766L52.4638 25.0121L51.0845 27.4016L53.7933 28.9655L51.0845 30.5293L52.4638 32.9189Z" fill="#CD2D31"/>
<path d="M66.2568 32.9189L68.9655 31.3544V34.4827H71.7242V31.3544L74.4329 32.9189L75.8122 30.5293L73.1035 28.9655L75.8122 27.4016L74.4329 25.0121L71.7242 26.5766V23.4482H68.9655V26.5766L66.2568 25.0121L64.8774 27.4016L67.5862 28.9655L64.8774 30.5293L66.2568 32.9189Z" fill="#CD2D31"/>
<path d="M24.8278 73.1033C24.8278 74.6268 23.5926 75.862 22.0692 75.862C20.5457 75.862 19.3105 74.6268 19.3105 73.1033C19.3105 71.5799 20.5457 70.3447 22.0692 70.3447C23.5926 70.3447 24.8278 71.5799 24.8278 73.1033Z" fill="#58595B"/>
</g>
<defs>
<clipPath id="clip0_317_8439">
<rect width="80" height="80" fill="white"/>
</clipPath>
</defs>
</svg>
