<svg width="203" height="60" viewBox="0 0 203 60" fill="none" xmlns="http://www.w3.org/2000/svg">
<g clip-path="url(#clip0_9_130)">
<path d="M195 0H7.5C3.35786 0 0 3.35786 0 7.5V52.5C0 56.6421 3.35786 60 7.5 60H195C199.142 60 202.5 56.6421 202.5 52.5V7.5C202.5 3.35786 199.142 0 195 0Z" fill="black"/>
<path d="M71.1299 15.3598C71.1809 16.4713 70.7744 17.5558 70.0049 18.3598C69.1439 19.2538 67.9439 19.7383 66.7049 19.6948C64.8029 19.6798 63.0959 18.5263 62.3729 16.7683C61.6499 15.0103 62.0504 12.9883 63.3899 11.6398C64.2614 10.7503 65.4614 10.2628 66.7049 10.2898C67.3394 10.2883 67.9664 10.4158 68.5499 10.6648C69.0929 10.8838 69.5759 11.2288 69.9599 11.6698L69.1649 12.4648C68.5574 11.7433 67.6469 11.3488 66.7049 11.3998C65.7584 11.3953 64.8509 11.7763 64.1909 12.4558C63.5309 13.1353 63.1769 14.0533 63.2099 14.9998C63.1904 16.4293 64.0319 17.7313 65.3444 18.2983C66.6569 18.8653 68.1824 18.5878 69.2099 17.5948C69.6719 17.0953 69.9374 16.4458 69.9599 15.7648H66.7049V14.6848H71.0699C71.1104 14.9083 71.1299 15.1333 71.1299 15.3598ZM77.9999 11.6098H73.9499V14.4598H77.6399V15.5398H73.9499V18.3898H77.9999V19.4998H72.7499V10.4998H77.9999V11.6098ZM82.9199 19.4998H81.7649V11.6098H79.2449V10.4998H85.4999V11.6098H82.9199V19.4998ZM89.9099 19.4998V10.4998H91.0649V19.4998H89.9099ZM96.1949 19.4998H95.0399V11.6098H92.5199V10.4998H98.6999V11.6098H96.1949V19.4998ZM110.415 18.3298C108.589 20.1448 105.64 20.1448 103.815 18.3298C102.045 16.4563 102.045 13.5283 103.815 11.6548C104.688 10.7758 105.876 10.2808 107.115 10.2808C108.354 10.2808 109.542 10.7758 110.415 11.6548C112.192 13.5253 112.192 16.4593 110.415 18.3298ZM104.67 17.5798C106.021 18.9268 108.208 18.9268 109.56 17.5798C110.887 16.1158 110.887 13.8838 109.56 12.4198C108.208 11.0728 106.021 11.0728 104.67 12.4198C103.342 13.8838 103.342 16.1158 104.67 17.5798ZM113.37 19.4998V10.4998H114.78L119.16 17.5048V10.4998H120.315V19.4998H119.115L114.54 12.1648V19.4998H113.37Z" fill="white" stroke="white" stroke-width="0.2"/>
<path d="M102.21 32.6252C98.6925 32.6417 95.8545 35.5037 95.865 39.0197C95.8755 42.5372 98.733 45.3797 102.25 45.3752C105.768 45.3692 108.615 42.5177 108.615 39.0002C108.639 37.2962 107.971 35.6567 106.764 34.4552C105.556 33.2537 103.912 32.5937 102.21 32.6252ZM102.21 42.8702C100.624 42.9812 99.1335 42.1112 98.448 40.6772C97.7625 39.2432 98.0235 37.5362 99.1065 36.3737C100.189 35.2097 101.872 34.8272 103.351 35.4062C104.83 35.9852 105.805 37.4117 105.81 39.0002C105.859 39.9947 105.504 40.9652 104.826 41.6942C104.148 42.4232 103.204 42.8462 102.21 42.8702ZM88.245 32.6252C84.726 32.6342 81.879 35.4917 81.885 39.0107C81.891 42.5297 84.7455 45.3782 88.2645 45.3752C91.7835 45.3722 94.635 42.5192 94.635 39.0002C94.659 37.2962 93.9915 35.6567 92.784 34.4552C91.5765 33.2537 89.9325 32.5937 88.23 32.6252H88.245ZM88.245 42.8702C86.6595 42.9872 85.1625 42.1217 84.4725 40.6892C83.7825 39.2567 84.039 37.5467 85.1205 36.3812C86.2005 35.2142 87.885 34.8272 89.367 35.4062C90.849 35.9852 91.8255 37.4102 91.83 39.0002C91.8795 39.9947 91.524 40.9652 90.846 41.6942C90.168 42.4232 89.2245 42.8462 88.23 42.8702H88.245ZM71.61 34.5902V37.2902H78.09C77.988 38.5622 77.46 39.7622 76.59 40.6952C75.279 42.0302 73.4655 42.7502 71.595 42.6752C67.6185 42.6752 64.395 39.4517 64.395 35.4752C64.395 31.4987 67.6185 28.2752 71.595 28.2752C73.422 28.2452 75.186 28.9412 76.5 30.2102L78.405 28.3052C76.6125 26.4902 74.1615 25.4777 71.61 25.5002C67.9785 25.3592 64.56 27.2162 62.703 30.3392C60.8445 33.4622 60.8445 37.3532 62.703 40.4762C64.5615 43.5992 67.9785 45.4562 71.61 45.3152C74.208 45.4322 76.7295 44.4212 78.525 42.5402C80.097 40.8137 80.9355 38.5442 80.865 36.2102C80.8695 35.6417 80.82 35.0747 80.715 34.5152L71.61 34.5902ZM139.575 36.6902C138.774 34.3337 136.602 32.7167 134.115 32.6252C132.456 32.6222 130.87 33.3047 129.733 34.5137C128.596 35.7212 128.011 37.3457 128.115 39.0002C128.077 40.6937 128.731 42.3302 129.925 43.5332C131.119 44.7362 132.751 45.4007 134.445 45.3752C136.576 45.3872 138.571 44.3267 139.755 42.5552L137.58 41.0552C136.92 42.1562 135.729 42.8282 134.445 42.8252C133.116 42.8762 131.89 42.1082 131.355 40.8902L139.89 37.3652L139.575 36.6902ZM130.875 38.8202C130.813 37.8827 131.131 36.9602 131.758 36.2612C132.385 35.5607 133.266 35.1437 134.205 35.1002C135.193 35.0357 136.126 35.5667 136.575 36.4502L130.875 38.8202ZM123.945 45.0002H126.75V26.2502H123.945V45.0002ZM119.355 34.0502H119.25C118.395 33.0947 117.172 32.5487 115.89 32.5502C112.485 32.7152 109.809 35.5232 109.809 38.9327C109.809 42.3422 112.485 45.1502 115.89 45.3152C117.177 45.3362 118.407 44.7872 119.25 43.8152H119.34V44.7302C119.34 47.1752 118.035 48.4802 115.935 48.4802C114.504 48.4472 113.236 47.5517 112.725 46.2152L110.28 47.2352C111.222 49.5257 113.458 51.0152 115.935 51.0002C119.22 51.0002 121.935 49.0652 121.935 44.3552V33.0002H119.355V34.0502ZM116.145 42.8702C114.139 42.6932 112.6 41.0132 112.6 39.0002C112.6 36.9872 114.139 35.3072 116.145 35.1302C117.114 35.1797 118.021 35.6192 118.663 36.3467C119.304 37.0757 119.625 38.0312 119.55 39.0002C119.632 39.9722 119.314 40.9352 118.668 41.6672C118.021 42.3977 117.105 42.8327 116.13 42.8702H116.145ZM152.715 26.2502H146.01V45.0002H148.815V37.8902H152.73C154.909 38.0462 156.993 36.9737 158.13 35.1077C159.267 33.2417 159.267 30.8987 158.13 29.0327C156.993 27.1667 154.909 26.0942 152.73 26.2502H152.715ZM152.715 35.2502H148.8V28.8602H152.775C154.552 28.8602 155.992 30.3002 155.992 32.0777C155.992 33.8552 154.552 35.2952 152.775 35.2952L152.715 35.2502ZM170.01 32.5502C167.923 32.4257 165.961 33.5507 165.015 35.4152L167.505 36.4502C168.006 35.5262 169.006 34.9847 170.055 35.0702C170.775 34.9862 171.496 35.1947 172.062 35.6492C172.626 36.1037 172.984 36.7652 173.055 37.4852V37.6802C172.153 37.2032 171.15 36.9557 170.13 36.9602C167.445 36.9602 164.73 38.4602 164.73 41.1752C164.784 42.3452 165.307 43.4432 166.183 44.2202C167.059 44.9972 168.211 45.3872 169.38 45.3002C170.818 45.4037 172.2 44.7137 172.98 43.5002H173.07V45.0002H175.77V37.7852C175.77 34.5002 173.28 32.5952 170.085 32.5952L170.01 32.5502ZM169.665 42.8252C168.75 42.8252 167.475 42.3602 167.475 41.2352C167.475 39.7352 169.065 39.2402 170.475 39.2402C171.366 39.2177 172.246 39.4352 173.025 39.8702C172.831 41.5487 171.43 42.8297 169.74 42.8702L169.665 42.8252ZM185.61 33.0002L182.4 41.1302H182.31L178.98 33.0002H175.98L180.975 44.3702L178.125 50.6852H181.05L188.73 33.0002H185.61ZM160.395 45.0002H163.2V26.2502H160.395V45.0002Z" fill="white"/>
<path d="M15.66 11.3101C15.171 11.8966 14.925 12.6481 14.97 13.4101V46.5901C14.925 47.3521 15.171 48.1036 15.66 48.6901L15.765 48.7951L34.35 30.2251V29.7901L15.765 11.2051L15.66 11.3101Z" fill="url(#paint0_linear_9_130)"/>
<path d="M40.5 36.4201L34.35 30.2251V29.7901L40.5 23.5801L40.635 23.6551L48 27.8401C50.1 29.0251 50.1 30.9751 48 32.1751L40.665 36.3451L40.5 36.4201Z" fill="url(#paint1_linear_9_130)"/>
<path d="M40.68 36.33L34.35 30L15.66 48.69C16.5435 49.467 17.853 49.5045 18.78 48.78L40.695 36.33" fill="url(#paint2_linear_9_130)"/>
<path d="M40.68 23.6698L18.765 11.2198C17.838 10.4953 16.5285 10.5328 15.645 11.3098L34.35 29.9998L40.68 23.6698Z" fill="url(#paint3_linear_9_130)"/>
<path opacity="0.2" d="M40.5 36.1948L18.765 48.5698C17.8755 49.2343 16.6545 49.2343 15.765 48.5698L15.66 48.6748L15.765 48.7798C16.653 49.4503 17.877 49.4503 18.765 48.7798L40.68 36.3298L40.5 36.1948Z" fill="black"/>
<path opacity="0.12" d="M15.66 48.48C15.171 47.8935 14.925 47.142 14.97 46.38V46.605C14.925 47.367 15.171 48.1185 15.66 48.705L15.765 48.6L15.66 48.48ZM48 31.95L40.5 36.195L40.635 36.33L48 32.16C48.8505 31.761 49.422 30.936 49.5 30C49.329 30.8475 48.7755 31.5675 48 31.95Z" fill="black"/>
<path opacity="0.25" d="M18.765 11.4302L48 28.0501C48.7755 28.4326 49.329 29.1526 49.5 30.0001C49.422 29.0641 48.8505 28.2391 48 27.8401L18.765 11.2201C16.665 10.0351 14.955 11.0252 14.955 13.4252V13.6502C15 11.2352 16.68 10.2452 18.765 11.4302Z" fill="white"/>
</g>
<defs>
<linearGradient id="paint0_linear_9_130" x1="26.7963" y1="13.065" x2="10.8644" y2="28.9969" gradientUnits="userSpaceOnUse">
<stop stop-color="#00A0FF"/>
<stop offset="0.01" stop-color="#00A1FF"/>
<stop offset="0.26" stop-color="#00BEFF"/>
<stop offset="0.51" stop-color="#00D2FF"/>
<stop offset="0.76" stop-color="#00DFFF"/>
<stop offset="1" stop-color="#00E3FF"/>
</linearGradient>
<linearGradient id="paint1_linear_9_130" x1="50.745" y1="30.0001" x2="14.46" y2="30.0001" gradientUnits="userSpaceOnUse">
<stop stop-color="#FFE000"/>
<stop offset="0.41" stop-color="#FFBD00"/>
<stop offset="0.78" stop-color="#FFA500"/>
<stop offset="1" stop-color="#FF9C00"/>
</linearGradient>
<linearGradient id="paint2_linear_9_130" x1="37.245" y1="35.9655" x2="10.0278" y2="63.1704" gradientUnits="userSpaceOnUse">
<stop stop-color="#FF3A44"/>
<stop offset="1" stop-color="#C31162"/>
</linearGradient>
<linearGradient id="paint3_linear_9_130" x1="10.95" y1="8.41722" x2="23.0983" y2="20.5654" gradientUnits="userSpaceOnUse">
<stop stop-color="#32A071"/>
<stop offset="0.07" stop-color="#2DA771"/>
<stop offset="0.48" stop-color="#15CF74"/>
<stop offset="0.8" stop-color="#06E775"/>
<stop offset="1" stop-color="#00F076"/>
</linearGradient>
<clipPath id="clip0_9_130">
<rect width="202.5" height="60" fill="white"/>
</clipPath>
</defs>
</svg>
