<svg width="20" height="25" viewBox="0 0 20 25" fill="none" xmlns="http://www.w3.org/2000/svg">
<path d="M20 25H18.75V19.375C18.75 18.5462 18.4208 17.7514 17.8347 17.1653C17.2486 16.5793 16.4538 16.25 15.625 16.25H4.375C3.5462 16.25 2.75134 16.5793 2.16529 17.1653C1.57924 17.7514 1.25 18.5462 1.25 19.375V25H0V19.375C0 18.2147 0.460936 17.1019 1.28141 16.2814C2.10188 15.461 3.21468 15 4.375 15H15.625C16.7853 15 17.8981 15.461 18.7186 16.2814C19.5391 17.1019 20 18.2147 20 19.375V25Z" fill="#CD2C31"/>
<path d="M10 13.75C8.64026 13.75 7.31105 13.3468 6.18046 12.5914C5.04987 11.8359 4.16868 10.7622 3.64833 9.50595C3.12798 8.24971 2.99183 6.86738 3.2571 5.53376C3.52238 4.20014 4.17716 2.97513 5.13864 2.01364C6.10013 1.05216 7.32514 0.397378 8.65876 0.132104C9.99238 -0.133169 11.3747 0.00297885 12.631 0.523331C13.8872 1.04368 14.9609 1.92487 15.7164 3.05546C16.4718 4.18605 16.875 5.51526 16.875 6.875C16.875 8.69837 16.1507 10.4471 14.8614 11.7364C13.5721 13.0257 11.8234 13.75 10 13.75ZM10 1.25C8.88748 1.25 7.79995 1.5799 6.87492 2.19799C5.94989 2.81607 5.22892 3.69458 4.80318 4.72241C4.37744 5.75024 4.26604 6.88124 4.48309 7.97239C4.70013 9.06353 5.23586 10.0658 6.02253 10.8525C6.8092 11.6392 7.81148 12.1749 8.90262 12.3919C9.99376 12.609 11.1248 12.4976 12.1526 12.0718C13.1804 11.6461 14.0589 10.9251 14.677 10.0001C15.2951 9.07506 15.625 7.98752 15.625 6.875C15.625 5.38316 15.0324 3.95242 13.9775 2.89753C12.9226 1.84264 11.4918 1.25 10 1.25Z" fill="#CD2C31"/>
</svg>
