<svg width="70" height="70" viewBox="0 0 70 70" fill="none" xmlns="http://www.w3.org/2000/svg">
<g clip-path="url(#clip0_119_1138)">
<path d="M62.6856 42.6436H61.204L54.8864 44.2173L50.1226 51.8934V52.5859C50.3089 57.9135 54.6838 62.176 60.0568 62.176C65.5483 62.176 70 57.7243 70 52.2329C70 47.6517 66.901 43.7966 62.6856 42.6436Z" fill="#8479C2"/>
<path d="M55.0045 52.2329C55.0045 47.6518 58.1035 43.7966 62.3188 42.6436H61.204L54.8864 44.2173L50.1226 51.8934V52.5859C50.3089 57.9135 54.6838 62.176 60.0568 62.176C60.9008 62.176 61.7199 62.0701 62.5023 61.8721C58.1933 60.7822 55.0045 56.8804 55.0045 52.2329Z" fill="#6E60B8"/>
<path d="M60.0567 57.4029C62.9122 57.4029 65.2271 55.088 65.2271 52.2324C65.2271 49.3769 62.9122 47.062 60.0567 47.062C57.2011 47.062 54.8862 49.3769 54.8862 52.2324C54.8862 55.088 57.2011 57.4029 60.0567 57.4029Z" fill="#DBEDFF"/>
<path d="M59.7682 52.2324C59.7682 50.2599 60.8731 48.5457 62.4976 47.674C61.7706 47.2838 60.9396 47.062 60.0567 47.062C57.2012 47.062 54.8862 49.3769 54.8862 52.2324C54.8862 55.088 57.2012 57.4029 60.0567 57.4029C60.9396 57.4029 61.7706 57.1811 62.4976 56.7909C60.8731 55.9191 59.7682 54.205 59.7682 52.2324Z" fill="#B5DCFF"/>
<path d="M67.8246 39.8314C65.0569 37.6722 61.7913 37.3032 59.8858 37.2495H59.5255L54.8862 43.9472L55.3144 44.5847L67.5129 41.3719C68.2156 41.187 68.3975 40.2784 67.8246 39.8314Z" fill="#FFC365"/>
<path d="M63.5012 37.7431C62.1125 37.3808 60.8314 37.2762 59.8858 37.2495H59.5255L54.8862 43.9472L55.3144 44.5847L59.5314 43.474L63.5012 37.7431Z" fill="#FFA90F"/>
<path d="M35.4311 30.4302H26.8752C25.3709 30.4302 24.1514 31.6497 24.1514 33.154V35.2994L24.913 36.1188H39.0444L40.3002 35.2994C40.3002 32.6102 38.1202 30.4302 35.4311 30.4302Z" fill="#938493"/>
<path d="M29.7645 33.154C29.7645 31.6497 30.984 30.4302 32.4883 30.4302H26.8752C25.3709 30.4302 24.1514 31.6497 24.1514 33.154V35.2994L24.913 36.1188H30.5262L29.7645 35.2994V33.154Z" fill="#7B6C79"/>
<path d="M24.6782 52.4097L21.8613 48.9591L10.2898 44.2173L9.10924 44.5829C6.91477 46.4067 5.51709 49.1563 5.51709 52.2327C5.51709 57.7241 9.96879 62.1758 15.4602 62.1758C20.3803 62.1758 24.4632 58.6013 25.26 53.9082L24.6782 52.4097Z" fill="#8479C2"/>
<path d="M10.399 52.2328C10.399 49.5779 11.4406 47.167 13.1363 45.3838L10.2898 44.2173L9.10924 44.5829C6.91477 46.4067 5.51709 49.1563 5.51709 52.2327C5.51709 57.7241 9.96879 62.1758 15.4602 62.1758C16.3016 62.1758 17.1177 62.0691 17.8979 61.8722C13.5886 60.7828 10.399 56.8807 10.399 52.2328Z" fill="#6E60B8"/>
<path d="M20.4712 50.9534C20.4685 50.9432 20.4657 50.9329 20.4631 50.9227C20.2497 50.1052 19.8416 49.3667 19.2909 48.7597L19.0153 48.2252L15.7406 46.9048L15.1734 47.0704C12.4514 47.2194 10.29 49.4733 10.29 52.2324C10.29 55.088 12.605 57.4029 15.4605 57.4029C18.316 57.4029 20.6309 55.088 20.6309 52.2324C20.6309 51.791 20.5753 51.3625 20.4712 50.9534Z" fill="#DBEDFF"/>
<path d="M15.172 52.2326C15.172 50.3032 16.2295 48.622 17.7959 47.7336L15.7406 46.9048L15.1734 47.0704C12.4514 47.2194 10.29 49.4733 10.29 52.2324C10.29 55.088 12.605 57.4029 15.4605 57.4029C16.3434 57.4029 17.1744 57.1811 17.9014 56.7909C16.277 55.9192 15.172 54.2052 15.172 52.2326Z" fill="#B5DCFF"/>
<path d="M24.1512 35.2995C23.3639 35.2995 22.6175 35.6496 22.1142 36.255L22.1 36.2722C21.5967 36.8776 20.8502 37.2277 20.063 37.2277H5.51709V41.7724C5.51709 42.5811 6.00572 43.3098 6.75385 43.6167L20.2569 49.1564C20.41 49.2193 20.565 49.2772 20.7198 49.3357L21.157 49.5226L26.0397 47.1986H32.495L33.0114 47.5038L33.2614 47.082V45.1688C33.2614 42.7056 34.5909 40.4342 36.7385 39.2281L39.2663 37.8084C39.9047 37.4498 40.3 36.7745 40.3 36.0421V35.2993H24.1512V35.2995Z" fill="#ED5469"/>
<path d="M24.5292 47.6626L11.0262 42.1229C10.2779 41.816 9.78941 41.0872 9.78941 40.2786V37.2275H5.51709V41.7722C5.51709 42.5809 6.00572 43.3096 6.75385 43.6165L20.2569 49.1562C20.41 49.2191 20.565 49.277 20.7198 49.3355L21.157 49.5224L24.8242 47.7769C24.7258 47.7393 24.6268 47.7027 24.5292 47.6626Z" fill="#E63850"/>
<path d="M18.8412 17.5728H12.4704L11.6562 18.1374H7.97658L7.44475 17.5728H1.07393C0.48084 17.5728 0 18.0536 0 18.6465V36.1537C0 36.7467 0.48084 37.2274 1.07393 37.2274H18.8412C19.4343 37.2274 19.915 36.7466 19.915 36.1537V18.6465C19.9151 18.0535 19.4343 17.5728 18.8412 17.5728Z" fill="#FFC365"/>
<path d="M4.65883 36.1537V18.6465C4.65883 18.0535 5.13967 17.5728 5.73275 17.5728H1.07393C0.48084 17.5728 0 18.0536 0 18.6465V36.1537C0 36.7467 0.48084 37.2274 1.07393 37.2274H5.73275C5.13967 37.2274 4.65883 36.7466 4.65883 36.1537Z" fill="#FFA90F"/>
<path d="M7.44482 17.5728V24.657C7.44482 25.0219 7.74055 25.3176 8.10545 25.3176H11.8097C12.1746 25.3176 12.4703 25.0217 12.4703 24.657V17.5728H7.44482Z" fill="#F27182"/>
<path d="M10.1679 24.657V17.5728H7.44482V24.657C7.44482 25.0219 7.74055 25.3176 8.10545 25.3176H10.8285C10.4636 25.3177 10.1679 25.0219 10.1679 24.657Z" fill="#ED5469"/>
<path d="M45.0004 50.9672H37.8282C36.144 50.9672 34.6264 49.9501 33.9863 48.3922L33.7094 47.7183C33.4385 47.0589 32.7962 46.6284 32.0832 46.6284H25.9565C25.6877 46.6284 25.4226 46.6901 25.1813 46.8085L21.5449 48.5946C20.8449 48.9384 20.4014 49.6503 20.4014 50.4302C20.4014 51.2401 20.8793 51.9737 21.6204 52.3009L25.2925 53.9225C27.0345 54.6917 28.7732 55.0891 30.6776 55.0891H45.0004L45.4057 54.6515V51.3064L45.0004 50.9672Z" fill="#FFC365"/>
<path d="M25.2564 52.7679C25.2564 51.9881 25.6999 51.2762 26.3999 50.9323L30.0362 49.1462C30.2774 49.0277 30.5426 48.9662 30.8114 48.9662H34.2765C34.1665 48.7843 34.0689 48.5931 33.9863 48.3922L33.7094 47.7183C33.4385 47.0589 32.7962 46.6284 32.0832 46.6284H25.9565C25.6877 46.6284 25.4226 46.6901 25.1813 46.8085L21.5449 48.5946C20.8449 48.9384 20.4014 49.6503 20.4014 50.4302C20.4014 51.2401 20.8793 51.9737 21.6204 52.3009L25.2925 53.9225C25.4515 53.9928 25.6106 54.0588 25.7698 54.1228C25.4456 53.7558 25.2564 53.2771 25.2564 52.7679Z" fill="#FFA90F"/>
<path d="M59.1432 33.7322L52.937 26.6909L52.4748 26.245L47.9942 24.8188L47.4451 24.9687C46.9468 25.3757 46.7462 26.0624 46.9737 26.6862L50.4055 36.0987C50.67 36.8243 50.6498 37.6231 50.3487 38.3342L45.001 50.9673V55.0892C47.2098 55.0892 49.2674 53.9674 50.4641 52.1109L59.474 38.1327C60.3608 36.7562 60.2242 34.9586 59.1432 33.7322Z" fill="#ED5469"/>
<path d="M49.0848 52.3442C49.0848 51.4354 49.2673 50.5361 49.6216 49.6992L54.4326 38.3342C54.7336 37.6231 54.7539 36.8243 54.4893 36.0987L51.0575 26.6862C50.948 26.3858 50.9387 26.0711 51.0131 25.7798L47.9937 24.8188L47.4446 24.9687C46.9463 25.3757 46.7457 26.0624 46.9732 26.6862L50.405 36.0987C50.6695 36.8243 50.6493 37.6231 50.3482 38.3342L45.0005 50.9673V55.0892C46.5078 55.0892 47.944 54.5661 49.085 53.6444V52.3442H49.0848Z" fill="#E63850"/>
<path d="M49.8943 21.659C49.3109 21.659 48.838 21.1861 48.838 20.6027V13.7678C48.838 12.9512 48.1737 12.2869 47.3572 12.2869H44.4186C43.8352 12.2869 43.3623 11.814 43.3623 11.2306C43.3623 10.6472 43.8352 10.1743 44.4186 10.1743H47.3572C49.3387 10.1743 50.9507 11.7865 50.9507 13.768V20.6028C50.9506 21.1861 50.4777 21.659 49.8943 21.659Z" fill="#B5DCFF"/>
<path d="M44.2775 14.6372C43.6941 14.6372 43.2212 14.1643 43.2212 13.5809V8.88051C43.2212 8.29699 43.6941 7.82422 44.2775 7.82422C44.8609 7.82422 45.3338 8.29713 45.3338 8.88051V13.5809C45.3339 14.1643 44.8609 14.6372 44.2775 14.6372Z" fill="#DBEDFF"/>
<path d="M56.3536 19.2893L54.5023 18.7314L54.1147 18.9942V25.4613L54.5023 25.7738L56.3536 25.2159C59.2897 24.3313 59.2897 20.1741 56.3536 19.2893Z" fill="#62DDFC"/>
<path d="M56.3536 22.5457L54.5023 23.1036L54.1147 22.7911V25.4615L54.5023 25.774L56.3536 25.2161C58.3555 24.6129 58.9912 22.4889 58.2632 20.9175C57.9236 21.6508 57.2878 22.2642 56.3536 22.5457Z" fill="#00C2FB"/>
<path d="M53.562 17.6263L48.0428 19.2895C47.7693 19.3719 47.5213 19.4829 47.2987 19.6168C47.4288 19.9195 47.3604 20.2525 47.3604 20.6028C47.3604 21.6615 46.8424 22.5644 45.9131 22.9293C46.1299 23.9408 46.8392 24.8535 48.0426 25.2161L53.5618 26.8793C54.0304 27.0205 54.5023 26.6697 54.5023 26.1804V18.325C54.5024 17.8357 54.0305 17.485 53.562 17.6263Z" fill="#FFC365"/>
<path d="M53.5618 23.3581L48.0426 21.6949C47.7562 21.6085 47.4986 21.4903 47.2681 21.3477C47.0812 22.0717 46.6145 22.6539 45.9131 22.9294C46.1299 23.9408 46.8392 24.8535 48.0426 25.2161L53.5618 26.8793C54.0304 27.0204 54.5023 26.6697 54.5023 26.1804V22.6592C54.5023 23.1485 54.0304 23.4992 53.5618 23.3581Z" fill="#FFA90F"/>
<path d="M45.6131 18.1021H44.3877C43.345 18.1021 42.4995 18.9474 42.4995 19.9901V21.2155C42.4995 22.2583 43.3448 23.1036 44.3877 23.1036H45.6131C46.6559 23.1036 47.5012 22.2583 47.5012 21.2155V19.9901C47.5012 18.9474 46.6559 18.1021 45.6131 18.1021Z" fill="#8479C2"/>
<path d="M44.9487 21.2152V19.9898C44.9487 19.1614 45.483 18.4594 46.225 18.2049C46.0329 18.139 45.8275 18.1016 45.6131 18.1016H44.3877C43.345 18.1016 42.4995 18.9469 42.4995 19.9897V21.2151C42.4995 22.2578 43.3448 23.1031 44.3877 23.1031H45.6131C45.8277 23.1031 46.0329 23.0657 46.225 22.9998C45.483 22.7456 44.9487 22.0436 44.9487 21.2152Z" fill="#6E60B8"/>
</g>
<defs>
<clipPath id="clip0_119_1138">
<rect width="70" height="70" fill="white"/>
</clipPath>
</defs>
</svg>
