<svg width="50" height="50" viewBox="0 0 50 50" fill="none" xmlns="http://www.w3.org/2000/svg">
<path d="M25 50.0001C38.8066 50.0001 49.999 38.8077 49.999 25.0012C49.999 11.1946 38.8066 0.00219727 25 0.00219727C11.1935 0.00219727 0.00105667 11.1946 0.00105667 25.0012C0.00105667 38.8077 11.1935 50.0001 25 50.0001Z" fill="#F3F2F2"/>
<path d="M18.5124 29.7967L20.4254 18.501H23.5223L21.6095 29.7967H18.5124Z" fill="#293688"/>
<path d="M32.6348 18.7929C32.0211 18.564 31.0595 18.3188 29.8586 18.3188C26.7978 18.3188 24.6418 19.8513 24.6233 22.0467C24.6063 23.6694 26.1623 24.5745 27.3379 25.1153C28.5433 25.6679 28.9488 26.0225 28.9428 26.5163C28.9354 27.2734 27.9797 27.6195 27.0892 27.6195C25.8498 27.6191 25.1909 27.4482 24.1737 27.0266L23.7746 26.8467L23.3396 29.3754C24.0632 29.6908 25.4013 29.9643 26.7903 29.9782C30.0457 29.9774 32.1599 28.464 32.1836 26.1189C32.1954 24.8341 31.3701 23.8562 29.5831 23.0498C28.5003 22.528 27.8372 22.1794 27.8443 21.6497C27.8443 21.1804 28.406 20.6783 29.6182 20.6783C30.6311 20.6625 31.3649 20.882 31.9369 21.111L32.214 21.2412L32.6348 18.7929Z" fill="#293688"/>
<path d="M37.9151 18.501C37.1731 18.501 36.637 18.7276 36.3109 19.463L31.7209 29.7971H35L35.6375 28.0661H39.5552L39.9192 29.7971H42.8343L40.284 18.5013H37.9152L37.9151 18.501ZM36.5075 25.8059C36.7633 25.1554 37.7411 22.6488 37.7411 22.6488C37.7233 22.6784 37.9956 21.9952 38.152 21.5712L38.3616 22.5446C38.3616 22.5446 38.954 25.241 39.0784 25.8062H36.5075V25.8059Z" fill="#293688"/>
<path d="M12.8646 26.244L12.5918 24.6955C12.0265 22.8904 10.2723 20.9373 8.3065 19.9587L11.0428 29.7967H14.3226L19.2414 18.501H15.9623L12.8646 26.244Z" fill="#293688"/>
<path d="M4.93955 18.5007V18.6831C8.82575 19.6178 11.5238 21.9808 12.5919 24.6954L11.4689 19.4647C11.2814 18.7499 10.7134 18.5256 10.0411 18.5008L4.93955 18.5007Z" fill="#F7981D"/>
<path d="M24.9983 49.9996C34.6472 49.9996 43.0136 44.5302 47.1808 36.5254H2.81627C6.98382 44.5302 15.3498 49.9996 24.9983 49.9996Z" fill="#F7981D"/>
<path d="M24.9983 0C15.5026 0 7.24354 5.29412 3.01165 13.0922H46.9858C42.7534 5.29454 34.494 0 24.9983 0Z" fill="#293688"/>
</svg>
